<?xml version="1.0" encoding="UTF-8"?>
<svg id="Layer_1" xmlns="http://www.w3.org/2000/svg" xmlns:xlink="http://www.w3.org/1999/xlink" viewBox="0 0 434.03 312.24">
  <defs>
    <style>
      .cls-1, .cls-2, .cls-3 {
        fill: #fff;
      }

      .cls-1, .cls-3, .cls-4 {
        stroke-width: 1.07px;
      }

      .cls-1, .cls-5, .cls-6, .cls-4 {
        stroke: #333;
      }

      .cls-1, .cls-7, .cls-6 {
        stroke-miterlimit: 10;
      }

      .cls-8 {
        fill: #010101;
        isolation: isolate;
      }

      .cls-8, .cls-9 {
        font-family: ArialMT, Arial;
        font-size: 16px;
      }

      .cls-10 {
        letter-spacing: -.02em;
      }

      .cls-3 {
        stroke: #fff;
      }

      .cls-3, .cls-5, .cls-11, .cls-12, .cls-4 {
        stroke-linejoin: round;
      }

      .cls-3, .cls-12 {
        stroke-linecap: round;
      }

      .cls-5, .cls-13, .cls-11, .cls-7, .cls-6, .cls-4 {
        fill: none;
      }

      .cls-5, .cls-11, .cls-6 {
        stroke-width: 2.13px;
      }

      .cls-14 {
        letter-spacing: -.06em;
      }

      .cls-15 {
        clip-path: url(#clippath-1);
      }

      .cls-9, .cls-16 {
        fill: #231f20;
      }

      .cls-17 {
        letter-spacing: -.02em;
      }

      .cls-11 {
        stroke: #010101;
      }

      .cls-16 {
        font-family: MyriadPro-Regular, 'Myriad Pro';
        font-size: 12px;
      }

      .cls-7 {
        stroke: #231f20;
      }

      .cls-18 {
        clip-path: url(#clippath-2);
      }

      .cls-12 {
        fill: rgba(1, 1, 1, .8);
        stroke: rgba(1, 1, 1, .8);
        stroke-width: .71px;
      }

      .cls-19 {
        clip-path: url(#clippath);
      }
    </style>
    <clipPath id="clippath">
      <rect class="cls-13" x="1.5" y=".75" width="432" height="310.96"/>
    </clipPath>
    <clipPath id="clippath-1">
      <rect class="cls-13" x="78.35" y="29.18" width="349.67" height="211.42"/>
    </clipPath>
    <clipPath id="clippath-2">
      <rect class="cls-13" x="1.5" y=".75" width="432" height="310.96"/>
    </clipPath>
  </defs>
  <g>
    <rect class="cls-2" x="1.5" y="23.7" width="432" height="288"/>
    <g class="cls-19">
      <rect class="cls-3" x="1.5" y=".75" width="432" height="310.96"/>
    </g>
    <g class="cls-15">
      <g>
        <rect class="cls-2" x="78.35" y="29.18" width="349.67" height="211.42"/>
        <line class="cls-4" x1="128.31" y1="174.73" x2="128.31" y2="165.5"/>
        <line class="cls-4" x1="128.31" y1="184.57" x2="128.31" y2="187.23"/>
        <polygon class="cls-1" points="103.33 174.73 103.33 184.57 153.28 184.57 153.28 174.73 103.33 174.73"/>
        <line class="cls-6" x1="103.33" y1="180.75" x2="153.28" y2="180.75"/>
        <line class="cls-4" x1="211.56" y1="228.17" x2="211.56" y2="228.05"/>
        <line class="cls-4" x1="211.56" y1="229.65" x2="211.56" y2="230.95"/>
        <polygon class="cls-1" points="186.58 228.17 186.58 229.65 236.54 229.65 236.54 228.17 186.58 228.17"/>
        <line class="cls-6" x1="186.58" y1="228.72" x2="236.54" y2="228.72"/>
        <line class="cls-4" x1="294.81" y1="46.74" x2="294.81" y2="41.52"/>
        <line class="cls-4" x1="294.81" y1="62.8" x2="294.81" y2="64.99"/>
        <polygon class="cls-1" points="269.84 46.74 269.84 62.8 319.79 62.8 319.79 46.74 269.84 46.74"/>
        <line class="cls-6" x1="269.84" y1="55.28" x2="319.79" y2="55.28"/>
        <line class="cls-4" x1="378.07" y1="85.08" x2="378.07" y2="85.81"/>
        <polygon class="cls-1" points="353.09 72.24 353.09 85.08 403.04 85.08 403.04 72.24 353.09 72.24"/>
        <line class="cls-6" x1="353.09" y1="84.11" x2="403.04" y2="84.11"/>
        <circle class="cls-12" cx="369.67" cy="83.42" r="3.56"/>
        <circle class="cls-12" cx="379.09" cy="38.79" r="3.56"/>
        <circle class="cls-12" cx="369.35" cy="85.8" r="3.56"/>
        <circle class="cls-12" cx="368.4" cy="84.89" r="3.56"/>
        <circle class="cls-12" cx="293.66" cy="62.02" r="3.56"/>
        <circle class="cls-12" cx="297.28" cy="48.53" r="3.56"/>
        <circle class="cls-12" cx="285.68" cy="41.58" r="3.56"/>
        <circle class="cls-12" cx="294.03" cy="65.01" r="3.56"/>
        <circle class="cls-12" cx="218.78" cy="230.99" r="3.56"/>
        <circle class="cls-12" cx="209.74" cy="229.23" r="3.56"/>
        <circle class="cls-12" cx="212.01" cy="228.05" r="3.56"/>
        <circle class="cls-12" cx="210.72" cy="228.24" r="3.56"/>
        <circle class="cls-12" cx="122.55" cy="183.64" r="3.56"/>
        <circle class="cls-12" cx="121.25" cy="165.51" r="3.56"/>
        <circle class="cls-12" cx="128.6" cy="177.86" r="3.56"/>
        <circle class="cls-12" cx="131.37" cy="187.26" r="3.56"/>
      </g>
    </g>
    <g class="cls-18">
      <g>
        <line class="cls-11" x1="78.35" y1="240.6" x2="78.35" y2="29.18"/>
        <text class="cls-8" transform="translate(24.59 174.84)"><tspan x="0" y="0">10000</tspan></text>
        <text class="cls-8" transform="translate(24.59 102.7)"><tspan x="0" y="0">20000</tspan></text>
        <line class="cls-5" x1="71.27" y1="169.11" x2="78.35" y2="169.11"/>
        <line class="cls-5" x1="71.27" y1="96.97" x2="78.35" y2="96.97"/>
        <line class="cls-11" x1="78.35" y1="240.6" x2="428.02" y2="240.6"/>
        <line class="cls-5" x1="128.31" y1="247.69" x2="128.31" y2="240.6"/>
        <line class="cls-5" x1="211.56" y1="247.69" x2="211.56" y2="240.6"/>
        <line class="cls-5" x1="294.81" y1="247.69" x2="294.81" y2="240.6"/>
        <line class="cls-5" x1="378.07" y1="247.69" x2="378.07" y2="240.6"/>
        <text class="cls-8" transform="translate(13.73 273.63) rotate(-90)"><tspan x="0" y="0">Peak</tspan><tspan class="cls-10" x="36.47" y="0"> </tspan><tspan x="40.66" y="0">area</tspan><tspan class="cls-17" x="72.69" y="0"> </tspan><tspan x="76.88" y="0">(AU)</tspan><tspan class="cls-17" x="109.76" y="0"> </tspan><tspan x="113.95" y="0">-</tspan><tspan class="cls-10" x="119.28" y="0"> </tspan><tspan x="123.47" y="0">Methylolanthanin</tspan></text>
      </g>
    </g>
  </g>
  <line class="cls-7" x1="211.22" y1="9.88" x2="377.22" y2="9.88"/>
  <line class="cls-7" x1="377.18" y1="14.88" x2="377.18" y2="9.88"/>
  <line class="cls-7" x1="211.68" y1="14.74" x2="211.68" y2="9.74"/>
  <line class="cls-7" x1="211.57" y1="23.88" x2="294.57" y2="23.88"/>
  <line class="cls-7" x1="294.68" y1="28.88" x2="294.68" y2="23.88"/>
  <line class="cls-7" x1="211.68" y1="28.75" x2="211.68" y2="23.75"/>
  <text class="cls-16" transform="translate(250.58 23.75)"><tspan x="0" y="0">*</tspan></text>
  <text class="cls-16" transform="translate(291.73 10.04)"><tspan x="0" y="0">*</tspan></text>
  <text class="cls-9" transform="translate(99.41 295.91) rotate(-45)"><tspan class="cls-14" x="0" y="0"> </tspan><tspan x="3.56" y="0">ΔmxaF</tspan></text>
  <text class="cls-9" transform="translate(185.89 292.45) rotate(-45)"><tspan class="cls-14" x="0" y="0"> </tspan><tspan x="3.56" y="0">ΔmllF</tspan></text>
  <text class="cls-9" transform="translate(267.97 293.39) rotate(-45)"><tspan class="cls-14" x="0" y="0"> </tspan><tspan x="3.56" y="0">ΔmllG</tspan></text>
  <text class="cls-9" transform="translate(352.56 291.82) rotate(-45)"><tspan class="cls-14" x="0" y="0"> </tspan><tspan x="3.56" y="0">ΔmllJ</tspan></text>
</svg>