<?xml version="1.0" encoding="UTF-8"?>
<svg id="Layer_1" xmlns="http://www.w3.org/2000/svg" xmlns:xlink="http://www.w3.org/1999/xlink" viewBox="0 0 571.67 442.98">
  <defs>
    <style>
      .cls-1 {
        letter-spacing: 0em;
      }

      .cls-2 {
        letter-spacing: 0em;
      }

      .cls-3 {
        letter-spacing: 0em;
      }

      .cls-3, .cls-4 {
        fill: #231f20;
        font-family: MyriadPro-Regular, 'Myriad Pro';
        font-size: 12px;
      }

      .cls-5 {
        letter-spacing: -.01em;
      }

      .cls-6 {
        font-size: 13.09px;
      }

      .cls-6, .cls-7 {
        font-family: ArialMT, Arial;
        isolation: isolate;
      }

      .cls-6, .cls-7, .cls-8 {
        fill: #010101;
      }

      .cls-9 {
        letter-spacing: 0em;
      }

      .cls-10 {
        fill: none;
        stroke: #010101;
        stroke-miterlimit: 10;
        stroke-width: 1.33px;
      }

      .cls-7 {
        font-size: 9.82px;
      }

      .cls-11 {
        letter-spacing: -.01em;
      }
    </style>
  </defs>
  <image width="2400" height="1800" transform="translate(0 3.73) scale(.12)" xlink:href="../box_plot_MN/chloride only/plot_chloride3779.png"/>
  <text class="cls-4" transform="translate(140.66 10.18)"><tspan x="0" y="0">NdCl</tspan></text>
  <text class="cls-4" transform="translate(165.11 14.17) scale(.58)"><tspan x="0" y="0">3 </tspan></text>
  <text class="cls-4" transform="translate(170.19 10.18)"><tspan class="cls-1" x="0" y="0">g</tspan><tspan class="cls-11" x="6.64" y="0">r</tspan><tspan class="cls-9" x="10.44" y="0">o</tspan><tspan class="cls-2" x="16.94" y="0">wn samples</tspan></text>
  <image width="2400" height="1800" transform="translate(0 223.77) scale(.12)" xlink:href="../box_plot_MN/oxide only/plot_oxide3779.png"/>
  <path class="cls-8" d="M354.4,175.26v-.91l16.32-9.42v.91l-16.32,9.42Z"/>
  <path class="cls-8" d="M370.72,165.83v-.91l16.32,9.42v.91l-16.32-9.42Z"/>
  <path class="cls-8" d="M387.04,175.26v-.91l16.32-9.42v.91l-16.32,9.42Z"/>
  <text class="cls-6" transform="translate(414.96 179.91)"><tspan x="0" y="0">N</tspan></text>
  <path class="cls-8" d="M403.36,165.83v-.91l10.16,5.87-.39.68-9.77-5.64Z"/>
  <path class="cls-8" d="M426.21,171.49l-.39-.68,10.19-5.88v.91l-9.79,5.65Z"/>
  <path class="cls-8" d="M436,165.83v-.91l16.32,9.42v.91s-16.32-9.42-16.32-9.42Z"/>
  <path class="cls-8" d="M452.32,175.26v-.91s16.33-9.42,16.33-9.42v.91s-16.33,9.42-16.33,9.42Z"/>
  <path class="cls-8" d="M468.66,165.83v-.91s16.32,9.42,16.32,9.42v.91l-16.32-9.42Z"/>
  <text class="cls-6" transform="translate(496.57 159.57)"><tspan x="0" y="0">H</tspan></text>
  <text class="cls-6" transform="translate(496.57 170.49)"><tspan x="0" y="0">N</tspan></text>
  <path class="cls-8" d="M484.98,175.26v-.91l9.39-5.42.39.68-9.78,5.65Z"/>
  <path class="cls-8" d="M507.79,169.58l.39-.68,9.83,5.68-.78.45-9.44-5.45Z"/>
  <text class="cls-6" transform="translate(528.85 170.49)"><tspan x="0" y="0">O</tspan></text>
  <path class="cls-8" d="M516.12,174.16l-.39-.68,11.11-6.42.39.68-11.11,6.42Z"/>
  <path class="cls-8" d="M517.82,177.1l-.39-.68,11.11-6.42.39.68-11.11,6.42Z"/>
  <path class="cls-8" d="M517.23,175.03l.78-.45v18.85l-.78.45v-18.85Z"/>
  <path class="cls-8" d="M517.23,193.88l.78-.45,15.93,9.2v.45h-.79l-15.93-9.2Z"/>
  <path class="cls-8" d="M534.33,203.3l-.39-.23v-.45l15.93-9.2.79.45-16.32,9.42Z"/>
  <path class="cls-8" d="M533.55,203.75l.39-.68.39.23v18.39l-.78.45v-18.39Z"/>
  <text class="cls-6" transform="translate(503.08 217.6)"><tspan x="0" y="0">HO</tspan></text>
  <path class="cls-8" d="M533.15,203.07h.79l-.39.68-10.11,5.84-.39-.68,10.11-5.84Z"/>
  <text class="cls-6" transform="translate(545.17 179.91)"><tspan x="0" y="0">OH</tspan></text>
  <path class="cls-8" d="M550.65,193.88l-.79-.45v-11.3h.79v11.75Z"/>
  <text class="cls-6" transform="translate(561.49 208.18)"><tspan x="0" y="0">O</tspan></text>
  <path class="cls-8" d="M550.06,192.03l.39-.68,11.57,6.68-.39.68-11.57-6.68Z"/>
  <path class="cls-8" d="M548.37,194.97l.39-.68,11.57,6.68-.39.68-11.57-6.68Z"/>
  <path class="cls-8" d="M533.55,222.15l.78-.45,16.32,9.42-.79.45-16.32-9.42Z"/>
  <text class="cls-6" transform="translate(561.49 227.03)"><tspan x="0" y="0">O</tspan></text>
  <path class="cls-8" d="M548.76,230.7l-.39-.68,11.11-6.42.39.68-11.11,6.42Z"/>
  <path class="cls-8" d="M550.46,233.64l-.39-.68,11.11-6.42.39.68-11.11,6.42Z"/>
  <text class="cls-6" transform="translate(545.54 255.29)"><tspan x="0" y="0">NH</tspan></text>
  <path class="cls-8" d="M549.87,231.57l.79-.45v12.87h-.79v-12.41Z"/>
  <path class="cls-8" d="M543.33,253.74l.39.68-9.79,5.65v-.91l9.39-5.42Z"/>
  <path class="cls-8" d="M533.94,259.16v.91l-16.32-9.42v-.91l16.32,9.42Z"/>
  <path class="cls-8" d="M517.62,249.74v.91l-16.32,9.42v-.91l16.32-9.42Z"/>
  <path class="cls-8" d="M501.3,259.16v.91l-16.32-9.42v-.91l16.32,9.42Z"/>
  <text class="cls-6" transform="translate(463.93 264.72)"><tspan x="0" y="0">N</tspan></text>
  <path class="cls-8" d="M484.98,249.74v.91l-9.79,5.65-.39-.68,10.19-5.88Z"/>
  <path class="cls-8" d="M462.5,255.61l-.39.68-9.78-5.64v-.91s10.18,5.87,10.18,5.87Z"/>
  <path class="cls-8" d="M452.32,249.74v.91s-16.32,9.42-16.32,9.42v-.91l16.32-9.42Z"/>
  <path class="cls-8" d="M436,259.16v.91l-16.32-9.42v-.91l16.32,9.42Z"/>
  <path class="cls-8" d="M419.68,249.74v.91l-16.32,9.42v-.91l16.32-9.42Z"/>
  <text class="cls-6" transform="translate(318.45 170.49)"><tspan x="0" y="0">H</tspan></text>
  <text class="cls-7" transform="translate(327.9 173.36)"><tspan x="0" y="0">3</tspan></text>
  <text class="cls-6" transform="translate(333.36 170.49)"><tspan x="0" y="0">N</tspan></text>
  <path class="cls-8" d="M354.4,174.35v.91l-9.88-5.7.39-.68,9.49,5.48Z"/>
  <text class="cls-6" transform="translate(367.41 255.29)"><tspan x="0" y="0">H</tspan></text>
  <text class="cls-7" transform="translate(376.86 258.17)"><tspan x="0" y="0">2</tspan></text>
  <text class="cls-6" transform="translate(382.32 255.29)"><tspan x="0" y="0">N</tspan></text>
  <path class="cls-8" d="M403.36,259.16v.91l-9.88-5.7.39-.68,9.49,5.48Z"/>
  <path class="cls-8" d="M419.29,181.95h.78v11.93l-.78-.45v-11.48Z"/>
  <text class="cls-6" transform="translate(430.92 208.18)"><tspan x="0" y="0">O</tspan></text>
  <path class="cls-8" d="M419.49,192.03l.39-.68,11.57,6.68-.39.68-11.57-6.68Z"/>
  <path class="cls-8" d="M417.79,194.97l.39-.68,11.57,6.68-.39.68-11.57-6.68Z"/>
  <path class="cls-8" d="M419.29,193.42l.78.45-16.52,9.54-.39-.68,16.12-9.31Z"/>
  <path class="cls-8" d="M468.27,266.76h.78v11.93l-.78-.45v-11.48Z"/>
  <text class="cls-6" transform="translate(479.89 292.99)"><tspan x="0" y="0">O</tspan></text>
  <path class="cls-8" d="M468.46,276.84l.39-.68,11.57,6.68-.39.68-11.57-6.68Z"/>
  <path class="cls-8" d="M466.77,279.78l.39-.68,11.57,6.68-.39.68-11.57-6.68Z"/>
  <path class="cls-8" d="M468.27,278.23l.78.45-16.52,9.54-.39-.68,16.12-9.31Z"/>
  <path class="cls-10" d="M342.38,156.41c0,2.59,2.1,4.7,4.7,4.7s4.7-2.1,4.7-4.7h0c0-2.59-2.1-4.7-4.7-4.7s-4.7,2.1-4.7,4.7Z"/>
  <path class="cls-8" d="M344.49,156.06h5.15v.65h-5.15v-.65Z"/>
  <path class="cls-8" d="M347.39,153.82v5.15h-.65v-5.15h.65Z"/>
  <text class="cls-6" transform="translate(397.77 324.06)"><tspan x="0" y="0">FeatureID:</tspan></text>
  <text class="cls-6" transform="translate(463.24 324.06)"><tspan x="0" y="0">3779</tspan></text>
  <text class="cls-6" transform="translate(349.82 342.58)"><tspan x="0" y="0">Chemical</tspan></text>
  <text class="cls-6" transform="translate(408.01 342.58)"><tspan x="0" y="0">Formula:</tspan></text>
  <text class="cls-6" transform="translate(463.28 342.58)"><tspan x="0" y="0">C</tspan></text>
  <text class="cls-7" transform="translate(472.73 345.46)"><tspan x="0" y="0">26</tspan></text>
  <text class="cls-6" transform="translate(483.65 342.58)"><tspan x="0" y="0">H</tspan></text>
  <text class="cls-7" transform="translate(493.1 345.46)"><tspan x="0" y="0">51</tspan></text>
  <text class="cls-6" transform="translate(504.02 342.58)"><tspan x="0" y="0">N</tspan></text>
  <text class="cls-7" transform="translate(513.47 345.46)"><tspan x="0" y="0">6</tspan></text>
  <text class="cls-6" transform="translate(518.93 342.58)"><tspan x="0" y="0">O</tspan></text>
  <text class="cls-7" transform="translate(529.11 345.46)"><tspan x="0" y="0">7</tspan></text>
  <text class="cls-7" transform="translate(534.57 337.47)"><tspan x="0" y="0">+</tspan></text>
  <text class="cls-6" transform="translate(380.31 361.1)"><tspan x="0" y="0">Exact</tspan></text>
  <text class="cls-6" transform="translate(416.68 361.1)"><tspan x="0" y="0">Mass:</tspan></text>
  <text class="cls-6" transform="translate(455.22 361.1)"><tspan x="0" y="0">559.3814</tspan></text>
  <text class="cls-4" transform="translate(177.77 226.54)"><tspan x="0" y="0">Nd</tspan></text>
  <text class="cls-3" transform="translate(192.44 230.54) scale(.58)"><tspan x="0" y="0">2</tspan></text>
  <text class="cls-4" transform="translate(196.03 226.54)"><tspan x="0" y="0">O</tspan></text>
  <text class="cls-4" transform="translate(204.29 230.54) scale(.58)"><tspan x="0" y="0">3 </tspan></text>
  <text class="cls-4" transform="translate(209.37 226.54)"><tspan class="cls-1" x="0" y="0">g</tspan><tspan class="cls-11" x="6.64" y="0">r</tspan><tspan class="cls-9" x="10.44" y="0">o</tspan><tspan x="16.94" y="0">wn samples</tspan></text>
  <text class="cls-4" transform="translate(50.08 10.04)"><tspan x="0" y="0">A.</tspan></text>
  <text class="cls-4" transform="translate(50.38 226.63)"><tspan class="cls-5" x="0" y="0">B</tspan><tspan x="6.35" y="0">.</tspan></text>
  <text class="cls-4" transform="translate(326.35 132.33)"><tspan x="0" y="0">C.</tspan></text>
</svg>