<?xml version="1.0" encoding="UTF-8"?>
<svg id="Layer_1" xmlns="http://www.w3.org/2000/svg" xmlns:xlink="http://www.w3.org/1999/xlink" viewBox="0 0 593.86 439.23">
  <defs>
    <style>
      .cls-1 {
        letter-spacing: 0em;
      }

      .cls-2 {
        letter-spacing: 0em;
      }

      .cls-3, .cls-4 {
        fill: #3a53a4;
      }

      .cls-3, .cls-5, .cls-6, .cls-7 {
        font-family: ArialMT, Arial;
        isolation: isolate;
      }

      .cls-3, .cls-5, .cls-7 {
        font-size: 11.53px;
      }

      .cls-8 {
        letter-spacing: 0em;
      }

      .cls-8, .cls-9 {
        fill: #231f20;
        font-family: MyriadPro-Regular, 'Myriad Pro';
        font-size: 12px;
      }

      .cls-10 {
        letter-spacing: -.01em;
      }

      .cls-5 {
        fill: #ed2224;
      }

      .cls-11 {
        letter-spacing: 0em;
      }

      .cls-6 {
        font-size: 8.65px;
      }

      .cls-6, .cls-12, .cls-7 {
        fill: #010101;
      }

      .cls-13 {
        fill: none;
        stroke: #010101;
        stroke-miterlimit: 10;
        stroke-width: 1.33px;
      }

      .cls-14 {
        letter-spacing: -.01em;
      }
    </style>
  </defs>
  <image width="2400" height="1800" transform="translate(9.64) scale(.12)" xlink:href="../box_plot_MN/chloride only/plot_chloride10163.png"/>
  <image width="2400" height="1800" transform="translate(0 216) scale(.12)" xlink:href="../box_plot_MN/oxide only/plot_oxide10163.png"/>
  <path class="cls-12" d="M402.46,160.27v-.8l14.38-8.3v.8l-14.38,8.3Z"/>
  <path class="cls-12" d="M416.83,151.97v-.8l14.38,8.3v.8l-14.38-8.3Z"/>
  <path class="cls-12" d="M431.21,160.27v-.8l14.38-8.3v.8l-14.38,8.3Z"/>
  <text class="cls-7" transform="translate(455.8 164.37)"><tspan x="0" y="0">N</tspan></text>
  <path class="cls-12" d="M445.59,151.97v-.8l8.95,5.17-.35.6-8.61-4.97Z"/>
  <path class="cls-12" d="M465.72,156.95l-.35-.6,8.97-5.18v.8l-8.63,4.98Z"/>
  <path class="cls-12" d="M474.34,151.97v-.8l14.38,8.3v.8l-14.38-8.3Z"/>
  <path class="cls-12" d="M488.72,160.27v-.8l14.39-8.3v.8l-14.39,8.3Z"/>
  <path class="cls-12" d="M503.11,151.97v-.8l14.38,8.3v.8l-14.38-8.3Z"/>
  <text class="cls-7" transform="translate(527.7 146.45)"><tspan x="0" y="0">H</tspan></text>
  <text class="cls-7" transform="translate(527.7 156.07)"><tspan x="0" y="0">N</tspan></text>
  <path class="cls-12" d="M517.49,160.27v-.8l8.27-4.78.35.6-8.62,4.97Z"/>
  <path class="cls-12" d="M537.58,155.27l.35-.6,8.66,5-.69.4-8.31-4.8Z"/>
  <text class="cls-7" transform="translate(556.14 156.07)"><tspan x="0" y="0">O</tspan></text>
  <path class="cls-12" d="M544.92,159.31l-.35-.6,9.79-5.65.35.6-9.79,5.65Z"/>
  <path class="cls-12" d="M546.41,161.9l-.35-.6,9.79-5.65.35.6-9.79,5.65Z"/>
  <path class="cls-12" d="M545.9,160.07l.69-.4v16.6l-.69.4v-16.6Z"/>
  <path class="cls-12" d="M545.9,176.67l.69-.4,14.03,8.1v.4h-.69l-14.03-8.1Z"/>
  <path class="cls-12" d="M560.96,184.97l-.35-.2v-.4l14.03-8.1.69.4-14.38,8.3Z"/>
  <path class="cls-12" d="M560.27,185.37l.35-.6.35.2v16.2l-.69.4v-16.2Z"/>
  <text class="cls-7" transform="translate(533.43 197.57)"><tspan x="0" y="0">HO</tspan></text>
  <path class="cls-12" d="M559.93,184.77h.69l-.35.6-8.91,5.14-.35-.6,8.91-5.14Z"/>
  <text class="cls-7" transform="translate(570.51 164.37)"><tspan x="0" y="0">OH</tspan></text>
  <path class="cls-12" d="M575.34,176.67l-.69-.4v-9.96h.69v10.36Z"/>
  <text class="cls-7" transform="translate(584.89 189.27)"><tspan x="0" y="0">O</tspan></text>
  <path class="cls-12" d="M574.82,175.05l.35-.6,10.19,5.89-.35.6-10.19-5.89Z"/>
  <path class="cls-12" d="M573.33,177.64l.35-.6,10.19,5.89-.35.6-10.19-5.89Z"/>
  <path class="cls-12" d="M560.27,201.58l.69-.4,14.38,8.3-.69.4-14.38-8.3Z"/>
  <text class="cls-7" transform="translate(584.89 205.87)"><tspan x="0" y="0">O</tspan></text>
  <path class="cls-12" d="M573.67,209.12l-.35-.6,9.79-5.65.35.6-9.79,5.65Z"/>
  <path class="cls-12" d="M575.17,211.7l-.35-.6,9.79-5.65.35.6-9.79,5.65Z"/>
  <text class="cls-7" transform="translate(570.83 230.78)"><tspan x="0" y="0">NH</tspan></text>
  <path class="cls-12" d="M574.65,209.88l.69-.4v11.34h-.69v-10.94Z"/>
  <path class="cls-12" d="M568.89,229.4l.35.6-8.62,4.98v-.8l8.27-4.78Z"/>
  <path class="cls-12" d="M560.62,234.18v.8l-14.38-8.3v-.8l14.38,8.3Z"/>
  <path class="cls-12" d="M546.24,225.88v.8l-14.38,8.3v-.8l14.38-8.3Z"/>
  <path class="cls-12" d="M531.86,234.18v.8l-14.38-8.3v-.8l14.38,8.3Z"/>
  <text class="cls-7" transform="translate(498.95 239.08)"><tspan x="0" y="0">N</tspan></text>
  <path class="cls-12" d="M517.49,225.88v.8l-8.63,4.98-.35-.6,8.97-5.18Z"/>
  <path class="cls-12" d="M497.68,231.05l-.35.6-8.62-4.97v-.8l8.96,5.17Z"/>
  <path class="cls-12" d="M488.72,225.88v.8l-14.38,8.3v-.8l14.38-8.3Z"/>
  <path class="cls-12" d="M474.34,234.18v.8l-14.38-8.3v-.8l14.38,8.3Z"/>
  <path class="cls-12" d="M459.97,225.88v.8l-14.38,8.3v-.8l14.38-8.3Z"/>
  <text class="cls-7" transform="translate(427.05 221.16)"><tspan x="0" y="0">H</tspan></text>
  <text class="cls-7" transform="translate(427.05 230.78)"><tspan x="0" y="0">N</tspan></text>
  <path class="cls-12" d="M445.59,234.18v.8l-8.66-5,.35-.6,8.31,4.8Z"/>
  <text class="cls-7" transform="translate(383.92 143.91)"><tspan x="0" y="0">H</tspan></text>
  <text class="cls-6" transform="translate(392.24 146.45)"><tspan x="0" y="0">2</tspan></text>
  <text class="cls-7" transform="translate(383.92 156.07)"><tspan x="0" y="0">N</tspan></text>
  <path class="cls-12" d="M402.46,159.47v.8l-8.66-5,.35-.6,8.31,4.8Z"/>
  <path class="cls-12" d="M381.97,154.7l.35.6-8.62,4.97v-.8l8.27-4.78Z"/>
  <path class="cls-12" d="M373.7,159.47v.8l-14.38-8.3v-.4l.35-.2,14.03,8.1Z"/>
  <text class="cls-7" transform="translate(369.22 180.97)"><tspan x="0" y="0">O</tspan></text>
  <path class="cls-12" d="M374.85,159.01h.69v11.86h-.69v-11.86Z"/>
  <path class="cls-12" d="M371.86,159.01h.69v11.86h-.69v-11.86Z"/>
  <path class="cls-12" d="M425.1,229.41l.35.6-8.62,4.97v-.8l8.27-4.78Z"/>
  <text class="cls-7" transform="translate(412.35 255.68)"><tspan x="0" y="0">O</tspan></text>
  <path class="cls-12" d="M417.98,233.72h.69v11.86h-.69v-11.86Z"/>
  <path class="cls-12" d="M414.99,233.72h.69v11.86h-.69v-11.86Z"/>
  <path class="cls-12" d="M416.83,234.18v.8l-14.38-8.3v-.4l.35-.2,14.03,8.1Z"/>
  <path class="cls-12" d="M402.8,226.08l-.35.2-.35-.2v-16.2l.69-.4v16.6Z"/>
  <path class="cls-12" d="M399.81,224.56h-.69v-13.15h.69v13.15Z"/>
  <path class="cls-12" d="M402.8,209.48l-.69.4-14.03-8.1v-.8l14.72,8.5Z"/>
  <path class="cls-12" d="M388.08,200.98v.8l-14.03,8.1-.35-.2v-.4l14.38-8.3Z"/>
  <path class="cls-12" d="M387.91,204.53l.35.6-11.39,6.58-.35-.6,11.39-6.58Z"/>
  <path class="cls-12" d="M373.36,209.88l.35-.2.35.2v16.2l-.35.2-.35-.2v-16.2Z"/>
  <path class="cls-12" d="M373.7,226.68v-.4l.35-.2,14.03,8.1v.8l-14.38-8.3Z"/>
  <path class="cls-12" d="M376.52,224.86l.35-.6,11.39,6.58-.35.6-11.39-6.58Z"/>
  <path class="cls-12" d="M388.08,234.98v-.8l14.03-8.1.35.2v.4l-14.38,8.3Z"/>
  <path class="cls-12" d="M359.67,151.37l-.35.2-.35-.2v-16.2l.69-.4v16.6Z"/>
  <path class="cls-12" d="M356.68,149.84h-.69v-13.15h.69v13.15Z"/>
  <path class="cls-12" d="M359.67,134.77l-.69.4-14.03-8.1v-.8l14.72,8.5Z"/>
  <path class="cls-12" d="M344.95,126.27v.8l-14.03,8.1-.35-.2v-.4l14.38-8.3Z"/>
  <path class="cls-12" d="M344.77,129.82l.35.6-11.39,6.58-.35-.6,11.39-6.58Z"/>
  <path class="cls-12" d="M330.22,135.17l.35-.2.35.2v16.2l-.35.2-.35-.2v-16.2Z"/>
  <path class="cls-12" d="M330.57,151.97v-.4l.35-.2,14.03,8.1v.8l-14.38-8.3Z"/>
  <path class="cls-12" d="M333.39,150.14l.35-.6,11.39,6.58-.35.6-11.39-6.58Z"/>
  <path class="cls-12" d="M344.95,160.27v-.8l14.03-8.1.35.2v.4l-14.38,8.3Z"/>
  <text class="cls-3" transform="translate(303.38 131.16)"><tspan x="0" y="0">HO</tspan></text>
  <path class="cls-12" d="M330.57,134.57v.4l-.35.2-8.83-5.1.35-.6,8.83,5.1Z"/>
  <text class="cls-3" transform="translate(346.52 205.87)"><tspan x="0" y="0">HO</tspan></text>
  <path class="cls-4" d="M373.7,209.28v.4l-.35.2-8.83-5.1.35-.6,8.83,5.1Z"/>
  <path class="cls-12" d="M459.62,166.16h.69v10.51l-.69-.4v-10.11Z"/>
  <path class="cls-12" d="M502.76,240.88h.69v10.51l-.69-.4v-10.11Z"/>
  <path class="cls-12" d="M459.62,176.27l.69.4-14.55,8.4-.35-.6,14.2-8.2Z"/>
  <text class="cls-7" transform="translate(469.86 189.27)"><tspan x="0" y="0">O</tspan></text>
  <path class="cls-12" d="M459.79,175.05l.35-.6,10.19,5.89-.35.6-10.19-5.89Z"/>
  <path class="cls-12" d="M458.3,177.64l.35-.6,10.19,5.89-.35.6-10.19-5.89Z"/>
  <path class="cls-12" d="M502.76,250.98l.69.4-14.55,8.4-.35-.6,14.2-8.2Z"/>
  <text class="cls-7" transform="translate(513 263.98)"><tspan x="0" y="0">O</tspan></text>
  <path class="cls-12" d="M502.94,249.76l.35-.6,10.19,5.89-.35.6-10.19-5.89Z"/>
  <path class="cls-12" d="M501.44,252.35l.35-.6,10.19,5.89-.35.6-10.19-5.89Z"/>
  <path class="cls-13" d="M383.96,162.78c0,2.29,1.85,4.14,4.14,4.14s4.14-1.85,4.14-4.14-1.85-4.14-4.14-4.14-4.14,1.85-4.14,4.14Z"/>
  <path class="cls-12" d="M385.81,162.48h4.54v.58h-4.54v-.58Z"/>
  <path class="cls-12" d="M388.37,160.5v4.54h-.58v-4.54h.58Z"/>
  <text class="cls-5" transform="translate(303.38 164.37)"><tspan x="0" y="0">HO</tspan></text>
  <path class="cls-12" d="M330.22,151.37l.35.2v.4l-9.26,5.34-.35-.6,9.26-5.34Z"/>
  <text class="cls-5" transform="translate(346.52 239.08)"><tspan x="0" y="0">HO</tspan></text>
  <path class="cls-12" d="M373.36,226.08l.35.2v.4l-9.26,5.34-.35-.6,9.26-5.34Z"/>
  <text class="cls-7" transform="translate(356.11 286.34)"><tspan x="0" y="0">FeatureID:</tspan></text>
  <text class="cls-7" transform="translate(413.78 286.34)"><tspan x="0" y="0">10163</tspan></text>
  <text class="cls-7" transform="translate(449.05 286.34)"><tspan x="0" y="0">(Rhodopetrobactin)</tspan></text>
  <text class="cls-7" transform="translate(365.63 302.65)"><tspan x="0" y="0">Chemical</tspan></text>
  <text class="cls-7" transform="translate(416.88 302.65)"><tspan x="0" y="0">Formula:</tspan></text>
  <text class="cls-7" transform="translate(465.58 302.65)"><tspan x="0" y="0">C</tspan></text>
  <text class="cls-6" transform="translate(473.9 305.19)"><tspan x="0" y="0">40</tspan></text>
  <text class="cls-7" transform="translate(483.52 302.65)"><tspan x="0" y="0">H</tspan></text>
  <text class="cls-6" transform="translate(491.85 305.19)"><tspan x="0" y="0">59</tspan></text>
  <text class="cls-7" transform="translate(501.46 302.65)"><tspan x="0" y="0">N</tspan></text>
  <text class="cls-6" transform="translate(509.79 305.19)"><tspan x="0" y="0">6</tspan></text>
  <text class="cls-7" transform="translate(514.6 302.65)"><tspan x="0" y="0">O</tspan></text>
  <text class="cls-6" transform="translate(523.57 305.19)"><tspan x="0" y="0">13</tspan></text>
  <text class="cls-6" transform="translate(533.19 298.16)"><tspan x="0" y="0">+</tspan></text>
  <text class="cls-7" transform="translate(394.89 318.97)"><tspan x="0" y="0">Exact</tspan></text>
  <text class="cls-7" transform="translate(426.93 318.97)"><tspan x="0" y="0">Mass:</tspan></text>
  <text class="cls-7" transform="translate(460.88 318.97)"><tspan x="0" y="0">831.4135</tspan></text>
  <text class="cls-9" transform="translate(112.19 15.44)"><tspan x="0" y="0">NdCl</tspan></text>
  <text class="cls-9" transform="translate(136.64 19.44) scale(.58)"><tspan x="0" y="0">3 </tspan></text>
  <text class="cls-9" transform="translate(141.71 15.44)"><tspan class="cls-1" x="0" y="0">g</tspan><tspan class="cls-14" x="6.64" y="0">r</tspan><tspan class="cls-11" x="10.44" y="0">o</tspan><tspan class="cls-2" x="16.94" y="0">wn samples</tspan></text>
  <text class="cls-9" transform="translate(161.44 219.28)"><tspan x="0" y="0">Nd</tspan></text>
  <text class="cls-8" transform="translate(176.1 223.28) scale(.58)"><tspan x="0" y="0">2</tspan></text>
  <text class="cls-9" transform="translate(179.69 219.28)"><tspan x="0" y="0">O</tspan></text>
  <text class="cls-9" transform="translate(187.96 223.28) scale(.58)"><tspan x="0" y="0">3 </tspan></text>
  <text class="cls-9" transform="translate(193.03 219.28)"><tspan class="cls-1" x="0" y="0">g</tspan><tspan class="cls-14" x="6.64" y="0">r</tspan><tspan class="cls-11" x="10.44" y="0">o</tspan><tspan x="16.94" y="0">wn samples</tspan></text>
  <text class="cls-9" transform="translate(54.74 19.51)"><tspan x="0" y="0">A.</tspan></text>
  <text class="cls-9" transform="translate(54.74 221.58)"><tspan class="cls-10" x="0" y="0">B</tspan><tspan x="6.35" y="0">.</tspan></text>
  <text class="cls-9" transform="translate(316.03 108)"><tspan x="0" y="0">C.</tspan></text>
</svg>