<?xml version="1.0" encoding="UTF-8"?>
<svg id="Layer_1" xmlns="http://www.w3.org/2000/svg" viewBox="0 0 588.38 451.25">
  <defs>
    <style>
      .cls-1 {
        letter-spacing: 0em;
      }

      .cls-2 {
        letter-spacing: 0em;
      }

      .cls-3, .cls-4 {
        font-size: 11.66px;
      }

      .cls-3, .cls-4, .cls-5 {
        font-family: ArialMT, Arial;
        isolation: isolate;
      }

      .cls-3, .cls-6, .cls-5 {
        fill: #010101;
      }

      .cls-7 {
        letter-spacing: -.07em;
      }

      .cls-8, .cls-4 {
        fill: #3a53a4;
      }

      .cls-9 {
        fill: #fff;
      }

      .cls-10 {
        letter-spacing: 0em;
      }

      .cls-10, .cls-11 {
        fill: #231f20;
        font-family: MyriadPro-Regular, 'Myriad Pro';
        font-size: 12px;
      }

      .cls-12 {
        letter-spacing: -.07em;
      }

      .cls-13 {
        letter-spacing: -.01em;
      }

      .cls-14 {
        letter-spacing: 0em;
      }

      .cls-15 {
        letter-spacing: 0em;
      }

      .cls-16 {
        fill: none;
        stroke: #010101;
        stroke-miterlimit: 10;
        stroke-width: 1.33px;
      }

      .cls-17 {
        letter-spacing: -.01em;
      }

      .cls-5 {
        font-size: 8.74px;
      }
    </style>
  </defs>
  <g>
    <path class="cls-9" d="M0,224.73V1.5h297.64v223.23H0ZM276.89,187.29h18.12c-.03-.4-.06-.71-.08-.96-.13-.07-.16-.09-.2-.11-.04-.01-.08-.02-.12-.03-.04,0-.08-.01-.12-.02-.04,0-.08,0-.12,0-.04,0-.08,0-.12,0-.08,0-.17,0-.25,0-.04,0-.08,0-.12,0s-.08,0-.12,0c-83.8,0-167.6,0-251.4,0-.12,0-.25,0-.37,0-.04,0-.08,0-.12,0s-.08,0-.12,0c-.08,0-.17,0-.25,0-.04,0-.08,0-.12,0-.04,0-.08,0-.12,0-.04,0-.08,0-.12-.01-.04,0-.08-.02-.12-.04-.04-.01-.08-.02-.12-.04-.03-.02-.05-.06-.2-.25V4.32c-.42.02-.71.04-1.1.06v4.06c0,1.28.01,2.56,0,3.84-.02,1.3.09,2.61-.08,3.94-1.06.05-2,.09-2.99.14.04.39.07.65.11,1.02h2.89v43.31h-2.92v1.03h2.83c.27,1.43.22,42.37-.06,43.39h-2.85c.04.38.07.64.12,1.04h2.88v43.31h-2.94v1.02c1.01.05,1.97.1,3.02.15v1.61c0,10.9.02,21.8-.02,32.7,0,2,.23,2.44,2.46,2.41,4.96-.07,9.92-.02,14.88-.02.43,0,.87.04,1.41.06v3.02c.39-.04.65-.07,1.03-.1v-2.89h30.04v2.86c.66.27.99.14,1-.5.01-.78,0-1.55,0-2.3,1.57-.25,29.08-.19,30.03.06,0,.68-.02,1.38,0,2.08.03.86.14.91,1.16.53v-2.73h29.89c.05,1.04.09,2,.13,2.97.91-.06.93-.06.95-.67.03-.77.04-1.53.06-2.31h30.02v2.89c.76.28,1,.04,1-.57,0-.77.04-1.54.06-2.32h29.96v2.95h1.17v-2.93h29.98v2.97c.39-.02.65-.03,1.02-.05v-2.93h30.04c0,.85,0,1.63,0,2.4,0,.7.41.66,1.02.51v-3.02ZM277.32,14.52c1.25-1.28,1.41-2.43.48-3.35-.8-.79-2.12-.77-2.89.04-.87.92-.7,2.07.54,3.33-1.28.75-1.16,2-1.04,3.19.1.98,1.01,1.62,2.04,1.59.98-.02,1.78-.65,1.9-1.61.15-1.21.2-2.42-1.02-3.2ZM277.57,46.66c1.01-1.37,1.07-2.44.21-3.25-.75-.71-1.91-.75-2.7-.08-.96.81-.93,1.85.11,3.37-1.02,1.24-1.08,2.3-.2,3.15.78.75,1.99.76,2.79.03.87-.8.81-1.93-.2-3.22ZM185.13,31.38c.02-1.32-.91-2.21-2.12-2.15-1.18.06-2.12,1.11-1.86,2.26.16.71.12,1.32,0,2.01-.22,1.17.72,2.17,1.92,2.2,1.23.03,2.23-.88,2.04-2.07-.13-.82-.2-1.59.03-2.26ZM60.79,36.14s-.02,0-.04,0c.01-.25.05-.49.04-.74-.03-1.15-.82-1.95-1.94-1.97-1.19-.03-2.04.77-2.07,1.97-.02.53-.02,1.07,0,1.6.06,1.05.89,1.84,1.93,1.88,1.09.03,1.99-.77,2.07-1.87.02-.29,0-.58,0-.86ZM181.09,25.91c-.04,1.25.78,2.22,1.93,2.28,1.15.06,2.08-.85,2.12-2.09.04-1.26-.77-2.22-1.93-2.28-1.15-.06-2.09.86-2.13,2.09ZM278.4,59.26c0-1.25-.86-2.19-2.01-2.2-1.12,0-2.04.97-2.04,2.19,0,1.25.85,2.17,2.03,2.17,1.18,0,2.02-.89,2.02-2.16ZM117.76,198.65c-.04-.11-.09-.22-.12-.33-.39-1.36-1.41-1.75-2.49-.89-.67.53-1.24,1.18-1.78,1.7,1.45,1.45,2.81,2.81,4.22,4.21.54-.55,1.16-1.15,1.76-1.77.54-.56.71-1.22.39-1.93-.3-.66-.83-1-1.58-.94-.12,0-.24-.03-.38-.04ZM118.86,178.31c-.1,1.04.81,2.11,1.9,2.23,1.06.12,2.15-.77,2.25-1.85.11-1.14-.68-2.14-1.8-2.27-1.13-.13-2.24.76-2.35,1.89ZM91.98,178.51c.03-1.05-.96-2.06-2.04-2.09-1.14-.04-2.07.82-2.12,1.96-.05,1.16.91,2.18,2.05,2.18,1.08,0,2.08-.97,2.11-2.04ZM247.37,178.42c-.03-1.11-.97-2.01-2.09-2-1.2.01-2.06.95-2.01,2.17.05,1.13,1.02,2.02,2.12,1.96,1.11-.06,2-1.02,1.98-2.13ZM148.74,203.5c.5-.57.96-1.09,1.42-1.61,1.07-1.21,1.11-2.26.12-3.53-.51-.66-1.14-1.16-1.95-1.43-.6-.2-1.17-.14-1.65.18-.87.59-1.65,1.3-2.18,2.11,1.39,1.41,2.72,2.75,4.25,4.28ZM152.03,180.55c1.12,0,2.05-.9,2.07-2.03.03-1.18-.92-2.13-2.1-2.11-1.15.02-2,.9-1.99,2.07,0,1.15.89,2.06,2.01,2.06ZM214.21,54.65c1.08,0,2.07-1,2.05-2.08-.02-1.03-.94-1.97-1.99-2.01-1.1-.04-2.09.9-2.11,2-.02,1.07.96,2.08,2.04,2.08ZM60.8,47.98c0-1.12-.94-2.05-2.05-2.03-1.06.02-1.95.91-1.97,1.98-.03,1.14.86,2.06,1.99,2.08,1.13.01,2.04-.89,2.04-2.03ZM214.21,176.44c-1.1,0-2.07.99-2.04,2.07.02,1.04.95,1.97,2,2,1.08.04,2.09-.93,2.11-2.01.02-1.07-.98-2.06-2.06-2.06ZM215.83,195.2c.87.77.93,1.01.45,1.8-.8,1.34-2.15,1.57-3.34.55-.28-.24-.53-.52-.74-.83-.48-.7-.59-1.46-.09-2.2.46-.68,1.05-1.19,1.97-.93.46.13.59-.1.65-.47-1.41-.65-2.93.06-3.53,1.63-.58,1.52.57,3.5,2.34,4.06,1.75.55,3.41-.77,3.91-3.06-.51-.55-1.01-1.09-1.68-1.81-.49.58-.92,1.08-1.34,1.58-.24.3-.17.52.25.67.35-.3.71-.62,1.14-1ZM216.26,26.67c-.04-1.12-.98-1.97-2.13-1.93-1.1.03-1.96.9-1.96,1.98,0,1.1.95,2.03,2.07,2.02,1.12-.01,2.06-.97,2.03-2.06ZM278.39,66.24c0-1.13-.92-2.05-2.04-2.03-1.13.02-2.01.95-1.98,2.09.03,1.05.94,1.97,1.98,1.99,1.11.02,2.04-.91,2.04-2.05ZM216.26,74.27c0-1.1-.96-2.03-2.08-2.01-1.08.01-1.98.88-2.02,1.94-.04,1.08.91,2.07,2.01,2.08,1.1.02,2.08-.93,2.09-2.02ZM60.8,30.77c.03-1.16-.82-2.04-1.99-2.05-1.12-.01-1.98.78-2.03,1.88-.06,1.17.77,2.07,1.92,2.1,1.18.04,2.07-.78,2.1-1.93ZM45.57,206.93c1.04,1,1.93,1.85,2.82,2.7.32.3.57.29.79-.21-.57-.6-1.18-1.2-1.74-1.86-.45-.54-.43-1.04-.01-1.43.53-.49.9-.1,1.26.25.51.48,1,.98,1.49,1.48.32.33.56.26.81-.19-.6-.63-1.25-1.26-1.83-1.94-.44-.53-.37-1.06.09-1.41.48-.37.84-.08,1.18.25.61.6,1.22,1.2,1.83,1.8.46-.51.49-.53.25-.77-.6-.62-1.19-1.26-1.85-1.82-.8-.68-1.66-.48-2.13.46-.12.25-.17.54-.27.89-.63-.04-1.29.2-1.45.82-.15.59-.62.62-1.25.99ZM143.27,208.66c-.6-.63-1.26-1.26-1.83-1.95-.44-.52-.36-1.07.1-1.41.49-.37.84-.08,1.18.26.61.6,1.22,1.2,1.8,1.77.5-.19.61-.42.28-.76-.61-.61-1.2-1.26-1.85-1.82-.8-.68-1.67-.47-2.13.47-.12.25-.17.54-.2.65-.55.33-1.17.49-1.38.87-.29.53-.71.83-1.29,1.22.97.94,1.85,1.8,2.73,2.66.31.31.57.28.78-.21-.59-.64-1.22-1.29-1.81-1.97-.38-.44-.34-.92.07-1.33.45-.45.83-.16,1.17.17.54.51,1.06,1.04,1.58,1.57.32.33.57.25.81-.19ZM151.4,196.5c.47-.4.97-.72,1.34-1.16.29-.34,1.12-.55.5-1.43-.79.77-1.51,1.48-2.25,2.2-.47-.39-.89-.75-1.52-1.27.98-.87,1.78-1.57,2.55-2.25-.18-.43-.39-.59-.69-.3-.91.88-1.8,1.79-2.56,2.54,1.45,1.46,2.81,2.82,4.22,4.25.89-.95,1.96-1.87,2.87-2.94-.16-.19-.23-.31-.26-.3-1.22.32-1.63,1.65-2.81,2.21-.38-.42-.78-.88-1.38-1.55ZM180.18,202.76c.1-.04.2-.08.3-.11,0-.2.09-.48-.01-.59-.65-.69-1.3-1.39-2.03-1.99-.66-.55-1.44-.36-1.88.39-.16.28-.23.61-.31.84-.48.26-1.01.41-1.3.75-.38.46-.6,1.05-1.1,1.18,1,1,1.98,1.98,3.08,3.08,0-.26.1-.56,0-.7-.36-.45-.81-.82-1.2-1.25-.22-.24-.44-.5-.57-.79-.17-.41-.12-.89.31-1.07.27-.11.69.02.99.15.25.11.42.38.63.58.46.44.92.89,1.34,1.29.49-.26.51-.49.24-.76-.49-.5-1.01-.98-1.47-1.51-.49-.57-.48-1.16-.03-1.53.55-.45.91-.03,1.26.31.59.57,1.17,1.14,1.76,1.71ZM206.39,202.18c-.64.43-1.21.63-1.45,1.02-.28.48-.53.88-1.09.95,1.06,1.04,2.06,2.02,3.1,3.04.3-.16.28-.4-.02-.71-.52-.53-1.04-1.06-1.52-1.62-.37-.43-.38-.94.05-1.33.42-.39.84-.17,1.19.18.53.52,1.04,1.06,1.58,1.57.42.39.63.15.8-.4-.59-.55-1.22-1.09-1.78-1.69-.48-.52-.45-1.04-.04-1.42.51-.46.9-.15,1.28.21.5.49,1,.98,1.49,1.48.31.32.56.28.83-.21-.7-.69-1.39-1.44-2.16-2.11-.76-.66-1.55-.48-2.04.41-.14.24-.19.54-.22.63ZM86.59,203.13c.46-.21.58-.44.25-.77-.55-.55-1.09-1.13-1.66-1.65-1.02-.94-1.97-.67-2.41.67-.05.15-.09.31-.15.55-.68-.07-1.32.18-1.47.83-.15.6-.74.53-1.09.98.96.95,1.87,1.89,2.82,2.78.1.1.43-.05.79-.11-.24-.29-.33-.42-.44-.54-.48-.51-1-.98-1.44-1.53-.45-.55-.42-1.06-.02-1.43.53-.48.9-.09,1.26.26.5.49,1,.98,1.49,1.48.32.32.57.26.82-.22-.54-.56-1.13-1.12-1.67-1.73-.54-.59-.57-1.09-.16-1.53.37-.39.74-.33,1.37.26.6.56,1.17,1.15,1.73,1.7ZM272.91,203.29c-.35-.28-.73-.54-1.05-.86-.35-.34-.69-.7-.99-1.1-.32-.43-.21-.87.17-1.21.39-.36.76-.2,1.09.12.56.55,1.1,1.11,1.67,1.65.44.42.61.12.8-.37-.64-.6-1.26-1.21-1.9-1.79-1.03-.94-1.97-.72-2.47.58-.07.18-.1.38-.17.64-1.49-.3-1.36,1.48-2.71,1.73,1.08,1.03,1.97,1.87,2.86,2.73.33.32.57.25.82-.2-.29-.3-.6-.62-.9-.95-.34-.36-.71-.7-.99-1.1-.35-.5-.26-.97.16-1.32.43-.35.78-.1,1.08.19.54.51,1.06,1.04,1.58,1.57.29.3.54.35.94-.32ZM241.61,203.47c.14-.07.28-.14.43-.2-.04-.22,0-.51-.12-.65-.52-.58-1.13-1.09-1.64-1.68-.83-.96-2.25-.51-2.42.69-.02.16-.08.31-.11.47-.59.17-1.2.39-1.44.82-.27.48-.6.77-1.25.96,1.02,1.03,1.91,1.93,2.81,2.81.34.33.57.17.75-.24-.13-.15-.26-.3-.4-.45-.48-.51-.99-.99-1.43-1.54-.35-.43-.32-.94.11-1.33.47-.43.83-.07,1.17.23.19.16.35.35.53.52.45.44.91.89,1.4,1.37.31-.68.32-.69.16-.86-.48-.51-1.01-.98-1.47-1.5-.48-.55-.47-1.19-.03-1.53.54-.41.92-.06,1.27.31.56.6,1.11,1.21,1.67,1.81ZM110.3,210.73c.03-.11.05-.22.08-.33-.13-.15-.26-.31-.4-.46-.45-.48-.94-.92-1.36-1.43-.42-.52-.38-1.09.03-1.44.48-.41.83-.06,1.18.23.19.16.35.35.53.52.45.44.91.89,1.49,1.46.12-.41.27-.63.21-.74-.13-.24-.37-.44-.57-.64-.37-.39-.77-.74-1.11-1.16-.41-.5-.37-1.11.05-1.43.47-.37.84-.11,1.19.23.18.17.35.35.53.52.45.44.91.88,1.36,1.33.1-.05.2-.11.29-.16-.04-.22,0-.51-.13-.65-.55-.61-1.13-1.2-1.74-1.75-.86-.77-1.82-.53-2.26.53-.09.22-.1.47-.15.7-.61.17-1.22.39-1.46.81-.27.48-.61.76-1.25.97,1.02,1.02,1.91,1.92,2.83,2.79.13.12.44.07.66.09ZM244.34,192.61c.55.6,1.06,1.15,1.46,1.59-.73.75-1.35,1.39-2.02,2.09-.53-.49-1.1-1-1.72-1.56-.18.25-.31.42-.36.5,1.4,1.41,2.72,2.75,4.1,4.14.13-.14.29-.31.64-.7-.7-.57-1.36-1.12-1.98-1.63.72-.78,1.36-1.46,2.03-2.18.69.65,1.31,1.24,1.91,1.82.4-.19.65-.41.3-.76-1.18-1.2-2.38-2.39-3.58-3.58-.34-.34-.57-.18-.78.28ZM5.78,64.86c.99.95,1.97,1.06,2.73.35.77-.72.81-2,.1-2.79-.73-.8-1.74-.72-2.8.21-1.08-.66-1.85-.66-2.4,0-.53.65-.53,1.65,0,2.28.56.65,1.32.65,2.36-.06ZM93.93,195.75c-1.8-.76-3.6-1.54-5.41-2.27-.19-.08-.55.05-.72.2-.12.11-.12.45-.04.64.41.99.86,1.96,1.3,2.93.35.77.71,1.53,1.12,2.43.98-.98-.23-1.58-.1-2.43.47-.44,1.03-.97,1.65-1.55.32.14.69.29,1.06.47.46.22.87.28,1.13-.43ZM8.93,90.69c-1.89.77-3.64,1.46-5.38,2.2-.22.09-.45.34-.51.56-.04.15.17.48.34.55,1.81.71,3.64,1.39,5.61,2.13-.05-1.35-1.33-.94-1.77-1.61v-2.12c.49-.72,1.81-.26,1.72-1.7ZM123.52,194.8c-.72.18-.52.58-.38.97.25.72,0,1.3-.54,1.76-.59.5-1.29.63-1.94.17-.56-.4-1.08-.88-1.51-1.41-.47-.59-.52-1.29-.09-1.96.45-.69,1.07-1.05,1.89-.74.53.19.66-.07.73-.49-1.21-.54-2-.44-2.81.37-.81.8-1.04,1.94-.59,2.95.38.86,1.03,1.48,1.85,1.92,1.15.62,2.25.44,3.15-.49.87-.89.95-1.74.25-3.05ZM34.65,15.28c-.27-1-.59-1.31-1.35-1.4-.8-.09-1.56.29-1.9,1.08-.55,1.25-.58,2.57-.09,3.84.38.99,1.51,1.4,2.46.98.89-.39,1.34-1.61.96-2.64-.34-.95-1.28-1.35-2.31-.99-.2.07-.39.16-.61.26-.03-.17-.06-.25-.05-.33.1-.63.26-1.23.92-1.49.66-.25,1.08.09,1.41.64.05.09.34.04.56.05ZM3.09,85.52c-.2.68.2.69.59.69,1.07,0,2.15-.03,3.22.02,1.01.04,1.48.52,1.53,1.42.05.93-.41,1.51-1.35,1.56-1.11.06-2.23.03-3.35.04-.38,0-.79,0-.64.71,1.44.15,2.91.15,4.38-.04,1.08-.14,1.64-.9,1.68-2.11.04-1.19-.59-2.19-1.65-2.27-1.47-.11-2.95-.03-4.4-.03ZM6.61,137.54c-.04-.82-.04-1.43-.1-2.04-.11-1.14-.68-1.69-1.71-1.71-1.01-.02-1.65.52-1.76,1.66-.08.88-.02,1.78-.02,2.78,1.89,0,3.69.01,5.49-.02.17,0,.34-.27.51-.42-.04-.09-.08-.17-.12-.26h-2.3ZM31.09,62.67c.39,1.27,1.07,1.78,2.1,1.6,1.07-.18,1.86-1.12,1.73-2.2-.05-.46-.29-.95-.57-1.32-.57-.74-1.44-.53-2.31-.39.13-.53.23-.92.33-1.32.8-.05,1.54-.09,2.44-.15-.72-.68-1.47-.75-3.05-.43-.18.94-.6,1.88-.37,3.05.35-.2.58-.33.82-.46.7-.38,1.4-.25,1.74.32.4.66.2,1.71-.4,2.12-.58.4-1.06.25-1.61-.54-.19-.28-.33-.6-.84-.29ZM58.49,196.25c.74-.63,1.36-1.16,1.95-1.65-.21-.56-.46-.58-.77-.27-.52.51-1.04,1.01-1.63,1.59-.46-.5-.82-.89-1.22-1.32.71-.77,1.41-1.52,2.17-2.33-.27-.14-.44-.27-.47-.24-.94.83-1.87,1.68-2.88,2.59,1.37,1.37,2.62,2.62,3.87,3.87.36.36.64.31.85-.24-.54-.58-1.1-1.17-1.87-2ZM30.33,16.91c-.12-.62-.16-1.24-.35-1.81-.27-.83-.89-1.24-1.66-1.22-.79.02-1.33.43-1.58,1.16-.42,1.24-.41,2.5,0,3.75.24.76.83,1.11,1.58,1.17.73.06,1.4-.42,1.66-1.23.19-.58.24-1.2.36-1.81ZM30.34,61.26c-.13-.64-.19-1.3-.4-1.91-.24-.72-.81-1.13-1.6-1.12-.79,0-1.33.41-1.59,1.14-.43,1.24-.41,2.5-.02,3.75.24.76.82,1.12,1.57,1.18.73.06,1.41-.41,1.67-1.22.19-.57.24-1.19.36-1.82ZM30.34,105.57c-.13-.64-.2-1.3-.42-1.91-.23-.67-.77-1.06-1.51-1.08-.79-.02-1.36.34-1.64,1.07-.48,1.27-.45,2.57-.03,3.86.25.76.86,1.13,1.6,1.14.75,0,1.37-.4,1.6-1.13.2-.62.26-1.27.39-1.95ZM30.34,150.08c-.12-.62-.17-1.2-.34-1.74-.27-.84-.88-1.29-1.61-1.3-.74-.01-1.39.41-1.66,1.24-.41,1.24-.4,2.51.04,3.74.24.68.76,1.06,1.49,1.09.79.04,1.39-.32,1.65-1.04.23-.64.3-1.35.43-1.99ZM59.01,199.72c-.69-.66-1.32-1.29-1.97-1.9-.76-.72-1.24-.77-1.95-.25-.97.71-1.19,1.41-.74,2.37.57-.07.29-.55.43-.82.2-.41.54-.79.9-1.07.13-.1.51.13.85.24-.22.38-.33.59-.47.8-.21.31-.46.59-.64.91-.35.65-.23,1.31.26,1.67.47.35,1.03.31,1.57-.18.27-.24.51-.56.65-.88.15-.36.25-.67.75-.57.09.02.23-.19.36-.3ZM20.79,151.08c0-1.54-.54-2.28-1.6-2.4-1.07-.12-1.94.53-2.14,1.6-.25,1.33.21,2.26,1.27,2.6,1.15.37,1.92,0,2.4-1.16-.44-.3-.66,0-.9.31-.33.41-.8.46-1.24.29-.48-.19-.83-.53-.66-1.24h2.88ZM34.04,102.5c-.36.13-.56.13-.64.23-.86,1.2-1.72,2.41-2.55,3.63-.09.14-.03.39-.05.68h2.35q.26,1.27.76,1.37.2-1.19.95-1.72c-1.03-.34-.81-1.17-.82-1.91-.01-.69,0-1.39,0-2.28ZM6.24,102.58c.17.77.28,1.46.48,2.12.16.52.59.79,1.14.78.54,0,.95-.41,1.07-1.02.04-.2.06-.42.03-.61-.12-.67-.42-1.33,0-2.02-1.02,0-1.92-.02-2.82,0-.95.02-1.3.33-1.43,1.18-.19,1.21.14,1.85,1.12,2.2.3-.39-.05-.53-.25-.79-.63-.8-.38-1.53.68-1.84ZM34.03,149.77c.67-1.05.66-1.78,0-2.32-.63-.51-1.7-.53-2.29,0-.33.3-.73.66-.19,1.26.19-.22.35-.35.44-.51.3-.51.75-.7,1.26-.47.25.11.5.46.54.74.09.59-.28.88-.84,1.01-.18.04-.31.28-.48.45.17.1.24.17.31.17.7.01,1.2.29,1.32,1.04.09.57-.22,1.09-.75,1.27-.72.25-1.18-.05-1.5-.7-.22-.46-.48-.28-.78-.04.3.92.87,1.42,1.82,1.44.81.01,1.46-.32,1.81-1.07.42-.92.13-1.68-.64-2.27ZM2.84,58.15c.93,1.24,3.66,3.04,4.6,3.11.05-.8.1-1.6.14-2.36.54-.11.95-.19,1.4-.28-.12-.71-.64-.45-.96-.6-.33-.15-.58-.45-.95-.74-.16.7-.64.84-1.27.78-.53-.05-1.07-.02-1.6,0-.39.01-.78.05-1.36.1ZM9.08,113.8c-1.13,0-2.02-.02-2.92,0-.6.02-1.24.16-1.36.82-.11.62-.05,1.3.07,1.92.08.43.44.75,1.12.67-.28-.56-.61-1-.73-1.5-.15-.65.13-.9.99-1.03.07.31.14.62.2.93.07.32.1.65.2.96.23.68.66.95,1.3.88.6-.07,1-.47.99-1.2,0-.56-.19-1.11-.29-1.69.09-.15.21-.37.44-.76ZM6.22,125.46c.17.78.28,1.46.47,2.11.13.46.48.83.99.76.37-.05.86-.21,1.03-.48.21-.34.29-.88.19-1.28-.15-.63-.41-1.21.14-1.87-1.11,0-2.04-.02-2.98,0-.55.02-1.17.19-1.26.79-.1.66-.02,1.37.11,2.03.07.39.43.68,1.09.55-.27-.48-.58-.88-.73-1.33-.2-.61.05-.93.95-1.31ZM6.93,122.44c.52-.91,2.02-.8,2.04-2.3-1,.62-1.85,1.15-2.71,1.68-.53-.49-.98-.91-1.54-1.43-.22,1.34,1.2,1.52,1.39,2.6h-3.34c.32.33.44.56.57.56,1.77.02,3.54.03,5.31,0,.11,0,.21-.32.31-.48-.67-.43-1.52.19-2.03-.63ZM4.63,56.42c0-.23.07-.47-.02-.58-.15-.18-.43-.24-.61-.4-.38-.35-.44-1.05-.17-1.48.31-.47.87-.65,1.41-.27.6.42,1.09.99,1.62,1.51.57.57,1.05,1.28,2.13,1.36,0-.71.05-1.36-.01-2-.06-.59.3-1.28-.54-1.98-.08,1.08-.14,1.94-.2,2.8-.08.05-.17.1-.25.15-.25-.31-.48-.64-.75-.94-.42-.46-.82-.93-1.29-1.33-.61-.51-1.31-.7-2.06-.27-.64.36-.98,1.15-.83,1.92.16.83.57,1.44,1.58,1.51ZM20.78,106.53c.03-1.48-.55-2.25-1.7-2.35-.99-.08-1.84.58-2.04,1.59-.25,1.3.22,2.31,1.24,2.65,1.1.36,1.95-.04,2.44-1.18-.33-.26-.58-.17-.8.16-.31.47-.76.61-1.29.44-.59-.18-.87-.58-.79-1.31h2.94ZM17.78,62.15h3.03c-.03-1.51-.63-2.26-1.76-2.32-1-.06-1.82.61-2,1.64-.24,1.36.3,2.38,1.4,2.65,1.1.26,1.87-.17,2.25-1.25-.37-.3-.55-.04-.81.21-.92.88-1.73.59-2.11-.92ZM17.85,17.81h2.95c0-1.5-.58-2.25-1.73-2.34-.99-.07-1.83.59-2.03,1.61-.25,1.3.23,2.31,1.25,2.63,1.1.35,1.96-.07,2.42-1.2-.35-.27-.59-.14-.81.18-.32.47-.77.6-1.3.42-.59-.19-.86-.59-.77-1.31ZM184.41,193.96c-.7.66-1.32,1.25-2.04,1.94-.41-.47-.77-.9-1.2-1.39.68-.7,1.38-1.43,2.26-2.33-.45-.04-.74-.16-.84-.07-.86.81-1.69,1.65-2.62,2.58,1.35,1.3,2.6,2.5,3.83,3.71.34.34.62.38.93-.15-.56-.59-1.15-1.21-1.75-1.85.65-.69,1.24-1.31,1.89-2-.17-.17-.28-.29-.45-.46ZM6.99,129.27c-1.63.12-2.29.66-2.34,1.8-.04,1.1.64,1.88,1.74,1.99,1.41.15,2.27-.33,2.51-1.4.26-1.15-.14-1.89-1.22-2.23-.39.47.08.62.32.86.4.39.5.85.23,1.34-.25.45-.57.8-1.25.55v-2.91ZM6.98,106.25c-1.58.07-2.26.61-2.32,1.75-.05,1.05.58,1.85,1.59,2.01,1.43.23,2.4-.27,2.66-1.36.27-1.13-.11-1.86-1.2-2.27-.41.45.02.62.28.86.41.38.52.83.27,1.33-.24.47-.56.8-1.28.59v-2.9ZM52.51,201.84c-.61.38-1.55-.74-1.98.49.78.17,1.49.32,2.21.48.2.86.39,1.66.6,2.55,1.04-.8-.02-1.67.37-2.38.75-.12,1.53.67,2.31-.29-.94-.22-1.8-.41-2.6-.6-.16-.8-.31-1.49-.46-2.26-1.05.58-.22,1.34-.44,2.01ZM276.65,197.15c.9.95,1.56,1.04,2.26.47.73-.61.93-1.48.3-2.17-1.04-1.15-2.2-2.19-3.41-3.39-.17.16-.31.29-.5.47,1.1,1.12,2.09,2.1,3.06,3.1.32.33.63.7.28,1.2-.32.45-.69.49-1.18.25-.17-.08-.44.03-.8.07ZM15.04,13.71c-.5.46-.86.76-1.18,1.1-.3.33-1.06.37-.78,1.2.44-.21.82-.39,1.32-.63,0,.63,0,1.12,0,1.61,0,.78,0,1.56,0,2.34,0,.37.18.52.63.39v-6.02ZM14.4,59.7c0,1.44,0,2.67,0,3.9,0,.4.11.65.62.48v-5.84c-1.46.95-1.97,1.51-1.86,2.12.37-.19.72-.38,1.24-.65ZM15.12,102.43q-2.01,1.61-2.03,2.26c.42-.19.8-.36,1.34-.61v4.38c.25,0,.47.02.48,0,.45-1.92.11-3.85.21-6.03ZM14.73,153.01c.1-.02.2-.04.3-.07v-5.85c-1.23.75-1.84,1.36-2.01,2.06.47-.18.88-.34,1.38-.54,0,.86-.06,1.6.02,2.33.07.68-.37,1.5.31,2.06ZM2.86,84.05c4.13-1.31,3.22-1.46,7.76-.09-1.54-2.18-5.96-2.17-7.76.09ZM4.53,72.28c.66,0,1.15,0,1.64,0,.78,0,1.56,0,2.35-.02.36-.01.51-.22.34-.57-1.74-.24-5.05-.16-5.8.14q1.57,1.72,2.09,1.67c-.17-.34-.33-.66-.61-1.21ZM4.56,68.31c1.34,0,2.49,0,3.64,0,.36,0,.8.05.68-.61H3.09c.71.63.92,1.72,2.16,2.11-.28-.61-.44-.96-.68-1.5ZM2.81,96.55c.2.4.23.57.33.65,2.31,1.7,4.95,1.71,7.32.03.11-.08.12-.3.25-.64-2.67,1.48-5.17,1.48-7.9-.04ZM243.48,201.88c-1.52-1.53-2.88-2.88-4.33-4.34-.02.23-.14.55-.04.66,1.2,1.25,2.42,2.47,3.66,3.66.12.11.44.01.71.01ZM178.67,196.16c1.24,1.22,2.48,2.43,3.7,3.64.37.37.66.48.9-.23-1.24-1.22-2.49-2.45-3.75-3.69-.31-.31-.56-.28-.85.28ZM110.52,201.86c1.39,1.39,2.64,2.63,3.88,3.88.36.37.62.31.77-.05-1.38-1.41-2.72-2.78-4.15-4.24-.14.11-.28.23-.49.41ZM212.09,201.95c-.29-.3-.59-.62-.91-.93-.93-.93-1.85-1.85-2.78-2.78-.31-.31-.6-.46-.89.17.37.37.77.78,1.17,1.18.84.84,1.68,1.67,2.52,2.52.32.32.6.43.88-.16ZM25.57,150.32c-.17-1.01-1.12-.28-1.48-.8-.04-.41-.09-.84-.14-1.32-1.13.08-.26,1.15-.87,1.47-.32.29-1.15-.32-1.29.65.51.07.98.13,1.31.18.51.46-.22,1.36.82,1.53.08-.56.15-1.06.22-1.54.52-.06.95-.11,1.43-.17ZM272.38,195.3c1.46,1.45,2.71,2.7,3.96,3.95.29.29.56.34.83-.24-1.27-1.26-2.57-2.57-3.9-3.85-.09-.09-.42.06-.89.14ZM24.09,61.77c.5-.41,1.37.3,1.46-.74-.51-.06-.98-.11-1.34-.15-.44-.49.26-1.35-.78-1.55-.07.56-.14,1.07-.2,1.56-.53.05-.97.09-1.44.14.1,1.07,1.06.33,1.53.89.35.17-.51,1.19.63,1.21.05-.48.09-.92.13-1.35ZM25.55,16.68c-.51-.06-.98-.11-1.35-.15-.44-.49.27-1.34-.77-1.56-.07.57-.14,1.07-.2,1.56-.53.05-.97.09-1.44.14.09,1.08,1.05.33,1.53.89.36.18-.51,1.2.63,1.22.07-.51.13-.98.17-1.3.5-.42,1.33.22,1.43-.8ZM23.25,106.18c.06.45.12.9.19,1.43.94-.35.34-1.13.73-1.52q1.18-.14,1.28-.75c-.45-.03-.89-.05-1.26-.08-.4-.5.19-1.31-.76-1.66-.07.61-.13,1.11-.19,1.62-.52.07-.98.12-1.52.19.25.94,1.04.36,1.52.77ZM84.33,197.25c-.47.23-.59.46-.25.79,1.27,1.27,2.54,2.54,3.79,3.79.48-.23.59-.46.25-.79-1.27-1.27-2.54-2.54-3.79-3.79ZM212.81,201.22c.73-.43.46-.71.18-.99-.87-.87-1.74-1.74-2.61-2.6-.36-.36-.74-.71-1.07-1.04-.56.3-.46.55-.18.83,1.23,1.26,2.45,2.52,3.69,3.8ZM271.57,196.01c-.03.53-.15.86-.04.97,1.27,1.32,2.58,2.61,3.87,3.91.09-.03.18-.05.26-.08,0-.22.12-.54.01-.66-1.27-1.32-2.58-2.61-4.11-4.15ZM244.85,200.2c-1.28-1.24-2.54-2.46-3.8-3.69-.37-.36-.6-.26-.85.21,1.27,1.26,2.52,2.5,3.76,3.75.3.3.55.33.9-.27ZM89.72,200c-1.27-1.26-2.53-2.49-3.78-3.73-.37-.37-.61-.27-.85.29,1.25,1.22,2.51,2.45,3.77,3.68.3.29.55.33.86-.24ZM182.01,200.97c-1.28-1.28-2.53-2.52-3.78-3.76-.37-.37-.61-.25-.87.28,1.27,1.24,2.54,2.46,3.79,3.69.31.31.56.3.85-.21ZM116.5,204.52c.03-.09.06-.18.09-.26-1.3-1.29-2.59-2.59-3.91-3.86-.12-.11-.44-.01-.66-.01-.03.09-.06.18-.09.27,1.3,1.29,2.59,2.6,3.91,3.87.12.11.44,0,.67,0ZM142.15,201.54c-.45.26-.32.52-.04.79.84.84,1.68,1.68,2.52,2.52.32.32.63.64.96.95.34.32.57.2.68-.1-1.38-1.39-2.73-2.75-4.12-4.15ZM143.31,200.21c-.02.24-.14.56-.03.67,1.2,1.25,2.43,2.47,3.67,3.68.29.28.52.09.6-.13-1.4-1.4-2.76-2.75-4.23-4.22ZM5.05,110.28c-.84.75.36,1.5-.55,2.19h4.39c.04-.08.07-.15.11-.23-.18-.14-.35-.38-.54-.4-.61-.06-1.24-.01-1.86-.04-.91-.04-.91-.06-1.18-1.03-.05-.16-.21-.29-.37-.49ZM7.18,77.08c-.34.14-.59.19-.6.26-.06.56-.11,1.13-.07,1.69,0,.15.32.27.67.54v-2.5Z"/>
    <path d="M276.89,187.29v3.02c-.61.15-1.02.19-1.02-.51,0-.78,0-1.55,0-2.4h-30.04v2.93c-.37.02-.63.03-1.02.05v-2.97h-29.98v2.93h-1.17v-2.95h-29.96c-.02.78-.05,1.55-.06,2.32,0,.6-.24.85-1,.57v-2.89h-30.02c-.02.77-.03,1.54-.06,2.31-.03.61-.04.61-.95.67-.04-.96-.09-1.93-.13-2.97h-29.89v2.73c-1.02.38-1.13.33-1.16-.53-.02-.7,0-1.4,0-2.08-.95-.25-28.45-.31-30.03-.06,0,.75,0,1.52,0,2.3,0,.64-.34.77-1,.5v-2.86h-30.04v2.89c-.37.04-.64.06-1.03.1v-3.02c-.55-.02-.98-.06-1.41-.06-4.96,0-9.92-.05-14.88.02-2.22.03-2.46-.4-2.46-2.41.03-10.9.02-21.8.02-32.7v-1.61c-1.05-.05-2.02-.1-3.02-.15v-1.02h2.94v-43.31h-2.88c-.04-.4-.07-.66-.12-1.04h2.85c.28-1.02.33-41.96.06-43.39h-2.83v-1.03h2.92V17.37h-2.89c-.04-.37-.07-.63-.11-1.02,1-.05,1.93-.09,2.99-.14.17-1.32.06-2.64.08-3.94.02-1.28,0-2.56,0-3.84v-4.06c.38-.02.68-.03,1.1-.06v181.5c.15.19.17.23.2.25.03.02.08.03.12.04.04.01.08.03.12.04.04,0,.08,0,.12.01.04,0,.08,0,.12,0,.04,0,.08,0,.12,0,.08,0,.17,0,.25,0,.04,0,.08,0,.12,0s.08,0,.12,0c.12,0,.25,0,.37,0,83.8,0,167.6,0,251.4,0,.04,0,.08,0,.12,0s.08,0,.12,0c.08,0,.17,0,.25,0,.04,0,.08,0,.12,0,.04,0,.08,0,.12,0,.04,0,.08,0,.12.02.04,0,.08.02.12.03.04.02.07.04.2.11.02.25.05.55.08.96h-18.12Z"/>
    <path d="M277.32,14.52c1.22.78,1.17,1.99,1.02,3.2-.12.95-.92,1.58-1.9,1.61-1.03.02-1.94-.62-2.04-1.59-.12-1.19-.24-2.43,1.04-3.19-1.23-1.26-1.41-2.41-.54-3.33.77-.81,2.09-.83,2.89-.04.93.91.78,2.07-.48,3.35Z"/>
    <path d="M277.57,46.66c1.01,1.29,1.07,2.42.2,3.22-.79.74-2.01.72-2.79-.03-.88-.85-.82-1.92.2-3.15-1.04-1.52-1.07-2.56-.11-3.37.79-.67,1.95-.63,2.7.08.86.81.81,1.88-.21,3.25Z"/>
    <path d="M185.13,31.38c-.24.67-.16,1.44-.03,2.26.18,1.19-.82,2.1-2.04,2.07-1.2-.03-2.14-1.03-1.92-2.2.13-.69.17-1.31,0-2.01-.26-1.15.69-2.2,1.86-2.26,1.21-.06,2.15.83,2.12,2.15Z"/>
    <path d="M60.79,36.14c0,.29.02.58,0,.86-.08,1.1-.98,1.9-2.07,1.87-1.04-.03-1.87-.83-1.93-1.88-.03-.53-.02-1.07,0-1.6.04-1.2.89-1.99,2.07-1.97,1.12.03,1.91.82,1.94,1.97,0,.25-.03.49-.04.74.01,0,.02,0,.04,0Z"/>
    <path d="M181.09,25.91c.04-1.22.98-2.15,2.13-2.09,1.16.06,1.97,1.03,1.93,2.28-.04,1.23-.97,2.15-2.12,2.09-1.15-.06-1.97-1.04-1.93-2.28Z"/>
    <path d="M278.4,59.26c0,1.27-.84,2.17-2.02,2.16-1.17,0-2.03-.92-2.03-2.17,0-1.21.92-2.19,2.04-2.19,1.15,0,2.01.95,2.01,2.2Z"/>
    <path d="M117.76,198.65c.14.02.26.05.38.04.75-.06,1.29.29,1.58.94.32.71.15,1.37-.39,1.93-.6.62-1.21,1.22-1.76,1.77-1.41-1.4-2.77-2.76-4.22-4.21.54-.52,1.12-1.17,1.78-1.7,1.08-.87,2.1-.48,2.49.89.03.11.08.22.12.33ZM117.54,202.42c.5-.52.95-.94,1.33-1.41.36-.45.29-.92-.13-1.32-.38-.36-.83-.4-1.23-.07-.49.4-.93.87-1.44,1.37.52.5.92.9,1.47,1.43ZM115.63,200.45c.41-.46.81-.87,1.17-1.31.3-.37.28-.76-.06-1.11-.34-.34-.72-.4-1.1-.07-.42.38-.83.77-1.2,1.11.4.46.74.85,1.19,1.38Z"/>
    <path d="M118.86,178.31c.11-1.13,1.22-2.02,2.35-1.89,1.12.13,1.91,1.13,1.8,2.27-.1,1.08-1.19,1.97-2.25,1.85-1.09-.12-2.01-1.2-1.9-2.23Z"/>
    <path d="M91.98,178.51c-.03,1.07-1.03,2.04-2.11,2.04-1.14,0-2.1-1.01-2.05-2.18.05-1.13.98-1.99,2.12-1.96,1.09.03,2.07,1.04,2.04,2.09Z"/>
    <path d="M247.37,178.42c.03,1.11-.86,2.07-1.98,2.13-1.1.06-2.07-.84-2.12-1.96-.05-1.22.81-2.16,2.01-2.17,1.12-.01,2.06.89,2.09,2Z"/>
    <path d="M148.74,203.5c-1.53-1.54-2.85-2.88-4.25-4.28.53-.81,1.31-1.52,2.18-2.11.48-.32,1.05-.39,1.65-.18.82.27,1.44.78,1.95,1.43,1,1.28.95,2.33-.12,3.53-.46.52-.92,1.04-1.42,1.61ZM145.63,199.05c1.06,1.1,2.07,2.14,3.12,3.22.65-.72,1.75-1.23,1.36-2.49-.32-1.03-1.02-1.8-2.09-2.07-1.25-.31-1.77.72-2.39,1.35Z"/>
    <path d="M152.03,180.55c-1.12,0-2.01-.92-2.01-2.06,0-1.17.84-2.05,1.99-2.07,1.18-.02,2.13.93,2.1,2.11-.03,1.13-.95,2.04-2.07,2.03Z"/>
    <path d="M214.21,54.65c-1.08,0-2.07-1.01-2.04-2.08.02-1.1,1.01-2.04,2.11-2,1.04.04,1.97.97,1.99,2.01.02,1.07-.98,2.08-2.05,2.08Z"/>
    <path d="M60.8,47.98c0,1.14-.91,2.04-2.04,2.03-1.13-.01-2.01-.94-1.99-2.08.03-1.07.91-1.96,1.97-1.98,1.11-.02,2.05.91,2.05,2.03Z"/>
    <path d="M214.21,176.44c1.09,0,2.08.99,2.06,2.06-.02,1.08-1.02,2.05-2.11,2.01-1.05-.03-1.97-.96-2-2-.02-1.08.95-2.07,2.04-2.07Z"/>
    <path d="M215.83,195.2c-.43.38-.8.7-1.14,1-.42-.15-.49-.38-.25-.67.42-.51.85-1,1.34-1.58.67.72,1.16,1.26,1.68,1.81-.5,2.28-2.16,3.6-3.91,3.06-1.77-.56-2.92-2.54-2.34-4.06.6-1.57,2.12-2.28,3.53-1.63-.05.38-.18.61-.65.47-.91-.26-1.5.25-1.97.93-.5.74-.39,1.49.09,2.2.21.3.46.59.74.83,1.19,1.02,2.54.78,3.34-.55.47-.79.42-1.02-.45-1.8Z"/>
    <path d="M216.26,26.67c.03,1.09-.91,2.05-2.03,2.06-1.12.01-2.07-.92-2.07-2.02,0-1.07.87-1.94,1.96-1.98,1.16-.04,2.1.82,2.13,1.93Z"/>
    <path d="M278.39,66.24c0,1.13-.94,2.07-2.04,2.05-1.05-.02-1.96-.93-1.98-1.99-.03-1.14.86-2.07,1.98-2.09,1.12-.02,2.04.9,2.04,2.03Z"/>
    <path d="M216.26,74.27c0,1.08-.99,2.03-2.09,2.02-1.1-.02-2.05-1-2.01-2.08.04-1.06.94-1.93,2.02-1.94,1.12-.01,2.08.92,2.08,2.01Z"/>
    <path d="M60.8,30.77c-.03,1.15-.91,1.97-2.1,1.93-1.16-.04-1.98-.94-1.92-2.1.05-1.1.91-1.89,2.03-1.88,1.16.01,2.01.89,1.99,2.05Z"/>
    <path d="M45.57,206.93c.62-.37,1.09-.4,1.25-.99.16-.63.82-.87,1.45-.82.11-.35.15-.64.27-.89.47-.94,1.33-1.14,2.13-.46.66.56,1.25,1.2,1.85,1.82.23.24.21.26-.25.77-.61-.6-1.22-1.2-1.83-1.8-.34-.33-.7-.62-1.18-.25-.46.35-.53.89-.09,1.41.58.69,1.23,1.31,1.83,1.94-.25.45-.49.51-.81.19-.49-.5-.98-1-1.49-1.48-.36-.34-.73-.74-1.26-.25-.41.39-.44.89.01,1.43.55.66,1.17,1.26,1.74,1.86-.22.5-.47.52-.79.21-.89-.85-1.78-1.7-2.82-2.7Z"/>
    <path d="M143.27,208.66c-.24.44-.48.53-.81.19-.52-.53-1.04-1.06-1.58-1.57-.34-.32-.72-.62-1.17-.17-.41.41-.45.89-.07,1.33.59.68,1.21,1.33,1.81,1.97-.2.49-.46.52-.78.21-.88-.86-1.77-1.72-2.73-2.66.57-.38,1-.69,1.29-1.22.21-.38.83-.54,1.38-.87.03-.11.08-.4.2-.65.46-.93,1.33-1.15,2.13-.47.66.56,1.24,1.2,1.85,1.82.33.34.22.57-.28.76-.58-.57-1.19-1.18-1.8-1.77-.34-.33-.69-.63-1.18-.26-.46.35-.54.89-.1,1.41.58.69,1.23,1.31,1.83,1.95Z"/>
    <path d="M151.4,196.5c.6.68,1.01,1.13,1.38,1.55,1.18-.56,1.59-1.9,2.81-2.21.03,0,.1.11.26.3-.9,1.06-1.97,1.99-2.87,2.94-1.41-1.42-2.77-2.79-4.22-4.25.76-.75,1.65-1.65,2.56-2.54.3-.29.51-.13.69.3-.77.68-1.56,1.38-2.55,2.25.62.52,1.05.87,1.52,1.27.73-.72,1.46-1.43,2.25-2.2.62.88-.21,1.09-.5,1.43-.37.43-.87.76-1.34,1.16Z"/>
    <path d="M180.18,202.76c-.59-.57-1.17-1.15-1.76-1.71-.36-.34-.71-.76-1.26-.31-.45.37-.46.96.03,1.53.46.53.98,1.01,1.47,1.51.27.27.25.5-.24.76-.42-.41-.88-.85-1.34-1.29-.21-.2-.38-.48-.63-.58-.3-.13-.72-.26-.99-.15-.43.17-.49.66-.31,1.07.12.29.35.55.57.79.39.43.84.8,1.2,1.25.11.13.01.43,0,.7-1.1-1.1-2.08-2.08-3.08-3.08.5-.13.72-.72,1.1-1.18.29-.35.82-.49,1.3-.75.08-.23.15-.57.31-.84.45-.75,1.22-.94,1.88-.39.73.6,1.38,1.3,2.03,1.99.1.11.01.39.01.59-.1.04-.2.08-.3.11Z"/>
    <path d="M206.39,202.18c.03-.1.08-.39.22-.63.49-.89,1.27-1.07,2.04-.41.77.66,1.46,1.42,2.16,2.11-.27.5-.52.53-.83.21-.49-.5-.99-.99-1.49-1.48-.37-.36-.77-.67-1.28-.21-.42.38-.44.9.04,1.42.55.61,1.19,1.14,1.78,1.69-.17.55-.38.79-.8.4-.54-.5-1.05-1.05-1.58-1.57-.35-.35-.77-.56-1.19-.18-.43.39-.42.9-.05,1.33.48.56,1,1.09,1.52,1.62.3.31.32.55.02.71-1.03-1.01-2.04-2-3.1-3.04.56-.07.81-.47,1.09-.95.24-.4.81-.6,1.45-1.02Z"/>
    <path d="M86.59,203.13c-.56-.56-1.13-1.14-1.73-1.7-.63-.59-1-.65-1.37-.26-.41.43-.38.93.16,1.53.55.6,1.13,1.17,1.67,1.73-.25.48-.5.54-.82.22-.49-.5-.99-.99-1.49-1.48-.36-.35-.73-.74-1.26-.26-.41.38-.43.88.02,1.43.44.54.96,1.02,1.44,1.53.11.12.21.25.44.54-.35.05-.68.2-.79.11-.95-.89-1.86-1.83-2.82-2.78.35-.45.94-.37,1.09-.98.16-.65.79-.9,1.47-.83.06-.23.1-.39.15-.55.44-1.34,1.39-1.61,2.41-.67.58.53,1.11,1.1,1.66,1.65.34.34.21.57-.25.77Z"/>
    <path d="M272.91,203.29c-.4.67-.65.63-.94.32-.51-.53-1.04-1.06-1.58-1.57-.31-.29-.65-.54-1.08-.19-.42.34-.51.82-.16,1.32.28.4.65.74.99,1.1.3.33.61.64.9.95-.25.45-.49.52-.82.2-.89-.86-1.78-1.7-2.86-2.73,1.35-.25,1.22-2.03,2.71-1.73.07-.26.1-.46.17-.64.49-1.3,1.44-1.52,2.47-.58.64.58,1.26,1.18,1.9,1.79-.19.48-.36.78-.8.37-.57-.54-1.11-1.1-1.67-1.65-.33-.32-.69-.48-1.09-.12-.38.35-.49.78-.17,1.21.29.39.63.76.99,1.1.32.31.7.57,1.05.86Z"/>
    <path d="M241.61,203.47c-.56-.6-1.11-1.21-1.67-1.81-.35-.37-.74-.72-1.27-.31-.45.34-.45.98.03,1.53.46.53.98,1,1.47,1.5.16.17.15.18-.16.86-.49-.48-.95-.93-1.4-1.37-.18-.17-.34-.36-.53-.52-.34-.3-.7-.66-1.17-.23-.43.39-.45.9-.11,1.33.44.54.95,1.03,1.43,1.54.14.15.27.3.4.45-.18.41-.41.57-.75.24-.9-.89-1.79-1.79-2.81-2.81.65-.19.98-.48,1.25-.96.24-.43.85-.65,1.44-.82.04-.15.09-.31.11-.47.17-1.2,1.59-1.65,2.42-.69.51.59,1.12,1.1,1.64,1.68.13.14.08.43.12.65-.14.07-.28.14-.43.2Z"/>
    <path d="M110.3,210.73c-.22-.03-.53.03-.66-.09-.92-.87-1.81-1.77-2.83-2.79.64-.21.98-.49,1.25-.97.24-.43.85-.65,1.46-.81.05-.24.06-.49.15-.7.44-1.07,1.4-1.31,2.26-.53.61.55,1.19,1.14,1.74,1.75.13.14.09.43.13.65-.1.05-.2.11-.29.16-.45-.44-.91-.88-1.36-1.33-.18-.17-.35-.35-.53-.52-.35-.34-.72-.59-1.19-.23-.41.32-.45.93-.05,1.43.33.41.74.77,1.11,1.16.2.21.43.4.57.64.06.11-.09.34-.21.74-.58-.57-1.03-1.01-1.49-1.46-.18-.17-.34-.36-.53-.52-.35-.3-.69-.64-1.18-.23-.41.35-.45.92-.03,1.44.41.51.91.95,1.36,1.43.14.15.26.31.4.46-.03.11-.05.22-.08.33Z"/>
    <path d="M244.34,192.61c.21-.46.44-.62.78-.28,1.2,1.19,2.39,2.38,3.58,3.58.35.35.09.57-.3.76-.61-.58-1.23-1.16-1.91-1.82-.68.73-1.31,1.41-2.03,2.18.62.51,1.29,1.05,1.98,1.63-.35.38-.5.55-.64.7-1.37-1.39-2.7-2.73-4.1-4.14.05-.07.18-.25.36-.5.62.56,1.18,1.07,1.72,1.56.67-.7,1.3-1.34,2.02-2.09-.4-.44-.91-1-1.46-1.59Z"/>
    <path d="M5.78,64.86c-1.04.71-1.81.71-2.36.06-.54-.63-.54-1.63,0-2.28.55-.67,1.33-.67,2.4,0,1.05-.94,2.07-1.01,2.8-.21.72.79.67,2.07-.1,2.79-.76.71-1.74.6-2.73-.35ZM7.28,62.62c-.69.02-1.15.49-1.13,1.19.01.69.5,1.14,1.19,1.12.7-.02,1.14-.49,1.13-1.19-.01-.7-.48-1.13-1.19-1.11ZM4.61,64.69c.55-.02.89-.41.85-.99-.03-.57-.41-.88-.99-.82-.56.05-.79.4-.8.91,0,.56.38.92.94.9Z"/>
    <path d="M93.93,195.75c-.26.71-.67.64-1.13.43-.37-.17-.74-.33-1.06-.47-.62.58-1.19,1.11-1.65,1.55-.13.85,1.08,1.45.1,2.43-.42-.9-.78-1.67-1.12-2.43-.44-.97-.89-1.94-1.3-2.93-.08-.19-.08-.53.04-.64.17-.15.53-.28.72-.2,1.82.73,3.61,1.51,5.41,2.27ZM88.45,194.2c.46.96.8,1.67,1.11,2.31.48-.38.92-.72,1.47-1.14-.89-.4-1.61-.73-2.59-1.17Z"/>
    <path d="M8.93,90.69c.09,1.45-1.23.99-1.72,1.7v2.12c.44.67,1.72.26,1.77,1.61-1.97-.74-3.8-1.41-5.61-2.13-.17-.07-.38-.4-.34-.55.06-.22.29-.47.51-.56,1.74-.73,3.49-1.43,5.38-2.2ZM6.42,92.51c-.92.36-1.65.64-2.56,1,.98.34,1.73.6,2.56.88v-1.88Z"/>
    <path d="M123.52,194.8c.7,1.31.62,2.16-.25,3.05-.9.93-2,1.11-3.15.49-.82-.44-1.46-1.06-1.85-1.92-.44-1.01-.21-2.14.59-2.95.81-.81,1.61-.92,2.81-.37-.07.42-.2.68-.73.49-.82-.3-1.44.05-1.89.74-.43.67-.38,1.37.09,1.96.43.53.95,1.02,1.51,1.41.64.46,1.34.33,1.94-.17.54-.46.8-1.04.54-1.76-.14-.4-.34-.8.38-.97Z"/>
    <path d="M34.65,15.28c-.21-.02-.5.04-.56-.05-.33-.56-.75-.9-1.41-.64-.66.25-.83.86-.92,1.49-.01.08.02.16.05.33.22-.09.41-.19.61-.26,1.03-.36,1.97.05,2.31.99.37,1.03-.07,2.25-.96,2.64-.95.42-2.08.01-2.46-.98-.49-1.27-.45-2.58.09-3.84.34-.78,1.1-1.17,1.9-1.08.76.08,1.08.39,1.35,1.4ZM34.13,17.89c-.02-.76-.53-1.32-1.18-1.3-.64.02-1.15.63-1.13,1.36.02.8.6,1.43,1.26,1.38.6-.04,1.07-.69,1.05-1.44Z"/>
    <path d="M3.09,85.52c1.45,0,2.93-.08,4.4.03,1.06.08,1.69,1.08,1.65,2.27-.04,1.21-.6,1.96-1.68,2.11-1.47.19-2.94.2-4.38.04-.14-.71.26-.71.64-.71,1.12-.01,2.23.02,3.35-.04.94-.05,1.4-.63,1.35-1.56-.04-.9-.52-1.38-1.53-1.42-1.07-.04-2.15-.01-3.22-.02-.39,0-.79,0-.59-.69Z"/>
    <path d="M6.61,137.54h2.3c.04.09.08.17.12.26-.17.15-.34.42-.51.42-1.8.03-3.6.02-5.49.02,0-1-.07-1.9.02-2.78.11-1.14.75-1.68,1.76-1.66,1.03.02,1.6.57,1.71,1.71.06.61.06,1.22.1,2.04ZM5.9,137.45c-.04-.8-.03-1.46-.12-2.1-.08-.5-.5-.77-.98-.77-.54,0-.98.29-1.04.86-.06.67-.02,1.35-.02,2.02h2.16Z"/>
    <path d="M31.09,62.67c.51-.31.64,0,.84.29.55.79,1.03.93,1.61.54.6-.41.8-1.46.4-2.12-.34-.56-1.03-.69-1.74-.32-.24.13-.47.26-.82.46-.23-1.18.19-2.11.37-3.05,1.58-.32,2.33-.25,3.05.43-.9.05-1.64.1-2.44.15-.1.41-.2.79-.33,1.32.87-.15,1.74-.35,2.31.39.29.37.52.86.57,1.32.13,1.08-.66,2.02-1.73,2.2-1.03.18-1.71-.33-2.1-1.6Z"/>
    <path d="M58.49,196.25c.77.83,1.33,1.42,1.87,2-.22.54-.49.6-.85.24-1.25-1.25-2.5-2.5-3.87-3.87,1.01-.92,1.94-1.76,2.88-2.59.03-.03.2.1.47.24-.75.81-1.45,1.57-2.17,2.33.4.43.76.82,1.22,1.32.59-.58,1.11-1.09,1.63-1.59.32-.31.56-.29.77.27-.59.5-1.21,1.03-1.95,1.65Z"/>
    <path d="M30.33,16.91c-.12.61-.17,1.23-.36,1.81-.26.81-.93,1.29-1.66,1.23-.75-.06-1.34-.41-1.58-1.17-.4-1.25-.42-2.5,0-3.75.25-.73.79-1.14,1.58-1.16.77-.02,1.39.38,1.66,1.22.19.57.24,1.2.35,1.81ZM27.18,16.91c.05.49.06,1.03.18,1.54.11.45.37.84.91.87.6.03.91-.34,1.05-.85.3-1.05.29-2.1,0-3.15-.13-.48-.44-.79-.96-.8-.59-.01-.91.37-1.02.89-.1.48-.11.97-.17,1.5Z"/>
    <path d="M30.34,61.26c-.12.63-.17,1.25-.36,1.82-.27.8-.94,1.28-1.67,1.22-.75-.07-1.33-.43-1.57-1.18-.39-1.25-.41-2.51.02-3.75.25-.73.8-1.13,1.59-1.14.79,0,1.36.4,1.6,1.12.21.61.27,1.27.4,1.91ZM27.17,61.3c.06.51.08,1.05.21,1.56.12.45.41.82.95.81.53,0,.83-.34.97-.8.32-1.08.32-2.18,0-3.27-.15-.49-.48-.76-1-.74-.53.02-.84.36-.94.83-.11.52-.13,1.05-.2,1.61Z"/>
    <path d="M30.34,105.57c-.13.67-.19,1.33-.39,1.95-.24.74-.85,1.14-1.6,1.13-.74,0-1.35-.38-1.6-1.14-.42-1.29-.45-2.58.03-3.86.27-.73.85-1.09,1.64-1.07.74.02,1.27.41,1.51,1.08.21.61.28,1.27.42,1.91ZM27.17,105.65c.06.51.08,1.05.21,1.56.11.45.41.82.95.82.53,0,.84-.33.97-.79.32-1.08.32-2.18,0-3.27-.14-.49-.48-.76-1-.75-.53.01-.84.36-.94.82-.11.52-.13,1.05-.2,1.6Z"/>
    <path d="M30.34,150.08c-.13.65-.19,1.35-.43,1.99-.26.71-.86,1.08-1.65,1.04-.74-.04-1.25-.41-1.49-1.09-.44-1.24-.45-2.5-.04-3.74.27-.83.92-1.25,1.66-1.24.73.01,1.35.46,1.61,1.3.17.54.22,1.11.34,1.74ZM29.6,150.08c-.11-.58-.15-1.21-.39-1.76-.13-.3-.6-.58-.93-.61-.26-.02-.7.32-.8.6-.43,1.14-.39,2.34-.04,3.49.09.3.59.65.91.66.31,0,.76-.35.9-.66.22-.51.24-1.1.36-1.72Z"/>
    <path d="M59.01,199.72c-.13.11-.27.32-.36.3-.5-.1-.59.21-.75.57-.14.33-.38.64-.65.88-.54.49-1.1.53-1.57.18-.49-.36-.61-1.02-.26-1.67.17-.32.43-.6.64-.91.14-.2.25-.42.47-.8-.34-.1-.72-.34-.85-.24-.37.28-.7.66-.9,1.07-.13.28.14.75-.43.82-.45-.95-.23-1.66.74-2.37.72-.52,1.19-.47,1.95.25.65.61,1.29,1.24,1.97,1.9ZM56.94,198.86c-.35.55-.68.97-.89,1.45-.08.18.07.55.24.71.1.1.47.03.65-.08.73-.47.76-1.1,0-2.08Z"/>
    <path d="M20.79,151.08h-2.88c-.17.71.18,1.06.66,1.24.44.17.91.12,1.24-.29.24-.31.46-.6.9-.31-.47,1.15-1.24,1.53-2.4,1.16-1.06-.34-1.52-1.27-1.27-2.6.2-1.07,1.07-1.72,2.14-1.6,1.07.12,1.61.86,1.6,2.4ZM20.09,150.37c-.19-.85-.63-1.13-1.28-1.05-.58.07-.98.35-.9,1.05h2.19Z"/>
    <path d="M34.04,102.5c0,.89,0,1.58,0,2.28.01.74-.22,1.57.82,1.91q-.75.53-.95,1.72-.5-.1-.76-1.37h-2.35c.02-.3-.04-.54.05-.68.83-1.22,1.68-2.43,2.55-3.63.07-.1.28-.11.64-.23ZM33.25,104.28c-.65.62-1.25,1.17-1.46,1.99h1.46v-1.99Z"/>
    <path d="M6.24,102.58c-1.06.31-1.3,1.04-.68,1.84.2.26.55.4.25.79-.99-.34-1.32-.99-1.12-2.2.14-.86.48-1.16,1.43-1.18.9-.02,1.8,0,2.82,0-.41.69-.11,1.35,0,2.02.03.2,0,.41-.03.61-.12.61-.52,1.01-1.07,1.02-.55,0-.98-.26-1.14-.78-.2-.66-.31-1.35-.48-2.12ZM6.9,102.57c.11.61.13,1.1.3,1.54.09.24.43.39.66.59.19-.25.48-.47.53-.74.14-.74-.36-1.21-1.5-1.39Z"/>
    <path d="M34.03,149.77c.78.59,1.07,1.35.64,2.27-.34.75-.99,1.08-1.81,1.07-.95-.01-1.52-.51-1.82-1.44.3-.25.56-.42.78.04.31.65.78.95,1.5.7.53-.18.83-.7.75-1.27-.12-.74-.61-1.02-1.32-1.04-.07,0-.14-.07-.31-.17.18-.17.31-.41.48-.45.56-.13.94-.43.84-1.01-.04-.27-.29-.63-.54-.74-.51-.22-.96-.03-1.26.47-.09.16-.25.29-.44.51-.54-.6-.14-.96.19-1.26.6-.54,1.67-.51,2.29,0,.67.54.67,1.27,0,2.32Z"/>
    <path d="M2.84,58.15c.59-.04.97-.09,1.36-.1.53-.01,1.07-.04,1.6,0,.63.06,1.11-.08,1.27-.78.37.3.62.6.95.74.32.15.84-.11.96.6-.45.09-.86.17-1.4.28-.05.77-.1,1.57-.14,2.36-.94-.07-3.67-1.87-4.6-3.11ZM6.8,58.86h-2.14c-.02.07-.05.13-.07.2.69.46,1.37.93,2.2,1.48.04-.37.08-.57.08-.76,0-.28-.04-.56-.07-.93Z"/>
    <path d="M9.08,113.8c-.22.39-.35.61-.44.76.11.58.28,1.13.29,1.69.01.73-.38,1.13-.99,1.2-.64.07-1.06-.2-1.3-.88-.11-.31-.13-.64-.2-.96-.07-.31-.14-.62-.2-.93-.87.13-1.15.38-.99,1.03.12.5.45.95.73,1.5-.68.08-1.04-.24-1.12-.67-.12-.63-.18-1.3-.07-1.92.12-.66.77-.8,1.36-.82.9-.02,1.8,0,2.92,0ZM7.13,114.54c-.07.08-.14.16-.2.23.09.47.13.96.29,1.41.08.22.44.53.56.49.25-.09.57-.37.61-.6.05-.33-.05-.77-.26-1.01-.23-.26-.65-.36-.99-.52Z"/>
    <path d="M6.22,125.46c-.89.38-1.14.7-.95,1.31.15.45.45.84.73,1.33-.66.12-1.01-.16-1.09-.55-.13-.66-.2-1.37-.11-2.03.09-.6.7-.77,1.26-.79.93-.03,1.87,0,2.98,0-.54.66-.29,1.24-.14,1.87.1.4.02.94-.19,1.28-.17.27-.66.43-1.03.48-.51.06-.86-.3-.99-.76-.19-.66-.3-1.33-.47-2.11ZM6.9,125.59c.12.59.16,1.08.33,1.53.08.21.4.47.6.45.2-.02.48-.3.55-.52.26-.81-.31-1.4-1.48-1.46Z"/>
    <path d="M6.93,122.44c.5.82,1.36.2,2.03.63-.1.17-.2.48-.31.48-1.77.03-3.54.03-5.31,0-.12,0-.25-.24-.57-.56h3.34c-.18-1.08-1.6-1.26-1.39-2.6.56.52,1.01.94,1.54,1.43.86-.53,1.71-1.06,2.71-1.68-.02,1.5-1.52,1.39-2.04,2.3Z"/>
    <path d="M4.63,56.42c-1.01-.08-1.42-.68-1.58-1.51-.15-.77.2-1.55.83-1.92.75-.43,1.45-.24,2.06.27.47.4.88.87,1.29,1.33.27.3.5.62.75.94.08-.05.17-.1.25-.15.06-.86.12-1.72.2-2.8.84.7.48,1.39.54,1.98.06.64.01,1.29.01,2-1.08-.08-1.56-.79-2.13-1.36-.52-.52-1.02-1.08-1.62-1.51-.53-.38-1.1-.2-1.41.27-.28.42-.21,1.13.17,1.48.18.16.46.22.61.4.09.11.02.35.02.58Z"/>
    <path d="M20.78,106.53h-2.94c-.07.73.2,1.12.79,1.31.53.17.98.03,1.29-.44.22-.34.47-.43.8-.16-.5,1.14-1.35,1.54-2.44,1.18-1.02-.34-1.49-1.35-1.24-2.65.2-1.01,1.05-1.67,2.04-1.59,1.15.1,1.72.86,1.7,2.35ZM17.85,105.87h2.24c-.17-.77-.55-1.11-1.22-1.06-.59.04-.96.35-1.02,1.06Z"/>
    <path d="M17.78,62.15c.38,1.51,1.19,1.8,2.11.92.26-.25.44-.5.81-.21-.38,1.08-1.15,1.51-2.25,1.25-1.1-.26-1.65-1.29-1.4-2.65.18-1.02,1.01-1.7,2-1.64,1.14.07,1.73.82,1.76,2.32h-3.03ZM20.08,61.55c-.12-.74-.47-1.11-1.13-1.1-.65,0-1.02.35-1.12,1.1h2.25Z"/>
    <path d="M17.85,17.81c-.1.73.18,1.12.77,1.31.53.18.98.05,1.3-.42.22-.32.46-.46.81-.18-.46,1.13-1.32,1.55-2.42,1.2-1.02-.33-1.5-1.33-1.25-2.63.19-1.01,1.03-1.68,2.03-1.61,1.14.09,1.73.84,1.73,2.34h-2.95ZM20.09,17.2c-.14-.76-.49-1.13-1.15-1.11-.64.02-1.03.35-1.09,1.11h2.24Z"/>
    <path d="M184.41,193.96c.17.17.28.28.45.46-.65.69-1.23,1.31-1.89,2,.61.64,1.19,1.25,1.75,1.85-.32.53-.59.48-.93.15-1.23-1.21-2.49-2.41-3.83-3.71.94-.93,1.76-1.78,2.62-2.58.1-.09.39.02.84.07-.87.9-1.58,1.62-2.26,2.33.42.49.79.92,1.2,1.39.73-.69,1.35-1.28,2.04-1.94Z"/>
    <path d="M6.99,129.27v2.91c.68.25,1-.1,1.25-.55.27-.49.17-.95-.23-1.34-.24-.24-.71-.38-.32-.86,1.08.34,1.48,1.08,1.22,2.23-.24,1.07-1.1,1.55-2.51,1.4-1.11-.12-1.78-.89-1.74-1.99.04-1.13.7-1.68,2.34-1.8ZM6.38,130.05c-.84.1-1.16.53-1.12,1.15.04.6.35,1.05,1.12,1.04v-2.19Z"/>
    <path d="M6.98,106.25v2.9c.71.21,1.04-.13,1.28-.59.25-.5.14-.96-.27-1.33-.26-.24-.69-.41-.28-.86,1.09.41,1.47,1.14,1.2,2.27-.26,1.09-1.23,1.58-2.66,1.36-1.01-.16-1.64-.96-1.59-2.01.06-1.14.74-1.68,2.32-1.75ZM6.35,109.2v-2.14c-.75-.05-1.01.38-1.09.94-.09.58.23.92,1.09,1.2Z"/>
    <path d="M52.51,201.84c.22-.67-.61-1.43.44-2.01.16.76.3,1.46.46,2.26.81.18,1.66.38,2.6.6-.78.96-1.57.17-2.31.29-.39.71.67,1.58-.37,2.38-.21-.89-.4-1.69-.6-2.55-.71-.16-1.43-.31-2.21-.48.43-1.23,1.37-.11,1.98-.49Z"/>
    <path d="M276.65,197.15c.36-.04.63-.15.8-.07.49.24.87.2,1.18-.25.35-.5.04-.87-.28-1.2-.97-1-1.96-1.98-3.06-3.1.19-.18.34-.32.5-.47,1.22,1.19,2.37,2.24,3.41,3.39.63.7.43,1.57-.3,2.17-.7.58-1.36.48-2.26-.47Z"/>
    <path d="M15.04,13.71v6.02c-.45.13-.63-.02-.63-.39,0-.78,0-1.56,0-2.34,0-.49,0-.97,0-1.61-.5.24-.88.42-1.32.63-.28-.84.48-.88.78-1.2.31-.34.68-.64,1.18-1.1Z"/>
    <path d="M14.4,59.7c-.53.28-.87.46-1.24.65-.11-.6.4-1.17,1.86-2.12v5.84c-.51.17-.62-.09-.62-.48,0-1.23,0-2.46,0-3.9Z"/>
    <path d="M15.12,102.43c-.11,2.17.24,4.11-.21,6.03,0,.03-.23,0-.48,0v-4.38c-.54.24-.92.42-1.34.61q.02-.65,2.03-2.26Z"/>
    <path d="M14.73,153.01c-.69-.56-.24-1.38-.31-2.06-.08-.73-.02-1.47-.02-2.33-.5.19-.91.35-1.38.54.16-.7.77-1.32,2.01-2.06v5.85c-.1.02-.2.04-.3.07Z"/>
    <path d="M2.86,84.05c1.79-2.26,6.22-2.27,7.76-.09-4.54-1.37-3.62-1.22-7.76.09Z"/>
    <path d="M4.53,72.28c.28.55.44.87.61,1.21q-.52.05-2.09-1.67c.74-.3,4.06-.38,5.8-.14.17.36.02.56-.34.57-.78.03-1.56.02-2.35.02-.49,0-.98,0-1.64,0Z"/>
    <path d="M4.56,68.31c.24.53.4.88.68,1.5-1.24-.39-1.45-1.48-2.16-2.11h5.8c.12.66-.33.6-.68.61-1.15.01-2.3,0-3.64,0Z"/>
    <path d="M2.81,96.55c2.73,1.52,5.23,1.52,7.9.04-.13.34-.14.56-.25.64-2.36,1.69-5,1.68-7.32-.03-.1-.07-.13-.24-.33-.65Z"/>
    <path d="M243.48,201.88c-.28,0-.6.1-.71-.01-1.24-1.2-2.46-2.42-3.66-3.66-.1-.11.02-.43.04-.66,1.45,1.46,2.81,2.81,4.33,4.34Z"/>
    <path d="M178.67,196.16c.29-.56.54-.59.85-.28,1.25,1.24,2.51,2.48,3.75,3.69-.24.71-.53.6-.9.23-1.22-1.22-2.45-2.42-3.7-3.64Z"/>
    <path d="M110.52,201.86c.22-.18.36-.3.49-.41,1.43,1.46,2.77,2.83,4.15,4.24-.15.36-.41.42-.77.05-1.24-1.25-2.49-2.49-3.88-3.88Z"/>
    <path d="M212.09,201.95c-.28.59-.56.48-.88.16-.84-.84-1.68-1.68-2.52-2.52-.4-.4-.8-.81-1.17-1.18.29-.62.58-.48.89-.17.93.93,1.85,1.85,2.78,2.78.31.31.62.64.91.93Z"/>
    <path d="M25.57,150.32c-.48.06-.91.11-1.43.17-.07.48-.14.98-.22,1.54-1.05-.17-.31-1.06-.82-1.53-.33-.04-.8-.11-1.31-.18.15-.97.97-.36,1.29-.65.61-.33-.26-1.4.87-1.47.05.48.1.92.14,1.32.36.52,1.31-.21,1.48.8Z"/>
    <path d="M272.38,195.3c.47-.08.79-.23.89-.14,1.33,1.28,2.63,2.58,3.9,3.85-.27.58-.54.52-.83.24-1.25-1.25-2.5-2.49-3.96-3.95Z"/>
    <path d="M24.09,61.77c-.04.44-.09.87-.13,1.35-1.14-.02-.28-1.04-.63-1.21-.47-.56-1.44.18-1.53-.89.47-.05.91-.09,1.44-.14.06-.49.13-1,.2-1.56,1.04.21.33,1.06.78,1.55.36.04.83.09,1.34.15-.09,1.04-.95.33-1.46.74Z"/>
    <path d="M25.55,16.68c-.1,1.02-.94.38-1.43.8-.04.32-.1.79-.17,1.3-1.14-.02-.27-1.04-.63-1.22-.47-.55-1.44.19-1.53-.89.47-.04.92-.09,1.44-.14.06-.5.13-1,.2-1.56,1.04.21.33,1.07.77,1.56.36.04.84.1,1.35.15Z"/>
    <path d="M23.25,106.18c-.48-.41-1.28.17-1.52-.77.53-.07,1-.13,1.52-.19.06-.51.12-1.01.19-1.62.96.36.36,1.17.76,1.66.38.02.82.05,1.26.08q-.1.6-1.28.75c-.4.39.2,1.17-.73,1.52-.07-.52-.13-.97-.19-1.43Z"/>
    <path d="M84.33,197.25c1.25,1.25,2.52,2.52,3.79,3.79.33.33.23.57-.25.79-1.25-1.25-2.52-2.52-3.79-3.79-.34-.33-.21-.56.25-.79Z"/>
    <path d="M212.81,201.22c-1.23-1.27-2.46-2.54-3.69-3.8-.28-.29-.39-.53.18-.83.34.32.71.68,1.07,1.04.87.87,1.74,1.74,2.61,2.6.28.28.55.55-.18.99Z"/>
    <path d="M271.57,196.01c1.53,1.53,2.83,2.82,4.11,4.15.11.11,0,.43-.01.66-.09.03-.18.05-.26.08-1.3-1.3-2.6-2.59-3.87-3.91-.11-.11.01-.44.04-.97Z"/>
    <path d="M244.85,200.2c-.35.6-.6.57-.9.27-1.24-1.25-2.49-2.49-3.76-3.75.25-.46.48-.57.85-.21,1.26,1.23,2.53,2.45,3.8,3.69Z"/>
    <path d="M89.72,200c-.31.57-.56.53-.86.24-1.26-1.23-2.52-2.46-3.77-3.68.24-.56.48-.65.85-.29,1.25,1.24,2.51,2.48,3.78,3.73Z"/>
    <path d="M182.01,200.97c-.3.5-.54.52-.85.21-1.26-1.23-2.52-2.46-3.79-3.69.26-.52.5-.65.87-.28,1.24,1.24,2.49,2.49,3.78,3.76Z"/>
    <path d="M116.5,204.52c-.23,0-.55.11-.67,0-1.32-1.27-2.61-2.57-3.91-3.87.03-.09.06-.18.09-.27.23,0,.54-.1.66.01,1.32,1.27,2.61,2.57,3.91,3.86-.03.09-.06.18-.09.26Z"/>
    <path d="M142.15,201.54c1.39,1.4,2.74,2.76,4.12,4.15-.12.31-.35.42-.68.1-.33-.31-.64-.63-.96-.95-.84-.84-1.68-1.68-2.52-2.52-.27-.27-.41-.53.04-.79Z"/>
    <path d="M143.31,200.21c1.47,1.46,2.83,2.82,4.23,4.22-.08.22-.31.41-.6.13-1.24-1.21-2.47-2.43-3.67-3.68-.1-.11.02-.43.03-.67Z"/>
    <path d="M5.05,110.28c.15.2.32.33.37.49.27.97.27.99,1.18,1.03.62.03,1.24-.02,1.86.04.19.02.36.26.54.4-.04.08-.07.15-.11.23h-4.39c.91-.68-.29-1.44.55-2.19Z"/>
    <path d="M7.18,77.08v2.5c-.35-.27-.66-.4-.67-.54-.04-.56.01-1.13.07-1.69,0-.07.26-.12.6-.26Z"/>
    <path class="cls-9" d="M117.54,202.42c-.55-.53-.95-.93-1.47-1.43.51-.49.95-.96,1.44-1.37.39-.32.84-.28,1.23.07.42.39.49.87.13,1.32-.38.47-.83.89-1.33,1.41Z"/>
    <path class="cls-9" d="M115.63,200.45c-.45-.52-.79-.91-1.19-1.38.37-.34.78-.74,1.2-1.11.38-.34.76-.27,1.1.07.35.35.36.74.06,1.11-.36.44-.75.85-1.17,1.31Z"/>
    <path class="cls-9" d="M145.63,199.05c.62-.63,1.14-1.66,2.39-1.35,1.07.27,1.77,1.04,2.09,2.07.39,1.26-.71,1.77-1.36,2.49-1.04-1.08-2.05-2.12-3.12-3.22Z"/>
    <path class="cls-9" d="M7.28,62.62c.71-.02,1.18.42,1.19,1.11.01.7-.43,1.17-1.13,1.19-.7.02-1.18-.43-1.19-1.12-.01-.69.44-1.17,1.13-1.19Z"/>
    <path class="cls-9" d="M4.61,64.69c-.56.02-.95-.34-.94-.9,0-.52.24-.86.8-.91.58-.05.96.26.99.82.03.57-.3.96-.85.99Z"/>
    <path class="cls-9" d="M88.45,194.2c.98.44,1.69.77,2.59,1.17-.55.43-.99.77-1.47,1.14-.31-.64-.65-1.35-1.11-2.31Z"/>
    <path class="cls-9" d="M6.42,92.51v1.88c-.82-.28-1.58-.55-2.56-.88.91-.36,1.64-.64,2.56-1Z"/>
    <path class="cls-9" d="M34.13,17.89c.02.75-.44,1.39-1.05,1.44-.66.05-1.23-.58-1.26-1.38-.02-.73.48-1.34,1.13-1.36.64-.02,1.15.54,1.18,1.3Z"/>
    <path class="cls-9" d="M5.9,137.45h-2.16c0-.67-.05-1.35.02-2.02.05-.57.5-.86,1.04-.86.49,0,.91.27.98.77.1.64.08,1.3.12,2.1Z"/>
    <path class="cls-9" d="M27.18,16.91c.06-.53.06-1.03.17-1.5.11-.52.43-.9,1.02-.89.51,0,.82.32.96.8.29,1.05.3,2.11,0,3.15-.14.51-.46.88-1.05.85-.54-.03-.81-.42-.91-.87-.12-.51-.13-1.05-.18-1.54Z"/>
    <path class="cls-9" d="M27.17,61.3c.06-.55.08-1.09.2-1.61.1-.47.41-.81.94-.83.52-.01.85.26,1,.74.33,1.09.32,2.18,0,3.27-.14.46-.44.79-.97.8-.54,0-.84-.36-.95-.81-.13-.51-.15-1.05-.21-1.56Z"/>
    <path class="cls-9" d="M27.17,105.65c.06-.55.08-1.09.2-1.6.1-.47.41-.81.94-.82.52-.01.85.26,1,.75.32,1.09.32,2.18,0,3.27-.14.46-.44.79-.97.79-.54,0-.83-.37-.95-.82-.13-.51-.15-1.05-.21-1.56Z"/>
    <path class="cls-9" d="M29.6,150.08c-.12.61-.14,1.21-.36,1.72-.14.31-.59.66-.9.66-.31,0-.81-.36-.91-.66-.35-1.15-.38-2.35.04-3.49.1-.28.54-.62.8-.6.34.03.8.31.93.61.24.55.27,1.18.39,1.76Z"/>
    <path class="cls-9" d="M56.94,198.86c.75.98.73,1.6,0,2.08-.17.11-.55.18-.65.08-.16-.16-.31-.53-.24-.71.21-.48.54-.9.89-1.45Z"/>
    <path class="cls-9" d="M20.09,150.37h-2.19c-.07-.71.32-.98.9-1.05.65-.08,1.09.2,1.28,1.05Z"/>
    <path class="cls-9" d="M33.25,104.28v1.99h-1.46c.2-.81.81-1.37,1.46-1.99Z"/>
    <path class="cls-9" d="M6.9,102.57c1.14.18,1.64.65,1.5,1.39-.05.27-.35.5-.53.74-.23-.19-.56-.34-.66-.59-.17-.44-.19-.94-.3-1.54Z"/>
    <path class="cls-9" d="M6.8,58.86c.03.36.06.64.07.93,0,.19-.04.38-.08.76-.82-.55-1.51-1.02-2.2-1.48.02-.07.05-.13.07-.2h2.14Z"/>
    <path class="cls-9" d="M7.13,114.54c.34.17.76.26.99.52.21.24.31.68.26,1.01-.03.24-.35.51-.61.6-.12.04-.48-.28-.56-.49-.16-.45-.2-.94-.29-1.41.07-.08.14-.16.2-.23Z"/>
    <path class="cls-9" d="M6.9,125.59c1.17.06,1.74.65,1.48,1.46-.07.22-.35.51-.55.52-.19.02-.52-.24-.6-.45-.17-.45-.21-.94-.33-1.53Z"/>
    <path class="cls-9" d="M17.85,105.87c.07-.71.43-1.02,1.02-1.06.66-.05,1.05.29,1.22,1.06h-2.24Z"/>
    <path class="cls-9" d="M20.08,61.55h-2.25c.1-.75.47-1.1,1.12-1.1.66,0,1.01.36,1.13,1.1Z"/>
    <path class="cls-9" d="M20.09,17.2h-2.24c.06-.76.44-1.09,1.09-1.11.67-.02,1.02.35,1.15,1.11Z"/>
    <path class="cls-9" d="M6.38,130.05v2.19c-.76.02-1.08-.43-1.12-1.04-.04-.63.28-1.06,1.12-1.15Z"/>
    <path class="cls-9" d="M6.35,109.2c-.86-.28-1.19-.62-1.09-1.2.09-.56.34-.98,1.09-.94v2.14Z"/>
  </g>
  <g>
    <path class="cls-9" d="M302.04,451.25H0v-226.53h302.04v226.53ZM40.15,369.02v1.78c0,13.37,0,26.74,0,40.11,0,.38-.05.76.02,1.13.06.3.27.56.41.84.29.61.85.42,1.32.42,7.3,0,14.6,0,21.9,0h1.45v2.99c.67.28,1,.15,1.01-.51,0-.79,0-1.57,0-2.33,1.62-.27,39.7-.2,40.71.08v2.88c.39-.02.66-.04,1.04-.06v-2.89c1.46-.26,39.61-.21,40.65.06,0,.72-.03,1.47,0,2.21.03.71.06.71,1.07.51v-2.79c1.61-.27,39.67-.2,40.65.08v2.8c1.02.06,1.04.06,1.07-.62.03-.78.04-1.55.06-2.32h40.59v2.89c.65.28,1,.2,1.02-.47.02-.82.05-1.63.07-2.42h40.63v2.97h1.08v-3.12h24.44c-.04-.41-.06-.69-.1-1.12H41.27v-184.47h-1.16v28.82h-3.05c.02.4.03.68.05,1.09h2.87c.3,1.56.22,53.73-.09,54.72h-2.8v.92c1.02.05,2,.1,2.98.16v54.67h-2.96v1h3.04ZM230.55,256.2c0,1.63.8,2.5,2.1,2.48,1.23-.02,2-.87,2-2.24,0-.25.03-.53-.07-.74-.25-.57-.22-1.07-.03-1.67.31-.94-.09-1.81-.87-2.28-.76-.45-1.51-.44-2.24.06-.76.52-1.11,1.42-.77,2.32.2.52.22.93-.02,1.41-.12.25-.1.57-.11.65ZM104.01,429.66c.7-.76,1.46-1.43,2.04-2.23.8-1.11.16-2.4-1.2-2.58-.2-.03-.41,0-.61,0-.05-.18-.08-.3-.12-.41-.46-1.43-1.52-1.76-2.66-.78-.63.54-1.19,1.16-1.75,1.71,1.44,1.44,2.8,2.8,4.3,4.3ZM141.62,425.23c1.43,1.44,2.81,2.82,4.2,4.22.47-.46,1.08-.98,1.6-1.58.83-.94.93-1.97.21-2.99-.42-.6-.99-1.14-1.6-1.55-1-.66-1.85-.57-2.76.22-.63.54-1.17,1.19-1.64,1.68ZM151.26,404.32c0-1.15-.9-2.07-2.05-2.09-1.16-.02-2.21,1.02-2.17,2.15.04,1.09,1.06,2.07,2.16,2.05,1.11-.02,2.06-.98,2.06-2.11ZM146.74,420.91c.75-.7,1.46-1.35,2.14-2.01.33-.32.26-.57-.08-.68-1.03.99-2.02,1.93-2.93,2.81,1.39,1.38,2.77,2.76,4.02,4.01.95-.91,1.99-1.9,3.04-2.91-.05-.05-.2-.21-.22-.2-.92.73-1.82,1.48-2.66,2.17-.5-.43-.97-.83-1.49-1.28.7-.71,1.31-1.33,1.92-1.95.32-.32.29-.57-.23-.78-.71.69-1.45,1.4-2.27,2.2-.4-.45-.73-.81-1.25-1.38ZM67.85,404.34c.02-1.1-.94-2.08-2.05-2.11-1.14-.03-2.09.86-2.13,2-.04,1.17.93,2.2,2.08,2.2,1.09,0,2.09-.99,2.11-2.08ZM109.53,404.38c.03-1.15-.84-2.1-1.98-2.15-1.15-.05-2.1.82-2.16,1.97-.06,1.21.86,2.21,2.04,2.23,1.13.02,2.07-.9,2.1-2.05ZM274.37,406.42c1.11-.03,2.04-1.02,2.02-2.15-.02-1.14-.99-2.06-2.12-2.03-1.16.03-2.03.95-2,2.13.02,1.16.98,2.08,2.1,2.05ZM192.96,318.13c0-1.1-.99-2.1-2.09-2.09-1.1.01-2.1,1.03-2.07,2.12.03,1.05.98,2,2.03,2.02,1.1.03,2.11-.95,2.12-2.06ZM192.96,237.78c0-1.14-.94-2.04-2.11-2.02-1.15.02-2.09.97-2.05,2.09.04,1.09.94,1.94,2.05,1.95,1.18.01,2.1-.87,2.1-2.02ZM276.36,322.9c.03-1.16-.87-2.1-2.02-2.12-1.13-.02-2.07.92-2.07,2.07,0,1.09.86,2.01,1.96,2.07,1.09.06,2.1-.9,2.13-2.02ZM192.96,283.52c.04-1.1-.93-2.11-2.05-2.13-1.1-.02-2.11.97-2.11,2.07,0,1.05.93,2,1.99,2.05,1.12.05,2.12-.87,2.16-2ZM192.96,276.72c-.02-1.14-.98-2.02-2.14-1.99-1.14.03-2.08,1.02-2.01,2.12.06,1.09.96,1.92,2.08,1.92,1.18,0,2.09-.91,2.07-2.05ZM234.64,235.99c0-1.18-.88-2.03-2.07-2.02-1.13.01-1.98.84-2.01,1.95-.03,1.16.85,2.08,2.01,2.09,1.17.02,2.07-.86,2.07-2.03ZM276.36,311.34c-.03-1.16-.96-2.02-2.13-1.97-1.11.04-1.95.92-1.95,2.03,0,1.15.92,2.06,2.07,2.05,1.15-.02,2.04-.95,2.01-2.1ZM234.5,420.35c-.7.58-1.3,1.07-1.96,1.61,1.01.69,1.14-.65,1.79-.59.85.73.89.89.39,1.73-.93,1.57-2.69,1.61-3.92.07-.58-.73-.93-1.54-.4-2.42.47-.79,1.1-1.37,2.17-1.09.16.04.4-.19.71-.35-.98-.74-1.74-.51-2.47,0-.91.64-1.49,1.49-1.41,2.64.1,1.36,1.41,2.79,2.77,3.08,1.16.26,2.51-.44,3.25-1.67.69-1.16.64-1.54-.33-2.49-.21-.2-.43-.39-.57-.52ZM226.86,431.81c.39-.59.4-.6.16-.86-.49-.52-1.02-.99-1.48-1.54-.45-.54-.43-1.08-.02-1.46.53-.49.91-.12,1.28.25.51.5,1,1.01,1.52,1.5.32.31.59.26.78-.3-.68-.67-1.35-1.41-2.11-2.06-.82-.71-1.67-.5-2.15.46-.13.25-.18.54-.28.87-1.44-.17-1.37,1.6-2.7,1.78.64.64,1.13,1.14,1.64,1.64.52.51,1.05,1.01,1.55,1.48.47-.28.5-.5.22-.78-.5-.5-1.02-.99-1.49-1.53-.45-.53-.47-1.1-.11-1.47.36-.38.78-.31,1.4.28.6.57,1.19,1.15,1.79,1.74ZM188.43,428.42c-.7-.68-1.37-1.38-2.09-2.02-.91-.81-1.8-.59-2.29.54-.1.22-.12.47-.12.44-.63.42-1.23.62-1.46,1.02-.29.52-.63.85-1.02.96,1,1.05,1.99,2.09,2.99,3.14.36-.2.37-.45.05-.77-.53-.53-1.07-1.07-1.55-1.64-.37-.44-.38-.96.05-1.36.43-.39.86-.16,1.22.19.21.2.41.42.62.62.44.42.88.83,1.28,1.21.6-.36.4-.62.14-.89-.5-.51-1.03-.99-1.49-1.53-.44-.51-.38-1.1.06-1.45.49-.39.86-.09,1.2.24.51.49,1.02,1,1.52,1.5.29.29.56.38.89-.23ZM62.45,429.38c.42-.56.44-.58.2-.83-.58-.6-1.15-1.21-1.78-1.77-.89-.79-1.84-.55-2.28.55-.09.23-.14.47-.2.71-.59.17-1.16.4-1.46.83-.29.43-.56.81-1.25.97,1.04,1.05,1.94,1.96,2.86,2.87.35.34.58.16.75-.23-.1-.12-.2-.26-.31-.38-.49-.51-1.02-1-1.46-1.55-.45-.56-.42-1.08,0-1.45.54-.48.92-.07,1.28.28.51.49,1.01,1,1.51,1.5.33.33.58.24.82-.23-.58-.6-1.21-1.21-1.78-1.86-.47-.54-.46-1.05-.07-1.45.36-.36.72-.33,1.29.2.64.59,1.25,1.22,1.88,1.84ZM268.02,426.85c-.56.33-1.2.49-1.4.88-.29.55-.75.84-1.31,1.25.97.95,1.86,1.82,2.76,2.69.32.31.58.28.79-.19-.11-.14-.23-.32-.36-.47-.46-.49-.96-.94-1.38-1.45-.45-.54-.43-1.07-.02-1.45.53-.5.92-.1,1.28.24.51.49,1.01,1,1.51,1.5.32.32.57.3.82-.2-.6-.63-1.26-1.27-1.85-1.96-.44-.52-.37-1.09.09-1.44.49-.37.86-.08,1.2.25.62.61,1.24,1.22,1.83,1.8.51-.18.61-.42.28-.75-.62-.62-1.21-1.27-1.88-1.85-.8-.69-1.7-.48-2.16.46-.12.25-.16.55-.19.66ZM98.56,434.96c-.61-.64-1.27-1.28-1.85-1.97-.45-.54-.38-1.08.09-1.43.49-.38.85-.09,1.2.25.62.61,1.24,1.22,1.97,1.94.2-.19.34-.32.54-.51-.63-.63-1.12-1.13-1.62-1.63-.21-.21-.41-.43-.63-.61-.84-.66-1.69-.49-2.17.46-.13.25-.17.55-.17.55-.67.49-1.36.74-1.56,1.21-.23.53-.69.59-1.18.99,1,.99,1.92,1.93,2.89,2.84.11.1.43-.03.86-.08-.8-.87-1.44-1.52-2.04-2.21-.38-.44-.35-.93.07-1.35.46-.45.84-.17,1.19.16.54.52,1.07,1.05,1.6,1.59.33.34.57.25.83-.19ZM138.46,436.71c-.43-.44-.91-.9-1.35-1.38-.25-.27-.52-.56-.67-.89-.18-.41-.08-.82.3-1.12.39-.31.71-.09,1.01.15.29.24.54.52.81.78.41.4.81.8,1.19,1.17.56-.28.5-.54.2-.84-.5-.5-1.02-.99-1.49-1.53-.45-.52-.43-1.09-.02-1.45.52-.46.92-.13,1.29.24.61.6,1.23,1.21,1.84,1.81.4-.27.53-.49.24-.78-.62-.62-1.21-1.27-1.87-1.85-.82-.72-1.79-.47-2.22.54-.09.22-.11.48-.18.81-1.51-.28-1.45,1.53-2.79,1.83,1.06,1.02,1.97,1.88,2.87,2.75.32.31.58.28.83-.24ZM5.85,289.04c1.03.95,2.07,1.05,2.83.28.72-.73.75-1.96.07-2.74-.72-.83-1.75-.77-2.94.17-1.01-.65-1.78-.66-2.34-.02-.59.67-.57,1.77.03,2.41.58.61,1.33.58,2.34-.1ZM69.94,421.9c-1.88-.8-3.65-1.54-5.4-2.31-.55-.24-.87-.07-1.12.51.84,1.84,1.69,3.73,2.6,5.73,1.13-.95-.31-1.61-.17-2.06.69-.8,1.2-1.39,1.54-1.79.98-.25,1.6,1.1,2.54-.08ZM7.31,319.11v-2.28q1.75-.78,1.57-1.53c-1.78.72-3.56,1.43-5.32,2.17-.22.09-.49.38-.49.58,0,.21.26.51.48.6,1.23.5,2.49.95,3.74,1.41.56.21,1.12.41,1.83.67-.08-1.33-1.28-.94-1.8-1.63ZM108.21,419.16c-1.01-.56-1.9-.43-2.72.25-.85.71-1.19,1.84-.85,2.82.44,1.28,1.37,2.09,2.62,2.52,1.02.34,2.14-.13,2.84-1.11.62-.87.59-1.71-.09-2.72-.64.12-.48.49-.34.93.24.75.02,1.4-.63,1.89-.66.49-1.33.54-2.09,0-.5-.36-.95-.82-1.32-1.32-.5-.66-.53-1.4-.02-2.1.46-.65,1.08-.93,1.86-.64.44.16.62,0,.75-.51ZM3.11,310c-.16.58.11.68.51.68,1.09,0,2.18-.02,3.27.01.92.03,1.38.32,1.57.98.27.92-.09,2.1-1.45,2.08-1.09-.02-2.18,0-3.27.01-.39,0-.8.02-.6.77,1.58.05,3.2.19,4.8-.17.85-.19,1.34-1.14,1.31-2.21-.03-1.12-.61-2.06-1.58-2.13-1.53-.12-3.07-.03-4.57-.03ZM6.7,362.59c-.04-.64-.04-1.34-.12-2.03-.12-1-.68-1.52-1.62-1.58-1-.06-1.7.42-1.82,1.47-.11.97-.02,1.96-.02,2.97h5.94c0-.19.02-.42,0-.42-.74-.14-1.49-.27-2.34-.41ZM30.76,257.04s-.04-.01-.07-.02c-.02-.37-.03-.75-.07-1.12-.02-.2-.11-.4-.18-.6-.32-.84-.9-1.31-1.64-1.33-.79-.02-1.48.47-1.74,1.36-.34,1.18-.36,2.39.04,3.57.29.86.87,1.25,1.68,1.23.8-.01,1.38-.41,1.65-1.28.18-.59.23-1.22.33-1.83ZM30.78,312.79c-.15-.69-.22-1.4-.46-2.05-.25-.67-.81-1.04-1.56-1.04-.74,0-1.31.35-1.57,1.03-.52,1.33-.5,2.69-.04,4.03.25.72.83,1.03,1.53,1.1.69.07,1.4-.37,1.66-1.1.22-.62.29-1.29.44-1.97ZM30.77,368.54c-.14-.64-.21-1.31-.43-1.93-.24-.67-.79-1.07-1.54-1.08-.8-.02-1.38.36-1.65,1.1-.48,1.29-.46,2.61-.02,3.92.26.77.88,1.14,1.63,1.14.76,0,1.38-.41,1.62-1.16.2-.63.26-1.29.39-1.98ZM31.65,257.06c.21.07.26.1.29.09.29-.13.58-.26.88-.39.62-.27,1.2-.13,1.55.38.44.63.29,1.75-.3,2.17-.59.43-1.12.28-1.71-.58-.25-.35-.48-.42-.82-.21.36,1.27,1.11,1.8,2.23,1.6,1.01-.18,1.83-1.27,1.64-2.33-.08-.46-.34-.95-.66-1.31-.58-.65-1.42-.44-2.27-.29.14-.56.24-.94.33-1.29q2.08-.18,2.31-.72h-2.96c-.17.99-.34,1.95-.51,2.88ZM21.04,258.73c-.12-.04-.27-.15-.35-.11-.21.1-.4.25-.58.4-.93.77-1.76.43-2-.97h2.95c.05-1.5-.49-2.27-1.58-2.41-1.03-.13-1.92.47-2.17,1.47-.33,1.35.14,2.42,1.23,2.79,1.15.38,1.93.02,2.49-1.17ZM32.96,368.2c0,.11,0,.21.01.32.26.07.58.06.77.21.31.23.64.53.77.87.19.51-.16,1.17-.64,1.35-.56.22-1.09.15-1.42-.42-.23-.4-.43-.74-.93-.36.16,1,.87,1.44,1.76,1.5.79.05,1.49-.29,1.87-1.04.48-.96.12-1.77-.64-2.43.58-.65.73-1.3.27-1.99-.37-.56-1.21-.84-1.91-.64-.68.19-1.16.58-1.21,1.32.53.3.65-.05.85-.32.31-.44.78-.54,1.22-.31.25.13.47.47.53.75.1.48-.25.76-.66.94-.21.09-.42.17-.64.25ZM31.24,314.24h2.27c.56.47-.13,1.35.92,1.47.04-.39,0-.79.15-1.1.13-.28.46-.47.79-.78-.88-.31-.85-.99-.84-1.7,0-.8.1-1.62-.1-2.46-.99.52-2.97,3.36-3.18,4.57ZM9.2,326.54c-1.13,0-2-.01-2.87,0-1.08.02-1.44.3-1.58,1.2-.2,1.22.14,1.88,1.39,2.32-.33-.63-.67-1.07-.79-1.56-.19-.71.17-1.07,1.03-1.1.1.56.18,1.14.32,1.7.21.82.77,1.25,1.4,1.14.64-.11,1.03-.69,1-1.53,0-.17,0-.36-.07-.49-.3-.55-.26-1.07.18-1.68ZM7.17,281.17c-.03,1.07-.67.92-1.21.92-.71.01-1.42-.01-2.13.01-.26,0-.52.11-1.09.24,1.57,1.33,2.99,2.36,4.78,3.28.06-1.05.11-1.89.16-2.69.56-.09.96-.15,1.67-.27-.41-.29-.61-.56-.78-.54-.63.06-.97-.27-1.41-.96ZM6.06,353.22c-.27-.54-.6-.99-.73-1.48-.17-.65.11-.92,1.01-1.12.07.35.13.71.21,1.06.08.37.13.74.27,1.09.21.52.64.74,1.2.7.59-.05.91-.39,1.01-.94.05-.28.09-.6.01-.86-.19-.62-.49-1.22.16-1.9-1.15,0-2.1-.02-3.04,0-.61.02-1.23.22-1.33.91-.09.6-.04,1.24.08,1.84.09.44.43.79,1.15.71ZM6.15,342.3c-.37-.73-.71-1.19-.82-1.7-.15-.69.12-.91,1.01-.99.15.68.25,1.37.47,2.04.19.59.67.82,1.29.74.59-.07.94-.45.94-.99,0-.64-.16-1.29-.24-1.9.09-.23.2-.5.33-.81-1.03,0-1.9-.03-2.77,0-1.06.04-1.45.37-1.59,1.23-.2,1.23.11,1.87,1.41,2.39ZM8.91,345.21c-.84.53-1.68,1.06-2.54,1.61-.52-.47-1.01-.9-1.53-1.36-.31.61.07.91.39,1.24.34.34.66.69,1.19,1.25h-3.34l-.1.28c.19.14.37.39.57.39,1.67.03,3.34.03,5.02,0,.2,0,.39-.24.61-.4-.69-.63-1.76.19-2.12-.81.58-.83,1.89-.84,1.87-2.19ZM187.68,420.7c1.38,1.37,2.66,2.62,3.92,3.89.37.37.63.31.9-.2-.57-.61-1.16-1.23-1.91-2.03.45-.36.9-.63,1.22-1.01.26-.31,1.13-.55.32-1.25-.64.61-1.27,1.21-1.97,1.88-.45-.46-.84-.87-1.3-1.34.75-.78,1.46-1.52,2.15-2.23-.35-.55-.6-.37-.87-.11-.77.76-1.55,1.51-2.47,2.4ZM8.22,279.53c-.39-.42-.69-.79-1.04-1.12-.51-.49-.99-1.05-1.58-1.41-1.03-.63-2.12-.13-2.47,1.02-.35,1.16.19,2.04,1.47,2.4.47-.6-.16-.64-.44-.87-.48-.39-.6-1.09-.3-1.57.32-.52.91-.66,1.53-.25.45.29.83.7,1.21,1.08.39.38.72.82,1.12,1.19.35.32.74.67,1.29.51.23-2.24.16-3.14-.33-3.78-.55.84-.02,1.82-.46,2.81ZM21.09,313.69c0-1.52-.59-2.29-1.75-2.37-1.01-.07-1.86.6-2.05,1.63-.25,1.32.24,2.34,1.27,2.67,1.12.36,1.99-.07,2.45-1.21-.35-.31-.59-.14-.81.18-.33.47-.78.61-1.32.43-.59-.2-.87-.6-.78-1.33h2.99ZM21.09,369.53c.01-1.51-.58-2.28-1.74-2.38-1.01-.08-1.87.59-2.06,1.62-.25,1.32.23,2.34,1.26,2.68,1.12.36,1.98-.06,2.46-1.19-.35-.32-.59-.16-.81.16-.33.48-.78.61-1.32.44-.6-.19-.88-.59-.79-1.33h2.99ZM7.05,357.46v-3.07c-1.62.11-2.29.66-2.34,1.81-.04,1.12.64,1.91,1.76,2.03,1.43.15,2.3-.33,2.55-1.41.27-1.17-.14-1.91-1.24-2.27-.33.38-.03.54.22.8.89.94.58,1.77-.96,2.12ZM7.1,330.97c-1.74.19-2.37.73-2.39,1.89-.02,1.01.6,1.79,1.56,1.96,1.35.24,2.38-.21,2.71-1.2.37-1.11-.03-1.98-1.13-2.5-.47.41-.08.61.2.85.43.36.57.82.33,1.34-.22.49-.56.81-1.28.71v-3.05ZM274.55,423.32c.97.92,1.63,1.01,2.32.44.82-.68.97-1.47.27-2.28-.93-1.07-1.95-2.06-2.96-3.05-.41-.4-.65-.14-.8.3.12.13.23.26.34.38.85.86,1.71,1.71,2.56,2.58.36.37.68.78.31,1.32-.33.46-.74.42-1.21.19-.18-.08-.46.07-.82.13ZM14.6,311.2c0,.71,0,1.25,0,1.79,0,.75,0,1.5,0,2.25,0,.38.2.52.64.39v-5.91c-1.3.76-2,1.51-1.94,2.12.38-.19.74-.37,1.29-.64ZM15.24,371.46v-5.91c-1.31.77-2,1.51-1.93,2.12.41-.19.79-.37,1.29-.61,0,1.39,0,2.64,0,3.89,0,.38.08.68.64.51ZM15.07,260.22c.38-1.38.33-5.39,0-6.17q-1.79,1.46-1.78,2.09c.42-.19.81-.38,1.3-.61,0,.63,0,1.13,0,1.62,0,.79-.02,1.58.02,2.37.01.19.23.37.45.7ZM10.9,308.67c-.71-1.22-2.5-1.98-4.14-1.95-1.58.03-3.22.79-3.83,1.94,2.69-1.58,5.25-1.52,7.96,0ZM10.87,321.25c-2.69,1.43-5.26,1.5-7.86.19,1,1.27,2.41,1.64,3.88,1.73,1.52.09,3.31-.79,3.98-1.92ZM3.11,296.03q1.38,1.77,2.1,1.79c-.18-.39-.35-.74-.6-1.28.53,0,.93,0,1.33,0,.88,0,1.76.02,2.63-.03.19-.01.36-.26.67-.5-1.49-.27-5.24-.23-6.14.02ZM4.61,292.52c.58,0,1.03,0,1.48,0,.84,0,1.67.02,2.51-.03.18-.01.35-.27.64-.52-1.69-.27-5.3-.21-6.27.1.91.44,1.07,1.63,2.34,1.91-.28-.59-.45-.95-.69-1.46ZM231.51,427.49c.04-.41.17-.73.07-.84-1.21-1.26-2.45-2.51-3.7-3.73-.36-.35-.58-.09-.69.23,1.38,1.38,2.73,2.73,4.33,4.33ZM139.02,427.56c-.05.36-.19.69-.09.79,1.21,1.27,2.45,2.51,3.71,3.73.35.35.58.11.7-.2-1.38-1.39-2.73-2.74-4.31-4.32ZM65.43,426.56c.05-.12.09-.23.14-.35-.32-.32-.63-.65-.95-.97-.94-.94-1.89-1.88-2.82-2.82-.33-.33-.61-.43-.89.19,1.26,1.26,2.55,2.56,3.86,3.82.14.13.44.09.66.13ZM25.96,257.29c-.26-.92-1.06-.35-1.52-.74-.05-.42-.11-.89-.17-1.4-1.12.09-.31,1.07-.85,1.51-.24.37-1.2-.37-1.32.66.53.07,1,.13,1.39.18.33.53-.12,1.18.49,1.57.73-.36.15-1.1.55-1.59.42-.06.89-.12,1.43-.2ZM190.52,426.35c.52-.27.57-.51.24-.83-.71-.7-1.41-1.41-2.12-2.11-.58-.58-1.17-1.15-1.76-1.72-.09.03-.18.05-.27.08,0,.22-.1.54,0,.65,1.29,1.34,2.61,2.65,3.89,3.93ZM98.46,426.66c1.43,1.42,2.81,2.79,4.23,4.21.04-.12.16-.33.15-.52,0-.13-.2-.26-.31-.38-1.09-1.1-2.19-2.19-3.29-3.29-.32-.32-.61-.46-.78-.03ZM24.27,310.71c-.98.4-.34,1.24-.78,1.67-.45.06-.92.12-1.44.19.25,1.01,1.21.26,1.64.94.24.23-.49,1.11.59,1.17.07-.51.13-.98.18-1.33.48-.44,1.32.21,1.48-.8-.52-.06-1-.12-1.5-.17-.05-.52-.1-1-.17-1.67ZM23.49,368.21c-.43.05-.91.11-1.44.17.21,1.02,1.16.3,1.54.8.05.42.1.86.17,1.39,1-.21.36-1.11.75-1.49q1.2-.16,1.32-.73c-.48-.06-.96-.11-1.41-.17q-.06-1.05-.42-1.56c-.68.36-.12,1.1-.5,1.59ZM273.6,426.77c-1.41-1.43-2.8-2.83-4.21-4.26-.32.18-.19.44.09.72.92.91,1.83,1.83,2.74,2.74.3.29.57.63.91.85.14.09.43-.05.46-.06ZM275.2,425.46c-1.05-1.4-3.6-3.87-4.53-4.37,0,.28-.09.57.01.67,1.22,1.26,2.46,2.51,3.73,3.73.11.11.44,0,.79-.03ZM185.05,423.56c1.28,1.26,2.58,2.55,3.88,3.83.34.34.58.2.8-.28-1.27-1.26-2.57-2.55-3.87-3.84-.34-.34-.58-.19-.81.28ZM63.74,428.07l.28-.1c0-.23.1-.55-.01-.66-1.29-1.34-2.62-2.65-3.93-3.97-.09.03-.18.06-.27.09,0,.23-.1.55.02.67,1.29,1.34,2.61,2.65,3.92,3.97ZM140.51,426.41c-.45.15-.51.4-.19.72,1.2,1.21,2.4,2.42,3.62,3.61.33.32.58.17.66-.06-1.4-1.47-2.75-2.87-4.09-4.27ZM97.26,427.51c0,.45-.1.77.02.89,1.21,1.26,2.44,2.5,3.7,3.7.37.35.58.05.63-.23-1.4-1.4-2.74-2.75-4.35-4.36ZM225.77,424.56c1.29,1.27,2.56,2.52,3.83,3.78.36.36.61.3.87-.22-1.27-1.26-2.54-2.52-3.8-3.78-.3-.3-.55-.36-.9.22ZM8.96,337.35c.05-.11.1-.21.15-.32-.2-.12-.39-.33-.6-.34-.62-.05-1.26-.02-1.88-.03-.65-.01-1.16-.17-1.15-.99,0-.17-.23-.34-.37-.52-.72.62-.2,1.12-.06,1.48-.13.3-.21.48-.32.73h4.23ZM7.24,303.92v-2.32c-.56-.12-.75.13-.68.53.1.56-.37,1.32.68,1.8Z"/>
    <path d="M40.15,369.02h-3.04v-1h2.96v-54.67c-.98-.05-1.96-.1-2.98-.16v-.92h2.8c.31-.99.39-53.16.09-54.72h-2.87c-.02-.41-.03-.69-.05-1.09h3.05v-28.82h1.16v184.47h257.97c.04.44.06.72.1,1.12h-24.44v3.12h-1.08v-2.97h-40.63c-.02.78-.05,1.6-.07,2.42-.02.68-.36.76-1.02.47v-2.89h-40.59c-.02.77-.02,1.55-.06,2.32-.03.68-.05.68-1.07.62v-2.8c-.98-.29-39.04-.35-40.65-.08v2.79c-1,.2-1.03.2-1.07-.51-.03-.75,0-1.5,0-2.21-1.04-.27-39.19-.32-40.65-.06v2.89c-.38.02-.65.04-1.04.06v-2.88c-1.01-.28-39.09-.34-40.71-.08,0,.76,0,1.54,0,2.33,0,.66-.34.78-1.01.51v-2.99h-1.45c-7.3,0-14.6,0-21.9,0-.47,0-1.03.19-1.32-.42-.14-.28-.35-.54-.41-.84-.07-.36-.02-.75-.02-1.13,0-13.37,0-26.74,0-40.11v-1.78Z"/>
    <path d="M230.55,256.2c.01-.08-.01-.4.11-.65.23-.49.22-.9.02-1.41-.35-.9,0-1.79.77-2.32.73-.5,1.48-.52,2.24-.06.78.47,1.18,1.35.87,2.28-.2.6-.22,1.1.03,1.67.09.22.07.49.07.74,0,1.37-.77,2.22-2,2.24-1.3.02-2.1-.85-2.1-2.48Z"/>
    <path d="M104.01,429.66c-1.5-1.5-2.86-2.86-4.3-4.3.56-.55,1.12-1.18,1.75-1.71,1.14-.97,2.2-.65,2.66.78.04.11.07.23.12.41.2,0,.41-.02.61,0,1.36.18,2,1.47,1.2,2.58-.58.8-1.34,1.47-2.04,2.23ZM104.06,428.63c.43-.48.82-.86,1.16-1.28.44-.55.44-1.04.06-1.46-.41-.44-.98-.45-1.55.04-.4.34-.76.75-1.12,1.11.49.53.9.97,1.46,1.58ZM102.06,426.59c.43-.48.87-.91,1.24-1.4.3-.4.16-.79-.21-1.1-.34-.29-.69-.29-1.02,0-.43.38-.83.79-1.31,1.24.46.44.84.81,1.3,1.26Z"/>
    <path d="M141.62,425.23c.47-.49,1.01-1.13,1.64-1.68.91-.79,1.76-.88,2.76-.22.61.4,1.18.95,1.6,1.55.72,1.02.61,2.05-.21,2.99-.52.59-1.12,1.11-1.6,1.58-1.39-1.4-2.76-2.78-4.2-4.22ZM142.5,425.36c1.12,1.07,2.08,2.2,3.21,3.13,2.04-1.54,1.94-2.56.65-3.89-1.24-1.28-2.18-1.11-3.86.76Z"/>
    <path d="M151.26,404.32c0,1.12-.95,2.09-2.06,2.11-1.09.02-2.12-.96-2.16-2.05-.04-1.12,1.01-2.16,2.17-2.15,1.15.02,2.05.94,2.05,2.09Z"/>
    <path d="M146.74,420.91c.52.57.84.93,1.25,1.38.82-.8,1.56-1.51,2.27-2.2.52.21.55.45.23.78-.61.62-1.22,1.24-1.92,1.95.52.45.98.85,1.49,1.28.84-.69,1.74-1.44,2.66-2.17.01-.01.17.15.22.2-1.05,1.01-2.09,2-3.04,2.91-1.25-1.25-2.63-2.63-4.02-4.01.91-.88,1.9-1.82,2.93-2.81.34.11.41.36.08.68-.69.67-1.4,1.31-2.14,2.01Z"/>
    <path d="M67.85,404.34c-.02,1.09-1.01,2.08-2.11,2.08-1.15,0-2.13-1.03-2.08-2.2.04-1.14.99-2.03,2.13-2,1.12.03,2.07,1.01,2.05,2.11Z"/>
    <path d="M109.53,404.38c-.03,1.14-.97,2.06-2.1,2.05-1.19-.02-2.1-1.02-2.04-2.23.06-1.15,1.01-2.02,2.16-1.97,1.14.05,2.01.99,1.98,2.15Z"/>
    <path d="M274.37,406.42c-1.12.03-2.08-.89-2.1-2.05-.02-1.18.84-2.1,2-2.13,1.13-.03,2.09.89,2.12,2.03.02,1.13-.91,2.12-2.02,2.15Z"/>
    <path d="M192.96,318.13c0,1.11-1.02,2.09-2.12,2.06-1.06-.03-2-.97-2.03-2.02-.03-1.09.97-2.11,2.07-2.12,1.1-.01,2.1.99,2.09,2.09Z"/>
    <path d="M192.96,237.78c0,1.15-.92,2.03-2.1,2.02-1.12-.01-2.01-.86-2.05-1.95-.04-1.12.89-2.07,2.05-2.09,1.16-.02,2.1.89,2.11,2.02Z"/>
    <path d="M276.36,322.9c-.03,1.12-1.03,2.08-2.13,2.02-1.09-.06-1.95-.97-1.96-2.07,0-1.15.93-2.09,2.07-2.07,1.15.02,2.04.96,2.02,2.12Z"/>
    <path d="M192.96,283.52c-.04,1.12-1.04,2.05-2.16,2-1.06-.05-1.99-1.01-1.99-2.05,0-1.1,1-2.09,2.11-2.07,1.12.02,2.08,1.02,2.05,2.13Z"/>
    <path d="M192.96,276.72c.02,1.14-.89,2.05-2.07,2.05-1.12,0-2.02-.83-2.08-1.92-.07-1.11.87-2.09,2.01-2.12,1.16-.03,2.11.85,2.14,1.99Z"/>
    <path d="M234.64,235.99c0,1.17-.9,2.04-2.07,2.03-1.16-.02-2.04-.93-2.01-2.09.03-1.11.88-1.94,2.01-1.95,1.2-.01,2.07.84,2.07,2.02Z"/>
    <path d="M276.36,311.34c.03,1.16-.86,2.09-2.01,2.1-1.15.02-2.07-.89-2.07-2.05,0-1.11.84-1.99,1.95-2.03,1.17-.05,2.1.81,2.13,1.97Z"/>
    <path d="M234.5,420.35c.14.13.36.32.57.52.97.95,1.02,1.33.33,2.49-.74,1.23-2.09,1.93-3.25,1.67-1.36-.3-2.67-1.72-2.77-3.08-.08-1.15.5-2,1.41-2.64.73-.51,1.49-.73,2.47,0-.31.16-.54.39-.71.35-1.06-.28-1.7.29-2.17,1.09-.53.88-.18,1.7.4,2.42,1.22,1.54,2.99,1.5,3.92-.07.5-.84.46-1-.39-1.73-.65-.06-.78,1.28-1.79.59.66-.54,1.26-1.04,1.96-1.61Z"/>
    <path d="M226.86,431.81c-.61-.59-1.19-1.17-1.79-1.74-.62-.58-1.03-.66-1.4-.28-.36.37-.34.94.11,1.47.46.54.98,1.03,1.49,1.53.28.28.25.5-.22.78-.49-.47-1.02-.97-1.55-1.48-.5-.49-1-1-1.64-1.64,1.32-.19,1.26-1.96,2.7-1.78.1-.33.15-.62.28-.87.48-.97,1.34-1.17,2.15-.46.75.65,1.43,1.39,2.11,2.06-.19.56-.46.61-.78.3-.52-.49-1.01-1.01-1.52-1.5-.37-.36-.75-.73-1.28-.25-.41.38-.43.92.02,1.46.46.54.99,1.02,1.48,1.54.24.26.23.27-.16.86Z"/>
    <path d="M188.43,428.42c-.33.61-.6.52-.89.23-.5-.5-1-1.01-1.52-1.5-.34-.33-.71-.63-1.2-.24-.44.35-.49.93-.06,1.45.46.54.99,1.02,1.49,1.53.26.26.46.52-.14.89-.4-.38-.84-.79-1.28-1.21-.21-.2-.41-.42-.62-.62-.36-.35-.79-.58-1.22-.19-.43.4-.42.92-.05,1.36.48.58,1.02,1.11,1.55,1.64.32.32.31.56-.05.77-1-1.05-1.99-2.09-2.99-3.14.4-.11.74-.45,1.02-.96.23-.41.83-.6,1.46-1.02,0,.03.02-.22.12-.44.49-1.12,1.38-1.34,2.29-.54.72.64,1.38,1.33,2.09,2.02Z"/>
    <path d="M62.45,429.38c-.63-.62-1.24-1.24-1.88-1.84-.57-.53-.93-.57-1.29-.2-.4.4-.41.91.07,1.45.57.65,1.2,1.26,1.78,1.86-.24.47-.48.56-.82.23-.5-.5-1-1.01-1.51-1.5-.36-.35-.74-.76-1.28-.28-.42.38-.45.9,0,1.45.45.55.97,1.03,1.46,1.55.11.12.21.25.31.38-.18.39-.41.58-.75.23-.91-.9-1.82-1.82-2.86-2.87.68-.16.95-.54,1.25-.97.29-.43.87-.66,1.46-.83.07-.24.11-.48.2-.71.44-1.09,1.4-1.34,2.28-.55.62.55,1.2,1.17,1.78,1.77.24.25.22.27-.2.83Z"/>
    <path d="M268.02,426.85c.03-.11.06-.41.19-.66.46-.94,1.36-1.15,2.16-.46.66.57,1.26,1.22,1.88,1.85.33.34.23.58-.28.75-.6-.59-1.21-1.2-1.83-1.8-.34-.34-.71-.63-1.2-.25-.46.35-.53.92-.09,1.44.59.69,1.25,1.32,1.85,1.96-.25.5-.5.52-.82.2-.5-.51-1-1.01-1.51-1.5-.37-.35-.75-.75-1.28-.24-.41.39-.43.91.02,1.45.43.51.92.96,1.38,1.45.14.15.25.32.36.47-.21.47-.47.5-.79.19-.9-.87-1.79-1.75-2.76-2.69.56-.41,1.02-.71,1.31-1.25.21-.39.84-.55,1.4-.88Z"/>
    <path d="M98.56,434.96c-.25.44-.5.52-.83.19-.52-.54-1.05-1.07-1.6-1.59-.35-.33-.73-.62-1.19-.16-.42.42-.45.9-.07,1.35.6.69,1.24,1.34,2.04,2.21-.43.05-.76.18-.86.08-.96-.9-1.89-1.84-2.89-2.84.49-.39.95-.46,1.18-.99.2-.47.89-.72,1.56-1.21,0,0,.04-.3.17-.55.48-.95,1.32-1.12,2.17-.46.23.18.43.4.63.61.5.5.99,1,1.62,1.63-.2.19-.34.32-.54.51-.74-.72-1.35-1.33-1.97-1.94-.34-.34-.7-.63-1.2-.25-.46.36-.53.9-.09,1.43.58.7,1.24,1.33,1.85,1.97Z"/>
    <path d="M138.46,436.71c-.25.52-.51.55-.83.24-.9-.87-1.81-1.73-2.87-2.75,1.35-.3,1.29-2.1,2.79-1.83.07-.33.09-.58.18-.81.43-1.02,1.4-1.27,2.22-.54.66.58,1.25,1.23,1.87,1.85.29.29.16.51-.24.78-.61-.6-1.22-1.21-1.84-1.81-.38-.37-.77-.7-1.29-.24-.41.36-.42.93.02,1.45.46.54.99,1.02,1.49,1.53.29.3.36.56-.2.84-.38-.37-.78-.77-1.19-1.17-.27-.26-.53-.54-.81-.78-.29-.25-.62-.46-1.01-.15-.38.3-.48.72-.3,1.12.15.33.42.62.67.89.45.48.92.94,1.35,1.38Z"/>
    <path d="M5.85,289.04c-1.01.68-1.77.71-2.34.1-.6-.64-.62-1.74-.03-2.41.56-.64,1.33-.63,2.34.02,1.18-.94,2.21-1,2.94-.17.68.78.64,2.01-.07,2.74-.76.78-1.8.68-2.83-.28ZM7.37,286.75c-.7.02-1.16.5-1.15,1.2.01.7.5,1.16,1.21,1.14.71-.02,1.16-.5,1.15-1.21-.01-.71-.48-1.15-1.21-1.13ZM5.53,287.91c0-.59-.35-.93-.94-.91-.55.02-.84.32-.87.86-.04.58.32.97.88.98.57.01.93-.36.93-.93Z"/>
    <path d="M69.94,421.9c-.94,1.18-1.56-.17-2.54.08-.34.39-.85.98-1.54,1.79-.14.45,1.3,1.11.17,2.06-.91-2-1.77-3.89-2.6-5.73.25-.57.57-.74,1.12-.51,1.75.77,3.52,1.51,5.4,2.31ZM64.6,420.4c-.06.06-.11.11-.17.16.35.71.69,1.43,1.01,2.08.53-.41.95-.74,1.48-1.16-.91-.43-1.62-.76-2.32-1.09Z"/>
    <path d="M7.31,319.11c.53.69,1.73.3,1.8,1.63-.71-.26-1.27-.46-1.83-.67-1.25-.46-2.51-.91-3.74-1.41-.22-.09-.47-.4-.48-.6,0-.2.27-.49.49-.58,1.76-.74,3.54-1.45,5.32-2.17q.18.75-1.57,1.53v2.28ZM6.49,317.08c-.87.34-1.63.63-2.61,1.01,1.03.35,1.8.6,2.61.88v-1.88Z"/>
    <path d="M108.21,419.16c-.12.51-.31.68-.75.51-.78-.29-1.4,0-1.86.64-.5.7-.47,1.44.02,2.1.37.49.82.96,1.32,1.32.76.54,1.44.5,2.09,0,.65-.48.87-1.13.63-1.89-.14-.44-.3-.81.34-.93.68,1.01.71,1.86.09,2.72-.7.98-1.82,1.46-2.84,1.11-1.25-.42-2.18-1.24-2.62-2.52-.34-.98,0-2.11.85-2.82.82-.69,1.71-.82,2.72-.25Z"/>
    <path d="M3.11,310c1.5,0,3.04-.09,4.57.03.97.07,1.54,1.01,1.58,2.13.03,1.07-.46,2.02-1.31,2.21-1.6.36-3.22.22-4.8.17-.2-.75.21-.76.6-.77,1.09-.01,2.18-.03,3.27-.01,1.35.02,1.72-1.16,1.45-2.08-.19-.66-.65-.96-1.57-.98-1.09-.03-2.18-.01-3.27-.01-.4,0-.66-.11-.51-.68Z"/>
    <path d="M6.7,362.59c.85.14,1.6.27,2.34.41.02,0,0,.23,0,.42H3.11c0-1.01-.09-2.01.02-2.97.12-1.05.83-1.53,1.82-1.47.94.06,1.5.57,1.62,1.58.08.69.09,1.4.12,2.03ZM5.92,362.67c0-.68.05-1.3-.01-1.91-.07-.62-.55-1.02-1.08-1.01-.55,0-1,.4-1.05,1.03-.05.61-.01,1.23-.01,1.88h2.16Z"/>
    <path d="M30.76,257.04c-.11.61-.15,1.24-.33,1.83-.27.87-.85,1.27-1.65,1.28-.81.01-1.39-.38-1.68-1.23-.4-1.18-.38-2.39-.04-3.57.26-.9.96-1.38,1.74-1.36.74.02,1.33.49,1.64,1.33.07.19.16.39.18.6.04.37.05.75.07,1.12.02,0,.04.01.07.02ZM27.55,257.04c.07.57.09,1.16.24,1.72.12.47.53.85,1.02.74.34-.08.77-.41.88-.73.41-1.12.41-2.3-.01-3.42-.12-.31-.57-.62-.91-.7-.52-.12-.85.31-.97.78-.13.52-.16,1.06-.24,1.61Z"/>
    <path d="M30.78,312.79c-.15.69-.21,1.36-.44,1.97-.26.73-.98,1.17-1.66,1.1-.7-.07-1.29-.39-1.53-1.1-.46-1.34-.49-2.7.04-4.03.27-.68.83-1.03,1.57-1.03.75,0,1.32.37,1.56,1.04.24.65.31,1.36.46,2.05ZM30.03,312.82c-.12-.63-.19-1.21-.33-1.77-.11-.45-.46-.7-.92-.71-.46-.02-.83.22-.95.66-.33,1.18-.37,2.39.04,3.54.11.3.59.6.93.63.27.02.72-.31.83-.59.23-.56.28-1.2.4-1.77Z"/>
    <path d="M30.77,368.54c-.13.69-.2,1.36-.39,1.98-.24.75-.86,1.16-1.62,1.16-.75,0-1.37-.37-1.63-1.14-.43-1.3-.46-2.62.02-3.92.27-.74.86-1.11,1.65-1.1.75.02,1.3.41,1.54,1.08.22.62.29,1.28.43,1.93ZM27.56,368.71c.06.46.08,1,.21,1.52.12.46.42.83.97.82.54,0,.84-.35.98-.81.33-1.06.31-2.13.04-3.2-.14-.53-.46-.89-1.06-.87-.6.02-.88.45-.99.96-.1.49-.1.99-.15,1.57Z"/>
    <path d="M31.65,257.06c.16-.94.33-1.9.51-2.88h2.96q-.22.55-2.31.72c-.09.35-.19.73-.33,1.29.85-.15,1.69-.36,2.27.29.32.35.58.84.66,1.31.19,1.06-.63,2.14-1.64,2.33-1.12.2-1.87-.33-2.23-1.6.35-.21.57-.14.82.21.6.85,1.12,1,1.71.58.58-.42.74-1.53.3-2.17-.35-.51-.94-.65-1.55-.38-.29.13-.58.26-.88.39-.03.01-.08-.02-.29-.09Z"/>
    <path d="M21.04,258.73c-.56,1.19-1.34,1.55-2.49,1.17-1.09-.36-1.56-1.43-1.23-2.79.25-1,1.13-1.6,2.17-1.47,1.08.14,1.63.91,1.58,2.41h-2.95c.25,1.4,1.08,1.74,2,.97.18-.15.37-.3.58-.4.08-.04.23.07.35.11ZM18.11,257.33h2.25c-.16-.76-.55-1.1-1.22-1.06-.59.04-1.01.31-1.04,1.06Z"/>
    <path d="M32.96,368.2c.21-.08.43-.16.64-.25.41-.18.76-.46.66-.94-.06-.28-.28-.62-.53-.75-.44-.23-.91-.12-1.22.31-.19.27-.32.62-.85.32.06-.74.53-1.13,1.21-1.32.7-.2,1.54.08,1.91.64.46.69.31,1.34-.27,1.99.76.66,1.12,1.46.64,2.43-.37.75-1.08,1.09-1.87,1.04-.89-.06-1.6-.49-1.76-1.5.51-.38.7-.04.93.36.32.57.86.64,1.42.42.48-.19.84-.84.64-1.35-.13-.34-.46-.64-.77-.87-.2-.15-.51-.15-.77-.21,0-.11,0-.21-.01-.32Z"/>
    <path d="M31.24,314.24c.21-1.21,2.19-4.05,3.18-4.57.2.84.1,1.66.1,2.46,0,.71-.04,1.4.84,1.7-.32.31-.66.5-.79.78-.14.31-.11.71-.15,1.1-1.05-.12-.36-1-.92-1.47h-2.27ZM33.74,311.45c-.08-.03-.15-.07-.23-.1-.44.65-.89,1.31-1.43,2.11h1.66v-2.01Z"/>
    <path d="M9.2,326.54c-.45.61-.49,1.14-.18,1.68.08.14.07.33.07.49.03.83-.36,1.42-1,1.53-.63.11-1.19-.32-1.4-1.14-.14-.56-.22-1.14-.32-1.7-.85.04-1.21.39-1.03,1.1.13.49.46.93.79,1.56-1.25-.44-1.58-1.1-1.39-2.32.14-.9.5-1.18,1.58-1.2.87-.01,1.75,0,2.87,0ZM7.88,329.49c.73-.3.77-.84.52-1.44-.25-.6-.68-.88-1.52-.63.45.71.03,1.67,1,2.07Z"/>
    <path d="M7.17,281.17c.43.68.77,1.02,1.41.96.17-.02.38.25.78.54-.71.11-1.11.18-1.67.27-.05.8-.1,1.63-.16,2.69-1.79-.92-3.21-1.95-4.78-3.28.56-.13.82-.23,1.09-.24.71-.02,1.42,0,2.13-.01.54,0,1.19.15,1.21-.92ZM6.88,282.87c-.84.01-1.52-.16-2.34.16.47.34.79.59,1.13.82.36.25.73.48,1.21.78v-1.76Z"/>
    <path d="M6.06,353.22c-.72.08-1.06-.27-1.15-.71-.12-.59-.17-1.24-.08-1.84.1-.68.72-.89,1.33-.91.95-.03,1.89,0,3.04,0-.65.68-.35,1.28-.16,1.9.08.26.04.58-.01.86-.09.55-.42.89-1.01.94-.57.05-.99-.18-1.2-.7-.14-.34-.19-.72-.27-1.09-.08-.35-.14-.71-.21-1.06-.89.19-1.17.47-1.01,1.12.13.5.46.94.73,1.48ZM6.99,350.65c.11.55.13,1.02.3,1.43.1.25.4.57.64.59.45.04.59-.37.61-.77.04-.79-.41-1.19-1.54-1.25Z"/>
    <path d="M6.15,342.3c-1.3-.52-1.61-1.16-1.41-2.39.14-.86.53-1.19,1.59-1.23.87-.03,1.75,0,2.77,0-.13.31-.23.57-.33.81.08.61.24,1.26.24,1.9,0,.54-.35.92-.94.99-.62.08-1.1-.15-1.29-.74-.21-.66-.32-1.36-.47-2.04-.88.08-1.16.3-1.01.99.11.51.46.97.82,1.7ZM6.99,339.52c.09.49.15.84.22,1.2.03.16.02.36.11.48.14.18.38.43.53.41.23-.04.53-.26.61-.47.31-.78-.26-1.44-1.48-1.6Z"/>
    <path d="M8.91,345.21c.02,1.35-1.29,1.36-1.87,2.19.36,1,1.43.18,2.12.81-.23.15-.42.39-.61.4-1.67.03-3.34.03-5.02,0-.19,0-.38-.25-.57-.39l.1-.28h3.34c-.53-.56-.85-.91-1.19-1.25-.32-.32-.7-.62-.39-1.24.52.46,1,.9,1.53,1.36.87-.55,1.71-1.08,2.54-1.61Z"/>
    <path d="M187.68,420.7c.91-.89,1.69-1.64,2.47-2.4.27-.26.52-.44.87.11-.69.71-1.39,1.45-2.15,2.23.46.47.85.88,1.3,1.34.7-.67,1.33-1.27,1.97-1.88.8.7-.06.94-.32,1.25-.32.38-.76.64-1.22,1.01.75.79,1.34,1.42,1.91,2.03-.27.51-.54.57-.9.2-1.27-1.27-2.54-2.52-3.92-3.89Z"/>
    <path d="M8.22,279.53c.45-.99-.08-1.97.46-2.81.49.64.56,1.54.33,3.78-.55.16-.94-.19-1.29-.51-.4-.36-.73-.81-1.12-1.19-.38-.38-.76-.79-1.21-1.08-.62-.41-1.21-.27-1.53.25-.3.49-.17,1.18.3,1.57.28.23.91.27.44.87-1.28-.36-1.82-1.25-1.47-2.4.35-1.15,1.44-1.65,2.47-1.02.59.36,1.07.92,1.58,1.41.34.33.65.7,1.04,1.12Z"/>
    <path d="M21.09,313.69h-2.99c-.1.74.18,1.14.78,1.33.54.18.99.05,1.32-.43.22-.32.46-.49.81-.18-.46,1.14-1.33,1.56-2.45,1.21-1.04-.33-1.52-1.35-1.27-2.67.19-1.03,1.05-1.71,2.05-1.63,1.16.09,1.75.85,1.75,2.37ZM20.4,313.08c-.19-.74-.51-1.15-1.2-1.13-.65.03-1.04.36-1.1,1.13h2.3Z"/>
    <path d="M21.09,369.53h-2.99c-.09.74.19,1.14.79,1.33.54.17.99.04,1.32-.44.22-.32.46-.48.81-.16-.48,1.14-1.35,1.56-2.46,1.19-1.03-.34-1.52-1.36-1.26-2.68.2-1.03,1.06-1.7,2.06-1.62,1.16.09,1.75.86,1.74,2.38ZM20.29,368.9c-.27-.94-.55-1.19-1.2-1.12-.62.06-.85.36-.86,1.12h2.05Z"/>
    <path d="M7.05,357.46c1.54-.35,1.85-1.18.96-2.12-.24-.26-.54-.42-.22-.8,1.1.36,1.5,1.11,1.24,2.27-.25,1.08-1.12,1.57-2.55,1.41-1.12-.12-1.81-.91-1.76-2.03.05-1.15.72-1.7,2.34-1.81v3.07ZM6.4,357.45v-2.25c-.77.05-1.06.48-1.07,1.06-.01.63.31,1.07,1.07,1.2Z"/>
    <path d="M7.1,330.97v3.05c.73.1,1.06-.22,1.28-.71.24-.52.1-.98-.33-1.34-.28-.24-.67-.44-.2-.85,1.11.52,1.5,1.39,1.13,2.5-.33.99-1.35,1.45-2.71,1.2-.96-.17-1.58-.95-1.56-1.96.02-1.16.65-1.71,2.39-1.89ZM6.45,331.78c-.86.13-1.19.57-1.12,1.21.06.6.37,1.06,1.12,1.01v-2.22Z"/>
    <path d="M274.55,423.32c.36-.07.64-.22.82-.13.48.23.89.27,1.21-.19.38-.54.06-.95-.31-1.32-.85-.87-1.71-1.72-2.56-2.58-.12-.12-.22-.25-.34-.38.15-.44.39-.7.8-.3,1.01,1,2.03,1.99,2.96,3.05.7.81.55,1.61-.27,2.28-.69.57-1.35.48-2.32-.44Z"/>
    <path d="M14.6,311.2c-.55.27-.91.45-1.29.64-.06-.61.63-1.36,1.94-2.12v5.91c-.44.13-.64,0-.64-.39,0-.75,0-1.5,0-2.25,0-.54,0-1.07,0-1.79Z"/>
    <path d="M15.24,371.46c-.57.16-.64-.13-.64-.51,0-1.25,0-2.49,0-3.89-.5.24-.89.42-1.29.61-.06-.61.62-1.35,1.93-2.12v5.91Z"/>
    <path d="M15.07,260.22c-.22-.32-.44-.5-.45-.7-.04-.79-.02-1.58-.02-2.37,0-.5,0-.99,0-1.62-.5.23-.89.41-1.3.61q-.01-.64,1.78-2.09c.33.78.38,4.79,0,6.17Z"/>
    <path d="M10.9,308.67c-2.71-1.52-5.28-1.58-7.96,0,.61-1.15,2.25-1.91,3.83-1.94,1.64-.03,3.42.72,4.14,1.95Z"/>
    <path d="M10.87,321.25c-.66,1.13-2.46,2.01-3.98,1.92-1.47-.09-2.88-.46-3.88-1.73,2.6,1.31,5.17,1.24,7.86-.19Z"/>
    <path d="M3.11,296.03c.9-.25,4.65-.29,6.14-.02-.31.24-.49.49-.67.5-.88.05-1.75.03-2.63.03-.4,0-.8,0-1.33,0,.25.53.41.89.6,1.28q-.72-.02-2.1-1.79Z"/>
    <path d="M4.61,292.52c.25.52.42.88.69,1.46-1.28-.28-1.43-1.48-2.34-1.91.97-.32,4.58-.38,6.27-.1-.3.25-.46.51-.64.52-.83.05-1.67.03-2.51.03-.45,0-.89,0-1.48,0Z"/>
    <path d="M231.51,427.49c-1.6-1.6-2.95-2.95-4.33-4.33.11-.32.33-.58.69-.23,1.26,1.22,2.49,2.46,3.7,3.73.1.11-.03.43-.07.84Z"/>
    <path d="M139.02,427.56c1.58,1.58,2.93,2.94,4.31,4.32-.12.31-.34.54-.7.2-1.25-1.23-2.49-2.47-3.71-3.73-.1-.1.04-.43.09-.79Z"/>
    <path d="M65.43,426.56c-.23-.04-.53,0-.66-.13-1.31-1.27-2.59-2.56-3.86-3.82.27-.62.56-.52.89-.19.94.94,1.88,1.88,2.82,2.82.32.32.63.65.95.97-.05.12-.09.23-.14.35Z"/>
    <path d="M25.96,257.29c-.54.07-1.01.14-1.43.2-.4.48.18,1.23-.55,1.59-.6-.38-.15-1.03-.49-1.57-.39-.05-.86-.11-1.39-.18.12-1.04,1.08-.3,1.32-.66.54-.44-.27-1.41.85-1.51.06.51.12.99.17,1.4.46.39,1.26-.18,1.52.74Z"/>
    <path d="M190.52,426.35c-1.28-1.28-2.6-2.59-3.89-3.93-.11-.11,0-.43,0-.65.09-.03.18-.05.27-.08.59.57,1.17,1.14,1.76,1.72.71.7,1.41,1.41,2.12,2.11.33.32.28.57-.24.83Z"/>
    <path d="M98.46,426.66c.17-.42.46-.29.78.03,1.09,1.1,2.19,2.19,3.29,3.29.12.12.31.24.31.38.01.19-.11.4-.15.52-1.43-1.42-2.81-2.79-4.23-4.21Z"/>
    <path d="M24.27,310.71c.07.66.12,1.14.17,1.67.5.06.97.11,1.5.17-.16,1.01-1.01.36-1.48.8-.05.35-.11.83-.18,1.33-1.08-.07-.35-.95-.59-1.17-.43-.68-1.39.07-1.64-.94.53-.07.99-.13,1.44-.19.44-.43-.2-1.27.78-1.67Z"/>
    <path d="M23.49,368.21c.39-.49-.18-1.23.5-1.59q.36.52.42,1.56c.46.05.93.11,1.41.17q-.13.58-1.32.73c-.39.38.24,1.28-.75,1.49-.06-.53-.12-.98-.17-1.39-.38-.51-1.33.22-1.54-.8.53-.06,1.01-.12,1.44-.17Z"/>
    <path d="M273.6,426.77s-.33.15-.46.06c-.34-.23-.61-.56-.91-.85-.92-.91-1.83-1.83-2.74-2.74-.28-.28-.41-.54-.09-.72,1.41,1.43,2.79,2.83,4.21,4.26Z"/>
    <path d="M275.2,425.46c-.35.02-.67.14-.79.03-1.27-1.22-2.51-2.46-3.73-3.73-.1-.11-.01-.39-.01-.67.93.5,3.48,2.97,4.53,4.37Z"/>
    <path d="M185.05,423.56c.23-.47.46-.62.81-.28,1.3,1.29,2.6,2.57,3.87,3.84-.23.48-.46.61-.8.28-1.3-1.29-2.6-2.57-3.88-3.83Z"/>
    <path d="M63.74,428.07c-1.31-1.32-2.64-2.63-3.92-3.97-.11-.12-.02-.44-.02-.67.09-.03.18-.06.27-.09,1.32,1.32,2.64,2.63,3.93,3.97.11.12.01.44.01.66l-.28.1Z"/>
    <path d="M140.51,426.41c1.34,1.4,2.69,2.8,4.09,4.27-.08.24-.33.38-.66.06-1.22-1.19-2.42-2.4-3.62-3.61-.32-.33-.26-.57.19-.72Z"/>
    <path d="M97.26,427.51c1.6,1.61,2.95,2.96,4.35,4.36-.06.28-.27.58-.63.23-1.26-1.2-2.49-2.45-3.7-3.7-.11-.12-.02-.44-.02-.89Z"/>
    <path d="M225.77,424.56c.34-.58.6-.51.9-.22,1.26,1.26,2.53,2.52,3.8,3.78-.26.52-.51.58-.87.22-1.27-1.26-2.54-2.51-3.83-3.78Z"/>
    <path d="M8.96,337.35h-4.23c.11-.25.19-.44.32-.73-.14-.36-.66-.86.06-1.48.14.19.37.36.37.52-.01.82.5.97,1.15.99.63.01,1.26-.02,1.88.03.21.02.4.22.6.34-.05.11-.1.21-.15.32Z"/>
    <path d="M7.24,303.92c-1.05-.48-.58-1.24-.68-1.8-.07-.4.12-.64.68-.53v2.32Z"/>
    <path class="cls-9" d="M104.06,428.63c-.56-.61-.98-1.05-1.46-1.58.37-.37.72-.77,1.12-1.11.58-.49,1.14-.48,1.55-.04.39.42.39.9-.06,1.46-.34.42-.72.8-1.16,1.28Z"/>
    <path class="cls-9" d="M102.06,426.59c-.46-.45-.84-.81-1.3-1.26.47-.45.88-.86,1.31-1.24.32-.29.68-.29,1.02,0,.37.31.51.7.21,1.1-.37.49-.81.92-1.24,1.4Z"/>
    <path class="cls-9" d="M142.5,425.36c1.68-1.87,2.61-2.03,3.86-.76,1.29,1.32,1.39,2.35-.65,3.89-1.13-.93-2.09-2.06-3.21-3.13Z"/>
    <path class="cls-9" d="M7.37,286.75c.73-.02,1.2.42,1.21,1.13.01.71-.44,1.19-1.15,1.21-.71.02-1.2-.44-1.21-1.14-.01-.7.45-1.18,1.15-1.2Z"/>
    <path class="cls-9" d="M5.53,287.91c0,.58-.37.95-.93.93-.56-.01-.92-.41-.88-.98.03-.54.32-.84.87-.86.59-.02.94.32.94.91Z"/>
    <path class="cls-9" d="M64.6,420.4c.71.33,1.41.66,2.32,1.09-.54.42-.96.75-1.48,1.16-.32-.65-.66-1.37-1.01-2.08.06-.05.11-.11.17-.16Z"/>
    <path class="cls-9" d="M6.49,317.08v1.88c-.81-.27-1.57-.53-2.61-.88.98-.38,1.74-.67,2.61-1.01Z"/>
    <path class="cls-9" d="M5.92,362.67h-2.16c0-.66-.04-1.27.01-1.88.05-.63.5-1.03,1.05-1.03.53,0,1.02.39,1.08,1.01.06.61.01,1.23.01,1.91Z"/>
    <path class="cls-9" d="M27.55,257.04c.08-.55.11-1.09.24-1.61.12-.47.44-.9.97-.78.35.08.79.39.91.7.43,1.12.43,2.3.01,3.42-.12.32-.54.66-.88.73-.49.11-.89-.27-1.02-.74-.14-.56-.16-1.15-.24-1.72Z"/>
    <path class="cls-9" d="M30.03,312.82c-.12.57-.17,1.21-.4,1.77-.11.28-.56.61-.83.59-.33-.03-.82-.33-.93-.63-.41-1.16-.36-2.36-.04-3.54.12-.44.49-.68.95-.66.46.02.81.26.92.71.14.56.22,1.13.33,1.77Z"/>
    <path class="cls-9" d="M27.56,368.71c.05-.58.06-1.08.15-1.57.1-.52.38-.94.99-.96.6-.02.92.33,1.06.87.27,1.07.29,2.14-.04,3.2-.14.46-.44.81-.98.81-.55,0-.85-.36-.97-.82-.13-.52-.15-1.06-.21-1.52Z"/>
    <path class="cls-9" d="M18.11,257.33c.03-.74.45-1.02,1.04-1.06.67-.04,1.06.3,1.22,1.06h-2.25Z"/>
    <path class="cls-9" d="M33.74,311.45v2.01h-1.66c.54-.8.99-1.46,1.43-2.11.08.03.15.07.23.1Z"/>
    <path class="cls-9" d="M7.88,329.49c-.97-.39-.55-1.36-1-2.07.83-.25,1.27.03,1.52.63.26.61.21,1.15-.52,1.44Z"/>
    <path class="cls-9" d="M6.88,282.87v1.76c-.47-.31-.85-.54-1.21-.78-.34-.23-.66-.48-1.13-.82.82-.32,1.5-.14,2.34-.16Z"/>
    <path class="cls-9" d="M6.99,350.65c1.13.06,1.58.46,1.54,1.25-.02.4-.16.81-.61.77-.23-.02-.53-.34-.64-.59-.17-.41-.19-.88-.3-1.43Z"/>
    <path class="cls-9" d="M6.99,339.52c1.22.17,1.78.83,1.48,1.6-.09.22-.38.43-.61.47-.15.03-.39-.23-.53-.41-.09-.11-.08-.31-.11-.48-.07-.36-.13-.71-.22-1.2Z"/>
    <path class="cls-9" d="M20.4,313.08h-2.3c.06-.77.45-1.1,1.1-1.13.69-.03,1.01.38,1.2,1.13Z"/>
    <path class="cls-9" d="M20.29,368.9c-.7,0-1.37,0-2.05,0,0-.77.23-1.06.86-1.12.65-.06.92.18,1.2,1.12Z"/>
    <path class="cls-9" d="M6.4,357.45c-.77-.12-1.09-.57-1.07-1.2.01-.57.3-1,1.07-1.06v2.25Z"/>
    <path class="cls-9" d="M6.45,331.78v2.22c-.75.04-1.07-.41-1.12-1.01-.06-.64.26-1.08,1.12-1.21Z"/>
  </g>
  <path class="cls-6" d="M394.84,172.91v-.81l14.54-8.39v.81l-14.54,8.39Z"/>
  <path class="cls-6" d="M409.38,164.52v-.81l14.54,8.39v.81l-14.54-8.39Z"/>
  <path class="cls-6" d="M423.92,172.91v-.81l14.54-8.39v.81l-14.54,8.39Z"/>
  <text class="cls-3" transform="translate(448.78 177.05)"><tspan x="0" y="0">N</tspan></text>
  <path class="cls-6" d="M438.46,164.52v-.81l9.05,5.23-.35.61-8.7-5.03Z"/>
  <path class="cls-6" d="M458.81,169.55l-.35-.61,9.07-5.24v.81l-8.72,5.04Z"/>
  <path class="cls-6" d="M467.53,164.52v-.81l14.54,8.39v.81l-14.54-8.39Z"/>
  <path class="cls-6" d="M482.07,172.91v-.81l14.55-8.39v.81l-14.55,8.39Z"/>
  <path class="cls-6" d="M496.62,164.52v-.81l14.54,8.39v.81l-14.54-8.39Z"/>
  <text class="cls-3" transform="translate(521.49 158.94)"><tspan x="0" y="0">H</tspan></text>
  <text class="cls-3" transform="translate(521.49 168.66)"><tspan x="0" y="0">N</tspan></text>
  <path class="cls-6" d="M511.16,172.91v-.81l8.36-4.83.35.61-8.71,5.03Z"/>
  <path class="cls-6" d="M531.47,167.85l.35-.61,8.76,5.06-.7.4-8.41-4.85Z"/>
  <text class="cls-3" transform="translate(550.24 168.66)"><tspan x="0" y="0">O</tspan></text>
  <path class="cls-6" d="M538.9,171.94l-.35-.61,9.9-5.72.35.61-9.9,5.72Z"/>
  <path class="cls-6" d="M540.41,174.55l-.35-.61,9.9-5.72.35.61-9.9,5.72Z"/>
  <path class="cls-6" d="M539.88,172.71l.7-.4v16.79l-.7.4v-16.79Z"/>
  <path class="cls-6" d="M539.88,189.5l.7-.4,14.19,8.19v.4h-.7l-14.19-8.19Z"/>
  <path class="cls-6" d="M555.12,197.89l-.35-.2v-.4l14.19-8.19.7.4-14.54,8.39Z"/>
  <path class="cls-6" d="M554.42,198.29l.35-.61.35.2v16.38l-.7.4v-16.38Z"/>
  <text class="cls-3" transform="translate(527.28 210.63)"><tspan x="0" y="0">HO</tspan></text>
  <path class="cls-6" d="M554.07,197.69h.7l-.35.61-9.01,5.2-.35-.61,9.01-5.2Z"/>
  <text class="cls-3" transform="translate(564.77 177.05)"><tspan x="0" y="0">OH</tspan></text>
  <path class="cls-6" d="M569.66,189.5l-.7-.4v-10.07h.7v10.47Z"/>
  <text class="cls-3" transform="translate(579.31 202.24)"><tspan x="0" y="0">O</tspan></text>
  <path class="cls-6" d="M569.13,187.85l.35-.61,10.31,5.95-.35.61-10.31-5.95Z"/>
  <path class="cls-6" d="M567.62,190.47l.35-.61,10.31,5.95-.35.61-10.31-5.95Z"/>
  <path class="cls-6" d="M554.42,214.68l.7-.4,14.54,8.39-.7.4-14.54-8.39Z"/>
  <text class="cls-3" transform="translate(579.31 219.02)"><tspan x="0" y="0">O</tspan></text>
  <path class="cls-6" d="M567.97,222.3l-.35-.61,9.9-5.72.35.61-9.9,5.72Z"/>
  <path class="cls-6" d="M569.48,224.92l-.35-.61,9.9-5.72.35.61-9.9,5.72Z"/>
  <text class="cls-3" transform="translate(565.1 244.21)"><tspan x="0" y="0">NH</tspan></text>
  <path class="cls-6" d="M568.96,223.07l.7-.4v11.46h-.7v-11.06Z"/>
  <path class="cls-6" d="M563.14,242.82l.35.61-8.72,5.03v-.81l8.37-4.83Z"/>
  <path class="cls-6" d="M554.77,247.65v.81l-14.54-8.39v-.81l14.54,8.39Z"/>
  <path class="cls-6" d="M540.23,239.25v.81l-14.54,8.39v-.81l14.54-8.39Z"/>
  <path class="cls-6" d="M525.69,247.65v.81l-14.54-8.39v-.81l14.54,8.39Z"/>
  <text class="cls-3" transform="translate(492.41 252.6)"><tspan x="0" y="0">N</tspan></text>
  <path class="cls-6" d="M511.16,239.25v.81l-8.72,5.04-.35-.61,9.07-5.24Z"/>
  <path class="cls-6" d="M491.13,244.48l-.35.61-8.71-5.03v-.81l9.06,5.23Z"/>
  <path class="cls-6" d="M482.07,239.25v.81l-14.54,8.39v-.81l14.54-8.39Z"/>
  <path class="cls-6" d="M467.53,247.65v.81l-14.54-8.39v-.81l14.54,8.39Z"/>
  <path class="cls-6" d="M452.99,239.25v.81l-14.54,8.39v-.81l14.54-8.39Z"/>
  <text class="cls-3" transform="translate(419.71 234.48)"><tspan x="0" y="0">H</tspan></text>
  <text class="cls-3" transform="translate(419.71 244.21)"><tspan x="0" y="0">N</tspan></text>
  <path class="cls-6" d="M438.46,247.65v.81l-8.76-5.06.35-.61,8.41,4.85Z"/>
  <text class="cls-3" transform="translate(376.09 156.37)"><tspan x="0" y="0">H</tspan></text>
  <text class="cls-5" transform="translate(384.51 158.94)"><tspan x="0" y="0">2</tspan></text>
  <text class="cls-3" transform="translate(376.09 168.66)"><tspan x="0" y="0">N</tspan></text>
  <path class="cls-6" d="M394.84,172.1v.81l-8.76-5.06.35-.61,8.41,4.85Z"/>
  <path class="cls-6" d="M374.13,167.27l.35.61-8.71,5.03v-.81l8.36-4.83Z"/>
  <path class="cls-6" d="M365.77,172.1v.81l-14.54-8.39v-.4l.35-.2,14.19,8.19Z"/>
  <text class="cls-3" transform="translate(361.23 193.84)"><tspan x="0" y="0">O</tspan></text>
  <path class="cls-6" d="M366.93,171.63h.7v12h-.7v-12Z"/>
  <path class="cls-6" d="M363.91,171.63h.7v12h-.7v-12Z"/>
  <path class="cls-6" d="M417.74,242.82l.35.61-8.71,5.03v-.81l8.36-4.83Z"/>
  <text class="cls-3" transform="translate(404.85 269.39)"><tspan x="0" y="0">O</tspan></text>
  <path class="cls-6" d="M410.54,247.18h.7v12h-.7v-12Z"/>
  <path class="cls-6" d="M407.52,247.18h.7v12h-.7v-12Z"/>
  <path class="cls-6" d="M409.38,247.65v.81l-14.54-8.39v-.4l.35-.2,14.19,8.19Z"/>
  <path class="cls-6" d="M395.19,239.46l-.35.2-.35-.2v-16.38l.7-.4v16.79Z"/>
  <path class="cls-6" d="M392.17,237.91h-.7v-13.3h.7v13.3Z"/>
  <path class="cls-6" d="M395.19,222.67l-.7.4-14.19-8.19v-.81l14.89,8.6Z"/>
  <path class="cls-6" d="M380.3,214.07v.81l-14.19,8.19-.35-.2v-.4l14.54-8.39Z"/>
  <path class="cls-6" d="M380.13,217.66l.35.61-11.52,6.65-.35-.61,11.52-6.65Z"/>
  <path class="cls-6" d="M365.42,223.07l.35-.2.35.2v16.38l-.7.4v-16.79Z"/>
  <path class="cls-6" d="M365.42,239.86l.7-.4,14.19,8.19v.81l-14.89-8.6Z"/>
  <path class="cls-6" d="M368.61,238.22l.35-.61,11.52,6.65-.35.61-11.52-6.65Z"/>
  <path class="cls-6" d="M380.3,248.46v-.81l14.19-8.19.35.2v.4l-14.54,8.39Z"/>
  <path class="cls-6" d="M351.58,163.91l-.35.2-.35-.2v-16.38l.7-.4v16.79Z"/>
  <path class="cls-6" d="M348.56,162.37h-.7v-13.3h.7v13.3Z"/>
  <path class="cls-6" d="M351.58,147.12l-.7.4-14.19-8.19v-.81l14.89,8.6Z"/>
  <path class="cls-6" d="M336.69,138.53v.81l-14.19,8.19-.35-.2v-.4l14.54-8.39Z"/>
  <path class="cls-6" d="M336.52,142.12l.35.61-11.52,6.65-.35-.61,11.52-6.65Z"/>
  <path class="cls-6" d="M321.8,147.53l.35-.2.35.2v16.38l-.7.4v-16.79Z"/>
  <path class="cls-6" d="M321.8,164.31l.7-.4,14.19,8.19v.81l-14.89-8.6Z"/>
  <path class="cls-6" d="M325,162.67l.35-.61,11.52,6.65-.35.61-11.52-6.65Z"/>
  <path class="cls-6" d="M336.69,172.91v-.81l14.19-8.19.35.2v.4l-14.54,8.39Z"/>
  <text class="cls-4" transform="translate(294.66 143.48)"><tspan x="0" y="0">HO</tspan></text>
  <path class="cls-6" d="M322.15,146.92v.4l-.35.2-8.93-5.15.35-.61,8.93,5.15Z"/>
  <text class="cls-4" transform="translate(338.28 219.02)"><tspan x="0" y="0">HO</tspan></text>
  <path class="cls-8" d="M365.77,222.47v.4l-.35.2-8.93-5.15.35-.61,8.93,5.15Z"/>
  <path class="cls-6" d="M452.64,178.87h.7v10.63l-.7-.4v-10.22Z"/>
  <path class="cls-6" d="M496.27,254.42h.7v10.63l-.7-.4v-10.22Z"/>
  <path class="cls-6" d="M452.64,189.09l.7.4-14.71,8.49-.35-.61,14.36-8.29Z"/>
  <text class="cls-3" transform="translate(463 202.24)"><tspan x="0" y="0">O</tspan></text>
  <path class="cls-6" d="M452.82,187.85l.35-.61,10.31,5.95-.35.61-10.31-5.95Z"/>
  <path class="cls-6" d="M451.31,190.47l.35-.61,10.31,5.95-.35.61-10.31-5.95Z"/>
  <path class="cls-6" d="M496.27,264.64l.7.4-14.71,8.49-.35-.61,14.36-8.29Z"/>
  <text class="cls-3" transform="translate(506.62 277.78)"><tspan x="0" y="0">O</tspan></text>
  <path class="cls-6" d="M496.44,263.4l.35-.61,10.31,5.95-.35.61-10.31-5.95Z"/>
  <path class="cls-6" d="M494.93,266.01l.35-.61,10.31,5.95-.35.61-10.31-5.95Z"/>
  <path class="cls-16" d="M376.14,175.45c0,2.31,1.87,4.19,4.19,4.19s4.19-1.87,4.19-4.19-1.87-4.19-4.19-4.19-4.19,1.87-4.19,4.19h0Z"/>
  <path class="cls-6" d="M378.01,175.14h4.59v.58h-4.59v-.58Z"/>
  <path class="cls-6" d="M380.6,173.14v4.59h-.58v-4.59h.58Z"/>
  <text class="cls-3" transform="translate(346.58 299.94)"><tspan x="0" y="0">FeatureID:</tspan></text>
  <text class="cls-3" transform="translate(404.9 299.94)"><tspan class="cls-12" x="0" y="0">1</tspan><tspan class="cls-14" x="5.62" y="0">1842</tspan></text>
  <text class="cls-3" transform="translate(440.55 299.94)"><tspan x="0" y="0">(Methylolanthanin)</tspan></text>
  <text class="cls-3" transform="translate(354.25 316.44)"><tspan x="0" y="0">Chemical</tspan></text>
  <text class="cls-3" transform="translate(406.08 316.44)"><tspan x="0" y="0">Formula:</tspan></text>
  <text class="cls-3" transform="translate(455.32 316.44)"><tspan x="0" y="0">C</tspan></text>
  <text class="cls-5" transform="translate(463.74 319)"><tspan x="0" y="0">40</tspan></text>
  <text class="cls-3" transform="translate(473.46 316.44)"><tspan x="0" y="0">H</tspan></text>
  <text class="cls-5" transform="translate(481.88 319)"><tspan x="0" y="0">59</tspan></text>
  <text class="cls-3" transform="translate(491.61 316.44)"><tspan x="0" y="0">N</tspan></text>
  <text class="cls-5" transform="translate(500.03 319)"><tspan x="0" y="0">6</tspan></text>
  <text class="cls-3" transform="translate(504.89 316.44)"><tspan x="0" y="0">O</tspan></text>
  <text class="cls-5" transform="translate(513.96 319)"><tspan class="cls-7" x="0" y="0">1</tspan><tspan x="4.21" y="0">1</tspan></text>
  <text class="cls-5" transform="translate(523.68 311.89)"><tspan x="0" y="0">+</tspan></text>
  <text class="cls-3" transform="translate(383.85 332.94)"><tspan x="0" y="0">Exact</tspan></text>
  <text class="cls-3" transform="translate(416.24 332.94)"><tspan x="0" y="0">Mass:</tspan></text>
  <text class="cls-3" transform="translate(450.57 332.94)"><tspan x="0" y="0">799.4236</tspan></text>
  <text class="cls-11" transform="translate(110.16 10.04)"><tspan x="0" y="0">NdCl</tspan></text>
  <text class="cls-11" transform="translate(134.62 14.04) scale(.58)"><tspan x="0" y="0">3 </tspan></text>
  <text class="cls-11" transform="translate(139.69 10.04)"><tspan class="cls-1" x="0" y="0">g</tspan><tspan class="cls-17" x="6.64" y="0">r</tspan><tspan class="cls-15" x="10.44" y="0">o</tspan><tspan class="cls-2" x="16.94" y="0">wn samples</tspan></text>
  <text class="cls-11" transform="translate(160.33 226.13)"><tspan x="0" y="0">Nd</tspan></text>
  <text class="cls-10" transform="translate(174.99 230.13) scale(.58)"><tspan x="0" y="0">2</tspan></text>
  <text class="cls-11" transform="translate(178.58 226.13)"><tspan x="0" y="0">O</tspan></text>
  <text class="cls-11" transform="translate(186.85 230.13) scale(.58)"><tspan x="0" y="0">3 </tspan></text>
  <text class="cls-11" transform="translate(191.92 226.13)"><tspan class="cls-1" x="0" y="0">g</tspan><tspan class="cls-17" x="6.64" y="0">r</tspan><tspan class="cls-15" x="10.44" y="0">o</tspan><tspan x="16.94" y="0">wn samples</tspan></text>
  <text class="cls-11" transform="translate(52.71 14.12)"><tspan x="0" y="0">A.</tspan></text>
  <text class="cls-11" transform="translate(53.62 228.4)"><tspan class="cls-13" x="0" y="0">B</tspan><tspan x="6.35" y="0">.</tspan></text>
  <text class="cls-11" transform="translate(312.88 113.11)"><tspan x="0" y="0">C.</tspan></text>
</svg>