<?xml version="1.0" encoding="UTF-8"?>
<svg id="Layer_1" xmlns="http://www.w3.org/2000/svg" viewBox="0 0 572.21 238.42">
  <defs>
    <style>
      .cls-1, .cls-2 {
        fill: #3a53a4;
      }

      .cls-1, .cls-3, .cls-4 {
        font-family: ArialMT, Arial;
        isolation: isolate;
      }

      .cls-1, .cls-4 {
        font-size: 10.26px;
      }

      .cls-5 {
        fill: #fff;
      }

      .cls-3 {
        font-size: 7.69px;
      }

      .cls-3, .cls-4, .cls-6 {
        fill: #010101;
      }

      .cls-7 {
        letter-spacing: 0em;
      }

      .cls-8 {
        letter-spacing: -.01em;
      }

      .cls-9 {
        fill: #231f20;
        font-family: MyriadPro-Regular, 'Myriad Pro';
        font-size: 12.72px;
      }

      .cls-10 {
        letter-spacing: 0em;
      }

      .cls-11 {
        letter-spacing: -.01em;
      }

      .cls-12 {
        fill: none;
        stroke: #010101;
        stroke-miterlimit: 10;
        stroke-width: 1.33px;
      }

      .cls-13 {
        letter-spacing: 0em;
      }
    </style>
  </defs>
  <g>
    <path class="cls-5" d="M0,238.42V12.9h300.69v225.52H0ZM121.72,200.72v2.92c.65.26,1,.17,1.01-.5,0-.78,0-1.56,0-2.4h30.34v2.91c.68.23,1.08.19,1.08-.56,0-.78,0-1.56,0-2.37h30.31c0,.84-.03,1.63,0,2.41.03.68.11.7,1.09.41v-2.76c2.18-.27,29.34-.17,30.32.13v2.87c.39-.04.66-.07,1.03-.11v-2.87c1.65-.25,29.34-.18,30.32.08v2.78c.64.23,1.02.16,1.03-.51.01-.78,0-1.57,0-2.4h30.34v3.05c.43-.06.73-.1,1.13-.15v-3h18.15v-1.16H41.23c0-.76,0-1.38,0-1.99,0-59.92,0-119.84,0-179.76,0-.42.02-.84,0-1.25-.04-.76-.05-.76-1.16-.61v14.97c0,4.97,0,9.93,0,14.9,0,4.99,0,9.98,0,15.07h-3.01c.02.4.04.7.07,1.1h2.88v48.25h-2.91v1.1h2.9v48.17c-1.02.05-1.96.1-2.96.15.04.4.07.66.11,1.06h2.94v1.63c0,12.1,0,24.2,0,36.3,0,1.97.11,2.08,2.13,2.08,5.09,0,10.18,0,15.27,0h1.45v3.04h1.13v-2.89c1.58-.26,29.3-.2,30.31.09v2.79c.66.18,1.02.11,1.01-.57-.01-.78,0-1.56,0-2.4h30.36ZM248.58,111.43c1.33-1.18,1.56-2.42.63-3.39-.78-.81-2.12-.83-2.92-.04-1,.99-.79,2.19.58,3.39-1.37,1.33-1.57,2.43-.61,3.41.84.86,2.2.84,3-.06.88-.98.63-2.18-.68-3.32ZM118.68,217.06c.8-.85,1.56-1.52,2.14-2.32.8-1.11.16-2.4-1.19-2.58-.2-.03-.41,0-.62,0-.05-.17-.07-.29-.11-.4-.44-1.42-1.51-1.75-2.65-.8-.64.53-1.25,1.1-1.88,1.65.3.33.43.49.57.64,1.2,1.22,2.39,2.44,3.74,3.81ZM281.19,191.71c0-1.17-.87-2.05-2.03-2.06-1.19-.02-2.2.95-2.18,2.09.02,1.15,1.05,2.13,2.21,2.09,1.12-.04,2.01-.99,2.01-2.12ZM59.5,189.65c-1.13-.01-2.1.9-2.13,2.02-.04,1.15.98,2.18,2.14,2.16,1.11-.02,2.07-1,2.07-2.1,0-1.13-.93-2.06-2.07-2.08ZM187.06,191.76c.02-1.14-.87-2.08-2.01-2.11-1.16-.03-2.21.97-2.19,2.1.02,1.08,1.02,2.07,2.11,2.08,1.1,0,2.07-.95,2.09-2.06ZM155.72,191.74c.01-1.09-.96-2.07-2.07-2.09-1.15-.02-2.09.86-2.13,2-.04,1.16.95,2.19,2.1,2.18,1.1-.01,2.08-.99,2.1-2.09ZM92.93,191.74c0-1.12-.91-2.07-2.04-2.09-1.2-.02-2.14.92-2.12,2.13.02,1.12.98,2.07,2.09,2.05,1.11-.02,2.06-.97,2.07-2.09ZM218.41,191.73c0-1.18-.86-2.07-2.02-2.08-1.15-.02-2.07.86-2.1,2.01-.03,1.2.92,2.18,2.1,2.16,1.13-.02,2.03-.94,2.03-2.09ZM124.26,191.73c0-1.19-.85-2.06-2.01-2.08-1.14-.02-2.08.89-2.11,2.01-.03,1.18.93,2.18,2.11,2.16,1.13-.01,2.01-.93,2.02-2.1ZM216.87,206.84c-.02-.1-.03-.2-.05-.3-1.62-.84-3.79.7-3.7,2.62.06,1.32,1.3,2.79,2.67,3.16,1.16.31,2.5-.31,3.28-1.54.75-1.18.71-1.61-.28-2.57-.23-.22-.49-.42-.57-.49-.68.55-1.28,1.03-1.94,1.57,1.02.7,1.15-.63,1.79-.58.85.73.88.89.38,1.73-.81,1.35-2.18,1.61-3.37.59-.34-.29-.63-.66-.87-1.05-.43-.7-.43-1.43.07-2.1.47-.62,1.03-1.08,1.91-.89.21.04.45-.08.67-.13ZM249.77,30.63c.03-1.12-.9-2.12-2.01-2.13-1.08-.02-2.09.98-2.09,2.07,0,1.05.91,2,1.97,2.05,1.12.06,2.1-.85,2.13-1.99ZM249.77,24.11c0-1.17-.89-2.01-2.09-1.99-1.11.02-1.98.87-2.01,1.96-.03,1.12.89,2.06,2.04,2.07,1.16,0,2.07-.89,2.06-2.04ZM150.25,216.83c.52-.53,1.15-1.14,1.73-1.79.61-.69.7-1.5.35-2.34-.43-1.05-1.2-1.79-2.23-2.25-.8-.36-1.58-.26-2.22.31-.67.6-1.26,1.31-1.82,1.9,1.38,1.37,2.76,2.74,4.18,4.17ZM251.4,209.84c-1.52-1.56-2.85-2.92-4.22-4.33-.14.16-.29.34-.44.51.57.61,1.1,1.17,1.45,1.55-.73.78-1.37,1.47-2.04,2.17-.52-.5-1.06-1.01-1.66-1.57-.18.22-.32.4-.52.64,1.29,1.27,2.54,2.49,3.78,3.72.43.43.7.34.89-.24-.6-.62-1.2-1.24-1.64-1.69.7-.81,1.31-1.52,1.95-2.27.68.64,1.3,1.23,1.97,1.85.23-.17.39-.28.47-.35ZM205.66,217.76c1.07,1.07,1.98,2.02,2.95,2.92.38.35.57.02.65-.35-.58-.61-1.19-1.19-1.72-1.82-.46-.55-.44-1.1-.03-1.45.52-.43.92-.11,1.3.25.5.5,1,1,1.5,1.49.32.31.58.26.76-.25-.58-.6-1.21-1.2-1.77-1.86-.45-.53-.41-1.07,0-1.45.53-.48.91-.11,1.28.25.51.49,1,1,1.51,1.49.32.31.58.27.78-.26-.64-.65-1.28-1.35-1.99-1.99-.97-.86-1.85-.63-2.32.57-.07.19-.11.39-.11.39-.6.38-1.17.58-1.44.97-.31.47-.58.9-1.35,1.08ZM153.35,205.69c-1.1.96-2.13,1.85-3.25,2.83.76.74,1.46,1.4,2.14,2.06.71.69,1.41,1.38,2.15,2.12,1.05-1.12,2.16-2.03,3.03-3.16-.13-.14-.2-.26-.24-.26-1.25.29-1.65,1.66-2.79,2.19-.46-.42-.94-.86-1.43-1.31.82-.85,1.53-1.59,2.26-2.35-.61-.3-.62-.31-.88-.07-.62.6-1.24,1.2-1.83,1.78-.5-.42-.91-.75-1.47-1.22.62-.54,1.15-.9,1.55-1.38.31-.38,1.19-.59.75-1.25ZM242.81,218.23c-.6-.63-1.25-1.26-1.83-1.96-.45-.54-.39-1.06.07-1.43.48-.39.84-.1,1.19.24.62.61,1.23,1.21,1.96,1.94.19-.19.33-.32.53-.52-.69-.7-1.26-1.29-1.86-1.86-1.28-1.24-2.24-.95-2.74.81-.02.07-.09.13-.13.19-.95.2-1.2.23-1.39.84-.17.57-.67.6-1.16.98.99.99,1.91,1.93,2.87,2.82.11.1.44-.02.82-.06-.24-.31-.33-.45-.44-.57-.49-.51-1.01-.99-1.46-1.53-.47-.56-.45-1.04-.03-1.44.52-.51.9-.13,1.27.23.51.49,1.01.99,1.5,1.5.31.32.56.29.83-.17ZM80.99,217.07c1.1,1.09,2.09,2.07,3.14,3.11.06-.15.25-.4.19-.53-.11-.25-.37-.44-.57-.65-.37-.39-.78-.76-1.11-1.18-.41-.53-.37-1.09.06-1.44.49-.41.85-.07,1.19.24.4.37.76.77,1.15,1.14.25.24.53.46.77.67.54-.32.38-.58.11-.85-.52-.53-1.07-1.05-1.55-1.62-.39-.47-.32-1,.07-1.34.46-.4.85-.17,1.2.17.53.52,1.06,1.05,1.59,1.59.32.33.56.28.78-.17-.08-.11-.16-.26-.27-.38-.55-.56-1.09-1.14-1.68-1.67-.98-.88-1.95-.62-2.39.63-.07.18-.07.39-.11.62-.75-.04-1.35.24-1.55.88-.17.53-.55.63-1.02.79ZM114.63,220.9c.49-.22.61-.45.27-.79-.62-.62-1.21-1.27-1.87-1.84-.8-.68-1.68-.46-2.14.49-.12.26-.18.54-.29.89-.64-.02-1.32.2-1.45.86-.12.65-.79.49-1.07,1.02.94.94,1.86,1.88,2.82,2.78.1.09.43-.06.82-.12-.78-.83-1.42-1.48-2.02-2.17-.37-.43-.35-.93.07-1.34.46-.45.84-.16,1.18.17.54.52,1.07,1.05,1.59,1.58.33.34.57.24.81-.2-.61-.64-1.26-1.27-1.84-1.97-.44-.52-.36-1.09.1-1.43.5-.37.85-.05,1.19.28.62.6,1.23,1.21,1.82,1.79ZM51.58,221.19c-.58-.6-1.21-1.2-1.78-1.85-.46-.52-.44-1.08-.03-1.45.52-.46.92-.13,1.29.23.62.6,1.23,1.21,1.84,1.82.08-.03.17-.06.25-.09,0-.23.1-.55-.02-.68-.62-.68-1.25-1.35-1.95-1.94-.74-.63-1.65-.39-2.07.49-.12.26-.16.55-.17.62-.62.41-1.12.67-1.53,1.03-.36.31-.62.74-1.04,1.25.83.83,1.75,1.77,2.71,2.67.11.1.45-.03.82-.07-.24-.31-.33-.44-.44-.56-.48-.52-1.01-1-1.45-1.55-.45-.56-.43-1.07-.02-1.45.54-.5.91-.08,1.27.27.51.49,1.01,1,1.51,1.5.33.33.57.24.8-.24ZM143.02,224.08c-.37-.38-.69-.7-1-1.04-.34-.37-.7-.72-.98-1.13-.32-.47-.2-1.05.2-1.33.46-.32.78-.04,1.09.26.54.52,1.07,1.05,1.6,1.58.33.33.57.25.81-.23-.58-.6-1.21-1.2-1.78-1.85-.46-.52-.45-1.08-.04-1.45.51-.47.92-.14,1.29.22.62.6,1.23,1.21,1.82,1.8.5-.27.52-.52.2-.84-.48-.47-.94-.95-1.42-1.41-1.3-1.26-2.24-.99-2.72.78-.02.07-.1.12-.15.19-.52.16-1.13.35-1.33.75-.27.53-.75.74-1.25,1.19,1.11.99,2.15,1.92,3.21,2.84.02.02.19-.13.45-.32ZM274.98,217.44c.09-.02.19-.05.28-.07.02-.2.14-.48.04-.6-.27-.36-.63-.66-.94-1-.29-.3-.61-.58-.82-.93-.26-.42-.22-.9.18-1.24.4-.34.77-.19,1.11.13.21.2.41.41.62.61.46.45.92.9,1.37,1.35.1-.05.2-.1.3-.15-.03-.22.01-.52-.12-.66-.53-.59-1.14-1.1-1.65-1.7-.86-.99-2.28-.49-2.44.69-.02.16-.07.31-.04.18-.66.46-1.28.68-1.53,1.11-.28.48-.6.78-1.27.97,1.03,1.04,1.93,1.95,2.84,2.84.34.33.58.2.76-.26-.56-.58-1.15-1.16-1.69-1.78-.49-.57-.49-1.18-.05-1.55.55-.47.92-.02,1.27.31.6.57,1.18,1.16,1.77,1.74ZM175.62,216.67c1.01,1.01,2.01,2.01,2.98,2.99.21-.39.22-.4-.02-.65-.46-.49-.95-.94-1.38-1.44-.52-.62-.53-1.19-.06-1.53.54-.39.93-.05,1.3.31.51.49.99,1.01,1.51,1.49.35.32.58.13.84-.41-.61-.63-1.32-1.16-1.92-1.79-.47-.49-.37-1.07.08-1.42.49-.38.85-.08,1.19.25.54.52,1.05,1.07,1.6,1.58.36.33.56.1.77-.33-.66-.64-1.3-1.29-1.98-1.9-.98-.89-1.81-.72-2.36.46-.1.22-.16.47-.15.44-.63.43-1.18.63-1.45,1.03-.3.44-.47.93-.97.94ZM95.04,209.24c-1.9-.81-3.65-1.57-5.41-2.3-.22-.09-.67-.08-.76.05-.15.22-.21.63-.11.87.6,1.42,1.25,2.81,1.89,4.21.15.32.33.63.54,1.04.97-.96-.29-1.56-.16-2.31.53-.55,1.08-1.1,1.55-1.58.85-.16,1.47,1.12,2.46,0ZM4.75,76.55l-.06-.29c-.2-.03-.44-.14-.59-.07-1.14.52-1.22,2.19-.16,3,.92.7,3.59.78,4.54.14.78-.52,1.06-1.61.63-2.43-.45-.86-1.77-1.26-2.74-.84-.83.36-1.21,1.25-.93,2.17.07.24.14.47.22.75-.91.03-1.54-.23-1.81-.99-.26-.75.39-1.08.9-1.44ZM9.2,101c-1.92.77-3.68,1.48-5.44,2.21-.23.09-.5.35-.52.56-.02.21.21.56.41.64,1.8.71,3.61,1.37,5.51,2.08.02-.28.1-.54.04-.57-.59-.35-1.2-.67-1.79-.99v-2.2c.54-.72,1.84-.28,1.79-1.74ZM124.8,208.26c-.49.32-.51.32-.38.87.19.81.03,1.49-.68,1.98-.71.49-1.43.39-2.09-.09-.4-.29-.76-.64-1.08-1.02-.54-.66-.76-1.41-.28-2.19.46-.76,1.11-1.1,2.01-.77.45.17.6-.1.63-.5-1.14-.58-1.99-.48-2.81.36-.85.85-1.07,2.04-.53,3.1.45.88,1.14,1.53,2.05,1.93,1.13.5,2.2.24,3.04-.72.77-.88.81-1.81.13-2.95ZM6.73,148.23c0-.72.05-1.39-.01-2.04-.1-1.01-.77-1.59-1.74-1.6-1.01-.01-1.64.51-1.72,1.57-.07.94-.01,1.88-.01,2.85h5.96q-.15-.54-2.47-.78ZM3.28,100.24c1.55,0,3.04.08,4.52-.03.99-.07,1.49-.92,1.51-2.11.02-1.22-.5-2.11-1.52-2.26-1.5-.21-3.03-.09-4.49-.08-.17.67.14.73.51.73,1.08,0,2.16-.02,3.24.02,1.06.04,1.49.46,1.56,1.4.07,1.01-.39,1.58-1.42,1.63-1.08.05-2.16.02-3.24.03-.38,0-.8-.02-.67.67ZM6.2,84.21c.43-.59-.05-.79-.21-1.09-.39-.77-.1-1.52.71-1.81.68-.24,1.53.05,1.86.64.34.61.19,1.01-.68,1.57-.37.24-.43.45-.18.79,1.3-.35,1.8-1.05,1.57-2.23-.2-1.04-1.21-1.76-2.34-1.57-.46.08-1.07.32-1.26.67-.33.6-.38,1.35-.56,2.09-.1,0-.31-.01-.51-.04-.16-.02-.32-.08-.46-.11-.38-2.09-.42-2.2-.78-2.32v2.9c1,.18,1.95.36,2.84.52ZM31.55,61.67c.53-.23.81-.34,1.07-.48.76-.4,1.35-.3,1.74.31.42.65.22,1.76-.37,2.15-.58.38-1.14.23-1.63-.56-.23-.36-.41-.48-.77-.28.21,1.2.92,1.76,2.03,1.62,1.11-.13,1.9-1.14,1.72-2.35-.07-.46-.29-1.08-.64-1.27-.6-.33-1.35-.38-2.15-.58.06-.26.15-.64.23-.99q2.1-.21,2.21-.71h-2.83c-.18.98-.35,1.87-.59,3.14ZM30.73,160.23c-.11-.68-.15-1.35-.33-1.98-.25-.84-.9-1.28-1.65-1.28-.75,0-1.39.45-1.67,1.27-.41,1.22-.4,2.45.01,3.67.25.73.77,1.17,1.57,1.2.8.03,1.38-.34,1.65-1.07.21-.57.28-1.2.41-1.8ZM30.71,61.4c-.08-.56-.11-1.15-.27-1.7-.26-.9-.92-1.39-1.71-1.38-.79,0-1.42.5-1.69,1.41-.35,1.14-.34,2.3.03,3.43.27.85.83,1.28,1.63,1.3.82.02,1.5-.44,1.75-1.31.16-.55.18-1.14.27-1.74ZM9.23,75.2c0-1.2,0-2.28,0-3.36,0-.34-.11-.57-.67-.41-.02.82-.05,1.69-.07,2.56-.61-.33-.93-.75-1.31-1.11-.51-.48-1.01-1.01-1.6-1.35-.81-.46-1.82-.04-2.2.77-.43.92-.04,2.25.79,2.61.31.13.66.22.76-.39-.22-.12-.48-.23-.69-.4-.46-.37-.56-.97-.28-1.46.27-.48.83-.68,1.41-.4.36.17.69.46.98.74.41.41.77.87,1.17,1.3.43.46.9.85,1.73.92ZM26.73,110.66c.12.66.17,1.24.34,1.79.26.87.81,1.29,1.61,1.32.79.03,1.43-.36,1.71-1.18.41-1.25.41-2.53-.02-3.78-.26-.76-.85-1.14-1.61-1.15-.77,0-1.37.39-1.62,1.14-.2.62-.28,1.28-.4,1.87ZM9.33,135.39c-1.11,0-1.98-.02-2.85,0-.69.02-1.32.14-1.56.96-.25.87-.13,1.66.47,2.33.21.23.58.42.8-.19-.62-.45-.95-1.09-.61-1.87.09-.21.47-.3.85-.52.15.82.24,1.44.39,2.03.18.69.63,1,1.27.96.62-.03,1.07-.41,1.09-1.14.02-.56-.18-1.12-.3-1.79.08-.14.23-.39.46-.77ZM9.32,124.38c-1.1,0-2.04-.03-2.98,0-.93.04-1.24.3-1.46,1.08-.24.84.03,1.88.6,2.28.28.19.55.23.69-.28-.63-.44-.94-1.09-.6-1.86.09-.21.47-.3.85-.51.15.78.23,1.35.36,1.91.2.82.7,1.18,1.43,1.07.6-.09,1.05-.64.99-1.38-.04-.48-.24-.96-.38-1.47.12-.2.27-.46.49-.83ZM59.8,213.28c-.87-.84-1.54-1.52-2.25-2.15-.68-.61-1.21-.64-1.87-.05-.39.35-.73.81-.93,1.28-.13.3.03.72.07,1.09.67-.1.56-.44.55-.78-.01-.62.42-1,.94-1.18.22-.08.54.13.92.25-.48.72-.88,1.25-1.19,1.82-.34.61-.21,1.18.28,1.56.51.39,1.01.31,1.49-.04.2-.14.42-.32.51-.53.27-.63.6-1.18,1.49-1.27ZM8.55,69.3c-.1.03-.2.06-.3.09-.42-.46-.83-.93-1.27-1.36-.38-.38-.76-.79-1.22-1.06-.93-.56-2.01-.2-2.41.73-.45,1.04.01,2.28.97,2.63.47.17.6-.07.58-.5-.11-.05-.23-.1-.33-.16-.77-.49-.98-1.14-.58-1.75.38-.57,1.05-.62,1.75-.11.2.15.38.32.55.51.46.49.89,1,1.36,1.47.41.4.83.83,1.65.66-.08-1.22-.17-2.44-.27-3.66,0-.02-.23-.01-.49-.03v2.56ZM18.01,160.97h3.18c-.14-1.63-.71-2.32-1.84-2.37-1.08-.05-1.91.66-2.06,1.75-.19,1.38.35,2.28,1.55,2.56,1.07.25,1.77-.14,2.24-1.41-.36.14-.62.18-.81.33-1.07.87-1.65.72-2.26-.86ZM7.23,140.02c-1.6.09-2.35.67-2.43,1.76-.08.99.63,1.87,1.63,2.04,1.45.24,2.36-.22,2.69-1.36.32-1.07-.08-1.85-1.2-2.33-.43.52.19.66.33.98.17.38.29.88.19,1.26-.13.47-.53.81-1.21.61v-2.96ZM21.16,111.69c-.06-1.66-.68-2.39-1.88-2.4-1.13-.01-1.91.76-1.99,1.95-.1,1.4.51,2.24,1.75,2.42,1.01.15,1.71-.33,1.91-1.31-.08-.03-.17-.1-.22-.08-.17.08-.35.18-.49.31-1,.85-1.73.6-2.13-.88h3.07ZM7.21,116.77c-1.52,0-2.3.57-2.42,1.68-.11,1.04.63,1.95,1.7,2.1,1.5.21,2.42-.33,2.68-1.56.21-1.02-.27-1.79-1.31-2.1-.26.39-.01.6.27.81.48.35.52.86.34,1.35-.18.49-.55.82-1.26.67v-2.94ZM21.14,62.39c0-1.58-.58-2.33-1.71-2.42-1.12-.09-2,.64-2.13,1.79-.17,1.4.38,2.26,1.6,2.53,1.06.23,1.8-.22,2.12-1.45-.34.17-.59.24-.77.4-1.03.86-1.7.64-2.16-.84h3.06ZM185.2,205.63c-.85-.18-1.9.68-3.29,2.5,1.25,1.25,2.51,2.51,3.77,3.77.36.36.63.33.87-.21-.56-.61-1.14-1.23-1.83-1.98.6-.53,1.14-.99,1.65-1.48.33-.31.26-.57-.22-.73-.61.58-1.24,1.16-1.78,1.67-.51-.45-.93-.82-1.38-1.22.73-.77,1.41-1.48,2.22-2.32ZM33.85,113.59c.48.15.71-.02.66-.38-.09-.63.19-.98.71-1.23.04-.02.02-.15.03-.28-.08-.05-.17-.11-.28-.16-.14-.06-.28-.09-.39-.12-.16-1.31.11-2.55-.21-3.86-.27.15-.5.19-.6.33-.84,1.18-1.66,2.38-2.46,3.59-.09.14-.01.39-.01.66.85.05,1.65.1,2.44.15.04.49.07.86.11,1.29ZM9.48,112.28c-1.28,0-2.23-.02-3.18,0-.96.02-1.35.4-1.49,1.33-.15,1.05.27,1.79,1.38,2.12-.27-.58-.59-1.03-.7-1.52-.16-.72.06-.95.9-1.16.08.27.18.54.24.81.07.33.09.66.17.99.18.73.71,1.17,1.3,1.12.63-.05,1.13-.67,1.13-1.43,0-.2-.02-.43-.12-.61-.29-.55-.35-1.06.38-1.66ZM34.41,159.68c.58-.52.85-1.14.41-1.88-.39-.64-1.01-.86-1.71-.79-.81.08-1.36.52-1.51,1.35.55.43.68-.02.88-.32.3-.44.75-.59,1.2-.36.26.13.52.46.57.74.09.52-.25.83-.75.99-.22.07-.4.28-.8.57.49.07.69.09.88.13.62.12.95.53.96,1.13.01.54-.24.97-.78,1.16-.59.21-1.06.05-1.39-.49-.06-.11-.07-.27-.16-.33-.12-.08-.37-.18-.42-.13-.12.12-.24.36-.2.5.22.65.71,1.01,1.37,1.13.92.17,1.82-.29,2.19-1.09.36-.8.15-1.47-.74-2.31ZM58.82,209.23c-.49-.44-.9-.82-1.36-1.23.76-.81,1.46-1.54,2.18-2.31-.25-.16-.42-.3-.44-.28-.96.84-1.91,1.7-2.94,2.63,1.36,1.35,2.63,2.61,3.9,3.88.36.36.63.33.91-.19-.57-.61-1.16-1.23-1.87-2,.6-.53,1.14-.99,1.66-1.47.35-.32.25-.57-.2-.76-.62.58-1.25,1.17-1.84,1.73ZM6.45,132.48c-.56-.53-1.03-.98-1.6-1.51-.18,1.36,1.17,1.57,1.49,2.6h-3.08l-.1.29c.19.13.37.38.56.39,1.66.03,3.32.03,4.98,0,.2,0,.39-.24.58-.36-.03-.09-.06-.17-.09-.26-.36-.02-.72-.06-1.07-.07-.42-.01-.86.03-.97-.63.42-.28.87-.56,1.31-.86.41-.28,1.03-.46.62-1.24-.87.55-1.71,1.07-2.62,1.65ZM54.33,216.52q1.74.16,2.2-.38c-.84-.18-1.64-.36-2.47-.53-.17-.76-.33-1.51-.51-2.32-1,.62-.09,1.5-.48,2.08-.63.26-1.5-.73-1.95.45.78.17,1.5.33,2.25.49.18.84.36,1.64.55,2.52,1.18-.64.09-1.53.42-2.31ZM279.56,210.52c.78,1.05,1.44,1.13,2.12.55.75-.64.89-1.55.21-2.31-1.03-1.13-2.14-2.19-3.19-3.25-.59.3-.56.57-.21.92.92.91,1.82,1.83,2.72,2.76.31.33.43.72.15,1.14-.28.41-.65.43-1.1.25-.21-.08-.47-.04-.7-.05ZM2.94,107.07c2.03,2.59,6.91,2.13,7.9.08-2.93,1.15-4.03,1.48-7.9-.08ZM13.2,159.15c.56-.23.95-.4,1.42-.59.2,1.51-.09,2.99.23,4.61.84-.7.49-1.44.54-2.07.06-.7.05-1.41,0-2.12-.04-.65.2-1.36-.38-2.31-.32,1.18-1.57,1.24-1.8,2.47ZM14.75,113.63c.11.02.22.04.34.06.1-.15.26-.3.29-.47.18-1.04.01-4.89-.21-5.52-1.71,1.23-1.78,1.31-1.8,2.06.41-.18.81-.35,1.38-.6v4.45ZM14.69,59.85c0,.91-.03,1.65,0,2.39.04.7-.2,1.45.3,2.25.18-.27.34-.41.37-.58.17-.96.01-4.91-.29-5.81-.39,1.06-1.59,1.19-1.92,2.45.6-.28.96-.44,1.53-.7ZM3.12,94.19c1.27-.3,2.57-.86,3.87-.86,1.31,0,2.61.55,3.87.85-1.46-2.11-6.06-2.22-7.74,0ZM273.94,210.3c1.27,1.24,2.52,2.45,3.75,3.68.41.41.69.4.9-.24-1.24-1.22-2.48-2.44-3.71-3.67-.32-.32-.6-.47-.94.24ZM143.79,214.93c-.57.3-.61.54-.29.86.77.76,1.52,1.52,2.28,2.28.52.52,1.04,1.03,1.53,1.51.56-.26.53-.52.23-.82-1.24-1.27-2.49-2.53-3.75-3.83ZM242.85,209.64c-.02.29-.14.62-.03.73,1.21,1.26,2.45,2.49,3.71,3.71.1.1.43-.04.65-.07-1.45-1.46-2.79-2.81-4.34-4.37ZM183.75,214.72c.03-.1.05-.2.08-.29-1.26-1.26-2.53-2.52-3.79-3.78-.3-.3-.57-.32-.83.25,1.28,1.28,2.6,2.6,3.94,3.89.09.09.4-.04.6-.06ZM117.58,218.28c0-.32.09-.6-.01-.71-1.22-1.26-2.45-2.5-3.71-3.71-.11-.1-.43.03-.68.06,1.49,1.47,2.87,2.84,4.4,4.36ZM210.89,210.56c1.29,1.28,2.59,2.6,3.91,3.89.38.37.53,0,.76-.33-1.27-1.26-2.51-2.48-3.74-3.71-.3-.3-.59-.5-.93.14ZM24.26,158.06c-.92.3-.35,1.1-.79,1.54-.31.38-1.25-.35-1.4.69.52.06,1,.12,1.41.17.41.48-.1,1.24.73,1.64.09-.6.16-1.11.24-1.62.54-.08,1.03-.15,1.6-.24-.37-.89-1.15-.32-1.62-.75-.04-.38-.09-.82-.16-1.42ZM24.45,111.15c.54-.08,1.04-.15,1.6-.24-.37-.89-1.16-.31-1.58-.71-.1-.47-.19-.95-.29-1.42h-.34c-.09.49-.19.97-.27,1.36-.43.51-1.36-.21-1.51.83.52.06,1,.11,1.4.16.42.5-.1,1.26.74,1.64.09-.6.16-1.1.24-1.62ZM26.03,61.61c-.3-.94-1.21-.28-1.58-.77-.3-.4.2-1.09-.61-1.44-.1.57-.19,1.06-.27,1.47-.49.4-1.29-.18-1.55.76.54.07,1.01.13,1.44.18.45.44-.06,1.19.7,1.68.12-.65.23-1.17.32-1.67.54-.07,1.01-.13,1.55-.2ZM89.4,214.77c-1.29-1.27-2.57-2.51-3.84-3.76-.39-.39-.6-.24-.85.24,1.29,1.28,2.55,2.54,3.82,3.79.3.3.56.32.87-.27ZM275.27,208.91c1.28,1.28,2.58,2.59,3.9,3.88.35.34.56.08.77-.37-1.28-1.24-2.56-2.47-3.82-3.72-.32-.31-.56-.3-.86.21ZM180.62,209.27c1.49,1.5,2.85,2.86,4.27,4.3,0-.21.1-.53-.02-.65-1.2-1.25-2.43-2.48-3.68-3.68-.1-.1-.42.02-.58.04ZM90.64,213.85c-1.56-1.54-2.93-2.9-4.35-4.31-.22.1-.28.35-.01.62,1.2,1.22,2.4,2.43,3.63,3.61.13.12.44.05.72.07ZM245.39,215.59c.5-.24.59-.47.25-.81-1.29-1.28-2.57-2.56-4.07-4.06-.04.5-.17.84-.07.95,1.28,1.34,2.6,2.64,3.88,3.93ZM209.56,211.9c1.29,1.27,2.55,2.51,3.82,3.75.35.35.61.32.84-.23-1.26-1.26-2.52-2.51-3.78-3.76-.29-.29-.55-.35-.88.24ZM149.19,217.73c-1.28-1.26-2.55-2.51-3.81-3.76-.36-.36-.61-.3-.86.21,1.27,1.26,2.53,2.52,3.79,3.77.29.29.55.36.89-.22ZM112.37,214.96c-.44.24-.59.47-.24.82,1.29,1.28,2.57,2.57,3.82,3.83.47-.24.6-.46.26-.81-1.29-1.28-2.57-2.57-3.83-3.84ZM9.16,123.03c.03-.12.06-.23.09-.35-.22-.1-.42-.28-.65-.29-.58-.04-1.16,0-1.74-.03-.99-.04-.98-.05-1.26-1.08-.05-.17-.3-.28-.45-.41-.67.61-.17,1.09.04,1.47-.17.25-.29.41-.48.69h4.45ZM6.77,89.75c.34-.16.6-.22.6-.3.06-.57.11-1.15.07-1.72,0-.14-.34-.26-.67-.51v2.52Z"/>
    <path d="M121.72,200.72h-30.36c0,.84,0,1.62,0,2.4,0,.67-.34.75-1.01.57v-2.79c-1.02-.28-28.74-.35-30.31-.09v2.89h-1.13v-3.04h-1.45c-5.09,0-10.18,0-15.27,0-2.02,0-2.13-.11-2.13-2.08,0-12.1,0-24.2,0-36.3v-1.63h-2.94c-.04-.4-.07-.66-.11-1.06,1-.05,1.94-.1,2.96-.15v-48.17h-2.9v-1.1h2.91v-48.25h-2.88c-.02-.4-.04-.69-.07-1.1h3.01c.02-5.09,0-10.08,0-15.07,0-4.97,0-9.93,0-14.9v-14.97c1.11-.15,1.12-.15,1.16.61.02.42,0,.83,0,1.25,0,59.92,0,119.84,0,179.76,0,.62,0,1.23,0,1.99h256.65v1.16h-18.15v3c-.4.05-.69.09-1.13.15v-3.05h-30.34c0,.83,0,1.62,0,2.4-.01.67-.39.74-1.03.51v-2.78c-.98-.27-28.66-.33-30.32-.08v2.87c-.38.04-.64.07-1.03.11v-2.87c-.98-.3-28.13-.4-30.32-.13v2.76c-.98.29-1.06.27-1.09-.41-.04-.78,0-1.57,0-2.41h-30.31c0,.81,0,1.59,0,2.37,0,.75-.41.79-1.08.56v-2.91h-30.34c0,.83,0,1.62,0,2.4,0,.67-.35.75-1.01.5v-2.92Z"/>
    <path d="M248.58,111.43c1.31,1.13,1.56,2.33.68,3.32-.8.9-2.15.93-3,.06-.96-.99-.76-2.09.61-3.41-1.38-1.2-1.59-2.41-.58-3.39.8-.79,2.14-.77,2.92.04.93.97.7,2.21-.63,3.39Z"/>
    <path d="M118.68,217.06c-1.34-1.37-2.54-2.59-3.74-3.81-.14-.15-.27-.3-.57-.64.63-.56,1.24-1.12,1.88-1.65,1.14-.95,2.21-.62,2.65.8.03.11.06.23.11.4.21,0,.42-.02.62,0,1.35.18,1.99,1.47,1.19,2.58-.58.8-1.34,1.46-2.14,2.32ZM118.77,215.91c.51-.52.95-.91,1.32-1.35.36-.44.36-.93-.05-1.35-.41-.42-.9-.44-1.35-.09-.48.38-.9.82-1.31,1.21.51.58.92,1.04,1.39,1.58ZM116.76,213.96c.5-.52.89-.89,1.23-1.3.33-.41.32-.84-.09-1.22-.38-.35-.76-.3-1.11.02-.42.38-.81.79-1.28,1.25.45.45.8.8,1.24,1.26Z"/>
    <path d="M281.19,191.71c0,1.13-.89,2.08-2.01,2.12-1.16.04-2.19-.93-2.21-2.09-.02-1.14.99-2.11,2.18-2.09,1.16.02,2.03.89,2.03,2.06Z"/>
    <path d="M59.5,189.65c1.14.01,2.07.95,2.07,2.08,0,1.11-.95,2.08-2.07,2.1-1.15.02-2.17-1.01-2.14-2.16.03-1.12,1-2.03,2.13-2.02Z"/>
    <path d="M187.06,191.76c-.02,1.11-.99,2.07-2.09,2.06-1.09,0-2.1-.99-2.11-2.08-.02-1.13,1.03-2.14,2.19-2.1,1.14.03,2.03.97,2.01,2.11Z"/>
    <path d="M155.72,191.74c-.01,1.1-.99,2.07-2.1,2.09-1.16.01-2.15-1.01-2.1-2.18.04-1.14.98-2.03,2.13-2,1.11.02,2.09,1,2.07,2.09Z"/>
    <path d="M92.93,191.74c0,1.11-.96,2.07-2.07,2.09-1.11.02-2.07-.93-2.09-2.05-.02-1.2.92-2.15,2.12-2.13,1.13.02,2.05.97,2.04,2.09Z"/>
    <path d="M218.41,191.73c0,1.16-.9,2.08-2.03,2.09-1.18.02-2.13-.96-2.1-2.16.03-1.15.95-2.03,2.1-2.01,1.16.02,2.03.91,2.02,2.08Z"/>
    <path d="M124.26,191.73c0,1.16-.89,2.08-2.02,2.1-1.17.01-2.14-.98-2.11-2.16.03-1.13.98-2.03,2.11-2.01,1.16.02,2.01.9,2.01,2.08Z"/>
    <path d="M216.87,206.84c-.23.05-.47.18-.67.13-.88-.19-1.44.27-1.91.89-.51.67-.5,1.41-.07,2.1.24.38.53.76.87,1.05,1.19,1.02,2.55.76,3.37-.59.5-.83.46-1-.38-1.73-.64-.05-.77,1.28-1.79.58.67-.54,1.27-1.02,1.94-1.57.08.07.34.26.57.49.99.96,1.03,1.39.28,2.57-.78,1.22-2.12,1.85-3.28,1.54-1.36-.37-2.61-1.83-2.67-3.16-.09-1.92,2.08-3.45,3.7-2.62.02.1.03.2.05.3Z"/>
    <path d="M249.77,30.63c-.03,1.14-1.01,2.05-2.13,1.99-1.06-.05-1.97-1-1.97-2.05,0-1.09,1.01-2.09,2.09-2.07,1.11.02,2.04,1.01,2.01,2.13Z"/>
    <path d="M249.77,24.11c0,1.14-.9,2.05-2.06,2.04-1.15,0-2.07-.95-2.04-2.07.03-1.08.91-1.94,2.01-1.96,1.19-.02,2.08.82,2.09,1.99Z"/>
    <path d="M150.25,216.83c-1.43-1.42-2.81-2.8-4.18-4.17.56-.59,1.14-1.3,1.82-1.9.64-.57,1.42-.66,2.22-.31,1.03.46,1.8,1.2,2.23,2.25.35.84.26,1.65-.35,2.34-.58.65-1.21,1.25-1.73,1.79ZM150.23,215.76c.68-.65,1.71-1.17,1.46-2.44-.18-.91-1.37-2.05-2.21-2.18-1.27-.2-1.78.78-2.49,1.49,1.11,1.08,2.15,2.09,3.23,3.14Z"/>
    <path d="M251.4,209.84c-.09.06-.25.18-.47.35-.67-.63-1.29-1.22-1.97-1.85-.64.75-1.26,1.46-1.95,2.27.44.45,1.04,1.07,1.64,1.69-.19.58-.46.67-.89.24-1.24-1.23-2.49-2.46-3.78-3.72.2-.24.34-.42.52-.64.6.57,1.14,1.08,1.66,1.57.66-.7,1.3-1.39,2.04-2.17-.35-.38-.88-.94-1.45-1.55.15-.17.3-.35.44-.51,1.38,1.41,2.71,2.78,4.22,4.33Z"/>
    <path d="M205.66,217.76c.77-.17,1.04-.61,1.35-1.08.27-.4.84-.59,1.44-.97,0,0,.03-.2.11-.39.48-1.2,1.36-1.44,2.32-.57.71.63,1.35,1.34,1.99,1.99-.2.53-.46.57-.78.26-.51-.49-1-1-1.51-1.49-.37-.35-.75-.73-1.28-.25-.41.38-.45.92,0,1.45.56.66,1.19,1.25,1.77,1.86-.19.51-.44.56-.76.25-.51-.49-1-1-1.5-1.49-.37-.37-.78-.68-1.3-.25-.42.34-.44.9.03,1.45.53.63,1.14,1.21,1.72,1.82-.08.37-.27.7-.65.35-.97-.89-1.88-1.85-2.95-2.92Z"/>
    <path d="M153.35,205.69c.44.66-.44.87-.75,1.25-.39.47-.93.84-1.55,1.38.56.46.96.8,1.47,1.22.6-.58,1.21-1.19,1.83-1.78.26-.25.27-.24.88.07-.73.76-1.44,1.5-2.26,2.35.49.45.97.89,1.43,1.31,1.14-.53,1.54-1.9,2.79-2.19.04,0,.11.11.24.26-.87,1.13-1.98,2.04-3.03,3.16-.75-.73-1.45-1.43-2.15-2.12-.69-.67-1.38-1.33-2.14-2.06,1.12-.97,2.15-1.87,3.25-2.83Z"/>
    <path d="M242.81,218.23c-.27.47-.52.5-.83.17-.49-.51-.99-1.01-1.5-1.5-.37-.35-.75-.73-1.27-.23-.42.41-.44.88.03,1.44.45.54.98,1.02,1.46,1.53.11.12.2.26.44.57-.37.03-.7.16-.82.06-.96-.9-1.88-1.84-2.87-2.82.49-.38.98-.41,1.16-.98.19-.62.44-.64,1.39-.84.05-.06.11-.12.13-.19.5-1.76,1.46-2.05,2.74-.81.59.57,1.16,1.17,1.86,1.86-.2.2-.34.33-.53.52-.73-.72-1.35-1.33-1.96-1.94-.34-.34-.7-.62-1.19-.24-.46.37-.52.89-.07,1.43.58.69,1.23,1.32,1.83,1.96Z"/>
    <path d="M80.99,217.07c.47-.16.85-.26,1.02-.79.2-.64.8-.92,1.55-.88.04-.23.05-.43.11-.62.44-1.25,1.42-1.51,2.39-.63.59.53,1.13,1.11,1.68,1.67.11.11.19.26.27.38-.21.45-.45.5-.78.17-.52-.53-1.05-1.06-1.59-1.59-.35-.35-.74-.57-1.2-.17-.4.34-.46.87-.07,1.34.47.58,1.02,1.09,1.55,1.62.27.27.43.52-.11.85-.24-.21-.52-.43-.77-.67-.39-.37-.76-.77-1.15-1.14-.34-.31-.7-.65-1.19-.24-.43.36-.47.91-.06,1.44.33.42.74.79,1.11,1.18.2.21.45.4.57.65.06.13-.13.37-.19.53-1.05-1.04-2.04-2.02-3.14-3.11Z"/>
    <path d="M114.63,220.9c-.59-.58-1.2-1.19-1.82-1.79-.34-.33-.69-.65-1.19-.28-.46.34-.54.9-.1,1.43.58.7,1.24,1.33,1.84,1.97-.24.44-.48.53-.81.2-.52-.54-1.05-1.07-1.59-1.58-.34-.33-.73-.62-1.18-.17-.42.42-.44.91-.07,1.34.59.69,1.24,1.34,2.02,2.17-.38.06-.72.22-.82.12-.96-.9-1.88-1.84-2.82-2.78.29-.53.95-.37,1.07-1.02.13-.66.81-.87,1.45-.86.11-.34.16-.63.29-.89.46-.95,1.35-1.17,2.14-.49.66.57,1.25,1.22,1.87,1.84.34.34.22.57-.27.79Z"/>
    <path d="M51.58,221.19c-.23.48-.47.57-.8.24-.5-.5-1-1.01-1.51-1.5-.36-.35-.73-.77-1.27-.27-.41.38-.43.89.02,1.45.44.55.97,1.03,1.45,1.55.11.12.2.26.44.56-.37.04-.71.17-.82.07-.96-.9-1.88-1.84-2.71-2.67.42-.51.68-.94,1.04-1.25.41-.36.91-.62,1.53-1.03.02-.06.05-.36.17-.62.42-.87,1.33-1.11,2.07-.49.7.59,1.33,1.26,1.95,1.94.11.13.02.45.02.68-.08.03-.17.06-.25.09-.61-.61-1.22-1.22-1.84-1.82-.37-.36-.77-.7-1.29-.23-.41.37-.43.93.03,1.45.57.65,1.2,1.26,1.78,1.85Z"/>
    <path d="M143.02,224.08c-.26.19-.43.34-.45.32-1.05-.92-2.09-1.85-3.21-2.84.5-.45.98-.67,1.25-1.19.2-.4.82-.59,1.33-.75.05-.06.13-.12.15-.19.48-1.77,1.42-2.04,2.72-.78.48.46.94.95,1.42,1.41.32.31.3.57-.2.84-.59-.58-1.2-1.2-1.82-1.8-.37-.36-.78-.69-1.29-.22-.41.37-.42.93.04,1.45.57.65,1.2,1.25,1.78,1.85-.24.49-.49.56-.81.23-.53-.53-1.06-1.06-1.6-1.58-.31-.3-.64-.58-1.09-.26-.4.28-.52.87-.2,1.33.28.41.64.76.98,1.13.31.33.63.65,1,1.04Z"/>
    <path d="M274.98,217.44c-.59-.58-1.17-1.17-1.77-1.74-.35-.33-.72-.78-1.27-.31-.44.37-.45.98.05,1.55.54.62,1.14,1.2,1.69,1.78-.19.46-.43.59-.76.26-.91-.9-1.81-1.81-2.84-2.84.67-.19.99-.49,1.27-.97.25-.43.86-.65,1.53-1.11-.03.13.02-.02.04-.18.16-1.19,1.59-1.68,2.44-.69.52.6,1.13,1.11,1.65,1.7.13.14.08.44.12.66-.1.05-.2.1-.3.15-.46-.45-.92-.9-1.37-1.35-.21-.2-.41-.41-.62-.61-.33-.32-.71-.47-1.11-.13-.41.35-.44.82-.18,1.24.21.35.54.63.82.93.31.33.67.63.94,1,.09.12-.02.4-.04.6-.09.02-.19.05-.28.07Z"/>
    <path d="M175.62,216.67c.5-.01.67-.5.97-.94.27-.4.82-.61,1.45-1.03,0,.03.04-.21.15-.44.55-1.19,1.38-1.36,2.36-.46.67.62,1.32,1.27,1.98,1.9-.21.44-.41.66-.77.33-.55-.51-1.06-1.06-1.6-1.58-.34-.33-.7-.63-1.19-.25-.45.35-.54.93-.08,1.42.6.63,1.31,1.15,1.92,1.79-.26.54-.49.73-.84.41-.52-.47-1.01-.99-1.51-1.49-.37-.36-.77-.71-1.3-.31-.47.34-.46.92.06,1.53.43.51.93.96,1.38,1.44.24.25.23.26.02.65-.97-.97-1.97-1.98-2.98-2.99Z"/>
    <path d="M95.04,209.24c-.99,1.11-1.61-.16-2.46,0-.47.47-1.01,1.03-1.55,1.58-.13.74,1.12,1.34.16,2.31-.21-.4-.39-.71-.54-1.04-.64-1.4-1.3-2.79-1.89-4.21-.1-.24-.04-.65.11-.87.09-.13.54-.14.76-.05,1.77.72,3.52,1.49,5.41,2.3ZM89.74,207.75c-.06.05-.13.11-.19.16.34.7.68,1.4,1.05,2.15.54-.47.94-.82,1.43-1.24-.89-.42-1.59-.75-2.29-1.07Z"/>
    <path d="M4.75,76.55c-.51.37-1.16.7-.9,1.44.27.76.91,1.03,1.81.99-.08-.28-.15-.51-.22-.75-.28-.91.1-1.8.93-2.17.97-.42,2.29-.02,2.74.84.43.82.14,1.91-.63,2.43-.95.64-3.62.56-4.54-.14-1.06-.81-.98-2.48.16-3,.15-.07.39.04.59.07l.06.29ZM7.27,78.97c.78,0,1.46-.59,1.44-1.24-.02-.64-.6-1.07-1.42-1.07-.84,0-1.33.41-1.33,1.12,0,.68.55,1.18,1.31,1.18Z"/>
    <path d="M9.2,101c.05,1.46-1.26,1.02-1.79,1.74v2.2c.59.32,1.2.63,1.79.99.06.04-.02.3-.04.57-1.9-.71-3.71-1.37-5.51-2.08-.2-.08-.43-.44-.41-.64.02-.21.3-.47.52-.56,1.75-.74,3.52-1.44,5.44-2.21ZM3.97,103.85c1.06.37,1.82.63,2.62.9v-1.87c-.89.33-1.64.61-2.62.96Z"/>
    <path d="M124.8,208.26c.68,1.14.64,2.07-.13,2.95-.84.96-1.91,1.22-3.04.72-.91-.4-1.61-1.04-2.05-1.93-.53-1.06-.31-2.25.53-3.1.83-.83,1.67-.94,2.81-.36-.03.39-.18.66-.63.5-.9-.33-1.55.01-2.01.77-.48.79-.26,1.54.28,2.19.32.38.68.73,1.08,1.02.66.48,1.37.59,2.09.09.71-.49.87-1.17.68-1.98-.13-.55-.11-.56.38-.87Z"/>
    <path d="M6.73,148.23q2.32.23,2.47.78H3.23c0-.97-.06-1.91.01-2.85.08-1.06.71-1.59,1.72-1.57.98.01,1.64.59,1.74,1.6.06.65.01,1.32.01,2.04ZM6,148.3c0-.75.04-1.41-.01-2.05-.05-.58-.48-.87-1.03-.88-.49,0-.9.24-.99.76-.13.72-.23,1.45.08,2.17h1.95Z"/>
    <path d="M3.28,100.24c-.13-.68.29-.66.67-.67,1.08-.01,2.16.02,3.24-.03,1.03-.05,1.49-.62,1.42-1.63-.07-.94-.5-1.36-1.56-1.4-1.08-.04-2.16-.02-3.24-.02-.37,0-.68-.06-.51-.73,1.46-.01,2.98-.14,4.49.08,1.02.15,1.54,1.04,1.52,2.26-.02,1.19-.53,2.04-1.51,2.11-1.48.11-2.96.03-4.52.03Z"/>
    <path d="M6.2,84.21c-.89-.16-1.85-.34-2.84-.52v-2.9c.36.12.4.24.78,2.32.14.04.3.09.46.11.2.03.41.03.51.04.18-.74.23-1.49.56-2.09.19-.35.8-.59,1.26-.67,1.14-.19,2.15.53,2.34,1.57.23,1.17-.27,1.88-1.57,2.23-.25-.33-.19-.55.18-.79.87-.56,1.02-.96.68-1.57-.33-.59-1.17-.88-1.86-.64-.81.29-1.1,1.04-.71,1.81.16.3.63.5.21,1.09Z"/>
    <path d="M31.55,61.67c.24-1.26.4-2.16.59-3.14h2.83q-.11.5-2.21.71c-.08.35-.17.73-.23.99.8.2,1.55.25,2.15.58.35.19.58.81.64,1.27.18,1.21-.61,2.22-1.72,2.35-1.11.14-1.82-.43-2.03-1.62.36-.2.55-.08.77.28.49.78,1.05.94,1.63.56.6-.39.79-1.5.37-2.15-.39-.61-.98-.71-1.74-.31-.26.14-.54.24-1.07.48Z"/>
    <path d="M30.73,160.23c-.13.6-.2,1.22-.41,1.8-.27.72-.85,1.1-1.65,1.07-.8-.03-1.32-.47-1.57-1.2-.41-1.21-.42-2.45-.01-3.67.28-.82.92-1.27,1.67-1.27.75,0,1.39.44,1.65,1.28.19.63.22,1.3.33,1.98ZM27.5,160.09c.1.56.1,1.13.31,1.61.14.32.52.67.86.75.49.12.89-.24,1.03-.71.33-1.14.36-2.31-.03-3.42-.11-.31-.56-.61-.91-.69-.52-.12-.84.3-.96.77-.14.56-.2,1.14-.29,1.69Z"/>
    <path d="M30.71,61.4c-.09.6-.11,1.19-.27,1.74-.25.87-.93,1.34-1.75,1.31-.79-.02-1.35-.44-1.63-1.3-.36-1.14-.37-2.29-.03-3.43.28-.9.9-1.4,1.69-1.41.79,0,1.46.48,1.71,1.38.16.55.18,1.14.27,1.7ZM27.49,61.34c.1.59.11,1.2.32,1.72.13.32.53.66.87.75.49.12.89-.25,1.02-.72.33-1.14.36-2.31-.04-3.42-.11-.31-.59-.66-.91-.66-.31,0-.77.35-.9.65-.23.51-.25,1.12-.36,1.69Z"/>
    <path d="M9.23,75.2c-.83-.08-1.3-.47-1.73-.92-.4-.42-.76-.89-1.17-1.3-.29-.29-.62-.57-.98-.74-.58-.28-1.14-.08-1.41.4-.27.49-.18,1.09.28,1.46.21.17.47.28.69.4-.1.61-.45.52-.76.39-.83-.35-1.22-1.68-.79-2.61.38-.81,1.39-1.23,2.2-.77.6.34,1.1.87,1.6,1.35.38.36.71.78,1.31,1.11.02-.87.05-1.74.07-2.56.56-.16.67.08.67.41,0,1.08,0,2.16,0,3.36Z"/>
    <path d="M26.73,110.66c.12-.59.2-1.25.4-1.87.24-.74.85-1.15,1.62-1.14.76,0,1.35.39,1.61,1.15.43,1.26.43,2.53.02,3.78-.27.83-.92,1.21-1.71,1.18-.79-.03-1.35-.45-1.61-1.32-.16-.55-.22-1.13-.34-1.79ZM27.48,110.73c.11.61.15,1.21.35,1.74.11.29.53.64.8.63.34,0,.85-.28.97-.57.48-1.19.47-2.44,0-3.63-.11-.29-.62-.57-.96-.58-.27-.01-.69.34-.8.63-.22.57-.26,1.2-.37,1.79Z"/>
    <path d="M9.33,135.39c-.23.38-.38.64-.46.77.12.66.32,1.23.3,1.79-.02.73-.47,1.1-1.09,1.14-.64.04-1.09-.28-1.27-.96-.16-.59-.24-1.21-.39-2.03-.38.22-.76.31-.85.52-.34.78-.01,1.42.61,1.87-.22.61-.59.42-.8.19-.6-.67-.72-1.46-.47-2.33.24-.81.87-.94,1.56-.96.87-.02,1.75,0,2.85,0ZM7.3,136.17c-.06.09-.12.18-.18.27.1.48.17.98.33,1.45.06.18.38.43.52.4.23-.06.56-.31.57-.5.03-.39-.02-.86-.24-1.15-.19-.26-.65-.32-1-.47Z"/>
    <path d="M9.32,124.38c-.22.37-.37.63-.49.83.14.52.34.99.38,1.47.05.74-.39,1.29-.99,1.38-.73.11-1.23-.25-1.43-1.07-.13-.56-.22-1.13-.36-1.91-.38.22-.76.3-.85.51-.34.78-.03,1.43.6,1.86-.15.51-.42.47-.69.28-.58-.4-.84-1.44-.6-2.28.22-.77.53-1.04,1.46-1.08.94-.04,1.88,0,2.98,0ZM7.36,125.13c-.08.08-.16.16-.24.25.11.52.18,1.05.35,1.55.06.17.37.37.55.35.18-.01.49-.27.5-.43.03-.39.02-.87-.18-1.17-.19-.28-.65-.37-.99-.55Z"/>
    <path d="M59.8,213.28c-.89.09-1.22.64-1.49,1.27-.09.21-.32.38-.51.53-.48.35-.98.44-1.49.04-.49-.38-.62-.94-.28-1.56.32-.57.72-1.1,1.19-1.82-.38-.11-.7-.32-.92-.25-.52.19-.95.56-.94,1.18,0,.34.12.67-.55.78-.03-.37-.19-.79-.07-1.09.21-.48.54-.93.93-1.28.67-.6,1.19-.56,1.87.05.71.63,1.37,1.31,2.25,2.15ZM57.6,212.35c-.31.47-.66.88-.88,1.36-.09.19-.02.62.14.73.16.12.56.09.76-.03.72-.46.73-1.16-.01-2.06Z"/>
    <path d="M8.55,69.3v-2.56c.26.01.49.01.49.03.1,1.22.18,2.44.27,3.66-.82.17-1.25-.25-1.65-.66-.47-.47-.9-.98-1.36-1.47-.17-.18-.35-.36-.55-.51-.71-.51-1.37-.46-1.75.11-.41.61-.19,1.27.58,1.75.1.07.22.11.33.16.01.43-.12.67-.58.5-.96-.34-1.42-1.59-.97-2.63.4-.94,1.48-1.3,2.41-.73.45.27.83.68,1.22,1.06.44.44.85.91,1.27,1.36.1-.03.2-.06.3-.09Z"/>
    <path d="M18.01,160.97c.61,1.58,1.19,1.73,2.26.86.18-.15.45-.19.81-.33-.47,1.27-1.16,1.66-2.24,1.41-1.2-.28-1.74-1.18-1.55-2.56.15-1.09.98-1.8,2.06-1.75,1.13.05,1.69.73,1.84,2.37h-3.18ZM18.14,160.28h2.2c-.04-.78-.48-1.02-1.08-1.02-.6,0-1.02.26-1.12,1.02Z"/>
    <path d="M7.23,140.02v2.96c.68.21,1.08-.14,1.21-.61.1-.38-.02-.88-.19-1.26-.14-.32-.75-.46-.33-.98,1.12.49,1.51,1.26,1.2,2.33-.34,1.14-1.25,1.6-2.69,1.36-1-.17-1.7-1.05-1.63-2.04.08-1.1.83-1.68,2.43-1.76ZM6.52,140.76c-.81.2-1.09.59-1.05,1.21.04.61.33,1,1.05,1.05v-2.26Z"/>
    <path d="M21.16,111.69h-3.07c.41,1.48,1.14,1.73,2.13.88.15-.12.32-.23.49-.31.05-.02.15.05.22.08-.2.98-.9,1.47-1.91,1.31-1.24-.18-1.85-1.02-1.75-2.42.08-1.19.87-1.96,1.99-1.95,1.2.01,1.82.75,1.88,2.4ZM18.14,110.96h2.19c-.04-.78-.47-1.02-1.07-1.03-.59,0-1.02.25-1.13,1.03Z"/>
    <path d="M7.21,116.77v2.94c.71.15,1.08-.18,1.26-.67.18-.49.14-.99-.34-1.35-.28-.21-.53-.42-.27-.81,1.04.31,1.52,1.08,1.31,2.1-.26,1.23-1.18,1.77-2.68,1.56-1.07-.15-1.81-1.06-1.7-2.1.12-1.11.9-1.68,2.42-1.68ZM6.51,117.56c-.77,0-1.01.44-1.04,1.04-.03.64.19.86,1.04,1.07v-2.11Z"/>
    <path d="M21.14,62.39h-3.06c.46,1.49,1.14,1.7,2.16.84.18-.15.43-.23.77-.4-.32,1.23-1.06,1.68-2.12,1.45-1.22-.26-1.77-1.13-1.6-2.53.14-1.15,1.01-1.88,2.13-1.79,1.13.09,1.7.85,1.71,2.42ZM20.37,61.67c-.12-.86-.58-1.11-1.23-1.06-.59.05-.97.35-.98,1.06h2.21Z"/>
    <path d="M185.2,205.63c-.81.84-1.49,1.55-2.22,2.32.46.4.88.77,1.38,1.22.54-.51,1.16-1.09,1.78-1.67.48.16.55.42.22.73-.51.49-1.05.94-1.65,1.48.69.75,1.27,1.38,1.83,1.98-.24.54-.51.57-.87.21-1.26-1.26-2.52-2.52-3.77-3.77,1.39-1.82,2.43-2.68,3.29-2.5Z"/>
    <path d="M33.85,113.59c-.04-.43-.07-.8-.11-1.29-.79-.05-1.59-.1-2.44-.15,0-.28-.08-.53.01-.66.8-1.21,1.62-2.4,2.46-3.59.1-.14.33-.19.6-.33.32,1.31.05,2.55.21,3.86.11.03.25.07.39.12.1.04.19.11.28.16-.01.12,0,.26-.03.28-.52.25-.8.6-.71,1.23.05.36-.17.53-.66.38ZM31.98,111.47h1.72v-2.18c-.06-.02-.12-.04-.19-.06-.48.7-.95,1.39-1.53,2.24Z"/>
    <path d="M9.48,112.28c-.73.6-.66,1.11-.38,1.66.09.18.12.4.12.61,0,.76-.5,1.38-1.13,1.43-.59.05-1.12-.39-1.3-1.12-.08-.32-.1-.66-.17-.99-.06-.28-.16-.54-.24-.81-.84.22-1.05.44-.9,1.16.11.49.42.94.7,1.52-1.1-.33-1.53-1.07-1.38-2.12.14-.94.53-1.31,1.49-1.33.95-.02,1.91,0,3.18,0ZM7.08,113.18c.14.59.22,1.13.4,1.63.06.17.38.37.56.35.18-.02.47-.29.48-.46.02-.39,0-.84-.18-1.18-.22-.42-.64-.63-1.26-.34Z"/>
    <path d="M34.41,159.68c.89.83,1.11,1.51.74,2.31-.36.8-1.27,1.25-2.19,1.09-.66-.12-1.16-.48-1.37-1.13-.05-.14.08-.37.2-.5.05-.05.3.04.42.13.09.06.09.23.16.33.33.54.8.7,1.39.49.54-.19.79-.62.78-1.16-.02-.61-.34-1.01-.96-1.13-.2-.04-.39-.06-.88-.13.4-.29.58-.49.8-.57.5-.16.84-.47.75-.99-.05-.28-.31-.62-.57-.74-.45-.22-.9-.08-1.2.36-.2.29-.33.75-.88.32.15-.83.7-1.27,1.51-1.35.7-.07,1.32.15,1.71.79.45.74.17,1.36-.41,1.88Z"/>
    <path d="M58.82,209.23c.59-.55,1.22-1.14,1.84-1.73.44.19.54.44.2.76-.52.48-1.06.94-1.66,1.47.71.76,1.3,1.39,1.87,2-.27.52-.54.55-.91.19-1.26-1.27-2.54-2.53-3.9-3.88,1.03-.93,1.98-1.78,2.94-2.63.02-.02.19.12.44.28-.72.77-1.42,1.5-2.18,2.31.45.41.87.79,1.36,1.23Z"/>
    <path d="M6.45,132.48c.92-.58,1.75-1.1,2.62-1.65.41.79-.21.96-.62,1.24-.44.3-.89.59-1.31.86.12.66.56.61.97.63.36.01.72.04,1.07.07.03.09.06.17.09.26-.19.13-.39.36-.58.36-1.66.03-3.32.03-4.98,0-.19,0-.37-.25-.56-.39l.1-.29h3.08c-.33-1.03-1.67-1.24-1.49-2.6.57.54,1.04.98,1.6,1.51Z"/>
    <path d="M54.33,216.52c-.33.78.76,1.67-.42,2.31-.19-.88-.37-1.68-.55-2.52-.76-.16-1.48-.32-2.25-.49.45-1.18,1.32-.19,1.95-.45.39-.59-.52-1.46.48-2.08.18.81.34,1.55.51,2.32.83.18,1.63.35,2.47.53q-.45.53-2.2.38Z"/>
    <path d="M279.56,210.52c.24.01.5-.03.7.05.45.18.82.16,1.1-.25.28-.41.16-.81-.15-1.14-.89-.93-1.8-1.85-2.72-2.76-.35-.35-.38-.62.21-.92,1.05,1.06,2.16,2.12,3.19,3.25.69.76.55,1.67-.21,2.31-.68.58-1.34.5-2.12-.55Z"/>
    <path d="M2.94,107.07c3.88,1.57,4.97,1.23,7.9.08-.99,2.05-5.87,2.51-7.9-.08Z"/>
    <path d="M13.2,159.15c.24-1.23,1.49-1.29,1.8-2.47.58.94.34,1.65.38,2.31.04.7.05,1.42,0,2.12-.05.63.3,1.37-.54,2.07-.32-1.62-.02-3.1-.23-4.61-.47.19-.86.36-1.42.59Z"/>
    <path d="M14.75,113.63v-4.45c-.57.25-.97.42-1.38.6.02-.75.09-.83,1.8-2.06.22.62.38,4.48.21,5.52-.03.17-.19.31-.29.47-.11-.02-.22-.04-.34-.06Z"/>
    <path d="M14.69,59.85c-.57.26-.93.43-1.53.7.34-1.26,1.54-1.39,1.92-2.45.31.91.46,4.85.29,5.81-.03.16-.19.31-.37.58-.5-.8-.26-1.55-.3-2.25-.04-.74,0-1.48,0-2.39Z"/>
    <path d="M3.12,94.19c1.67-2.23,6.27-2.12,7.74,0-1.25-.3-2.56-.85-3.87-.85-1.3,0-2.6.55-3.87.86Z"/>
    <path d="M273.94,210.3c.34-.7.61-.56.94-.24,1.23,1.23,2.48,2.45,3.71,3.67-.21.64-.48.65-.9.24-1.24-1.23-2.49-2.44-3.75-3.68Z"/>
    <path d="M143.79,214.93c1.27,1.29,2.51,2.56,3.75,3.83.3.3.33.56-.23.82-.49-.48-1.01-.99-1.53-1.51-.76-.76-1.52-1.52-2.28-2.28-.32-.32-.29-.56.29-.86Z"/>
    <path d="M242.85,209.64c1.54,1.56,2.89,2.91,4.34,4.37-.23.03-.55.16-.65.07-1.26-1.21-2.5-2.45-3.71-3.71-.11-.11.01-.44.03-.73Z"/>
    <path d="M183.75,214.72c-.21.03-.51.15-.6.06-1.34-1.29-2.66-2.61-3.94-3.89.26-.57.53-.55.83-.25,1.27,1.26,2.53,2.52,3.79,3.78-.03.1-.05.2-.08.29Z"/>
    <path d="M117.58,218.28c-1.54-1.52-2.92-2.89-4.4-4.36.25-.03.57-.16.68-.06,1.26,1.21,2.5,2.45,3.71,3.71.1.1.01.39.01.71Z"/>
    <path d="M210.89,210.56c.34-.64.63-.44.93-.14,1.23,1.22,2.47,2.44,3.74,3.71-.23.34-.37.7-.76.33-1.33-1.29-2.63-2.61-3.91-3.89Z"/>
    <path d="M24.26,158.06c.07.6.12,1.04.16,1.42.47.44,1.25-.13,1.62.75-.56.08-1.06.16-1.6.24-.08.52-.15,1.02-.24,1.62-.83-.4-.32-1.16-.73-1.64-.42-.05-.89-.11-1.41-.17.15-1.04,1.09-.31,1.4-.69.45-.44-.13-1.24.79-1.54Z"/>
    <path d="M24.45,111.15c-.08.51-.15,1.02-.24,1.62-.84-.39-.32-1.15-.74-1.64-.4-.05-.88-.1-1.4-.16.15-1.04,1.08-.32,1.51-.83.08-.39.17-.87.27-1.36h.34c.1.47.19.95.29,1.42.42.4,1.2-.18,1.58.71-.56.08-1.05.16-1.6.24Z"/>
    <path d="M26.03,61.61c-.54.07-1.01.13-1.55.2-.1.5-.2,1.03-.32,1.67-.76-.49-.25-1.24-.7-1.68-.43-.05-.9-.11-1.44-.18.25-.94,1.05-.36,1.55-.76.07-.41.16-.9.27-1.47.82.35.31,1.05.61,1.44.38.49,1.28-.17,1.58.77Z"/>
    <path d="M89.4,214.77c-.31.6-.57.58-.87.27-1.26-1.26-2.53-2.51-3.82-3.79.24-.48.45-.63.85-.24,1.27,1.25,2.54,2.5,3.84,3.76Z"/>
    <path d="M275.27,208.91c.3-.51.54-.52.86-.21,1.27,1.25,2.55,2.48,3.82,3.72-.22.46-.43.71-.77.37-1.32-1.29-2.62-2.6-3.9-3.88Z"/>
    <path d="M180.62,209.27c.15-.01.47-.14.58-.04,1.25,1.2,2.48,2.43,3.68,3.68.11.12.02.44.02.65-1.43-1.43-2.78-2.8-4.27-4.3Z"/>
    <path d="M90.64,213.85c-.29-.02-.6.05-.72-.07-1.23-1.19-2.43-2.4-3.63-3.61-.27-.27-.21-.52.01-.62,1.41,1.4,2.79,2.77,4.35,4.31Z"/>
    <path d="M245.39,215.59c-1.28-1.28-2.6-2.59-3.88-3.93-.11-.11.02-.45.07-.95,1.5,1.5,2.78,2.79,4.07,4.06.34.34.24.56-.25.81Z"/>
    <path d="M209.56,211.9c.33-.59.59-.53.88-.24,1.26,1.25,2.51,2.5,3.78,3.76-.23.55-.49.57-.84.23-1.26-1.25-2.53-2.49-3.82-3.75Z"/>
    <path d="M149.19,217.73c-.34.59-.59.52-.89.22-1.26-1.26-2.52-2.51-3.79-3.77.26-.51.51-.57.86-.21,1.26,1.26,2.53,2.5,3.81,3.76Z"/>
    <path d="M112.37,214.96c1.27,1.27,2.55,2.56,3.83,3.84.34.34.22.57-.26.81-1.26-1.26-2.54-2.55-3.82-3.83-.35-.34-.19-.57.24-.82Z"/>
    <path d="M9.16,123.03h-4.45c.2-.28.31-.44.48-.69-.21-.38-.71-.86-.04-1.47.15.13.4.24.45.41.29,1.03.27,1.04,1.26,1.08.58.02,1.16-.02,1.74.03.22.02.43.19.65.29-.03.12-.06.23-.09.35Z"/>
    <path d="M6.77,89.75v-2.52c.34.24.66.37.67.51.04.57,0,1.15-.07,1.72,0,.08-.26.13-.6.3Z"/>
    <path class="cls-5" d="M118.77,215.91c-.48-.54-.88-1-1.39-1.58.41-.38.84-.83,1.31-1.21.44-.35.94-.34,1.35.09.41.42.41.91.05,1.35-.37.44-.81.83-1.32,1.35Z"/>
    <path class="cls-5" d="M116.76,213.96c-.45-.45-.79-.8-1.24-1.26.47-.46.86-.87,1.28-1.25.35-.32.73-.37,1.11-.02.41.38.42.81.09,1.22-.34.42-.74.79-1.23,1.3Z"/>
    <path class="cls-5" d="M150.23,215.76c-1.08-1.05-2.12-2.06-3.23-3.14.71-.71,1.22-1.68,2.49-1.49.84.13,2.03,1.27,2.21,2.18.25,1.28-.78,1.79-1.46,2.44Z"/>
    <path class="cls-5" d="M89.74,207.75c.7.33,1.4.66,2.29,1.07-.49.42-.89.77-1.43,1.24-.37-.75-.71-1.45-1.05-2.15.06-.05.13-.11.19-.16Z"/>
    <path class="cls-5" d="M7.27,78.97c-.75,0-1.31-.5-1.31-1.18,0-.71.49-1.12,1.33-1.12.82,0,1.39.43,1.42,1.07.02.65-.66,1.23-1.44,1.24Z"/>
    <path class="cls-5" d="M3.97,103.85c.97-.36,1.72-.64,2.62-.96v1.87c-.79-.27-1.55-.54-2.62-.9Z"/>
    <path class="cls-5" d="M6,148.3h-1.95c-.31-.72-.21-1.45-.08-2.17.09-.52.51-.77.99-.76.54,0,.98.3,1.03.88.06.65.01,1.3.01,2.05Z"/>
    <path class="cls-5" d="M27.5,160.09c.09-.55.15-1.13.29-1.69.12-.47.44-.89.96-.77.35.08.8.38.91.69.4,1.12.37,2.29.03,3.42-.14.47-.54.84-1.03.71-.34-.09-.72-.43-.86-.75-.21-.48-.21-1.04-.31-1.61Z"/>
    <path class="cls-5" d="M27.49,61.34c.11-.57.13-1.17.36-1.69.14-.31.59-.66.9-.65.32,0,.8.36.91.66.4,1.12.37,2.28.04,3.42-.14.47-.54.84-1.02.72-.34-.08-.74-.42-.87-.75-.21-.52-.22-1.13-.32-1.72Z"/>
    <path class="cls-5" d="M27.48,110.73c.11-.59.16-1.22.37-1.79.11-.28.53-.64.8-.63.34.01.85.29.96.58.46,1.19.48,2.44,0,3.63-.12.29-.63.56-.97.57-.27,0-.69-.35-.8-.63-.21-.53-.24-1.12-.35-1.74Z"/>
    <path class="cls-5" d="M7.3,136.17c.34.15.8.21,1,.47.22.29.27.77.24,1.15-.01.19-.34.44-.57.5-.14.03-.45-.22-.52-.4-.16-.46-.23-.96-.33-1.45.06-.09.12-.18.18-.27Z"/>
    <path class="cls-5" d="M7.36,125.13c.34.18.8.27.99.55.2.3.2.78.18,1.17-.01.16-.31.42-.5.43-.18.01-.49-.18-.55-.35-.17-.5-.24-1.03-.35-1.55.08-.08.16-.16.24-.25Z"/>
    <path class="cls-5" d="M57.6,212.35c.74.9.73,1.6.01,2.06-.19.12-.6.15-.76.03-.15-.12-.23-.54-.14-.73.23-.47.57-.89.88-1.36Z"/>
    <path class="cls-5" d="M18.14,160.28c.1-.76.52-1.03,1.12-1.02.59,0,1.03.24,1.08,1.02h-2.2Z"/>
    <path class="cls-5" d="M6.52,140.76v2.26c-.72-.05-1.01-.44-1.05-1.05-.04-.62.24-1.01,1.05-1.21Z"/>
    <path class="cls-5" d="M18.14,110.96c.1-.78.53-1.03,1.13-1.03.6,0,1.03.25,1.07,1.03h-2.19Z"/>
    <path class="cls-5" d="M6.51,117.56v2.11c-.85-.22-1.07-.43-1.04-1.07.03-.6.28-1.03,1.04-1.04Z"/>
    <path class="cls-5" d="M20.37,61.67h-2.21c.01-.71.39-1.02.98-1.06.65-.05,1.11.2,1.23,1.06Z"/>
    <path class="cls-5" d="M31.98,111.47c.58-.85,1.06-1.54,1.53-2.24.06.02.12.04.19.06v2.18h-1.72Z"/>
    <path class="cls-5" d="M7.08,113.18c.62-.29,1.05-.08,1.26.34.17.34.2.79.18,1.18-.01.17-.3.44-.48.46-.18.02-.5-.18-.56-.35-.18-.5-.26-1.04-.4-1.63Z"/>
  </g>
  <text class="cls-9" transform="translate(166.31 10.65)"><tspan x="0" y="0">NdCl</tspan></text>
  <text class="cls-9" transform="translate(192.24 14.89) scale(.58)"><tspan x="0" y="0">3 </tspan></text>
  <text class="cls-9" transform="translate(197.62 10.65)"><tspan class="cls-13" x="0" y="0">g</tspan><tspan class="cls-11" x="7.04" y="0">r</tspan><tspan class="cls-7" x="11.07" y="0">o</tspan><tspan x="17.96" y="0">wn samples</tspan></text>
  <text class="cls-9" transform="translate(51.9 15.14)"><tspan x="0" y="0">A.</tspan></text>
  <path class="cls-6" d="M401.94,55.63v-.71l12.79-7.38v.71l-12.79,7.38Z"/>
  <path class="cls-6" d="M414.73,48.25v-.71l12.79,7.38v.71l-12.79-7.38Z"/>
  <path class="cls-6" d="M427.52,55.63v-.71l12.79-7.38v.71l-12.79,7.38Z"/>
  <text class="cls-4" transform="translate(449.39 59.28)"><tspan x="0" y="0">N</tspan></text>
  <text class="cls-4" transform="translate(449.39 67.83)"><tspan x="0" y="0">H</tspan></text>
  <text class="cls-3" transform="translate(456.8 70.09)"><tspan x="0" y="0">2</tspan></text>
  <path class="cls-6" d="M440.31,48.25v-.71l7.96,4.6-.31.53-7.66-4.42Z"/>
  <path class="cls-6" d="M458.21,52.68l-.31-.53,7.98-4.61v.71l-7.67,4.43Z"/>
  <path class="cls-6" d="M465.89,48.25v-.71l12.79,7.38v.71l-12.79-7.38Z"/>
  <path class="cls-6" d="M478.68,55.63v-.71l12.8-7.38v.71l-12.8,7.38Z"/>
  <path class="cls-6" d="M491.48,48.25v-.71l12.79,7.38v.71l-12.79-7.38Z"/>
  <text class="cls-4" transform="translate(513.36 43.34)"><tspan x="0" y="0">H</tspan></text>
  <text class="cls-4" transform="translate(513.36 51.89)"><tspan x="0" y="0">N</tspan></text>
  <path class="cls-6" d="M504.27,55.63v-.71l7.36-4.25.31.53-7.67,4.43Z"/>
  <path class="cls-6" d="M522.14,51.18l.31-.53,7.7,4.45-.62.36-7.4-4.27Z"/>
  <text class="cls-4" transform="translate(538.65 51.89)"><tspan x="0" y="0">O</tspan></text>
  <path class="cls-6" d="M528.67,54.78l-.31-.53,8.71-5.03.31.53-8.71,5.03Z"/>
  <path class="cls-6" d="M530,57.08l-.31-.53,8.71-5.03.31.53-8.71,5.03Z"/>
  <path class="cls-6" d="M529.54,55.46l.62-.36v14.77l-.62.36v-14.77Z"/>
  <path class="cls-6" d="M529.54,70.23l.62-.36,12.48,7.21v.36h-.62l-12.48-7.21Z"/>
  <path class="cls-6" d="M542.95,77.61l-.31-.18v-.36l12.48-7.21.62.36-12.79,7.38Z"/>
  <path class="cls-6" d="M542.33,77.97l.31-.53.31.18v14.41l-.62.36v-14.41Z"/>
  <text class="cls-4" transform="translate(518.45 88.82)"><tspan x="0" y="0">HO</tspan></text>
  <path class="cls-6" d="M542.02,77.43h.62l-.31.53-7.93,4.58-.31-.53,7.93-4.58Z"/>
  <text class="cls-4" transform="translate(551.44 59.28)"><tspan x="0" y="0">OH</tspan></text>
  <path class="cls-6" d="M555.74,70.23l-.62-.36v-8.86h.62v9.21Z"/>
  <text class="cls-4" transform="translate(564.23 81.43)"><tspan x="0" y="0">O</tspan></text>
  <path class="cls-6" d="M555.28,68.78l.31-.53,9.07,5.24-.31.53-9.07-5.24Z"/>
  <path class="cls-6" d="M553.95,71.08l.31-.53,9.07,5.24-.31.53-9.07-5.24Z"/>
  <path class="cls-6" d="M542.33,92.38l.62-.36,12.79,7.38-.62.36-12.79-7.38Z"/>
  <text class="cls-4" transform="translate(564.23 96.2)"><tspan x="0" y="0">O</tspan></text>
  <path class="cls-6" d="M554.25,99.09l-.31-.53,8.71-5.03.31.53-8.71,5.03Z"/>
  <path class="cls-6" d="M555.58,101.39l-.31-.53,8.71-5.03.31.53-8.71,5.03Z"/>
  <text class="cls-4" transform="translate(551.73 118.36)"><tspan x="0" y="0">NH</tspan></text>
  <path class="cls-6" d="M555.12,99.76l.62-.36v10.08h-.62v-9.73Z"/>
  <path class="cls-6" d="M550,117.14l.31.53-7.67,4.43v-.71l7.36-4.25Z"/>
  <path class="cls-6" d="M542.64,121.39v.71l-12.79-7.38v-.71l12.79,7.39Z"/>
  <path class="cls-6" d="M529.85,114v.71l-12.79,7.38v-.71l12.79-7.39Z"/>
  <path class="cls-6" d="M517.06,121.39v.71l-12.79-7.38v-.71l12.79,7.39Z"/>
  <text class="cls-4" transform="translate(487.78 125.74)"><tspan x="0" y="0">N</tspan></text>
  <text class="cls-4" transform="translate(487.78 134.3)"><tspan x="0" y="0">H</tspan></text>
  <path class="cls-6" d="M504.27,114v.71l-7.67,4.43-.31-.53,7.98-4.61Z"/>
  <path class="cls-6" d="M486.65,118.6l-.31.53-7.67-4.42v-.71l7.97,4.6Z"/>
  <path class="cls-6" d="M478.68,114v.71l-12.79,7.38v-.71l12.79-7.38Z"/>
  <path class="cls-6" d="M465.89,121.39v.71l-12.79-7.38v-.71l12.79,7.39Z"/>
  <path class="cls-6" d="M453.1,114v.71l-12.79,7.38v-.71l12.79-7.39Z"/>
  <text class="cls-4" transform="translate(423.81 109.8)"><tspan x="0" y="0">H</tspan></text>
  <text class="cls-4" transform="translate(423.81 118.36)"><tspan x="0" y="0">N</tspan></text>
  <path class="cls-6" d="M440.31,121.39v.71l-7.7-4.45.31-.53,7.4,4.27Z"/>
  <text class="cls-4" transform="translate(385.44 43.34)"><tspan x="0" y="0">H</tspan></text>
  <text class="cls-4" transform="translate(385.44 51.89)"><tspan x="0" y="0">N</tspan></text>
  <path class="cls-6" d="M401.94,54.92v.71l-7.7-4.45.31-.53,7.4,4.27Z"/>
  <path class="cls-6" d="M383.71,50.67l.31.53-7.67,4.43v-.71l7.36-4.25Z"/>
  <path class="cls-6" d="M376.36,54.92v.71l-12.79-7.38v-.36l.31-.18,12.48,7.21Z"/>
  <text class="cls-4" transform="translate(372.37 74.05)"><tspan x="0" y="0">O</tspan></text>
  <path class="cls-6" d="M377.38,54.51h.62v10.55h-.62v-10.55Z"/>
  <path class="cls-6" d="M374.72,54.51h.62v10.55h-.62v-10.55Z"/>
  <path class="cls-6" d="M422.08,117.14l.31.53-7.67,4.43v-.71l7.36-4.25Z"/>
  <text class="cls-4" transform="translate(410.74 140.51)"><tspan x="0" y="0">O</tspan></text>
  <path class="cls-6" d="M415.75,120.97h.62v10.55h-.62v-10.55Z"/>
  <path class="cls-6" d="M413.09,120.97h.62v10.55h-.62v-10.55Z"/>
  <path class="cls-6" d="M414.73,121.39v.71l-12.79-7.38v-.36l.31-.18,12.48,7.21Z"/>
  <path class="cls-6" d="M402.24,114.18l-.31.18-.31-.18v-14.41l.62-.36v14.77Z"/>
  <path class="cls-6" d="M399.59,112.82h-.62v-11.7h.62v11.7Z"/>
  <path class="cls-6" d="M402.24,99.41l-.62.36-12.48-7.21v-.71l13.1,7.56Z"/>
  <path class="cls-6" d="M389.15,91.85v.71l-12.48,7.21-.31-.18v-.35l12.79-7.38Z"/>
  <path class="cls-6" d="M388.99,95.01l.31.53-10.13,5.85-.31-.53,10.13-5.85Z"/>
  <path class="cls-6" d="M376.05,99.76l.31-.18.31.18v14.41l-.62.36v-14.77Z"/>
  <path class="cls-6" d="M376.05,114.53l.62-.36,12.48,7.21v.71l-13.1-7.56Z"/>
  <path class="cls-6" d="M378.86,113.09l.31-.53,10.13,5.85-.31.53-10.13-5.85Z"/>
  <path class="cls-6" d="M389.15,122.1v-.71l12.48-7.21.31.18v.36l-12.79,7.38Z"/>
  <path class="cls-6" d="M363.87,47.71l-.31.18-.31-.18v-14.41l.62-.36v14.77Z"/>
  <path class="cls-6" d="M361.21,46.36h-.62v-11.7h.62v11.7Z"/>
  <path class="cls-6" d="M363.87,32.94l-.62.36-12.48-7.21v-.71l13.1,7.56Z"/>
  <path class="cls-6" d="M350.77,25.38v.71l-12.48,7.21-.31-.18v-.35l12.79-7.38Z"/>
  <path class="cls-6" d="M350.62,28.54l.31.53-10.13,5.85-.31-.53,10.13-5.85Z"/>
  <path class="cls-6" d="M337.68,33.3l.31-.18.31.18v14.41l-.62.36v-14.77Z"/>
  <path class="cls-6" d="M337.68,48.07l.62-.36,12.48,7.21v.71l-13.1-7.56Z"/>
  <path class="cls-6" d="M340.49,46.62l.31-.53,10.13,5.85-.31.53-10.13-5.85Z"/>
  <path class="cls-6" d="M350.77,55.63v-.71l12.48-7.21.31.18v.36l-12.79,7.38Z"/>
  <text class="cls-1" transform="translate(313.8 29.74)"><tspan x="0" y="0">HO</tspan></text>
  <path class="cls-6" d="M337.98,32.77v.35l-.31.18-7.85-4.53.31-.53,7.85,4.53Z"/>
  <text class="cls-1" transform="translate(352.17 96.2)"><tspan x="0" y="0">HO</tspan></text>
  <path class="cls-2" d="M376.36,99.23v.35l-.31.18-7.85-4.53.31-.53,7.85,4.53Z"/>
  <path class="cls-12" d="M449.43,45.34c0,2.03,1.65,3.68,3.68,3.68s3.68-1.65,3.68-3.68-1.65-3.68-3.68-3.68-3.68,1.65-3.68,3.68h0Z"/>
  <path class="cls-6" d="M451.08,45.06h4.03v.51h-4.03v-.51Z"/>
  <path class="cls-6" d="M453.35,43.3v4.03h-.51v-4.03h.51Z"/>
  <text class="cls-4" transform="translate(403 162.72)"><tspan x="0" y="0">FeatureID:</tspan></text>
  <text class="cls-4" transform="translate(454.3 162.72)"><tspan x="0" y="0">5622</tspan></text>
  <text class="cls-4" transform="translate(365.42 177.23)"><tspan x="0" y="0">Chemical</tspan></text>
  <text class="cls-4" transform="translate(411.02 177.23)"><tspan x="0" y="0">Formula:</tspan></text>
  <text class="cls-4" transform="translate(454.34 177.23)"><tspan x="0" y="0">C</tspan></text>
  <text class="cls-3" transform="translate(461.75 179.49)"><tspan x="0" y="0">36</tspan></text>
  <text class="cls-4" transform="translate(470.3 177.23)"><tspan x="0" y="0">H</tspan></text>
  <text class="cls-3" transform="translate(477.71 179.49)"><tspan x="0" y="0">55</tspan></text>
  <text class="cls-4" transform="translate(486.27 177.23)"><tspan x="0" y="0">N</tspan></text>
  <text class="cls-3" transform="translate(493.67 179.49)"><tspan x="0" y="0">6</tspan></text>
  <text class="cls-4" transform="translate(497.95 177.23)"><tspan x="0" y="0">O</tspan></text>
  <text class="cls-3" transform="translate(505.93 179.49)"><tspan x="0" y="0">9</tspan></text>
  <text class="cls-3" transform="translate(510.21 173.23)"><tspan x="0" y="0">+</tspan></text>
  <text class="cls-4" transform="translate(389.32 191.75)"><tspan x="0" y="0">Exact</tspan></text>
  <text class="cls-4" transform="translate(417.82 191.75)"><tspan x="0" y="0">Mass:</tspan></text>
  <text class="cls-4" transform="translate(448.03 191.75)"><tspan x="0" y="0">715.4025</tspan></text>
  <text class="cls-9" transform="translate(314.63 12.9)"><tspan class="cls-8" x="0" y="0">B</tspan><tspan class="cls-10" x="6.73" y="0">.</tspan></text>
</svg>