<?xml version="1.0" encoding="UTF-8"?>
<svg id="Layer_1" xmlns="http://www.w3.org/2000/svg" viewBox="0 0 593.86 439.23">
  <defs>
    <style>
      .cls-1 {
        letter-spacing: 0em;
      }

      .cls-2 {
        letter-spacing: 0em;
      }

      .cls-3, .cls-4 {
        fill: #3a53a4;
      }

      .cls-3, .cls-5, .cls-6, .cls-7 {
        font-family: ArialMT, Arial;
        isolation: isolate;
      }

      .cls-3, .cls-5, .cls-7 {
        font-size: 11.53px;
      }

      .cls-8 {
        fill: #fff;
      }

      .cls-9 {
        letter-spacing: 0em;
      }

      .cls-9, .cls-10 {
        fill: #231f20;
        font-family: MyriadPro-Regular, 'Myriad Pro';
        font-size: 12px;
      }

      .cls-11 {
        letter-spacing: -.01em;
      }

      .cls-5 {
        fill: #ed2224;
      }

      .cls-12 {
        letter-spacing: 0em;
      }

      .cls-6 {
        font-size: 8.65px;
      }

      .cls-6, .cls-13, .cls-7 {
        fill: #010101;
      }

      .cls-14 {
        fill: none;
        stroke: #010101;
        stroke-miterlimit: 10;
        stroke-width: 1.33px;
      }

      .cls-15 {
        letter-spacing: -.01em;
      }
    </style>
  </defs>
  <g>
    <path class="cls-8" d="M9.64,216V0h288v216H9.64ZM294.79,178.87H44.32V2.87c-.43.02-.73.04-1.1.06v11.34c0,3.76,0,7.51,0,11.27,0,3.74,0,7.47,0,11.25-1.07.05-1.97.1-2.86.14v.93h2.79v56.16h-2.85c.04.38.07.64.11.99h2.73v61.64h-2.84c.04.39.06.65.1,1.05h2.82c0,.58,0,1.02,0,1.45,0,4.76,0,9.51,0,14.27,0,1.68-.01,3.36.01,5.04,0,.32.13.66.27.96.28.6.84.6,1.41.6,5.12-.01,10.23,0,15.35,0,.42,0,.85.04,1.41.07v2.87c.41-.05.66-.09,1.01-.13v-2.64c1.44-.28,28.67-.22,29.59.08v2.62h1.03v-2.71c1.59-.28,28.69-.21,29.61.09v2.6h1.01v-2.76h29.61v2.83c.4-.03.66-.06,1.01-.09v-2.65c1.27-.28,28.6-.24,29.54.03.04.88.08,1.77.12,2.7.38-.02.6-.03.97-.05v-2.79h29.57v2.79h1.07v-2.79h29.58v2.82c.4-.02.65-.03,1.05-.05v-2.74c2.03-.23,28.6-.15,29.51.1.04.88.09,1.78.14,2.74.38-.06.63-.1.97-.15v-2.79h17.74v-1.14ZM120.29,190.93c-.42-1.81-1.5-2.14-2.89-.87-.49.45-.94.94-1.27,1.28,1.42,1.41,2.74,2.71,4.13,4.09.55-.6,1.26-1.25,1.81-2.02.65-.9.19-2.09-.86-2.41-.29-.09-.61-.05-.92-.07ZM217.29,171.45c.03-1.02-.91-2.01-1.95-2.07-1.04-.06-2.02.85-2.06,1.91-.05,1.13.74,2.02,1.85,2.07,1.18.06,2.14-.79,2.17-1.92ZM276.5,173.36c1.14,0,1.99-.8,2.01-1.91.03-1.1-.94-2.09-2.02-2.09-1.03,0-2.05.95-2.03,1.98.02,1.26,1.04,2.15,2.04,2.02ZM184.68,173.36c1.13-.02,1.95-.85,1.94-1.98,0-1.07-.92-2-1.97-2.01-1.07,0-2.1,1.04-2.05,2.1.05,1.07.97,1.91,2.08,1.89ZM94.75,171.35c-.02-1.07-.95-1.98-2-1.97-1.02.01-2,.98-2.01,2.01-.01,1.1.96,2.01,2.1,1.98,1.11-.03,1.93-.89,1.9-2.01ZM125.42,171.4c0-1.02-.97-2-2-2.02-1.09-.02-2.04.96-2.01,2.08.03,1.11.88,1.91,2.01,1.9,1.08-.01,2-.91,1.99-1.97ZM155.99,171.41c0-1.11-.85-2-1.93-2.03-1.11-.03-2.04.92-2.02,2.07.02,1.13.85,1.92,2,1.92,1.15,0,1.95-.81,1.96-1.95ZM64.13,171.4c0-1.07-.9-1.99-1.95-2.02-1.11-.02-2.03.93-2,2.07.03,1.12.86,1.92,2,1.9,1.12-.01,1.95-.85,1.95-1.96ZM247.83,71.12c0-1.09-.89-2-1.96-2-1.03,0-1.89.86-1.93,1.9-.04,1.11.8,2.02,1.89,2.05,1.08.03,1.99-.86,1.99-1.96ZM247.84,171.4c0-1.09-.9-1.99-1.97-1.99-1.05,0-1.97.94-1.97,2,0,1.1.87,1.96,1.98,1.95,1.12,0,1.96-.85,1.96-1.97ZM247.83,10.84c-.01-1.09-.93-1.98-2.01-1.94-1.04.04-1.87.89-1.88,1.94-.01,1.08.88,2.02,1.94,2.02,1.07,0,1.96-.93,1.95-2.01ZM94.75,75.37c.02-1.05-.91-1.99-1.97-1.99-1.08,0-1.97.91-1.96,1.99.01,1.05.84,1.89,1.9,1.91,1.09.03,2.01-.84,2.03-1.92ZM123.36,85.81c-1.11.01-1.98.9-1.94,1.98.04,1.08.95,1.92,2.06,1.87,1.06-.04,1.86-.88,1.86-1.94,0-1.12-.84-1.93-1.98-1.92ZM64.09,56.6c-.01-1.1-.89-1.95-1.99-1.93-1.1.03-1.93.92-1.9,2.02.04,1.06.86,1.85,1.93,1.85,1.13,0,1.96-.83,1.95-1.95ZM215.77,185.85l-.08-.34c-.86-.5-1.64-.27-2.36.34-.86.72-1.31,1.6-1.06,2.74.26,1.21,1.45,2.36,2.6,2.53,1.29.19,2.47-.45,3.14-1.71.54-1.03.5-1.34-.35-2.17-.24-.24-.51-.46-.62-.55-.61.58-1.14,1.09-1.7,1.63.81.49.95-.61,1.51-.64.85.65.9.83.45,1.61-.86,1.51-2.57,1.57-3.75.12-.54-.66-.84-1.41-.45-2.21.39-.81,1.02-1.31,2.02-1.15.2.03.44-.12.66-.18ZM150.73,195.44c.6-.59,1.26-1.13,1.78-1.78.78-.96.65-1.99-.29-3.14-.94-1.16-2.23-1.62-3.24-1.16-.14.07-.3.13-.41.24-.63.64-1.24,1.3-1.81,1.89,1.31,1.31,2.61,2.6,3.97,3.95ZM150.81,187.19c1.42,1.45,2.73,2.77,4.1,4.16.81-.81,1.68-1.68,2.54-2.56.28-.28.19-.49-.26-.68-.75.74-1.54,1.52-2.28,2.25-.51-.47-.96-.9-1.4-1.31.52-.93,1.59-1.36,1.97-2.42-.81-.25-.99.44-1.38.75-.42.34-.78.75-1.05,1.01-.49-.39-.88-.71-1.3-1.05.79-.82,1.51-1.58,2.21-2.32-.35-.54-.59-.31-.84-.07-.8.77-1.61,1.55-2.33,2.25ZM242.89,195.01c-.67-.67-1.34-1.4-2.09-2.04-.73-.63-1.52-.43-1.97.43-.13.24-.17.52-.19.59-.58.39-1.19.6-1.42,1.02-.27.5-.69.72-.96.89.97,1,1.92,1.98,2.88,2.97.25-.16.35-.36.07-.64-.48-.48-.98-.95-1.42-1.46-.46-.54-.47-1.19-.05-1.49.52-.37.89-.04,1.25.31.56.55,1.13,1.11,1.7,1.67.41-.55.42-.57.2-.81-.46-.49-.97-.95-1.42-1.46-.44-.51-.44-1.01-.06-1.39.49-.47.87-.15,1.23.19.49.47.96.96,1.45,1.43.29.29.55.3.8-.22ZM87.88,196.98c.54-.26.48-.51.19-.8-.5-.51-1.02-1.01-1.48-1.55-.35-.41-.35-.89.05-1.29.43-.42.8-.17,1.13.16.51.5,1.02,1.01,1.53,1.51.31.3.56.25.74-.2-.14-.16-.28-.36-.44-.52-.5-.51-.99-1.04-1.53-1.51-.81-.69-1.68-.48-2.11.5-.09.21-.12.46-.14.55-.51.28-1.02.42-1.3.76-.36.44-.57,1.02-1.09,1.14.98.98,1.93,1.94,2.99,3,.02-.26.14-.54.04-.68-.22-.32-.55-.58-.82-.87-.27-.29-.57-.56-.79-.89-.31-.46-.22-1.04.15-1.29.41-.27.76-.1,1.07.19.23.22.45.45.68.67.39.38.78.76,1.14,1.1ZM270.52,192.79c-.62.41-1.19.6-1.41.99-.27.49-.64.77-.98.92.99.99,1.95,1.96,3.03,3.04-.02-.27.06-.56-.06-.69-.41-.49-.9-.9-1.32-1.38-.53-.59-.59-1.26-.16-1.58.57-.42.96-.02,1.33.36.31.31.61.63.93.93.25.23.51.44.74.63.54-.32.33-.57.09-.82-.47-.48-.98-.95-1.41-1.46-.41-.49-.36-1.05.05-1.38.47-.37.81-.08,1.14.24.52.5,1.01,1.02,1.54,1.51.32.29.56.18.68-.28-.66-.67-1.3-1.39-2.01-2.02-.72-.64-1.52-.47-1.98.37-.13.24-.17.52-.21.63ZM145.51,200.58c-.58-.61-1.21-1.22-1.77-1.89-.38-.46-.32-.95.06-1.28.43-.39.81-.18,1.15.15.52.5,1.02,1.01,1.53,1.52.33.33.55.2.82-.3-.69-.65-1.39-1.36-2.15-1.99-.7-.58-1.45-.42-1.91.36-.16.27-.22.59-.25.67-.59.41-1.15.63-1.43,1.05-.29.42-.55.78-.98.9.98,1,1.92,1.95,2.89,2.94.27-.12.39-.34.07-.68-.5-.52-1.01-1.02-1.48-1.56-.36-.41-.41-.89,0-1.29.46-.45.87-.16,1.24.2.48.48.96.96,1.45,1.43.31.31.56.23.76-.22ZM116.62,198.86c-.64-.64-1.28-1.35-1.99-1.98-.82-.73-1.64-.53-2.1.47-.1.21-.14.45-.23.77-1.4-.21-1.34,1.47-2.66,1.79,1.04.98,1.9,1.81,2.77,2.62.38.36.62.23.79-.33-.41-.39-.85-.78-1.27-1.21-.22-.22-.43-.47-.6-.74-.25-.39-.18-.79.13-1.1.34-.34.74-.26,1.07.04.55.52,1.08,1.06,1.63,1.59.38.37.61.22.8-.36-.57-.52-1.19-1.03-1.73-1.61-.46-.5-.44-1.01-.05-1.39.36-.36.67-.32,1.23.2.5.46.97.95,1.45,1.43.29.29.54.32.78-.21ZM56.38,197.84c-.55-.52-1.09-1.04-1.64-1.55-.14-.14-.28-.29-.43-.41-.81-.65-1.58-.49-2.05.43-.12.24-.17.52-.2.61-.54.34-1.16.51-1.34.89-.26.55-.71.78-1.13,1.05,1,1,1.95,1.95,2.9,2.9.34-.44.35-.45.14-.69-.48-.53-1-1.03-1.47-1.57-.35-.4-.41-.87-.02-1.3.32-.35.72-.3,1.24.19.5.46.96.95,1.44,1.43.38.38.61.24.86-.45-.56-.49-1.23-.99-1.8-1.6-.45-.47-.38-1.03.05-1.37.46-.37.82-.1,1.15.22.49.47.97.95,1.44,1.43.27.27.52.39.88-.22ZM182.31,194.36c-.6-.57-1.17-1.12-1.74-1.67-1.14-1.08-2.08-.84-2.54.66-.03.11-.06.22-.09.33-.55.17-1.13.38-1.37.8-.26.44-.6.71-1.16.97.97.97,1.83,1.84,2.72,2.68.12.11.42.03.87.05-.31-.41-.44-.6-.59-.76-.43-.47-.91-.89-1.31-1.39-.42-.52-.37-1.01.06-1.37.47-.4.81-.08,1.13.23.52.5,1.02,1.01,1.53,1.51.33.33.54.17.72-.23-.6-.63-1.21-1.25-1.78-1.91-.36-.41-.35-.89.07-1.28.43-.4.8-.18,1.14.15.51.5,1.02,1.01,1.52,1.52.31.32.54.25.82-.3ZM205.19,196.3c-.02.1-.05.21-.07.31.31.25.63.49.92.76.55.52,1.08,1.07,1.61,1.6.3.31.59.44.83-.13-.19-.22-.4-.46-.61-.69-.38-.41-.79-.79-1.14-1.23-.34-.43-.33-.9.07-1.29.44-.43.8-.11,1.14.18.18.15.34.34.51.5.44.44.88.87,1.28,1.27.48-.25.5-.48.25-.74-.47-.49-.98-.95-1.43-1.45-.48-.55-.49-1.12-.05-1.48.51-.42.88-.07,1.23.28.59.57,1.17,1.15,1.75,1.71.38-.28.49-.48.21-.76-.59-.59-1.16-1.22-1.79-1.77-.79-.69-1.71-.44-2.12.53-.09.21-.1.46-.1.46-.6.4-1.17.6-1.44,1.01-.28.43-.57.76-1.08.92ZM18.17,132c-.31-.02-.66-.04-1.01-.06-.35-.02-.7-.03-1.13-.05-.03-.65-.04-1.24-.1-1.83-.1-1.05-.72-1.66-1.65-1.69-.9-.03-1.6.58-1.7,1.64-.08.86-.02,1.73-.02,2.74,1.81,0,3.55.01,5.29,0,.44,0,.52-.29.31-.74ZM244.82,184.97c.61.66,1.12,1.2,1.53,1.63-.69.74-1.3,1.39-1.96,2.09-.42-.4-.84-.82-1.27-1.23-.4-.39-.58-.11-.86.28,1.24,1.22,2.44,2.38,3.62,3.56.36.36.64.4.89-.15-.58-.61-1.15-1.21-1.78-1.87.7-.66,1.36-1.28,2.09-1.96.48.47.99.97,1.5,1.47.39.37.6.15.71-.03-1.39-1.38-2.7-2.69-4.11-4.1-.04.04-.18.16-.36.32ZM12.33,85.35c.3.38.42.67.55.67,1.35.01,2.71.07,4.05-.07,1.01-.11,1.54-.98,1.55-2.11,0-1.13-.49-1.94-1.55-2.08-1.21-.17-2.45-.13-3.68-.16-.22,0-.43.08-.63.12-.14.63.21.68.6.68,1.08.01,2.15-.01,3.23.04.93.04,1.3.44,1.35,1.32.04.83-.33,1.36-1.19,1.51-.54.09-1.11.07-1.66.08-.78.01-1.56,0-2.61,0ZM96.68,188.13c-1.73-.74-3.43-1.49-5.15-2.19-.2-.08-.54.01-.73.15-.13.1-.18.45-.1.62.74,1.7,1.52,3.39,2.37,5.26.9-1-.28-1.63-.13-2.26.54-.58,1.03-1.1,1.55-1.64.4.16.78.27,1.12.45.46.24.81.24,1.07-.4ZM15.16,56.85c-.45-.1-.68-.13-.9-.21-1.23-.41-1.38-1.1-.49-2.06.12-.13.1-.38.16-.64-.97.06-1.25.67-1.37,1.36-.12.71.35,1.48,1.1,1.81,1.18.51,2.41.53,3.61.11.94-.33,1.39-1.34,1.08-2.23-.34-.99-1.5-1.51-2.54-1.14-1.08.38-1.44,1.27-.96,2.4.06.14.14.27.31.59ZM18.23,86.71c-1.82.73-3.55,1.41-5.26,2.13-.18.07-.41.35-.39.5.03.22.23.5.43.59,1.29.52,2.59,1,3.9,1.49.43.16.86.3,1.39.49-.04-1.3-1.31-.84-1.65-1.44v-2.12c.46-.7,1.77-.28,1.59-1.63ZM124.06,185.53c-1.02-.58-1.88-.35-2.65.39-.8.76-1.05,1.88-.6,2.85.47,1.03,1.25,1.74,2.34,2.09,1.03.33,2.02-.04,2.73-.97.63-.83.63-1.58,0-2.63-.65.02-.55.38-.39.81.26.72.06,1.33-.53,1.81-.54.44-1.35.48-2.01.04-.42-.28-.8-.65-1.13-1.04-.53-.63-.68-1.36-.24-2.11.41-.71,1.04-.95,1.84-.73.35.1.64.05.66-.52ZM15.56,62.55c-.55.1-1.15.15-1.72.32-.84.25-1.32.94-1.29,1.67.03.7.51,1.31,1.29,1.56,1.13.36,2.28.35,3.4-.02.77-.25,1.23-.89,1.23-1.59,0-.7-.47-1.36-1.23-1.6-.52-.17-1.08-.22-1.68-.33ZM29.86,37.53c-.13-.66-.18-1.29-.38-1.89-.23-.7-.76-1.11-1.53-1.11-.76,0-1.3.37-1.55,1.08-.44,1.24-.43,2.49,0,3.73.25.73.85,1.07,1.57,1.06.67,0,1.25-.36,1.48-1.03.2-.59.28-1.23.41-1.84ZM38.72,37.4c-.1-.56-.15-1.12-.32-1.64-.27-.83-.82-1.23-1.56-1.24-.75-.01-1.33.37-1.61,1.18-.39,1.16-.38,2.35,0,3.51.26.79.9,1.22,1.6,1.21.7-.02,1.32-.47,1.56-1.26.17-.56.22-1.16.32-1.75ZM29.86,94.6c-.13-.66-.18-1.29-.38-1.89-.23-.7-.76-1.11-1.53-1.11-.76,0-1.3.37-1.55,1.08-.44,1.24-.43,2.49,0,3.73.26.73.86,1.07,1.57,1.06.67-.01,1.25-.36,1.47-1.03.2-.59.28-1.23.41-1.84ZM38.73,94.6c-.13-.65-.18-1.29-.38-1.89-.23-.7-.76-1.11-1.53-1.11-.76,0-1.3.37-1.55,1.08-.44,1.24-.43,2.49,0,3.73.26.73.86,1.07,1.57,1.06.67-.01,1.25-.36,1.47-1.03.2-.59.28-1.23.41-1.84ZM38.73,157.24c-.12-.6-.17-1.2-.35-1.76-.27-.8-.89-1.23-1.61-1.18-.73.05-1.29.42-1.52,1.14-.39,1.2-.39,2.42.01,3.62.24.71.77,1.09,1.53,1.1.77,0,1.32-.38,1.55-1.07.2-.59.26-1.23.39-1.86ZM34.28,37.45c-.12-.61-.18-1.25-.37-1.84-.23-.7-.78-1.09-1.54-1.09-.77,0-1.29.41-1.54,1.1-.44,1.2-.42,2.42-.02,3.63.24.72.8,1.08,1.52,1.15.7.07,1.37-.4,1.62-1.17.18-.56.23-1.16.34-1.78ZM34.28,94.53c-.12-.61-.18-1.25-.37-1.84-.23-.7-.78-1.09-1.54-1.09-.77,0-1.29.41-1.54,1.1-.44,1.2-.42,2.42-.02,3.63.24.72.8,1.08,1.53,1.15.69.07,1.37-.4,1.62-1.17.18-.56.23-1.16.34-1.78ZM34.25,157.13c-.09-.48-.13-1.08-.31-1.64-.26-.8-.88-1.22-1.6-1.2-.72.02-1.32.46-1.58,1.25-.36,1.08-.37,2.19-.04,3.28.27.9.79,1.33,1.6,1.34.82.02,1.48-.48,1.7-1.38.13-.5.14-1.02.22-1.65ZM59.93,190.66c-.35.53-.73,1.02-1.03,1.56-.26.47-.3,1,.09,1.45.36.42.85.43,1.31.23.25-.1.5-.29.64-.51.37-.6.68-1.22,1.2-1.25-.67-.71-1.22-1.51-1.88-2.19-.58-.59-1.04-.57-1.69-.05-.33.27-.64.61-.84.98-.24.45-.34.96.3,1.45.15-.56.21-1.06.42-1.47.28-.55.65-.58,1.48-.21ZM13.83,52.87c.43-.44.16-.61-.14-.78-.51-.28-.62-.76-.42-1.23.1-.24.44-.46.71-.51.52-.1.76.29.94.73.08.2.26.35.54.7.09-.51.07-.77.18-.96.15-.26.36-.54.61-.68.45-.24,1.1-.02,1.39.39.33.47.24,1.09-.21,1.5-.26.23-.85.27-.47.85.95-.21,1.35-.59,1.49-1.41.12-.73-.27-1.61-.93-1.93-.89-.41-1.7-.27-2.3.53-1.17-.67-1.94-.57-2.41.28-.55.98-.18,1.92,1.03,2.51ZM24.54,37.14c.59-.94.64-1.43.26-1.96-.38-.52-1.16-.8-1.82-.61-.64.18-1.1.55-1.15,1.26.51.28.63-.06.81-.31.3-.41.75-.51,1.16-.29.23.12.44.45.5.72.1.46-.25.72-.63.9-.21.1-.42.21-.63.32.29.29.59.28.78.42.29.22.61.51.73.83.18.49-.16,1.11-.62,1.29-.54.21-1.04.14-1.35-.41-.22-.38-.4-.71-.88-.33.16.96.83,1.37,1.68,1.42.75.05,1.43-.27,1.77-1,.41-.86.21-1.63-.61-2.26ZM28.95,156.93c.64-.9.72-1.3.36-1.86-.38-.61-.97-.81-1.65-.74-.81.08-1.13.42-1.42,1.58.34-.2.59-.26.7-.42.29-.45.68-.75,1.19-.55.28.11.59.47.63.76.08.56-.32.83-.85.96-.16.04-.27.29-.5.54.35.04.54.05.73.09.59.13.9.52.9,1.1,0,.52-.24.92-.76,1.1-.57.19-1.02.03-1.32-.5-.04-.07-.04-.18-.1-.21-.15-.09-.32-.15-.48-.22-.04.21-.18.49-.1.61.22.31.5.63.84.81.79.42,1.84.12,2.35-.6.55-.77.39-1.61-.52-2.46ZM18.43,109.1c-1.08,0-1.92-.01-2.75,0-1.03.02-1.37.28-1.51,1.14-.19,1.16.13,1.79,1.11,2.15.36-.69-.6-.82-.59-1.41.01-.7.21-1.02,1.01-1.07.11.57.19,1.16.35,1.73.2.7.73,1.08,1.29.98.58-.1.95-.6.96-1.33,0-.2.02-.42-.07-.59-.27-.52-.27-1.03.19-1.61ZM18.35,119.65c-1.06,0-2.01-.03-2.96,0-.76.03-1.1.33-1.2,1.07-.05.43-.05.89.05,1.3.12.5.39.94,1.19.91-.27-.55-.59-.98-.71-1.46-.15-.61.15-.9.96-1.06.07.34.13.68.2,1.02.08.35.13.71.26,1.04.2.49.6.76,1.13.7.53-.06.87-.38.97-.91.05-.27.09-.57.02-.83-.17-.6-.29-1.17.08-1.79ZM183.92,188.12c-.37-.35-.76-.72-1.22-1.15.63-.64,1.21-1.23,1.79-1.82.31-.32.23-.54-.34-.76-.35.4-.74.85-1.15,1.29-.43.45-.87.89-1.37,1.4,1.32,1.31,2.53,2.51,3.74,3.71.39.39.61.18.84-.5-.53-.43-1.14-.92-1.78-1.44.67-.74,1.24-1.37,1.8-1.99-.18-.17-.27-.28-.29-.27-.68.5-1.36,1.01-2.04,1.52ZM15.69,98.25c.07.34.13.68.2,1.01.08.35.13.71.26,1.04.2.49.61.71,1.15.66.56-.05.87-.37.96-.9.05-.27.09-.57,0-.82-.19-.6-.46-1.17.15-1.81-1.09,0-1.99-.02-2.89,0-.58.02-1.17.22-1.26.87-.08.57-.04,1.18.08,1.75.09.42.41.75,1.1.67-.26-.51-.57-.94-.69-1.42-.16-.62.11-.88.96-1.06ZM63.75,186.93c-.26-.48-.5-.42-.78-.13-.47.48-.95.95-1.46,1.46-.45-.45-.83-.84-1.28-1.28.61-.62,1.2-1.21,1.77-1.81.29-.31.27-.55.12-.6-1.04.89-1.97,1.68-2.76,2.36,1.38,1.38,2.7,2.69,4,3.99.26-.4.28-.41.07-.64-.45-.49-.92-.96-1.42-1.47.64-.68,1.2-1.28,1.75-1.85ZM16.41,124c-1.58.13-2.25.71-2.27,1.81-.01,1.03.66,1.78,1.74,1.93,1.16.16,2.11-.38,2.37-1.34.29-1.07-.08-1.81-1.12-2.24-.37.31-.18.53.12.74.44.31.61.74.44,1.25-.18.54-.56.82-1.28.79v-2.94ZM16.37,104.66v-2.94c-1.48.06-2.18.64-2.23,1.74-.04,1.08.66,1.86,1.8,1.99,1.17.13,2.09-.42,2.31-1.4.26-1.13-.13-1.84-1.18-2.15-.33.37,0,.51.21.75.84.88.54,1.66-.92,2.02ZM12.55,118.3c1.21.31,4.95.26,5.8-.1-.44-.83-1.61.05-1.98-.78.45-.87,1.87-.79,1.96-2.25-.98.62-1.78,1.12-2.6,1.64-.48-.43-.95-.84-1.48-1.31-.26,1.18,1.06,1.36,1.24,2.31-.56,0-1.08-.05-1.58.01-.46.06-1.13-.35-1.35.49ZM56.86,197.4c1-.72.08-1.55.33-2.23q1.84.08,2.09-.4c-.77-.17-1.54-.34-2.32-.5-.15-.75-.29-1.43-.45-2.21-1.06.57-.11,1.44-.44,2.04-.62.14-1.36-.6-2.01.34.82.19,1.53.36,2.24.53.19.81.36,1.57.56,2.43ZM276.67,189.54c1.11,1.15,1.88.8,2.42.26.71-.7.69-1.45-.11-2.31-.81-.87-1.68-1.69-2.52-2.55-.39-.4-.65-.33-.9.32.93.89,1.88,1.79,2.81,2.71.33.32.59.7.32,1.16-.3.52-.73.49-1.23.24-.15-.07-.41.08-.8.16ZM18.46,68.78c-.22-.34-.27-.53-.37-.56-.61-.22-4.93-.07-5.6.21.84.45,1.02,1.55,2.22,1.89-.27-.62-.45-1.03-.67-1.54h4.43ZM22.19,93.67c.5-.21.87-.38,1.39-.6v4.17c.72.19.67-.23.67-.59,0-1.47,0-2.94,0-4.41,0-.21-.08-.42-.15-.77-.42.4-.74.68-1.03,1-.3.32-.93.36-.88,1.2ZM12.42,59.24q1.51,2.04,2.2,1.93c-.19-.38-.37-.75-.63-1.29h4.31c-.04-.24-.04-.44-.08-.45-1.84-.36-3.69-.08-5.79-.19ZM19.89,92.71c-1.17.26-2.37.6-3.59.78-1.33.19-2.51-.49-3.84-1,1.52,2.27,6.04,2.21,7.43.21ZM12.55,80.18c3.75-1.06,2.86-1.33,7.37-.02-1.27-2.03-6.12-2.09-7.37.02ZM277.3,191.24c-.74-.71-1.45-1.39-2.16-2.09-.51-.5-1-1.02-1.52-1.51-.4-.38-.62-.19-.76.39.38.34.8.7,1.2,1.08.8.78,1.58,1.57,2.36,2.36.3.31.57.44.88-.23ZM92.59,192.25c-1.2-1.21-2.42-2.45-3.66-3.67-.4-.39-.61-.16-.75.36.77.74,1.54,1.49,2.31,2.23.45.44.9.9,1.35,1.35.32.32.55.21.75-.27ZM241.46,188.55c-.09.03-.18.06-.27.09,0,.21-.11.52,0,.62,1.23,1.28,2.49,2.53,3.74,3.78.09-.03.17-.05.26-.08,0-.22.11-.5,0-.64-.22-.32-.54-.58-.82-.86-.97-.97-1.95-1.95-2.92-2.92ZM148.54,197.57c-1.23-1.21-2.44-2.41-3.64-3.6-.34-.34-.6-.31-.8.24,1.2,1.2,2.4,2.4,3.6,3.6.28.29.53.32.84-.23ZM180.58,188.02c-.02.22-.14.5-.05.6,1.16,1.21,2.34,2.4,3.55,3.56.11.11.42,0,.62,0-1.39-1.4-2.7-2.72-4.12-4.16ZM213.25,194.07c-1.24-1.22-2.47-2.41-3.68-3.61-.38-.38-.58-.21-.82.24,1.24,1.23,2.45,2.43,3.66,3.63.29.29.54.3.84-.26ZM14.16,107.87c1.29,0,2.44,0,3.59,0,.38,0,.62-.12.47-.69-.51,0-1.06,0-1.61,0-1.47,0-1.51-.04-1.88-1.4-.61-.05-.69.42-.51.75.25.44,0,.8-.06,1.34ZM119.11,196.38c-.17-.19-.34-.4-.53-.59-1.01-1.01-2.02-2.02-3.03-3.03-.31-.31-.59-.42-.86.22,1.21,1.19,2.45,2.41,3.7,3.63.32.32.54.22.72-.22ZM244.16,193.78c-1.23-1.23-2.48-2.49-3.75-3.73-.33-.32-.53-.08-.72.3,1.23,1.21,2.44,2.41,3.65,3.62.3.3.54.29.82-.19ZM91.36,193.53c-1.21-1.21-2.45-2.44-3.68-3.67-.33-.33-.55-.19-.78.24,1.22,1.21,2.45,2.44,3.68,3.67.33.33.55.19.78-.24ZM183.42,193.39c-1.39-1.36-2.73-2.67-4.13-4.03.01.18-.05.46.06.6.29.37.65.69.99,1.02.78.78,1.57,1.57,2.35,2.35.31.31.58.42.72.06ZM117.7,198.12c0-.32.08-.59-.01-.7-1.17-1.2-2.35-2.39-3.56-3.55-.1-.1-.42.02-.65.04,1.42,1.42,2.74,2.73,4.22,4.21ZM214.37,193.19c.03-.12.07-.24.1-.36-1.22-1.2-2.44-2.4-3.66-3.61-.3-.3-.54-.31-.77.24,1.2,1.2,2.43,2.44,3.69,3.66.12.12.42.06.64.08ZM275.91,192.92c.05-.11.1-.23.15-.34-1.24-1.23-2.47-2.46-3.71-3.69-.33-.33-.55-.18-.77.25,1.22,1.21,2.44,2.45,3.7,3.66.13.13.42.09.63.12ZM149.21,196.88c.57-.32.55-.56.25-.85-.73-.72-1.45-1.46-2.19-2.18-.5-.49-1-.97-1.48-1.43-.51.27-.46.5-.17.79,1.19,1.21,2.38,2.43,3.58,3.67ZM16.08,73.59c-.38,1.58-.29,1.99.44,2.06.26-1.44.22-1.65-.44-2.06Z"/>
    <path d="M294.79,178.87v1.14h-17.74v2.79c-.34.05-.59.09-.97.15-.05-.96-.09-1.86-.14-2.74-.91-.24-27.48-.33-29.51-.1v2.74c-.4.02-.65.03-1.05.05v-2.82h-29.58v2.79h-1.07v-2.79h-29.57v2.79c-.36.02-.59.03-.97.05-.04-.92-.08-1.82-.12-2.7-.94-.28-28.27-.31-29.54-.03v2.65c-.35.03-.61.05-1.01.09v-2.83h-29.61v2.76h-1.01v-2.6c-.92-.3-28.02-.37-29.61-.09v2.71h-1.03v-2.62c-.92-.3-28.15-.36-29.59-.08v2.64c-.35.05-.6.08-1.01.13v-2.87c-.56-.03-.98-.07-1.41-.07-5.12,0-10.23,0-15.35,0-.58,0-1.13,0-1.41-.6-.14-.3-.27-.64-.27-.96-.03-1.68-.01-3.36-.01-5.04,0-4.76,0-9.51,0-14.27,0-.43,0-.87,0-1.45h-2.82c-.04-.4-.07-.66-.1-1.05h2.84v-61.64h-2.73c-.04-.35-.07-.61-.11-.99h2.85v-56.16h-2.79v-.93c.89-.04,1.79-.09,2.86-.14.01-3.78,0-7.51,0-11.25,0-3.76,0-7.51,0-11.27V2.93c.37-.02.67-.03,1.1-.06v176h250.47Z"/>
    <path d="M120.29,190.93c.31.02.63-.02.92.07,1.05.32,1.51,1.51.86,2.41-.55.77-1.27,1.42-1.81,2.02-1.39-1.38-2.71-2.69-4.13-4.09.33-.34.78-.83,1.27-1.28,1.38-1.27,2.47-.94,2.89.87ZM120.04,194.59c.51-.52.95-.92,1.33-1.37.38-.44.28-.89-.11-1.28-.36-.35-.79-.42-1.18-.09-.47.4-.9.85-1.28,1.21.45.56.82,1.02,1.24,1.53ZM117.1,191.23c.42.57.71.98,1.14,1.57.41-.5.72-.86,1.01-1.24.39-.51.41-.96.04-1.26-.46-.37-.88-.21-1.27.14-.32.29-.66.57-.92.79Z"/>
    <path d="M217.29,171.45c-.03,1.12-.99,1.97-2.17,1.92-1.11-.05-1.9-.94-1.85-2.07.05-1.07,1.02-1.97,2.06-1.91,1.05.06,1.98,1.05,1.95,2.07Z"/>
    <path d="M276.5,173.36c-1,.13-2.02-.76-2.04-2.02-.02-1.03,1-1.97,2.03-1.98,1.08,0,2.05.99,2.02,2.09-.03,1.11-.87,1.91-2.01,1.91Z"/>
    <path d="M184.68,173.36c-1.11.02-2.02-.82-2.08-1.89-.05-1.05.98-2.11,2.05-2.1,1.05,0,1.96.94,1.97,2.01,0,1.12-.81,1.96-1.94,1.98Z"/>
    <path d="M94.75,171.35c.02,1.12-.79,1.98-1.9,2.01-1.15.03-2.12-.88-2.1-1.98.01-1.02.99-1.99,2.01-2.01,1.05-.01,1.98.9,2,1.97Z"/>
    <path d="M125.42,171.4c0,1.05-.91,1.95-1.99,1.97-1.13.01-1.98-.79-2.01-1.9-.03-1.12.92-2.1,2.01-2.08,1.02.02,1.99,1,2,2.02Z"/>
    <path d="M155.99,171.41c0,1.14-.81,1.95-1.96,1.95-1.15,0-1.98-.79-2-1.92-.02-1.15.91-2.1,2.02-2.07,1.08.03,1.93.93,1.93,2.03Z"/>
    <path d="M64.13,171.4c0,1.12-.83,1.95-1.95,1.96-1.14.01-1.97-.78-2-1.9-.03-1.14.89-2.1,2-2.07,1.05.02,1.95.95,1.95,2.02Z"/>
    <path d="M247.83,71.12c0,1.09-.92,1.98-1.99,1.96-1.09-.03-1.93-.94-1.89-2.05.04-1.04.9-1.9,1.93-1.9,1.07,0,1.97.91,1.96,2Z"/>
    <path d="M247.84,171.4c0,1.12-.84,1.96-1.96,1.97-1.11,0-1.98-.85-1.98-1.95,0-1.07.91-2,1.97-2,1.07,0,1.97.9,1.97,1.99Z"/>
    <path d="M247.83,10.84c.01,1.09-.88,2.01-1.95,2.01-1.06,0-1.96-.93-1.94-2.02.01-1.05.84-1.9,1.88-1.94,1.07-.04,1.99.85,2.01,1.94Z"/>
    <path d="M94.75,75.37c-.02,1.08-.94,1.95-2.03,1.92-1.06-.03-1.89-.86-1.9-1.91-.01-1.09.88-1.99,1.96-1.99,1.06,0,1.99.93,1.97,1.99Z"/>
    <path d="M123.36,85.81c1.14-.01,1.98.8,1.98,1.92,0,1.06-.81,1.9-1.86,1.94-1.11.04-2.02-.79-2.06-1.87-.04-1.08.83-1.97,1.94-1.98Z"/>
    <path d="M64.09,56.6c.01,1.12-.82,1.95-1.95,1.95-1.08,0-1.9-.79-1.93-1.85-.04-1.1.8-2,1.9-2.02,1.1-.03,1.98.83,1.99,1.93Z"/>
    <path d="M215.77,185.85c-.22.07-.45.21-.66.18-.99-.15-1.63.34-2.02,1.15-.39.81-.09,1.55.45,2.21,1.18,1.45,2.89,1.39,3.75-.12.45-.79.4-.97-.45-1.61-.56.04-.7,1.13-1.51.64.56-.54,1.09-1.05,1.7-1.63.11.1.38.31.62.55.85.83.89,1.15.35,2.17-.67,1.26-1.85,1.9-3.14,1.71-1.15-.17-2.34-1.32-2.6-2.53-.25-1.15.2-2.03,1.06-2.74.73-.61,1.51-.84,2.36-.34l.08.34Z"/>
    <path d="M150.73,195.44c-1.36-1.36-2.66-2.65-3.97-3.95.56-.59,1.18-1.25,1.81-1.89.11-.11.27-.17.41-.24,1.01-.46,2.3,0,3.24,1.16.94,1.15,1.07,2.19.29,3.14-.52.64-1.18,1.18-1.78,1.78ZM147.73,191.37c1.08,1.08,2.07,2.06,3.08,3.07.61-.68,1.69-1.16,1.34-2.39-.31-1.06-1.05-1.85-2.12-2.08-1.13-.25-1.64.75-2.3,1.4Z"/>
    <path d="M150.81,187.19c.73-.7,1.53-1.47,2.33-2.25.24-.24.48-.47.84.07-.7.73-1.43,1.49-2.21,2.32.42.34.82.66,1.3,1.05.26-.26.62-.67,1.05-1.01.38-.31.57-1,1.38-.75-.38,1.06-1.44,1.49-1.97,2.42.44.41.89.83,1.4,1.31.74-.73,1.52-1.5,2.28-2.25.44.19.53.4.26.68-.86.88-1.73,1.75-2.54,2.56-1.37-1.39-2.67-2.72-4.1-4.16Z"/>
    <path d="M242.89,195.01c-.25.52-.5.51-.8.22-.48-.48-.96-.96-1.45-1.43-.36-.35-.74-.67-1.23-.19-.38.37-.38.88.06,1.39.45.51.95.96,1.42,1.46.23.24.21.26-.2.81-.57-.56-1.14-1.11-1.7-1.67-.36-.35-.73-.68-1.25-.31-.42.3-.42.94.05,1.49.44.52.94.98,1.42,1.46.28.28.18.49-.07.64-.96-.99-1.91-1.97-2.88-2.97.27-.16.69-.38.96-.89.22-.42.84-.63,1.42-1.02.02-.07.07-.35.19-.59.46-.86,1.25-1.06,1.97-.43.74.64,1.41,1.38,2.09,2.04Z"/>
    <path d="M87.88,196.98c-.36-.35-.75-.72-1.14-1.1-.23-.22-.45-.45-.68-.67-.31-.29-.66-.47-1.07-.19-.37.25-.46.83-.15,1.29.22.33.52.6.79.89.27.29.6.54.82.87.1.14-.02.42-.04.68-1.06-1.07-2.01-2.02-2.99-3,.53-.12.73-.69,1.09-1.14.28-.34.79-.48,1.3-.76.02-.1.05-.34.14-.55.44-.98,1.3-1.19,2.11-.5.54.47,1.03,1,1.53,1.51.16.17.3.36.44.52-.18.45-.43.5-.74.2-.51-.5-1.02-1.01-1.53-1.51-.34-.33-.71-.57-1.13-.16-.41.4-.41.87-.05,1.29.47.54.98,1.04,1.48,1.55.28.29.34.53-.19.8Z"/>
    <path d="M270.52,192.79c.03-.11.08-.39.21-.63.46-.84,1.26-1.01,1.98-.37.71.63,1.35,1.35,2.01,2.02-.12.47-.36.57-.68.28-.53-.48-1.02-1.01-1.54-1.51-.33-.32-.67-.61-1.14-.24-.41.33-.46.89-.05,1.38.43.52.93.98,1.41,1.46.24.25.45.5-.09.82-.23-.19-.5-.4-.74-.63-.32-.3-.62-.62-.93-.93-.38-.38-.76-.78-1.33-.36-.43.32-.37,1,.16,1.58.42.47.91.89,1.32,1.38.11.13.04.42.06.69-1.08-1.08-2.04-2.05-3.03-3.04.34-.15.71-.43.98-.92.22-.39.79-.58,1.41-.99Z"/>
    <path d="M145.51,200.58c-.2.45-.45.52-.76.22-.49-.47-.96-.96-1.45-1.43-.37-.36-.78-.64-1.24-.2-.41.4-.36.88,0,1.29.47.54.98,1.05,1.48,1.56.32.33.2.55-.07.68-.97-.98-1.91-1.94-2.89-2.94.42-.11.69-.48.98-.9.28-.41.84-.63,1.43-1.05.03-.09.1-.41.25-.67.45-.78,1.21-.95,1.91-.36.76.64,1.46,1.35,2.15,1.99-.27.5-.49.63-.82.3-.51-.51-1.02-1.02-1.53-1.52-.34-.33-.71-.54-1.15-.15-.38.34-.44.83-.06,1.28.56.67,1.19,1.27,1.77,1.89Z"/>
    <path d="M116.62,198.86c-.24.52-.49.49-.78.21-.48-.48-.95-.97-1.45-1.43-.56-.52-.87-.56-1.23-.2-.38.38-.41.89.05,1.39.54.58,1.16,1.09,1.73,1.61-.19.58-.42.73-.8.36-.54-.53-1.07-1.07-1.63-1.59-.33-.31-.73-.38-1.07-.04-.31.31-.38.71-.13,1.1.17.27.38.51.6.74.42.42.86.82,1.27,1.21-.17.56-.4.69-.79.33-.87-.82-1.73-1.64-2.77-2.62,1.32-.31,1.26-1.99,2.66-1.79.09-.32.13-.56.23-.77.46-1,1.28-1.2,2.1-.47.71.63,1.35,1.33,1.99,1.98Z"/>
    <path d="M56.38,197.84c-.36.61-.61.49-.88.22-.48-.48-.95-.96-1.44-1.43-.33-.31-.69-.59-1.15-.22-.43.34-.5.9-.05,1.37.57.6,1.25,1.11,1.8,1.6-.24.69-.48.83-.86.45-.48-.48-.95-.97-1.44-1.43-.52-.48-.92-.54-1.24-.19-.39.43-.33.89.02,1.3.47.54.99,1.04,1.47,1.57.22.24.2.25-.14.69-.95-.95-1.9-1.9-2.9-2.9.41-.27.87-.5,1.13-1.05.18-.38.8-.55,1.34-.89.03-.09.08-.37.2-.61.47-.92,1.24-1.08,2.05-.43.16.12.29.27.43.41.55.52,1.1,1.04,1.64,1.55Z"/>
    <path d="M182.31,194.36c-.28.55-.51.61-.82.3-.5-.51-1.01-1.02-1.52-1.52-.34-.34-.71-.56-1.14-.15-.42.39-.43.87-.07,1.28.57.66,1.19,1.28,1.78,1.91-.18.4-.39.56-.72.23-.51-.5-1.01-1.02-1.53-1.51-.32-.31-.66-.63-1.13-.23-.43.36-.48.85-.06,1.37.4.49.88.92,1.31,1.39.15.17.28.36.59.76-.45-.02-.75.06-.87-.05-.89-.84-1.75-1.72-2.72-2.68.56-.26.9-.52,1.16-.97.24-.41.81-.63,1.37-.8.03-.11.06-.22.09-.33.47-1.49,1.4-1.74,2.54-.66.58.54,1.15,1.1,1.74,1.67Z"/>
    <path d="M205.19,196.3c.51-.16.8-.49,1.08-.92.27-.41.84-.61,1.44-1.01,0,0,.01-.25.1-.46.41-.97,1.33-1.22,2.12-.53.63.55,1.19,1.18,1.79,1.77.28.28.17.48-.21.76-.58-.57-1.17-1.14-1.75-1.71-.35-.35-.72-.69-1.23-.28-.44.36-.43.93.05,1.48.45.51.95.97,1.43,1.45.25.26.23.49-.25.74-.4-.4-.84-.83-1.28-1.27-.17-.17-.33-.35-.51-.5-.34-.29-.7-.61-1.14-.18-.4.4-.42.87-.07,1.29.35.43.76.82,1.14,1.23.21.23.42.47.61.69-.25.57-.53.43-.83.13-.53-.54-1.06-1.08-1.61-1.6-.29-.27-.61-.51-.92-.76.02-.1.05-.21.07-.31Z"/>
    <path d="M18.17,132c.21.45.13.73-.31.74-1.74.02-3.48,0-5.29,0,0-1.01-.06-1.88.02-2.74.1-1.05.8-1.66,1.7-1.64.93.03,1.55.64,1.65,1.69.06.59.06,1.18.1,1.83.42.02.78.04,1.13.05.35.02.7.04,1.01.06ZM15.26,131.88c0-.74.05-1.33-.02-1.9-.06-.54-.46-.8-1.01-.78-.56.02-.92.31-.97.85-.06.61-.01,1.22-.01,1.84h2.01Z"/>
    <path d="M244.82,184.97c.18-.16.31-.28.36-.32,1.41,1.4,2.72,2.71,4.11,4.1-.11.18-.32.41-.71.03-.51-.49-1.02-.99-1.5-1.47-.73.68-1.39,1.3-2.09,1.96.63.66,1.2,1.26,1.78,1.87-.25.55-.53.51-.89.15-1.19-1.18-2.38-2.34-3.62-3.56.28-.39.46-.66.86-.28.43.41.85.82,1.27,1.23.65-.7,1.27-1.35,1.96-2.09-.41-.43-.91-.97-1.53-1.63Z"/>
    <path d="M12.33,85.35c1.04,0,1.82,0,2.61,0,.56,0,1.12.01,1.66-.08.85-.15,1.23-.67,1.19-1.51-.04-.88-.42-1.28-1.35-1.32-1.07-.05-2.15-.02-3.23-.04-.39,0-.74-.05-.6-.68.19-.04.41-.13.63-.12,1.23.03,2.47,0,3.68.16,1.06.15,1.55.95,1.55,2.08,0,1.13-.53,2-1.55,2.11-1.34.14-2.7.08-4.05.07-.12,0-.25-.29-.55-.67Z"/>
    <path d="M96.68,188.13c-.26.64-.61.64-1.07.4-.35-.18-.73-.3-1.12-.45-.51.55-1,1.06-1.55,1.64-.15.62,1.03,1.25.13,2.26-.85-1.88-1.63-3.56-2.37-5.26-.07-.17-.02-.52.1-.62.18-.14.53-.23.73-.15,1.72.7,3.42,1.45,5.15,2.19ZM93.83,187.72c-.86-.39-1.51-.69-2.44-1.11.45.96.77,1.63,1.12,2.37.47-.45.82-.79,1.31-1.26Z"/>
    <path d="M15.16,56.85c-.17-.32-.25-.45-.31-.59-.47-1.13-.11-2.02.96-2.4,1.04-.37,2.2.15,2.54,1.14.31.89-.14,1.9-1.08,2.23-1.2.42-2.43.4-3.61-.11-.75-.33-1.22-1.09-1.1-1.81.12-.69.4-1.3,1.37-1.36-.06.26-.04.51-.16.64-.89.95-.74,1.64.49,2.06.22.07.45.11.9.21ZM16.45,56.64c.83,0,1.39-.45,1.38-1.12-.01-.61-.59-1.08-1.32-1.08-.69,0-1.3.51-1.32,1.1-.02.64.51,1.1,1.26,1.11Z"/>
    <path d="M18.23,86.71c.18,1.35-1.12.93-1.59,1.63v2.12c.34.6,1.61.14,1.65,1.44-.54-.19-.97-.33-1.39-.49-1.3-.49-2.61-.97-3.9-1.49-.2-.08-.4-.37-.43-.59-.02-.15.21-.42.39-.5,1.72-.71,3.45-1.4,5.26-2.13ZM13.38,89.37c.93.34,1.64.61,2.43.9v-1.79c-.8.29-1.5.55-2.43.89Z"/>
    <path d="M124.06,185.53c-.02.57-.31.62-.66.52-.8-.22-1.43.02-1.84.73-.44.75-.29,1.48.24,2.11.33.39.71.76,1.13,1.04.66.44,1.47.4,2.01-.04.59-.48.8-1.09.53-1.81-.16-.43-.26-.79.39-.81.64,1.06.64,1.8,0,2.63-.71.93-1.7,1.3-2.73.97-1.08-.35-1.87-1.06-2.34-2.09-.44-.98-.19-2.09.6-2.85.77-.73,1.62-.97,2.65-.39Z"/>
    <path d="M15.56,62.55c.6.11,1.16.17,1.68.33.76.24,1.23.9,1.23,1.6,0,.71-.46,1.34-1.23,1.59-1.13.37-2.27.38-3.4.02-.78-.25-1.26-.86-1.29-1.56-.03-.73.45-1.42,1.29-1.67.56-.17,1.16-.22,1.72-.32ZM15.5,63.26c-.48.08-.99.14-1.49.26-.51.12-.83.45-.81,1.02.02.52.36.78.81.89.98.23,1.96.24,2.94.02.51-.12.87-.41.86-.98,0-.57-.36-.86-.87-.97-.46-.1-.93-.16-1.45-.25Z"/>
    <path d="M29.86,37.53c-.13.61-.21,1.25-.41,1.84-.23.67-.81,1.02-1.48,1.03-.72.01-1.31-.33-1.57-1.06-.43-1.24-.44-2.5,0-3.73.25-.71.79-1.08,1.55-1.08.77,0,1.3.41,1.53,1.11.19.59.25,1.23.38,1.89ZM26.8,37.46c.06.51.07,1.03.2,1.53.11.43.38.8.91.81.52.01.82-.31.95-.75.32-1.05.32-2.11.01-3.16-.14-.47-.45-.74-.95-.74-.51,0-.82.33-.92.78-.11.5-.13,1.02-.2,1.54Z"/>
    <path d="M38.72,37.4c-.1.59-.15,1.19-.32,1.75-.24.8-.86,1.25-1.56,1.26-.7.02-1.34-.42-1.6-1.21-.38-1.16-.39-2.35,0-3.51.27-.81.86-1.19,1.61-1.18.74.01,1.3.41,1.56,1.24.17.52.21,1.08.32,1.64ZM35.68,37.46c.05.47.06,1,.18,1.49.1.43.36.81.88.84.58.03.88-.33,1.02-.82.29-1.01.28-2.03,0-3.05-.13-.47-.43-.77-.93-.78-.57-.01-.88.36-.99.86-.1.46-.11.94-.16,1.46Z"/>
    <path d="M29.86,94.6c-.13.62-.21,1.25-.41,1.84-.22.67-.8,1.02-1.47,1.03-.72.01-1.32-.32-1.57-1.06-.43-1.24-.44-2.5,0-3.73.25-.71.79-1.08,1.55-1.08.77,0,1.3.41,1.53,1.11.19.59.25,1.23.38,1.89ZM29.13,94.53c-.09-.52-.15-1.07-.29-1.6-.12-.48-.49-.8-.96-.68-.33.08-.82.42-.84.67-.1,1.05-.1,2.12-.03,3.17.03.43.39.78.92.78.51,0,.81-.34.93-.78.13-.49.18-1.01.27-1.56Z"/>
    <path d="M38.73,94.6c-.13.62-.21,1.25-.41,1.84-.22.67-.8,1.02-1.47,1.03-.72.01-1.32-.32-1.57-1.06-.43-1.24-.44-2.5,0-3.73.25-.71.79-1.08,1.55-1.08.77,0,1.3.41,1.53,1.11.19.59.25,1.23.38,1.89ZM35.68,94.59c.05.45.05.94.16,1.4.12.48.39.89.97.88.51,0,.79-.34.93-.79.3-1.01.29-2.03.02-3.05-.13-.51-.45-.84-1.02-.81-.57.03-.83.44-.93.93-.09.46-.09.95-.14,1.44Z"/>
    <path d="M38.73,157.24c-.12.63-.18,1.27-.39,1.86-.24.7-.79,1.08-1.55,1.07-.77,0-1.29-.39-1.53-1.1-.41-1.2-.41-2.42-.01-3.62.24-.72.79-1.09,1.52-1.14.72-.05,1.34.38,1.61,1.18.18.56.24,1.15.35,1.76ZM35.65,157.23c.08.57.07,1.15.27,1.65.12.3.54.59.87.67.4.1.76-.2.9-.62.37-1.13.4-2.28-.03-3.38-.11-.29-.59-.61-.89-.6-.29.01-.71.37-.83.67-.2.5-.2,1.08-.29,1.62Z"/>
    <path d="M34.28,37.45c-.11.62-.16,1.22-.34,1.78-.25.77-.92,1.24-1.62,1.17-.72-.07-1.29-.43-1.52-1.15-.4-1.21-.42-2.43.02-3.63.25-.69.78-1.1,1.54-1.1.77,0,1.31.39,1.54,1.09.2.59.26,1.23.37,1.84ZM31.17,37.52c.1.53.12,1.11.33,1.6.13.3.57.63.87.63.3,0,.76-.33.87-.62.39-1.06.36-2.18.05-3.27-.13-.45-.49-.73-.99-.71-.45.02-.75.28-.85.71-.12.54-.19,1.09-.29,1.67Z"/>
    <path d="M34.28,94.53c-.11.62-.16,1.22-.34,1.78-.25.77-.92,1.24-1.62,1.17-.72-.07-1.29-.43-1.53-1.15-.4-1.21-.42-2.43.02-3.63.25-.69.78-1.1,1.54-1.1.77,0,1.31.38,1.54,1.09.2.59.26,1.23.37,1.84ZM31.16,94.53c.11.55.17,1.14.34,1.71.12.4.46.72.9.61.31-.08.71-.31.81-.58.43-1.14.42-2.33.01-3.48-.14-.4-.53-.66-.95-.54-.3.09-.66.35-.77.62-.2.5-.23,1.07-.34,1.67Z"/>
    <path d="M34.25,157.13c-.08.63-.09,1.16-.22,1.65-.23.9-.89,1.4-1.7,1.38-.81-.02-1.33-.44-1.6-1.34-.33-1.1-.32-2.2.04-3.28.26-.79.86-1.23,1.58-1.25.72-.02,1.34.4,1.6,1.2.18.56.22,1.16.31,1.64ZM31.16,157.24c.11.59.17,1.14.32,1.68.11.42.47.71.89.64.31-.05.72-.29.83-.55.46-1.14.45-2.34.02-3.48-.11-.28-.59-.56-.91-.58-.26-.01-.67.32-.77.59-.21.54-.26,1.15-.37,1.71Z"/>
    <path d="M59.93,190.66c-.83-.37-1.19-.34-1.48.21-.21.42-.27.91-.42,1.47-.64-.49-.54-1.01-.3-1.45.2-.37.51-.72.84-.98.65-.52,1.11-.55,1.69.05.66.68,1.21,1.48,1.88,2.19-.53.03-.84.66-1.2,1.25-.14.22-.39.41-.64.51-.47.19-.95.18-1.31-.23-.39-.45-.35-.98-.09-1.45.3-.54.68-1.03,1.03-1.56ZM60.35,191.2c-.23.33-.46.65-.68.98-.07.1-.16.21-.16.31,0,.22-.02.57.1.63.2.11.55.14.75.03.76-.41.75-1.2,0-1.95Z"/>
    <path d="M13.83,52.87c-1.21-.59-1.58-1.53-1.03-2.51.47-.85,1.24-.95,2.41-.28.6-.79,1.42-.94,2.3-.53.67.31,1.06,1.19.93,1.93-.14.82-.54,1.2-1.49,1.41-.38-.58.21-.62.47-.85.46-.41.54-1.03.21-1.5-.29-.41-.94-.63-1.39-.39-.26.14-.46.42-.61.68-.11.19-.09.45-.18.96-.28-.35-.46-.51-.54-.7-.18-.45-.42-.83-.94-.73-.27.05-.61.28-.71.51-.2.47-.1.95.42,1.23.3.17.58.34.14.78Z"/>
    <path d="M24.54,37.14c.83.62,1.02,1.39.61,2.26-.34.72-1.03,1.04-1.77,1-.85-.05-1.52-.46-1.68-1.42.48-.39.67-.05.88.33.31.54.81.61,1.35.41.46-.18.8-.8.62-1.29-.12-.33-.44-.61-.73-.83-.19-.14-.49-.14-.78-.42.21-.11.41-.22.63-.32.39-.18.73-.44.63-.9-.06-.27-.26-.6-.5-.72-.42-.22-.87-.12-1.16.29-.19.26-.3.6-.81.31.05-.71.5-1.07,1.15-1.26.67-.19,1.45.08,1.82.61.38.52.32,1.01-.26,1.96Z"/>
    <path d="M28.95,156.93c.91.85,1.07,1.69.52,2.46-.51.72-1.56,1.02-2.35.6-.33-.18-.61-.49-.84-.81-.09-.12.06-.4.1-.61.16.07.33.13.48.22.06.03.06.14.1.21.31.52.76.68,1.32.5.52-.17.77-.58.76-1.1,0-.58-.31-.98-.9-1.1-.19-.04-.38-.05-.73-.09.22-.25.33-.51.5-.54.53-.13.93-.4.85-.96-.04-.29-.36-.65-.63-.76-.51-.2-.9.1-1.19.55-.11.16-.36.23-.7.42.29-1.16.61-1.5,1.42-1.58.68-.07,1.26.13,1.65.74.36.57.28.96-.36,1.86Z"/>
    <path d="M18.43,109.1c-.46.59-.46,1.09-.19,1.61.09.16.07.39.07.59-.01.73-.38,1.23-.96,1.33-.57.09-1.1-.28-1.29-.98-.16-.57-.24-1.16-.35-1.73-.81.04-1,.37-1.01,1.07,0,.59.94.71.59,1.41-.98-.36-1.3-.99-1.11-2.15.14-.86.48-1.12,1.51-1.14.83-.01,1.66,0,2.75,0ZM16.31,109.82c.11.59.13,1.07.3,1.5.09.23.42.38.64.56.18-.24.46-.46.51-.72.13-.72-.35-1.17-1.45-1.34Z"/>
    <path d="M18.35,119.65c-.37.62-.25,1.2-.08,1.79.07.25.03.56-.02.83-.09.53-.44.85-.97.91-.53.06-.93-.22-1.13-.7-.13-.33-.18-.69-.26-1.04-.07-.34-.14-.68-.2-1.02-.81.15-1.11.44-.96,1.06.12.48.43.91.71,1.46-.8.03-1.07-.41-1.19-.91-.1-.42-.11-.87-.05-1.3.09-.74.44-1.04,1.2-1.07.95-.03,1.9,0,2.96,0ZM16.3,120.38c.12.63.18,1.14.33,1.62.06.18.36.44.5.41.22-.05.5-.26.59-.48.3-.73-.26-1.39-1.42-1.55Z"/>
    <path d="M183.92,188.12c.68-.51,1.36-1.02,2.04-1.52.01,0,.11.1.29.27-.56.62-1.13,1.24-1.8,1.99.63.51,1.24,1.01,1.78,1.44-.23.67-.45.88-.84.5-1.22-1.2-2.43-2.41-3.74-3.71.5-.51.94-.94,1.37-1.4.41-.43.79-.89,1.15-1.29.57.22.65.45.34.76-.58.59-1.16,1.18-1.79,1.82.45.43.84.8,1.22,1.15Z"/>
    <path d="M15.69,98.25c-.85.18-1.12.44-.96,1.06.12.48.43.9.69,1.42-.68.08-1.01-.26-1.1-.67-.12-.57-.16-1.18-.08-1.75.1-.65.68-.85,1.26-.87.9-.03,1.8,0,2.89,0-.6.65-.33,1.22-.15,1.81.08.25.04.55,0,.82-.09.53-.4.85-.96.9-.54.05-.95-.17-1.15-.66-.13-.33-.18-.69-.26-1.04-.07-.34-.13-.67-.2-1.01ZM16.26,98.03c.16.81.2,1.28.36,1.72.07.21.44.5.55.46.24-.1.54-.37.57-.61.04-.32-.06-.74-.27-.97-.22-.25-.63-.32-1.21-.59Z"/>
    <path d="M63.75,186.93c-.54.58-1.11,1.18-1.75,1.85.5.51.97.98,1.42,1.47.21.23.19.24-.07.64-1.3-1.29-2.61-2.61-4-3.99.79-.67,1.72-1.47,2.76-2.36.16.05.17.3-.12.6-.57.6-1.16,1.18-1.77,1.81.44.44.83.83,1.28,1.28.51-.51.99-.98,1.46-1.46.28-.29.53-.35.78.13Z"/>
    <path d="M16.41,124v2.94c.71.03,1.1-.25,1.28-.79.17-.51,0-.94-.44-1.25-.3-.21-.49-.43-.12-.74,1.04.44,1.4,1.17,1.12,2.24-.25.96-1.21,1.5-2.37,1.34-1.08-.15-1.75-.89-1.74-1.93.01-1.1.68-1.69,2.27-1.81ZM15.78,124.74c-.76.16-1.1.55-1.05,1.18.05.55.31.97,1.05.93v-2.11Z"/>
    <path d="M16.37,104.66c1.46-.36,1.76-1.14.92-2.02-.22-.24-.54-.38-.21-.75,1.05.31,1.44,1.02,1.18,2.15-.23.98-1.14,1.54-2.31,1.4-1.14-.13-1.84-.9-1.8-1.99.04-1.1.75-1.68,2.23-1.74v2.94ZM15.78,102.49c-.69,0-1.01.4-1.07,1.02-.05.55.27.84,1.07,1.01v-2.03Z"/>
    <path d="M12.55,118.3c.22-.83.89-.43,1.35-.49.5-.06,1.01-.01,1.58-.01-.18-.95-1.49-1.13-1.24-2.31.54.47,1,.89,1.48,1.31.82-.52,1.62-1.02,2.6-1.64-.08,1.46-1.5,1.38-1.96,2.25.37.83,1.54-.05,1.98.78-.85.36-4.59.41-5.8.1Z"/>
    <path d="M56.86,197.4c-.2-.86-.37-1.61-.56-2.43-.72-.17-1.43-.34-2.24-.53.64-.94,1.39-.2,2.01-.34.33-.6-.62-1.47.44-2.04.16.78.3,1.46.45,2.21.78.17,1.55.34,2.32.5q-.25.48-2.09.4c-.25.67.67,1.51-.33,2.23Z"/>
    <path d="M276.67,189.54c.39-.09.65-.24.8-.16.5.25.93.28,1.23-.24.27-.47,0-.85-.32-1.16-.94-.91-1.89-1.82-2.81-2.71.25-.65.51-.72.9-.32.84.85,1.71,1.67,2.52,2.55.8.86.82,1.6.11,2.31-.54.54-1.31.89-2.42-.26Z"/>
    <path d="M18.46,68.78h-4.43c.22.51.4.91.67,1.54-1.19-.34-1.38-1.44-2.22-1.89.67-.29,4.99-.44,5.6-.21.11.04.16.23.37.56Z"/>
    <path d="M22.19,93.67c-.05-.84.58-.87.88-1.2.29-.31.61-.59,1.03-1,.07.35.15.56.15.77.01,1.47,0,2.94,0,4.41,0,.35.04.78-.67.59v-4.17c-.52.22-.89.39-1.39.6Z"/>
    <path d="M12.42,59.24c2.1.11,3.95-.17,5.79.19.04,0,.04.21.08.45h-4.31c.26.53.44.91.63,1.29q-.68.11-2.2-1.93Z"/>
    <path d="M19.89,92.71c-1.39,1.99-5.91,2.06-7.43-.21,1.33.51,2.51,1.19,3.84,1,1.22-.18,2.42-.52,3.59-.78Z"/>
    <path d="M12.55,80.18c1.25-2.11,6.1-2.05,7.37-.02-4.51-1.31-3.62-1.04-7.37.02Z"/>
    <path d="M277.3,191.24c-.31.68-.58.54-.88.23-.78-.79-1.57-1.58-2.36-2.36-.4-.39-.82-.75-1.2-1.08.15-.59.37-.77.76-.39.52.49,1.01,1.01,1.52,1.51.71.69,1.43,1.38,2.16,2.09Z"/>
    <path d="M92.59,192.25c-.21.48-.43.59-.75.27-.45-.45-.9-.9-1.35-1.35-.77-.75-1.54-1.49-2.31-2.23.14-.51.35-.75.75-.36,1.24,1.22,2.46,2.46,3.66,3.67Z"/>
    <path d="M241.46,188.55c.97.97,1.95,1.94,2.92,2.92.28.28.6.54.82.86.1.14,0,.42,0,.64-.09.03-.17.05-.26.08-1.25-1.26-2.51-2.51-3.74-3.78-.1-.11,0-.41,0-.62.09-.03.18-.06.27-.09Z"/>
    <path d="M148.54,197.57c-.31.55-.56.52-.84.23-1.2-1.2-2.4-2.4-3.6-3.6.2-.55.46-.58.8-.24,1.21,1.19,2.41,2.39,3.64,3.6Z"/>
    <path d="M180.58,188.02c1.42,1.43,2.73,2.75,4.12,4.16-.2,0-.51.1-.62,0-1.2-1.16-2.39-2.35-3.55-3.56-.09-.09.02-.38.05-.6Z"/>
    <path d="M213.25,194.07c-.3.56-.55.55-.84.26-1.21-1.2-2.42-2.41-3.66-3.63.24-.45.44-.62.82-.24,1.21,1.2,2.44,2.39,3.68,3.61Z"/>
    <path d="M14.16,107.87c.05-.54.3-.9.06-1.34-.18-.32-.1-.8.51-.75.37,1.36.41,1.39,1.88,1.4.55,0,1.1,0,1.61,0,.16.57-.09.69-.47.69-1.15,0-2.3,0-3.59,0Z"/>
    <path d="M119.11,196.38c-.18.44-.4.54-.72.22-1.24-1.22-2.49-2.44-3.7-3.63.27-.64.55-.53.86-.22,1.01,1.01,2.02,2.02,3.03,3.03.19.19.36.41.53.59Z"/>
    <path d="M244.16,193.78c-.28.48-.52.49-.82.19-1.21-1.21-2.42-2.4-3.65-3.62.19-.39.39-.62.72-.3,1.27,1.24,2.52,2.5,3.75,3.73Z"/>
    <path d="M91.36,193.53c-.23.43-.45.56-.78.24-1.23-1.23-2.47-2.46-3.68-3.67.23-.42.45-.57.78-.24,1.23,1.23,2.47,2.46,3.68,3.67Z"/>
    <path d="M183.42,193.39c-.14.36-.41.25-.72-.06-.78-.79-1.57-1.57-2.35-2.35-.34-.34-.7-.65-.99-1.02-.11-.14-.05-.42-.06-.6,1.4,1.37,2.74,2.67,4.13,4.03Z"/>
    <path d="M117.7,198.12c-1.48-1.47-2.8-2.79-4.22-4.21.23-.02.54-.14.65-.04,1.21,1.16,2.39,2.35,3.56,3.55.1.1.01.38.01.7Z"/>
    <path d="M214.37,193.19c-.22-.02-.51.04-.64-.08-1.26-1.21-2.49-2.46-3.69-3.66.23-.55.47-.53.77-.24,1.22,1.2,2.44,2.41,3.66,3.61-.03.12-.07.24-.1.36Z"/>
    <path d="M275.91,192.92c-.22-.04-.5,0-.63-.12-1.25-1.21-2.48-2.45-3.7-3.66.22-.43.44-.57.77-.25,1.24,1.23,2.47,2.46,3.71,3.69-.05.11-.1.23-.15.34Z"/>
    <path d="M149.21,196.88c-1.2-1.23-2.39-2.45-3.58-3.67-.29-.29-.34-.52.17-.79.47.46.98.94,1.48,1.43.73.72,1.45,1.46,2.19,2.18.29.29.31.53-.25.85Z"/>
    <path d="M16.08,73.59c.66.41.7.62.44,2.06-.73-.07-.82-.49-.44-2.06Z"/>
    <path class="cls-8" d="M120.04,194.59c-.42-.51-.79-.97-1.24-1.53.38-.36.81-.81,1.28-1.21.4-.33.82-.26,1.18.09.39.38.49.84.11,1.28-.39.45-.83.85-1.33,1.37Z"/>
    <path class="cls-8" d="M117.1,191.23c.26-.22.59-.5.92-.79.39-.35.81-.51,1.27-.14.37.3.35.75-.04,1.26-.29.37-.59.73-1.01,1.24-.43-.59-.72-1-1.14-1.57Z"/>
    <path class="cls-8" d="M147.73,191.37c.66-.65,1.17-1.65,2.3-1.4,1.07.24,1.82,1.02,2.12,2.08.35,1.23-.72,1.71-1.34,2.39-1.02-1.01-2-1.99-3.08-3.07Z"/>
    <path class="cls-8" d="M15.26,131.88h-2.01c0-.62-.04-1.23.01-1.84.05-.54.4-.83.97-.85.56-.02.95.24,1.01.78.07.58.02,1.17.02,1.9Z"/>
    <path class="cls-8" d="M93.83,187.72c-.49.47-.85.81-1.31,1.26-.35-.74-.67-1.41-1.12-2.37.92.42,1.58.72,2.44,1.11Z"/>
    <path class="cls-8" d="M16.45,56.64c-.75,0-1.28-.47-1.26-1.11.02-.59.63-1.1,1.32-1.1.73,0,1.31.48,1.32,1.08.01.68-.55,1.13-1.38,1.12Z"/>
    <path class="cls-8" d="M13.38,89.37c.94-.34,1.64-.6,2.43-.89v1.79c-.79-.29-1.51-.56-2.43-.9Z"/>
    <path class="cls-8" d="M15.5,63.26c.51.09.98.15,1.45.25.51.11.87.4.87.97,0,.57-.36.86-.86.98-.98.22-1.97.22-2.94-.02-.45-.11-.79-.37-.81-.89-.02-.57.3-.89.81-1.02.5-.12,1.01-.18,1.49-.26Z"/>
    <path class="cls-8" d="M26.8,37.46c.06-.52.08-1.04.2-1.54.1-.45.41-.78.92-.78.5,0,.82.27.95.74.3,1.05.31,2.12-.01,3.16-.14.44-.44.76-.95.75-.52-.01-.8-.37-.91-.81-.12-.49-.14-1.02-.2-1.53Z"/>
    <path class="cls-8" d="M35.68,37.46c.05-.51.06-1,.16-1.46.11-.5.42-.87.99-.86.5,0,.8.31.93.78.28,1.02.29,2.04,0,3.05-.14.49-.44.85-1.02.82-.52-.03-.78-.41-.88-.84-.12-.5-.13-1.02-.18-1.49Z"/>
    <path class="cls-8" d="M29.13,94.53c-.09.55-.14,1.07-.27,1.56-.12.45-.41.77-.93.78-.52,0-.89-.34-.92-.78-.07-1.05-.07-2.12.03-3.17.02-.26.51-.59.84-.67.47-.12.84.21.96.68.13.53.2,1.08.29,1.6Z"/>
    <path class="cls-8" d="M35.68,94.59c.04-.5.05-.98.14-1.44.09-.49.35-.9.93-.93.57-.03.88.3,1.02.81.27,1.02.28,2.04-.02,3.05-.13.44-.42.78-.93.79-.58,0-.86-.4-.97-.88-.11-.46-.11-.94-.16-1.4Z"/>
    <path class="cls-8" d="M35.65,157.23c.08-.54.09-1.12.29-1.62.12-.3.54-.66.83-.67.3-.01.78.31.89.6.43,1.1.4,2.25.03,3.38-.14.42-.49.72-.9.62-.33-.08-.75-.37-.87-.67-.2-.5-.19-1.08-.27-1.65Z"/>
    <path class="cls-8" d="M31.17,37.52c.1-.58.16-1.13.29-1.67.1-.42.4-.69.85-.71.5-.02.86.25.99.71.31,1.09.35,2.21-.05,3.27-.11.29-.57.62-.87.62-.3,0-.74-.33-.87-.63-.22-.49-.24-1.07-.33-1.6Z"/>
    <path class="cls-8" d="M31.16,94.53c.11-.6.14-1.17.34-1.67.11-.27.47-.53.77-.62.42-.12.8.14.95.54.41,1.16.42,2.34-.01,3.48-.1.26-.5.5-.81.58-.44.11-.78-.21-.9-.61-.17-.56-.24-1.16-.34-1.71Z"/>
    <path class="cls-8" d="M31.16,157.24c.11-.56.16-1.16.37-1.71.1-.27.52-.6.77-.59.32.02.81.29.91.58.43,1.14.44,2.34-.02,3.48-.11.26-.52.5-.83.55-.42.07-.77-.22-.89-.64-.14-.53-.21-1.09-.32-1.68Z"/>
    <path class="cls-8" d="M60.35,191.2c.75.75.75,1.54,0,1.95-.2.11-.55.08-.75-.03-.12-.06-.1-.41-.1-.63,0-.1.1-.21.16-.31.22-.33.45-.65.68-.98Z"/>
    <path class="cls-8" d="M16.31,109.82c1.1.16,1.58.62,1.45,1.34-.05.26-.33.48-.51.72-.22-.18-.55-.33-.64-.56-.17-.43-.19-.91-.3-1.5Z"/>
    <path class="cls-8" d="M16.3,120.38c1.16.16,1.72.82,1.42,1.55-.09.21-.36.43-.59.48-.14.03-.44-.23-.5-.41-.15-.48-.21-.99-.33-1.62Z"/>
    <path class="cls-8" d="M16.26,98.03c.58.27.99.35,1.21.59.21.23.31.66.27.97-.03.23-.33.51-.57.61-.11.05-.48-.25-.55-.46-.16-.43-.2-.91-.36-1.72Z"/>
    <path class="cls-8" d="M15.78,124.74v2.11c-.74.04-1-.38-1.05-.93-.05-.64.3-1.03,1.05-1.18Z"/>
    <path class="cls-8" d="M15.78,102.49v2.03c-.8-.17-1.12-.47-1.07-1.01.06-.62.38-1.01,1.07-1.02Z"/>
  </g>
  <g>
    <path class="cls-8" d="M297.64,439.23H0v-223.23h297.64v223.23ZM39.5,287.15h-2.89c-.23.79-.02,1.1.67,1.08.73-.02,1.46,0,2.15,0,.26,1.62.2,55.71-.08,56.75h-2.78v1.07h3.01v1.7c0,17.39,0,34.77,0,52.16,0,1.67.25,1.92,1.91,1.92,7.11,0,14.22,0,21.33,0h1.44v2.91c.98.18,1,.18,1.04-.53.04-.77.05-1.54.07-2.31h40.06v2.91c.75.24,1.01.03,1.01-.59,0-.77.03-1.54.05-2.32h40.03c0,.8-.02,1.54,0,2.27.03.79.1.82,1.1.5v-2.76h39.98v2.98c.41-.02.71-.03,1.12-.05v-2.87c1.77-.27,39.12-.19,40.08.11v2.84c.39-.05.65-.08,1.02-.13v-2.9h40.05c0,.83-.02,1.6,0,2.38.03.68.08.69,1.07.42v-2.87h24.1c-.05-.43-.08-.73-.11-.98-.13-.07-.17-.09-.2-.11-.04-.01-.08-.02-.12-.03-.04,0-.08-.01-.12-.02-.04,0-.08,0-.12,0-.04,0-.08,0-.12,0-.04,0-.08,0-.12,0-84.05,0-168.1,0-252.15,0-.08,0-.17,0-.25,0-.04,0-.08,0-.12,0s-.08,0-.12,0c-.08,0-.17,0-.25-.01-.04,0-.08,0-.12-.02-.04,0-.08-.02-.12-.04-.04-.02-.08-.03-.1-.06-.03-.03-.05-.06-.21-.26v-181.34c-.75-.29-1.07-.11-1.06.58,0,.25,0,.5,0,.74,0,2.56,0,5.12,0,7.68,0,.44-.04.87-.08,1.44h-2.94v.95h2.94v56.82ZM228.36,230.31c-1.31,1.34-1.46,2.52-.53,3.42.78.76,2,.78,2.8.04.96-.88.82-2.06-.47-3.5,1.54-.86,1.09-2.33,1.02-3.64-.04-.88-.91-1.48-1.84-1.51-.99-.03-1.93.52-2.03,1.44-.14,1.32-.48,2.76,1.05,3.74ZM102.52,417.96c.71-.77,1.44-1.45,2.03-2.23.61-.82.27-2.02-.63-2.39-.36-.15-.8-.15-1.2-.21-.18-1.73-1.78-2.21-3.02-.84-.46.51-.96.99-1.4,1.44,1.42,1.42,2.75,2.77,4.22,4.24ZM139.61,413.56c1.42,1.43,2.78,2.79,4.09,4.11.5-.47,1.13-1,1.69-1.6.74-.79.8-1.76.23-2.63-.44-.67-1.04-1.29-1.7-1.74-.98-.67-1.82-.56-2.72.23-.62.54-1.15,1.17-1.59,1.62ZM146.99,395.05c1.09.02,2.06-.91,2.1-2.01.03-1.14-.83-2.07-1.96-2.12-1.14-.05-2.2.93-2.2,2.05,0,1.06.98,2.06,2.06,2.08ZM150.91,410.46c-.34-.02-.63-.12-.77-.02-.33.23-.6.56-.89.85-.46.44-.92.88-1.42,1.35-.53-.55-.95-.97-1.39-1.42.81-.84,1.51-1.56,2.19-2.26-.17-.2-.23-.32-.27-.31-1.16.2-1.49,1.53-2.58,1.94-.37-.38-.72-.75-1.13-1.18.76-.74,1.41-1.37,2.06-2,.29-.28.37-.54.09-.68-1.08.96-2.1,1.88-2.99,2.67,1.4,1.41,2.76,2.76,4.12,4.12.89-.91,1.86-1.9,2.99-3.05ZM188.16,390.92c-1.13-.01-2.06.88-2.09,2-.03,1.15.97,2.16,2.11,2.13,1.09-.03,2.05-1,2.05-2.09,0-1.09-.96-2.04-2.07-2.05ZM272.4,392.97c0-1.12-.93-2.05-2.05-2.04-1.14,0-2.02.9-2.02,2.06,0,1.14.91,2.07,2.03,2.06,1.09,0,2.04-.97,2.04-2.08ZM64.85,395.05c1.1-.03,2.03-1.01,2-2.12-.03-1.13-.97-2.03-2.09-2-1.13.03-2.01.95-1.99,2.09.02,1.1,1.01,2.06,2.08,2.03ZM105.88,390.94c-1.12.02-2.01.96-1.97,2.1.03,1.07.93,1.96,1.99,1.97,1.1.02,2.04-.93,2.03-2.05,0-1.13-.93-2.04-2.05-2.02ZM231.26,238.66c.02-1.13-.88-2.07-2-2.08-1.12,0-2.04.92-2.03,2.05,0,1.05.89,1.98,1.94,2.03,1.1.05,2.06-.87,2.08-2ZM270.3,249.87c1.1.04,2.06-.89,2.07-2.01.01-1.08-.82-1.99-1.89-2.07-1.09-.08-2.09.83-2.13,1.95-.04,1.14.83,2.09,1.95,2.13ZM105.91,361.43c-1.14,0-2.02.9-2,2.05.02,1.15.91,1.98,2.08,1.95,1.11-.03,1.93-.86,1.94-1.97,0-1.14-.88-2.03-2.02-2.03ZM66.81,361.78c-.02-1.12-.99-2.05-2.09-2-1.05.05-1.94.98-1.95,2.03-.01,1.1.94,2.06,2.04,2.06,1.12,0,2.02-.95,2-2.08ZM272.37,236.98c0-1.15-.9-2-2.06-1.98-1.11.02-1.95.86-1.97,1.95-.02,1.14.86,2.05,2,2.06,1.13,0,2.03-.89,2.02-2.03ZM105.96,375.01c1.13-.03,2-.96,1.96-2.11-.03-1.07-.94-1.96-1.99-1.97-1.1-.01-2.04.94-2.03,2.06,0,1.14.93,2.04,2.06,2.02ZM229.78,407.88c-1.76-1.04-3.85.51-3.72,2.4.11,1.48,1.6,3.01,3.05,3.14,1.4.12,2.98-1.13,3.29-2.65.05-.26.06-.63-.09-.8-.4-.49-.9-.9-1.4-1.38-.63.66-1.15,1.2-1.72,1.8q.62.21,1.86-.74c.22.24.46.51.67.75-.29,1.26-.9,2.13-2.1,2.28-1.1.13-1.83-.62-2.4-1.47-.47-.71-.57-1.46-.06-2.19.47-.67,1.05-1.15,1.98-.93.18.04.42-.12.63-.19ZM221.4,416.78c-.5.28-1.04.42-1.32.77-.38.46-.61,1.04-1.08,1.17,1,1,1.98,1.98,3.07,3.07,0-.26.09-.56-.02-.69-.36-.45-.81-.82-1.2-1.24-.71-.75-.83-1.4-.36-1.82.4-.36.79-.22,1.56.53.52.5,1.04,1,1.59,1.53.3-.64.31-.65.15-.82-.49-.51-1.01-.98-1.47-1.51-.49-.57-.47-1.17-.02-1.53.55-.44.91-.02,1.26.32.59.56,1.17,1.14,1.72,1.68.44-.17.6-.4.32-.69-.63-.66-1.25-1.33-1.94-1.91-.75-.64-1.59-.44-2.05.43-.13.25-.18.54-.23.72ZM181.28,415.78c-.53.29-1.04.41-1.28.73-.37.51-.67,1.06-1.14,1.23,1,1.01,1.97,2,2.96,3,.3-.17.35-.41.02-.73-.45-.43-.89-.86-1.3-1.32-.56-.63-.61-1.27-.19-1.64.38-.34.79-.22,1.47.44.55.53,1.1,1.05,1.62,1.55.59-.34.4-.6.15-.86-.49-.5-1.01-.98-1.47-1.51-.43-.51-.39-1.08.04-1.43.48-.39.85-.1,1.19.23.54.52,1.05,1.05,1.59,1.56.33.31.58.19.73-.3-.68-.67-1.35-1.4-2.1-2.05-.77-.67-1.55-.51-2.05.37-.14.24-.18.54-.24.74ZM55,418.23c.92.92,1.81,1.82,2.7,2.71.34.34.57.17.75-.22-.1-.12-.19-.26-.31-.37-.48-.51-1-.98-1.44-1.52-.45-.55-.42-1.06-.01-1.43.53-.48.9-.09,1.26.26.51.48,1,.98,1.49,1.48.32.33.57.25.82-.22-.54-.56-1.13-1.13-1.68-1.73-.54-.6-.57-1.1-.16-1.52.37-.38.73-.32,1.36.27.59.56,1.17,1.15,1.72,1.7.48-.22.58-.45.25-.78-.52-.52-1.03-1.06-1.57-1.57-1.12-1.06-2.06-.78-2.53.71-.04.12-.08.23-.13.39-.78-.02-1.28.37-1.62,1.07-.13.27-.49.43-.91.77ZM264.99,419.7c-.31-.32-.65-.66-.98-1.02-.31-.33-.65-.64-.9-1.01-.33-.48-.22-1,.19-1.32.44-.34.78-.07,1.08.21.54.51,1.06,1.04,1.58,1.57.3.31.55.33.82-.18-.28-.29-.58-.61-.88-.93-.31-.33-.66-.63-.94-.98-.42-.54-.38-1.07.07-1.42.48-.38.85-.12,1.18.23.59.62,1.17,1.25,1.71,1.83.57-.2.74-.42.4-.77-.64-.65-1.25-1.31-1.94-1.9-.7-.59-1.53-.4-1.97.39-.16.28-.21.61-.24.72-.6.39-1.22.59-1.47,1.01-.29.49-.69.77-1.32,1.18.99.93,1.9,1.77,2.79,2.61.31.29.57.31.81-.22ZM95.51,425.19c-.31-.39-.44-.59-.6-.76-.45-.48-.94-.92-1.35-1.44-.43-.54-.37-1.05.08-1.42.49-.4.84-.06,1.17.26.53.51,1.05,1.05,1.58,1.56.35.34.56.15.74-.25-.62-.66-1.26-1.3-1.85-1.98-.37-.43-.35-.92.08-1.32.45-.41.83-.18,1.18.17.53.52,1.05,1.05,1.58,1.57.41.4.62.19.79-.33-.64-.62-1.27-1.27-1.94-1.87-.94-.84-1.86-.64-2.35.5-.09.22-.12.46-.18.69-.59.17-1.2.39-1.43.82-.26.48-.64.72-1.18,1.02.99.99,1.88,1.89,2.8,2.76.12.11.44.02.87.02ZM135.65,420.28c-.64.44-1.25.66-1.5,1.08-.28.47-.62.76-1.26,1,1.04,1.03,1.96,1.96,2.91,2.85.1.1.43-.04.83-.1-.38-.43-.6-.67-.82-.91-.39-.42-.82-.82-1.17-1.27-.35-.44-.33-.93.08-1.34.46-.45.83-.1,1.18.19.19.16.35.35.53.52.45.45.91.9,1.33,1.31.58-.33.43-.59.17-.86-.52-.53-1.06-1.04-1.53-1.61-.37-.45-.29-1.01.09-1.33.46-.38.84-.14,1.19.2.24.23.47.47.7.7.4.39.8.78,1.16,1.13.49-.27.49-.51.23-.77-.61-.61-1.2-1.26-1.84-1.82-.76-.67-1.7-.44-2.13.48-.12.25-.14.54-.14.55ZM34.05,229.69c.73-1.1.74-1.77.08-2.36-.6-.55-1.64-.58-2.29-.08-.73.57-.75,1.27-.06,2.39-.95,1.16-1,2.17-.12,2.89.76.62,2.04.57,2.71-.12.77-.78.67-1.71-.33-2.71ZM68.94,410.29c-1.86-.79-3.6-1.52-5.32-2.28-.54-.24-.85-.06-1.09.5.83,1.82,1.67,3.67,2.57,5.66,1.05-.96-.29-1.61-.17-2.04.69-.8,1.19-1.38,1.51-1.76.97-.27,1.59,1.08,2.51-.09ZM8.92,305.45c-1.86.75-3.58,1.43-5.28,2.15-.25.11-.59.4-.59.62,0,.21.32.53.57.64,1.02.43,2.06.8,3.1,1.19.71.26,1.42.51,2.22.8.02-1.37-1.32-.88-1.73-1.58v-2.13c.5-.71,1.82-.25,1.7-1.69ZM34.74,286.18c-.23-1.09-.87-1.4-1.59-1.43-.79-.03-1.46.35-1.77,1.11-.5,1.23-.54,2.5-.09,3.74.37,1.01,1.49,1.46,2.44,1.06.95-.4,1.4-1.69.98-2.75-.29-.73-1.36-1.45-2.37-.86-.15.09-.32.15-.59.27.04-.35.03-.56.09-.75.16-.53.38-1.03.96-1.19.57-.16.91.17,1.23.61.09.13.39.11.72.18ZM106.66,407.59c-.98-.55-1.86-.43-2.67.25-.84.7-1.19,1.82-.85,2.78.45,1.3,1.39,2.13,2.7,2.52.97.29,2.02-.19,2.68-1.12.61-.85.59-1.68-.08-2.69q-.45.34-.33.9c.18.91-.04,1.49-.72,1.94-.67.45-1.36.39-1.96-.07-.49-.37-.93-.81-1.3-1.3-.49-.65-.53-1.38-.04-2.07.45-.64,1.06-.93,1.83-.64.43.16.62.01.74-.51ZM4.48,271.56c-1.03.19-1.39.77-1.45,1.52-.06.76.29,1.41.97,1.73,1.33.62,2.72.62,4.08.1.72-.28,1.05-.94,1.04-1.69-.01-.76-.42-1.37-1.15-1.61-.8-.26-1.65-.31-2.31.36-.64.64-.64,1.38-.22,2.15.05.08.04.2.05.29-.14.03-.22.07-.3.07-.67-.03-1.23-.29-1.47-.93-.22-.6.12-1,.61-1.34.11-.07.08-.34.14-.65ZM3.03,304.73c1.48.12,2.91.14,4.34-.04,1.16-.15,1.75-.9,1.77-2.15.02-1.25-.66-2.2-1.8-2.27-1.36-.08-2.72-.02-4.09,0-.08,0-.16.14-.22.19-.03.59.38.5.68.5,1.07.01,2.15-.02,3.22.02.95.04,1.41.49,1.49,1.33.09.97-.39,1.6-1.38,1.65-1.07.06-2.15.02-3.22.04-.34,0-.79-.1-.79.72ZM6.63,352.13c-.04-.67-.05-1.37-.13-2.05-.12-.98-.68-1.48-1.62-1.53-.94-.05-1.57.39-1.77,1.35-.2,1-.19,2.01-.01,3.02h5.83q-.13-.47-2.3-.79ZM6.01,284.5c.73-.16,1.46-.26,2.15-.49.64-.22.95-.8.97-1.46.02-.65-.26-1.24-.88-1.51-1.42-.62-2.88-.61-4.3-.02-.63.26-.92.84-.92,1.49,0,.65.3,1.24.94,1.47.64.24,1.33.34,2.04.51ZM30.34,229.92c-.13-.64-.19-1.3-.4-1.91-.25-.72-.81-1.12-1.61-1.11-.79.01-1.33.42-1.58,1.15-.43,1.24-.41,2.5-.01,3.75.24.76.83,1.11,1.58,1.18.73.06,1.4-.42,1.66-1.23.19-.58.24-1.2.36-1.83ZM30.33,345.46c-.11-.57-.16-1.15-.33-1.69-.27-.84-.87-1.29-1.61-1.31-.78-.02-1.46.45-1.72,1.34-.34,1.16-.35,2.36.04,3.51.28.85.86,1.23,1.65,1.22.79,0,1.36-.41,1.63-1.26.18-.58.22-1.2.33-1.82ZM30.33,287.73c-.11-.59-.16-1.16-.34-1.7-.27-.84-.89-1.28-1.62-1.3-.78-.01-1.46.47-1.71,1.36-.33,1.16-.35,2.36.05,3.51.29.84.87,1.22,1.66,1.2.8-.02,1.34-.44,1.57-1.16.2-.61.25-1.27.37-1.92ZM5.78,269.22c.09-.02.18-.04.27-.07.03-.19.08-.38.1-.57.07-.65.51-.96,1.08-.99.51-.03.99.22,1.16.75.18.55.13,1.09-.46,1.38-.38.19-.66.36-.34.84.97-.05,1.35-.7,1.52-1.52.15-.75-.31-1.61-.99-1.98-.95-.51-1.73-.18-2.39.6-.63-.5-1.25-.79-1.95-.3-.59.42-.86,1.02-.72,1.73.14.72.5,1.29,1.32,1.38.36-.42.15-.59-.2-.77-.53-.28-.62-.79-.41-1.27.11-.25.47-.51.74-.54.51-.06.81.29.97.78.06.2.21.37.32.56ZM17.86,346.55c1.06-.05,2.02-.09,2.97-.13-.08-1.57-.69-2.3-1.83-2.33-1.08-.03-1.84.66-1.98,1.79-.17,1.4.37,2.25,1.59,2.5,1.05.21,1.75-.22,2.05-1.27-.39-.22-.56.05-.82.28-.89.8-1.69.49-1.99-.85ZM17.92,288.73h2.87c.01-1.49-.53-2.23-1.59-2.36-1.07-.12-1.94.53-2.14,1.6-.25,1.33.2,2.26,1.26,2.61,1.15.37,1.92,0,2.41-1.15-.43-.29-.66-.01-.91.3-.32.41-.79.47-1.24.3-.48-.18-.83-.53-.66-1.29ZM34.05,342.38c-.87.49-2.23,2.18-3.08,3.72-.12.22-.11.51-.2.91h2.3c.46.49-.04,1.24.79,1.48.22-.71.14-1.54,1.05-1.95-.84-.17-.9-.68-.87-1.29.04-.89.01-1.79.01-2.87ZM9.03,316.58c-.98,0-1.84,0-2.69,0-1.31.02-1.76.51-1.68,1.83.06.97.29,1.28,1.17,1.53q-.03-.39-.3-.78c-.58-.83-.33-1.56.69-1.8.08.3.16.61.23.92.08.36.12.73.23,1.08.18.57.59.89,1.2.86.59-.02.98-.47,1.06-1.17.03-.24.06-.52-.04-.73-.27-.58-.25-1.14.12-1.75ZM6.05,332.05c-.33-.68-.68-1.14-.78-1.65-.14-.68.16-.9,1.02-.92.12.59.2,1.2.37,1.78.22.75.69,1.04,1.37.93.58-.09.96-.52.93-1.25-.02-.55-.21-1.1-.29-1.47.13-.37.21-.63.31-.91-1.05,0-1.96-.04-2.86.01-.97.05-1.34.44-1.43,1.35-.13,1.19.18,1.74,1.37,2.14ZM9.09,339.46c-1.13,0-2.02-.02-2.92,0-.6.02-1.24.16-1.36.82-.11.62-.05,1.3.07,1.92.08.43.44.75,1.12.67-.28-.56-.61-1-.73-1.5-.15-.65.13-.9.99-1.03.07.31.14.62.2.93.07.32.1.65.2.96.23.68.66.95,1.3.88.6-.07,1-.47.99-1.2,0-.56-.19-1.11-.29-1.69.09-.15.21-.37.44-.76ZM6.92,337.06c.55-.36,1.09-.73,1.63-1.08.4-.25.56-.53.26-1.01-.87.54-1.69,1.06-2.53,1.59-.52-.48-.99-.9-1.55-1.41-.23,1.31,1.18,1.5,1.38,2.56h-3.28c.26.33.37.59.48.59,1.77.03,3.54.04,5.31,0,.12,0,.24-.3.4-.51q-1.7-.3-2.1-.73ZM189.73,412.75c-.56-.6-1.14-1.22-1.87-2,.45-.36.89-.63,1.2-1,.26-.31,1.1-.55.31-1.23-.63.6-1.25,1.19-1.83,1.74-.49-.42-.91-.78-1.4-1.2.76-.79,1.46-1.51,2.15-2.24l-.13-.27c-.22.04-.51,0-.65.12-.83.78-1.63,1.6-2.49,2.45,1.33,1.32,2.59,2.56,3.83,3.81.36.36.63.3.88-.2ZM20.79,230.84c.02-1.49-.56-2.25-1.7-2.34-.99-.08-1.84.58-2.04,1.59-.25,1.3.22,2.31,1.24,2.64,1.1.36,1.95-.05,2.44-1.19-.34-.27-.58-.17-.8.17-.31.47-.76.6-1.29.44-.59-.19-.87-.58-.79-1.31h2.95ZM6.97,347v-3c-1.67.18-2.29.72-2.31,1.86-.02,1,.59,1.76,1.54,1.93,1.33.24,2.34-.21,2.67-1.19.36-1.09-.03-1.95-1.12-2.46-.46.41-.08.61.2.84.42.36.56.81.33,1.32-.22.48-.55.8-1.31.69ZM6.99,321c-1.58.06-2.26.6-2.32,1.74-.05,1.05.58,1.85,1.59,2.01,1.36.22,2.33-.23,2.64-1.23.35-1.13-.07-1.97-1.17-2.4-.42.45.01.62.27.85.41.37.53.83.28,1.33-.23.47-.56.8-1.28.6v-2.9ZM270.76,411.81c.74.79,1.4.9,2.09.35.78-.62,1-1.44.39-2.15-.96-1.12-2.03-2.16-3.09-3.19-.35-.34-.57-.05-.78.47.3.25.65.53.97.84.71.69,1.4,1.39,2.08,2.1.3.31.47.69.19,1.11-.27.4-.64.51-1.06.28-.34-.19-.61-.23-.8.19ZM14.4,228.38c0,.7,0,1.23,0,1.76,0,.74,0,1.48,0,2.22,0,.38.19.51.63.39v-5.82c-1.27.74-1.97,1.48-1.91,2.09.38-.19.73-.36,1.27-.63ZM14.73,348.43c.1-.02.2-.04.3-.07v-5.85c-1.23.75-1.84,1.36-2.01,2.06.47-.18.88-.34,1.38-.54,0,.86-.06,1.6.02,2.33.07.68-.37,1.5.31,2.06ZM15.03,284.66q-1.93,1.61-1.9,2.2c.41-.19.79-.36,1.27-.58,0,.58,0,1.03,0,1.47,0,.82,0,1.64,0,2.46,0,.34.14.55.62.41v-5.96ZM10.66,298.73c-1.13-1.21-2.52-1.7-4.11-1.66-1.52.04-3.08.81-3.6,1.89,2.62-1.55,5.15-1.47,7.72-.23ZM2.92,277.22q1.67,1.9,2.23,1.87c-.18-.37-.34-.73-.58-1.22.63,0,1.11,0,1.59,0,.78,0,1.56,0,2.35-.02.36-.01.52-.21.34-.62H2.92ZM3.09,286.42c.72.62.92,1.73,2.12,2.08-.24-.61-.39-.99-.58-1.48,1.29,0,2.44,0,3.59,0,.36,0,.8.05.68-.6H3.09ZM10.62,311.59c-2.57,1.23-5.07,1.23-7.68-.22.57,1.07,2.16,1.91,3.74,1.88,1.5-.03,2.93-.43,3.94-1.66ZM223.79,411.27c1.56,1.56,2.91,2.92,4.29,4.31.29-.12.44-.34.1-.68-1.19-1.19-2.37-2.39-3.59-3.56-.12-.12-.44-.04-.81-.06ZM141.27,420.14c-1.38-1.38-2.73-2.73-4.22-4.23-.11.12-.24.25-.44.46,1.39,1.39,2.66,2.67,3.95,3.93.33.33.58.18.71-.17ZM23.05,345.12c-.3.26-1.12-.34-1.27.62.51.07.98.13,1.43.19.09.55.17,1.04.27,1.64.9-.43.26-1.27.74-1.67.43-.05.86-.1,1.34-.16-.17-1.01-1.12-.28-1.48-.8-.04-.41-.09-.84-.14-1.32-1.12.06-.33,1.02-.9,1.49ZM23.21,287.28c-.37.41-1.29-.27-1.41.75.52.07.99.13,1.37.18.33.53-.12,1.17.49,1.54.71-.35.14-1.09.54-1.56.42-.06.88-.12,1.41-.2-.27-.9-1.05-.35-1.51-.73-.05-.41-.11-.88-.17-1.38-1.1.1-.3,1.06-.72,1.4ZM60.04,410.99c1.24,1.24,2.51,2.51,3.79,3.78.32.32.57.24.79-.24-.32-.33-.65-.68-1-1.02-.9-.9-1.8-1.79-2.69-2.7-.32-.32-.6-.44-.89.18ZM184.26,410.11c-.54.22-.59.47-.27.79,1.27,1.27,2.54,2.54,4.03,4.04.05-.51.17-.84.07-.94-1.27-1.32-2.57-2.62-3.84-3.88ZM101.3,419.21c.01-.25.12-.54.02-.63-1.2-1.25-2.42-2.47-3.67-3.68-.11-.11-.43,0-.67.01,1.47,1.46,2.83,2.82,4.32,4.3ZM23.37,231.83c1.16-.11.35-1.08.81-1.43q1.18-.15,1.29-.75c-.45-.03-.89-.05-1.26-.08-.41-.5.18-1.3-.77-1.68-.07.62-.13,1.12-.2,1.67-.28.02-.53.02-.76.04-.23.02-.45.07-.79.12.13.06,1.56.75,1.6.77.02.38.05.79.08,1.32ZM265.58,410.62c-.08.39-.2.62-.13.78.09.21.31.37.49.54,1.02,1.02,2.04,2.03,3.05,3.05.38.38.68.41.82-.06-1.39-1.42-2.71-2.77-4.22-4.32ZM271.09,413.67c-.87-1.3-3.53-3.82-4.34-4.09,0,.2-.08.46.01.55,1.2,1.25,2.43,2.47,3.66,3.69.27.27.52.19.67-.16ZM222.5,412.97c1.28,1.24,2.55,2.47,3.8,3.7.38.37.6.24.85-.21-1.28-1.27-2.53-2.51-3.77-3.76-.3-.3-.55-.32-.89.27ZM142.62,418.74c-1.25-1.25-2.52-2.52-3.79-3.79-.32-.32-.56-.27-.77.21.23.25.46.52.72.78.98.99,1.97,1.97,2.95,2.95.31.31.6.45.89-.15ZM95.96,415.84c-.08.38-.23.68-.15.77,1.22,1.27,2.45,2.53,3.72,3.74.35.34.57.04.61-.21-1.38-1.41-2.69-2.76-4.19-4.3ZM187.02,415.46c-1.28-1.27-2.53-2.51-3.78-3.75-.36-.35-.61-.3-.84.23,1.25,1.24,2.51,2.48,3.75,3.73.3.3.55.33.87-.21ZM59.28,411.73c-.59.34-.52.59-.23.88.85.84,1.68,1.68,2.53,2.52.42.42.85.83,1.24,1.22.56-.31.46-.56.18-.84-1.24-1.25-2.47-2.51-3.72-3.77ZM8.89,327.23c.03-.12.07-.23.1-.35-.21-.1-.42-.28-.64-.3-.57-.04-1.16,0-1.73-.03-.92-.04-.92-.07-1.2-1.02-.05-.17-.27-.3-.41-.44-.83.68.42,1.45-.54,2.13h4.42ZM7.15,294.29v-2.35c-.65.25-.72.27-.66.58.09.55-.37,1.3.66,1.77Z"/>
    <path d="M39.5,287.15v-56.82h-2.94v-.95h2.94c.03-.56.07-1,.08-1.44,0-2.56,0-5.12,0-7.68,0-.25,0-.5,0-.74,0-.69.32-.88,1.06-.58v181.34c.15.2.17.24.21.26.03.03.07.04.1.06.04.02.08.03.12.04.04,0,.08.01.12.02.08,0,.17,0,.25.01.04,0,.08,0,.12,0s.08,0,.12,0c.08,0,.17,0,.25,0,84.05,0,168.1,0,252.15,0,.04,0,.08,0,.12,0,.04,0,.08,0,.12,0,.04,0,.08,0,.12,0,.04,0,.08,0,.12.02.04,0,.08.01.12.03.04.01.07.04.2.11.03.24.06.55.11.98h-24.1v2.87c-.98.27-1.04.26-1.07-.42-.03-.77,0-1.55,0-2.38h-40.05v2.9c-.37.05-.63.08-1.02.13v-2.84c-.96-.3-38.3-.38-40.08-.11v2.87c-.41.02-.71.03-1.12.05v-2.98h-39.98v2.76c-1,.31-1.07.29-1.1-.5-.03-.73,0-1.47,0-2.27h-40.03c-.02.79-.05,1.56-.05,2.32,0,.62-.25.83-1.01.59v-2.91h-40.06c-.02.77-.03,1.54-.07,2.31-.04.7-.06.7-1.04.53v-2.91h-1.44c-7.11,0-14.22,0-21.33,0-1.66,0-1.91-.25-1.91-1.92,0-17.39,0-34.77,0-52.16v-1.7h-3.01v-1.07h2.78c.28-1.04.34-55.13.08-56.75-.7,0-1.42-.02-2.15,0-.68.02-.89-.29-.67-1.08h2.89Z"/>
    <path d="M228.36,230.31c-1.53-.98-1.18-2.42-1.05-3.74.1-.92,1.03-1.48,2.03-1.44.92.03,1.79.64,1.84,1.51.06,1.31.51,2.78-1.02,3.64,1.29,1.44,1.42,2.61.47,3.5-.8.74-2.02.72-2.8-.04-.92-.9-.77-2.09.53-3.42Z"/>
    <path d="M102.52,417.96c-1.47-1.47-2.8-2.82-4.22-4.24.44-.45.94-.93,1.4-1.44,1.24-1.36,2.84-.89,3.02.84.4.07.83.06,1.2.21.9.37,1.24,1.57.63,2.39-.58.78-1.31,1.46-2.03,2.23ZM102.5,416.98c.49-.53.9-.92,1.25-1.37.42-.54.39-1.04-.05-1.42-.43-.38-.91-.38-1.34,0-.45.39-.85.83-1.15,1.13.46.6.83,1.08,1.28,1.67ZM100.6,414.93c.46-.52.87-.93,1.21-1.39.29-.39.16-.78-.2-1.09-.33-.29-.68-.29-1,0-.42.38-.82.78-1.23,1.17.43.46.78.84,1.22,1.31Z"/>
    <path d="M139.61,413.56c.44-.46.97-1.09,1.59-1.62.9-.78,1.74-.89,2.72-.23.66.45,1.26,1.07,1.7,1.74.57.86.51,1.83-.23,2.63-.56.6-1.19,1.13-1.69,1.6-1.31-1.32-2.67-2.68-4.09-4.11ZM143.62,416.84c.8-.8,1.88-1.35,1.46-2.61-.33-1.01-1.03-1.83-2.14-2.04-1.24-.24-1.78.72-2.39,1.45,1.04,1.08,2,2.08,3.07,3.19Z"/>
    <path d="M146.99,395.05c-1.08-.02-2.07-1.02-2.06-2.08,0-1.12,1.06-2.1,2.2-2.05,1.13.05,1.99.98,1.96,2.12-.03,1.1-1.01,2.04-2.1,2.01Z"/>
    <path d="M150.91,410.46c-1.13,1.15-2.1,2.14-2.99,3.05-1.36-1.36-2.71-2.71-4.12-4.12.88-.79,1.91-1.71,2.99-2.67.29.13.21.39-.09.68-.65.63-1.3,1.26-2.06,2,.41.43.76.8,1.13,1.18,1.09-.41,1.42-1.74,2.58-1.94.04,0,.1.12.27.31-.68.7-1.38,1.42-2.19,2.26.44.45.86.88,1.39,1.42.49-.47.96-.91,1.42-1.35.3-.29.56-.62.89-.85.15-.1.43,0,.77.02Z"/>
    <path d="M188.16,390.92c1.11.01,2.07.96,2.07,2.05,0,1.09-.96,2.06-2.05,2.09-1.14.03-2.14-.98-2.11-2.13.03-1.13.96-2.01,2.09-2Z"/>
    <path d="M272.4,392.97c0,1.11-.94,2.07-2.04,2.08-1.11,0-2.02-.92-2.03-2.06,0-1.16.88-2.05,2.02-2.06,1.12,0,2.04.92,2.05,2.04Z"/>
    <path d="M64.85,395.05c-1.08.03-2.06-.93-2.08-2.03-.02-1.14.86-2.07,1.99-2.09,1.12-.03,2.06.88,2.09,2,.03,1.1-.9,2.08-2,2.12Z"/>
    <path d="M105.88,390.94c1.12-.02,2.04.89,2.05,2.02,0,1.12-.94,2.07-2.03,2.05-1.06-.02-1.96-.91-1.99-1.97-.03-1.13.85-2.07,1.97-2.1Z"/>
    <path d="M231.26,238.66c-.02,1.13-.99,2.06-2.08,2-1.05-.05-1.94-.97-1.94-2.03,0-1.13.91-2.06,2.03-2.05,1.12,0,2.02.94,2,2.08Z"/>
    <path d="M270.3,249.87c-1.12-.04-2-1-1.95-2.13.04-1.12,1.04-2.03,2.13-1.95,1.07.08,1.9.99,1.89,2.07-.01,1.12-.97,2.05-2.07,2.01Z"/>
    <path d="M105.91,361.43c1.14,0,2.03.89,2.02,2.03,0,1.11-.82,1.94-1.94,1.97-1.18.03-2.06-.8-2.08-1.95-.02-1.14.86-2.04,2-2.05Z"/>
    <path d="M66.81,361.78c.02,1.13-.88,2.07-2,2.08-1.1,0-2.05-.95-2.04-2.06.01-1.05.91-1.98,1.95-2.03,1.09-.05,2.06.88,2.09,2Z"/>
    <path d="M272.37,236.98c0,1.14-.89,2.04-2.02,2.03-1.14,0-2.02-.92-2-2.06.02-1.1.86-1.93,1.97-1.95,1.16-.02,2.05.83,2.06,1.98Z"/>
    <path d="M105.96,375.01c-1.12.03-2.05-.88-2.06-2.02,0-1.12.93-2.07,2.03-2.06,1.05.01,1.96.9,1.99,1.97.04,1.14-.83,2.08-1.96,2.11Z"/>
    <path d="M229.78,407.88c-.21.07-.44.24-.63.19-.93-.22-1.5.26-1.98.93-.52.73-.42,1.48.06,2.19.57.85,1.3,1.61,2.4,1.47,1.2-.15,1.81-1.02,2.1-2.28-.22-.24-.45-.5-.67-.75q-1.24.95-1.86.74c.57-.59,1.09-1.14,1.72-1.8.5.48,1,.9,1.4,1.38.15.18.14.55.09.8-.31,1.52-1.89,2.78-3.29,2.65-1.45-.13-2.94-1.66-3.05-3.14-.14-1.89,1.96-3.43,3.72-2.4Z"/>
    <path d="M221.4,416.78c.05-.18.1-.47.23-.72.46-.87,1.3-1.07,2.05-.43.69.59,1.31,1.26,1.94,1.91.28.29.12.52-.32.69-.55-.54-1.13-1.11-1.72-1.68-.36-.34-.71-.77-1.26-.32-.45.36-.47.96.02,1.53.46.53.98,1,1.47,1.51.16.17.15.18-.15.82-.55-.53-1.07-1.02-1.59-1.53-.77-.75-1.16-.88-1.56-.53-.47.42-.35,1.08.36,1.82.4.42.84.8,1.2,1.24.11.13.02.43.02.69-1.09-1.09-2.07-2.08-3.07-3.07.47-.13.7-.71,1.08-1.17.28-.35.82-.49,1.32-.77Z"/>
    <path d="M181.28,415.78c.06-.2.11-.5.24-.74.5-.88,1.28-1.05,2.05-.37.74.65,1.41,1.38,2.1,2.05-.15.49-.4.61-.73.3-.54-.51-1.06-1.05-1.59-1.56-.34-.33-.71-.61-1.19-.23-.43.35-.47.92-.04,1.43.45.53.97,1.01,1.47,1.51.26.26.44.52-.15.86-.52-.49-1.07-1.02-1.62-1.55-.68-.66-1.1-.78-1.47-.44-.42.38-.36,1.02.19,1.64.41.46.86.89,1.3,1.32.33.32.28.56-.02.73-.99-1-1.97-1.99-2.96-3,.47-.17.76-.72,1.14-1.23.24-.32.75-.44,1.28-.73Z"/>
    <path d="M55,418.23c.42-.34.77-.5.91-.77.35-.7.85-1.09,1.62-1.07.05-.16.09-.28.13-.39.47-1.5,1.41-1.77,2.53-.71.54.51,1.05,1.05,1.57,1.57.33.33.23.56-.25.78-.56-.55-1.13-1.14-1.72-1.7-.63-.6-.99-.66-1.36-.27-.41.43-.38.93.16,1.52.55.6,1.13,1.17,1.68,1.73-.25.47-.49.55-.82.22-.49-.5-.99-1-1.49-1.48-.36-.34-.73-.74-1.26-.26-.41.38-.44.89.01,1.43.44.54.96,1.01,1.44,1.52.11.12.21.25.31.37-.18.39-.41.56-.75.22-.9-.89-1.79-1.79-2.7-2.71Z"/>
    <path d="M264.99,419.7c-.25.53-.5.51-.81.22-.9-.84-1.8-1.68-2.79-2.61.62-.41,1.03-.69,1.32-1.18.25-.42.87-.62,1.47-1.01.03-.11.08-.44.24-.72.45-.8,1.28-.98,1.97-.39.69.58,1.31,1.25,1.94,1.9.34.35.17.57-.4.77-.54-.58-1.11-1.21-1.71-1.83-.33-.34-.71-.61-1.18-.23-.44.35-.49.88-.07,1.42.28.35.62.65.94.98.3.32.6.64.88.93-.27.52-.52.49-.82.18-.52-.53-1.04-1.06-1.58-1.57-.3-.28-.64-.56-1.08-.21-.41.32-.52.84-.19,1.32.25.37.59.68.9,1.01.33.35.67.7.98,1.02Z"/>
    <path d="M95.51,425.19c-.43,0-.75.1-.87-.02-.93-.87-1.81-1.77-2.8-2.76.54-.3.92-.54,1.18-1.02.23-.43.84-.65,1.43-.82.06-.23.08-.48.18-.69.49-1.14,1.41-1.34,2.35-.5.67.6,1.3,1.25,1.94,1.87-.18.52-.39.73-.79.33-.53-.52-1.05-1.05-1.58-1.57-.35-.35-.73-.58-1.18-.17-.44.4-.45.89-.08,1.32.59.68,1.23,1.32,1.85,1.98-.18.39-.39.59-.74.25-.53-.52-1.05-1.05-1.58-1.56-.33-.32-.68-.66-1.17-.26-.45.37-.51.88-.08,1.42.41.51.9.95,1.35,1.44.16.17.29.37.6.76Z"/>
    <path d="M135.65,420.28s.03-.3.14-.55c.42-.92,1.36-1.15,2.13-.48.65.57,1.23,1.21,1.84,1.82.26.26.26.5-.23.77-.36-.35-.76-.74-1.16-1.13-.24-.23-.46-.47-.7-.7-.35-.34-.72-.58-1.19-.2-.39.31-.46.88-.09,1.33.47.57,1.01,1.08,1.53,1.61.27.27.41.53-.17.86-.42-.42-.88-.86-1.33-1.31-.18-.17-.34-.36-.53-.52-.35-.29-.72-.64-1.18-.19-.42.41-.43.9-.08,1.34.36.45.78.84,1.17,1.27.22.24.43.48.82.91-.4.05-.73.19-.83.1-.95-.89-1.87-1.82-2.91-2.85.64-.24.98-.52,1.26-1,.25-.42.86-.64,1.5-1.08Z"/>
    <path d="M34.05,229.69c1,1,1.1,1.93.33,2.71-.68.68-1.95.74-2.71.12-.87-.72-.83-1.73.12-2.89-.68-1.12-.66-1.82.06-2.39.64-.5,1.68-.47,2.29.08.66.6.65,1.26-.08,2.36ZM34.14,231.19c0-.66-.47-1.16-1.14-1.19-.67-.03-1.19.43-1.23,1.08-.04.7.49,1.26,1.19,1.26.64,0,1.17-.51,1.17-1.15ZM32.94,227.53c-.53,0-.95.4-.94.9.01.5.44.92.95.92.51,0,.94-.42.94-.92,0-.5-.42-.9-.95-.9Z"/>
    <path d="M68.94,410.29c-.92,1.17-1.54-.18-2.51.09-.32.38-.83.96-1.51,1.76-.12.43,1.22,1.08.17,2.04-.9-1.99-1.75-3.85-2.57-5.66.24-.56.55-.74,1.09-.5,1.73.76,3.47,1.49,5.32,2.28ZM65.93,409.85c-.89-.41-1.59-.72-2.56-1.16.47.97.82,1.68,1.21,2.48.47-.46.84-.82,1.35-1.33Z"/>
    <path d="M8.92,305.45c.12,1.44-1.21.98-1.7,1.69v2.13c.41.7,1.74.21,1.73,1.58-.8-.29-1.52-.54-2.22-.8-1.04-.39-2.08-.76-3.1-1.19-.25-.11-.57-.42-.57-.64,0-.21.34-.51.59-.62,1.7-.72,3.42-1.4,5.28-2.15ZM3.81,308.24c1.02.35,1.78.61,2.56.88v-1.83c-.84.31-1.56.58-2.56.95Z"/>
    <path d="M34.74,286.18c-.33-.08-.63-.06-.72-.18-.32-.44-.66-.77-1.23-.61-.59.17-.81.67-.96,1.19-.06.19-.05.4-.09.75.27-.12.44-.18.59-.27,1.01-.59,2.08.13,2.37.86.42,1.06-.03,2.35-.98,2.75-.95.4-2.07-.05-2.44-1.06-.45-1.24-.41-2.52.09-3.74.32-.77.98-1.15,1.77-1.11.73.03,1.36.34,1.59,1.43ZM34.13,288.76c-.03-.79-.52-1.31-1.21-1.27-.67.04-1.14.64-1.09,1.39.05.76.59,1.34,1.23,1.31.63-.03,1.1-.66,1.07-1.43Z"/>
    <path d="M106.66,407.59c-.12.52-.32.66-.74.51-.77-.28-1.38,0-1.83.64-.49.69-.46,1.42.04,2.07.37.48.82.93,1.3,1.3.6.46,1.29.51,1.96.07.68-.45.9-1.03.72-1.94q-.11-.57.33-.9c.67,1.01.69,1.84.08,2.69-.67.93-1.72,1.4-2.68,1.12-1.3-.38-2.24-1.22-2.7-2.52-.34-.96.01-2.08.85-2.78.81-.68,1.69-.79,2.67-.25Z"/>
    <path d="M4.48,271.56c-.06.31-.03.57-.14.65-.48.34-.83.74-.61,1.34.24.65.8.91,1.47.93.08,0,.16-.03.3-.07-.02-.1,0-.21-.05-.29-.42-.77-.42-1.51.22-2.15.67-.67,1.51-.62,2.31-.36.73.24,1.14.85,1.15,1.61.01.75-.32,1.41-1.04,1.69-1.36.52-2.75.53-4.08-.1-.68-.32-1.04-.97-.97-1.73.06-.74.42-1.33,1.45-1.52ZM7.08,274.46c.8,0,1.42-.55,1.39-1.23-.03-.68-.53-1.06-1.38-1.05-.81,0-1.34.45-1.34,1.11,0,.63.62,1.17,1.33,1.17Z"/>
    <path d="M3.03,304.73c0-.82.45-.71.79-.72,1.07-.02,2.15.02,3.22-.04.98-.05,1.47-.69,1.38-1.65-.08-.84-.54-1.29-1.49-1.33-1.07-.05-2.15,0-3.22-.02-.3,0-.71.09-.68-.5.05-.05.14-.19.22-.19,1.36-.02,2.73-.08,4.09,0,1.15.07,1.83,1.02,1.8,2.27-.02,1.25-.61,2-1.77,2.15-1.43.18-2.86.16-4.34.04Z"/>
    <path d="M6.63,352.13q2.17.32,2.3.79H3.1c-.17-1.01-.19-2.02.01-3.02.19-.96.82-1.4,1.77-1.35.93.05,1.5.55,1.62,1.53.08.68.09,1.38.13,2.05ZM5.84,352.21c0-.75.06-1.36-.02-1.96-.07-.59-.6-1-1.11-.93-.54.07-.94.37-.97.94-.04.64,0,1.28,0,1.95h2.11Z"/>
    <path d="M6.01,284.5c-.71-.17-1.4-.28-2.04-.51-.64-.23-.94-.82-.94-1.47,0-.65.29-1.23.92-1.49,1.43-.59,2.88-.6,4.3.02.62.27.9.86.88,1.51-.02.65-.32,1.24-.97,1.46-.69.23-1.42.33-2.15.49ZM6,283.73c.62-.11,1.22-.18,1.81-.33.44-.11.73-.48.64-.92-.07-.32-.31-.74-.57-.84-1.18-.46-2.4-.43-3.6-.03-.43.15-.7.53-.57.96.09.31.35.68.62.8.52.21,1.1.25,1.67.36Z"/>
    <path d="M30.34,229.92c-.12.63-.17,1.25-.36,1.83-.26.81-.94,1.29-1.66,1.23-.75-.06-1.33-.42-1.58-1.18-.4-1.25-.42-2.5.01-3.75.25-.73.79-1.14,1.58-1.15.79-.01,1.36.39,1.61,1.11.21.61.27,1.27.4,1.91ZM27.17,229.94c.06.52.08,1.06.21,1.57.11.45.4.82.94.83.53,0,.84-.32.98-.78.33-1.08.33-2.18,0-3.27-.14-.49-.47-.76-.99-.76-.53,0-.84.35-.95.82-.12.52-.14,1.05-.2,1.59Z"/>
    <path d="M30.33,345.46c-.11.62-.15,1.24-.33,1.82-.26.85-.84,1.25-1.63,1.26-.79,0-1.37-.37-1.65-1.22-.39-1.16-.37-2.35-.04-3.51.26-.89.94-1.36,1.72-1.34.73.02,1.34.47,1.61,1.31.17.54.22,1.12.33,1.69ZM27.17,345.49c.07.56.09,1.14.23,1.69.12.47.52.83,1,.72.34-.08.75-.41.87-.73.4-1.06.35-2.17.04-3.26-.13-.46-.43-.8-.96-.82-.54-.02-.84.34-.96.8-.13.51-.16,1.05-.23,1.59Z"/>
    <path d="M30.33,287.73c-.12.64-.18,1.3-.37,1.92-.23.72-.78,1.14-1.57,1.16-.8.02-1.37-.36-1.66-1.2-.4-1.16-.38-2.35-.05-3.51.25-.89.93-1.37,1.71-1.36.73.01,1.35.46,1.62,1.3.17.54.22,1.11.34,1.7ZM27.17,287.75c.07.56.09,1.14.23,1.69.12.47.52.83,1,.73.34-.08.75-.41.87-.73.41-1.11.4-2.27-.02-3.37-.12-.31-.56-.61-.9-.68-.52-.12-.84.31-.95.77-.13.51-.16,1.05-.24,1.59Z"/>
    <path d="M5.78,269.22c-.11-.19-.25-.36-.32-.56-.16-.48-.46-.84-.97-.78-.27.03-.63.29-.74.54-.21.48-.12.99.41,1.27.35.18.56.36.2.77-.82-.09-1.18-.66-1.32-1.38-.13-.7.13-1.31.72-1.73.7-.49,1.33-.21,1.95.3.66-.78,1.43-1.12,2.39-.6.68.37,1.14,1.23.99,1.98-.16.82-.55,1.47-1.52,1.52-.32-.47-.04-.65.34-.84.6-.29.64-.84.46-1.38-.17-.53-.65-.78-1.16-.75-.57.03-1.01.34-1.08.99-.02.19-.07.38-.1.57-.09.02-.18.04-.27.07Z"/>
    <path d="M17.86,346.55c.3,1.34,1.1,1.65,1.99.85.26-.23.43-.51.82-.28-.3,1.04-1,1.48-2.05,1.27-1.23-.25-1.77-1.1-1.59-2.5.14-1.14.89-1.82,1.98-1.79,1.14.03,1.75.75,1.83,2.33-.95.04-1.91.08-2.97.13ZM20.06,345.79c-.12-.84-.57-1.11-1.22-1.06-.59.05-.98.34-.96,1.06h2.18Z"/>
    <path d="M17.92,288.73c-.17.76.18,1.1.66,1.29.44.17.91.11,1.24-.3.25-.31.47-.59.91-.3-.49,1.16-1.26,1.53-2.41,1.15-1.06-.34-1.51-1.28-1.26-2.61.2-1.07,1.07-1.72,2.14-1.6,1.07.12,1.6.87,1.59,2.36h-2.87ZM17.87,288h2.18c-.1-.75-.53-1.02-1.11-1.01-.57.01-1.03.25-1.07,1.01Z"/>
    <path d="M34.05,342.38c0,1.08.03,1.98-.01,2.87-.03.61.03,1.12.87,1.29-.91.41-.83,1.24-1.05,1.95-.83-.24-.33-.99-.79-1.48h-2.3c.08-.4.07-.69.2-.91.85-1.54,2.21-3.23,3.08-3.72ZM33.27,344.22c-.7.6-1.3,1.18-1.54,2.02h1.54v-2.02Z"/>
    <path d="M9.03,316.58c-.37.62-.39,1.17-.12,1.75.09.21.06.49.04.73-.07.7-.47,1.14-1.06,1.17-.61.02-1.02-.29-1.2-.86-.11-.35-.15-.72-.23-1.08-.07-.31-.15-.62-.23-.92-1.03.24-1.28.97-.69,1.8q.27.38.3.78c-.87-.25-1.11-.56-1.17-1.53-.08-1.32.37-1.81,1.68-1.83.85-.01,1.71,0,2.69,0ZM7.75,319.51c.76-.31.8-.84.55-1.44-.25-.59-.68-.87-1.4-.64.24.74,0,1.56.85,2.08Z"/>
    <path d="M6.05,332.05c-1.2-.4-1.5-.94-1.37-2.14.1-.92.46-1.3,1.43-1.35.9-.05,1.81-.01,2.86-.01-.1.28-.18.54-.31.91.08.38.27.92.29,1.47.03.73-.35,1.16-.93,1.25-.68.11-1.15-.18-1.37-.93-.17-.58-.25-1.19-.37-1.78-.85.02-1.15.24-1.02.92.1.51.45.97.78,1.65ZM7.13,329.29c-.07.08-.14.16-.2.23.09.47.13.96.29,1.41.08.22.44.53.56.49.25-.09.57-.37.6-.61.05-.33-.05-.77-.26-1.01-.23-.26-.65-.35-.99-.52Z"/>
    <path d="M9.09,339.46c-.22.39-.35.61-.44.76.11.58.28,1.13.29,1.69.01.73-.38,1.13-.99,1.2-.64.07-1.06-.2-1.3-.88-.11-.31-.13-.64-.2-.96-.07-.31-.14-.62-.2-.93-.87.13-1.15.38-.99,1.03.12.5.45.95.73,1.5-.68.08-1.04-.24-1.12-.67-.12-.63-.18-1.3-.07-1.92.12-.66.77-.8,1.36-.82.9-.02,1.8,0,2.92,0ZM6.91,340.28c.11.6.14,1.09.31,1.52.09.23.43.37.66.55.18-.24.48-.45.53-.72.14-.75-.34-1.19-1.49-1.36Z"/>
    <path d="M6.92,337.06q.4.43,2.1.73c-.16.21-.27.5-.4.51-1.77.03-3.54.02-5.31,0-.11,0-.22-.26-.48-.59h3.28c-.2-1.06-1.61-1.25-1.38-2.56.56.51,1.02.93,1.55,1.41.84-.53,1.66-1.05,2.53-1.59.3.48.14.76-.26,1.01-.55.34-1.08.71-1.63,1.08Z"/>
    <path d="M189.73,412.75c-.26.5-.52.57-.88.2-1.25-1.25-2.5-2.49-3.83-3.81.86-.86,1.66-1.67,2.49-2.45.14-.13.43-.08.65-.12l.13.27c-.7.72-1.39,1.45-2.15,2.24.49.42.91.78,1.4,1.2.58-.55,1.2-1.14,1.83-1.74.79.68-.06.92-.31,1.23-.31.37-.75.64-1.2,1,.73.78,1.31,1.4,1.87,2Z"/>
    <path d="M20.79,230.84h-2.95c-.08.73.2,1.12.79,1.31.53.17.98.04,1.29-.44.22-.33.47-.44.8-.17-.49,1.14-1.34,1.55-2.44,1.19-1.02-.33-1.49-1.34-1.24-2.64.2-1.01,1.04-1.68,2.04-1.59,1.15.09,1.72.86,1.7,2.34ZM20.09,230.22c-.14-.76-.48-1.13-1.15-1.11-.64.02-1.02.35-1.09,1.11h2.24Z"/>
    <path d="M6.97,347c.76.11,1.1-.21,1.31-.69.23-.52.1-.96-.33-1.32-.28-.24-.67-.43-.2-.84,1.09.51,1.48,1.37,1.12,2.46-.32.98-1.33,1.43-2.67,1.19-.95-.17-1.56-.93-1.54-1.93.02-1.14.64-1.68,2.31-1.86v3ZM6.35,347.01v-2.15c-.83.21-1.15.51-1.1,1.06.06.61.35,1.05,1.1,1.09Z"/>
    <path d="M6.99,321v2.9c.71.2,1.04-.14,1.28-.6.25-.5.14-.96-.28-1.33-.26-.24-.69-.41-.27-.85,1.1.43,1.51,1.27,1.17,2.4-.31,1-1.27,1.45-2.64,1.23-1.01-.16-1.64-.96-1.59-2.01.06-1.14.75-1.68,2.32-1.74ZM6.38,321.76c-.84.1-1.16.53-1.12,1.15.04.6.35,1.05,1.12,1.04v-2.19Z"/>
    <path d="M270.76,411.81c.18-.42.46-.38.8-.19.43.24.79.13,1.06-.28.28-.42.11-.8-.19-1.11-.68-.71-1.38-1.41-2.08-2.1-.32-.31-.68-.59-.97-.84.2-.52.43-.81.78-.47,1.06,1.03,2.12,2.07,3.09,3.19.61.71.39,1.53-.39,2.15-.69.55-1.35.44-2.09-.35Z"/>
    <path d="M14.4,228.38c-.54.27-.9.44-1.27.63-.05-.6.64-1.35,1.91-2.09v5.82c-.44.13-.63-.01-.63-.39,0-.74,0-1.48,0-2.22,0-.53,0-1.06,0-1.76Z"/>
    <path d="M14.73,348.43c-.69-.56-.24-1.38-.31-2.06-.08-.73-.02-1.47-.02-2.33-.5.19-.91.35-1.38.54.16-.7.77-1.32,2.01-2.06v5.85c-.1.02-.2.04-.3.07Z"/>
    <path d="M15.03,284.66v5.96c-.48.14-.62-.07-.62-.41,0-.82,0-1.64,0-2.46,0-.45,0-.9,0-1.47-.49.22-.87.4-1.27.58q-.03-.59,1.9-2.2Z"/>
    <path d="M10.66,298.73c-2.57-1.24-5.09-1.33-7.72.23.52-1.07,2.08-1.85,3.6-1.89,1.59-.04,2.98.45,4.11,1.66Z"/>
    <path d="M2.92,277.22h5.93c.18.42.02.61-.34.62-.78.02-1.56.02-2.35.02-.48,0-.97,0-1.59,0,.24.5.4.85.58,1.22q-.55.04-2.23-1.87Z"/>
    <path d="M3.09,286.42h5.8c.12.65-.32.6-.68.6-1.15.01-2.3,0-3.59,0,.19.48.34.86.58,1.48-1.2-.36-1.4-1.46-2.12-2.08Z"/>
    <path d="M10.62,311.59c-1.01,1.23-2.43,1.64-3.94,1.66-1.58.03-3.17-.81-3.74-1.88,2.61,1.45,5.11,1.45,7.68.22Z"/>
    <path d="M223.79,411.27c.37.02.68-.06.81.06,1.21,1.17,2.4,2.37,3.59,3.56.34.34.19.57-.1.68-1.38-1.39-2.73-2.74-4.29-4.31Z"/>
    <path d="M141.27,420.14c-.13.35-.37.5-.71.17-1.29-1.26-2.56-2.54-3.95-3.93.2-.21.33-.35.44-.46,1.49,1.49,2.84,2.85,4.22,4.23Z"/>
    <path d="M23.05,345.12c.58-.48-.22-1.44.9-1.49.05.48.09.91.14,1.32.36.52,1.31-.21,1.48.8-.48.06-.91.11-1.34.16-.48.4.15,1.24-.74,1.67-.1-.6-.18-1.08-.27-1.64-.45-.06-.92-.12-1.43-.19.15-.97.97-.36,1.27-.62Z"/>
    <path d="M23.21,287.28c.42-.34-.38-1.3.72-1.4.06.5.12.97.17,1.38.45.38,1.24-.17,1.51.73-.53.07-.99.14-1.41.2-.4.47.17,1.21-.54,1.56-.6-.37-.16-1.01-.49-1.54-.38-.05-.85-.11-1.37-.18.12-1.01,1.04-.34,1.41-.75Z"/>
    <path d="M60.04,410.99c.29-.62.57-.5.89-.18.89.9,1.8,1.8,2.69,2.7.34.34.68.69,1,1.02-.21.48-.47.56-.79.24-1.28-1.27-2.55-2.54-3.79-3.78Z"/>
    <path d="M184.26,410.11c1.26,1.27,2.56,2.56,3.84,3.88.1.1-.03.43-.07.94-1.5-1.5-2.77-2.77-4.03-4.04-.31-.32-.27-.57.27-.79Z"/>
    <path d="M101.3,419.21c-1.49-1.49-2.85-2.84-4.32-4.3.24,0,.56-.12.67-.01,1.25,1.2,2.47,2.43,3.67,3.68.09.1,0,.39-.02.63Z"/>
    <path d="M23.37,231.83c-.03-.53-.06-.93-.08-1.32-.03-.02-1.47-.71-1.6-.77.34-.05.56-.1.79-.12.24-.02.48-.03.76-.04.07-.55.12-1.05.2-1.67.95.37.36,1.18.77,1.68.38.02.82.05,1.26.08q-.11.6-1.29.75c-.47.34.35,1.32-.81,1.43Z"/>
    <path d="M265.58,410.62c1.52,1.55,2.83,2.9,4.22,4.32-.14.46-.43.44-.82.06-1.02-1.02-2.04-2.03-3.05-3.05-.17-.17-.4-.33-.49-.54-.06-.16.06-.4.13-.78Z"/>
    <path d="M271.09,413.67c-.16.34-.4.42-.67.16-1.23-1.22-2.45-2.45-3.66-3.69-.09-.09-.01-.34-.01-.55.82.26,3.47,2.79,4.34,4.09Z"/>
    <path d="M222.5,412.97c.33-.58.58-.57.89-.27,1.24,1.25,2.49,2.49,3.77,3.76-.25.44-.48.58-.85.21-1.26-1.23-2.52-2.46-3.8-3.7Z"/>
    <path d="M142.62,418.74c-.29.61-.58.46-.89.15-.98-.99-1.97-1.97-2.95-2.95-.26-.26-.49-.53-.72-.78.21-.47.46-.52.77-.21,1.27,1.27,2.54,2.54,3.79,3.79Z"/>
    <path d="M95.96,415.84c1.5,1.54,2.81,2.89,4.19,4.3-.04.25-.26.55-.61.21-1.27-1.22-2.5-2.47-3.72-3.74-.08-.08.07-.39.15-.77Z"/>
    <path d="M187.02,415.46c-.32.54-.57.51-.87.21-1.25-1.25-2.5-2.49-3.75-3.73.23-.53.48-.58.84-.23,1.25,1.24,2.5,2.48,3.78,3.75Z"/>
    <path d="M59.28,411.73c1.25,1.27,2.48,2.52,3.72,3.77.28.28.39.53-.18.84-.39-.38-.82-.8-1.24-1.22-.84-.84-1.68-1.68-2.53-2.52-.29-.29-.36-.54.23-.88Z"/>
    <path d="M8.89,327.23h-4.42c.96-.69-.29-1.45.54-2.13.14.14.36.27.41.44.27.95.27.98,1.2,1.02.58.03,1.16-.02,1.73.03.22.02.43.19.64.3-.03.12-.07.23-.1.35Z"/>
    <path d="M7.15,294.29c-1.04-.46-.57-1.21-.66-1.77-.05-.32.02-.33.66-.58v2.35Z"/>
    <path class="cls-8" d="M102.5,416.98c-.45-.59-.82-1.07-1.28-1.67.29-.29.7-.73,1.15-1.13.42-.37.9-.38,1.34,0,.44.39.47.88.05,1.42-.35.44-.76.84-1.25,1.37Z"/>
    <path class="cls-8" d="M100.6,414.93c-.44-.48-.8-.86-1.22-1.31.41-.39.81-.79,1.23-1.17.32-.28.67-.28,1,0,.36.31.5.69.2,1.09-.34.46-.75.87-1.21,1.39Z"/>
    <path class="cls-8" d="M143.62,416.84c-1.07-1.11-2.03-2.12-3.07-3.19.61-.74,1.15-1.7,2.39-1.45,1.11.22,1.8,1.03,2.14,2.04.42,1.26-.66,1.8-1.46,2.61Z"/>
    <path class="cls-8" d="M34.14,231.19c0,.64-.53,1.15-1.17,1.15-.7,0-1.23-.56-1.19-1.26.04-.65.56-1.11,1.23-1.08.67.03,1.15.53,1.14,1.19Z"/>
    <path class="cls-8" d="M32.94,227.53c.53,0,.95.4.95.9,0,.5-.43.92-.94.92-.5,0-.93-.42-.95-.92-.01-.5.4-.9.94-.9Z"/>
    <path class="cls-8" d="M65.93,409.85c-.51.5-.89.87-1.35,1.33-.39-.8-.73-1.51-1.21-2.48.97.44,1.66.75,2.56,1.16Z"/>
    <path class="cls-8" d="M3.81,308.24c1-.37,1.71-.64,2.56-.95v1.83c-.77-.27-1.53-.53-2.56-.88Z"/>
    <path class="cls-8" d="M34.13,288.76c.03.78-.44,1.41-1.07,1.43-.63.03-1.17-.55-1.23-1.31-.05-.75.42-1.36,1.09-1.39.69-.04,1.19.48,1.21,1.27Z"/>
    <path class="cls-8" d="M7.08,274.46c-.71,0-1.32-.54-1.33-1.17,0-.66.53-1.1,1.34-1.11.85,0,1.36.37,1.38,1.05.03.68-.59,1.23-1.39,1.23Z"/>
    <path class="cls-8" d="M5.84,352.21h-2.11c0-.67-.03-1.31,0-1.95.04-.57.44-.87.97-.94.51-.07,1.04.33,1.11.93.07.6.02,1.22.02,1.96Z"/>
    <path class="cls-8" d="M6,283.73c-.57-.11-1.15-.15-1.67-.36-.28-.11-.53-.49-.62-.8-.13-.44.14-.82.57-.96,1.2-.41,2.42-.43,3.6.03.27.1.51.53.57.84.1.44-.19.81-.64.92-.59.15-1.2.22-1.81.33Z"/>
    <path class="cls-8" d="M27.17,229.94c.06-.54.08-1.08.2-1.59.11-.47.42-.81.95-.82.52,0,.85.27.99.76.32,1.09.32,2.18,0,3.27-.14.46-.45.79-.98.78-.54,0-.83-.38-.94-.83-.13-.51-.14-1.05-.21-1.57Z"/>
    <path class="cls-8" d="M27.17,345.49c.08-.55.11-1.08.23-1.59.12-.46.41-.82.96-.8.53.02.83.35.96.82.31,1.09.36,2.2-.04,3.26-.12.32-.53.65-.87.73-.48.11-.88-.26-1-.72-.14-.55-.16-1.13-.23-1.69Z"/>
    <path class="cls-8" d="M27.17,287.75c.08-.54.11-1.08.24-1.59.12-.46.43-.89.95-.77.34.08.78.38.9.68.42,1.1.42,2.26.02,3.37-.12.32-.53.65-.87.73-.48.11-.88-.26-1-.73-.14-.55-.16-1.13-.23-1.69Z"/>
    <path class="cls-8" d="M20.06,345.79h-2.18c-.02-.72.37-1.01.96-1.06.65-.05,1.09.22,1.22,1.06Z"/>
    <path class="cls-8" d="M17.87,288c.04-.76.5-1,1.07-1.01.58-.01,1.01.26,1.11,1.01h-2.18Z"/>
    <path class="cls-8" d="M33.27,344.22v2.02h-1.54c.24-.84.85-1.42,1.54-2.02Z"/>
    <path class="cls-8" d="M7.75,319.51c-.84-.52-.61-1.34-.85-2.08.73-.23,1.15.06,1.4.64.25.6.21,1.13-.55,1.44Z"/>
    <path class="cls-8" d="M7.13,329.29c.34.16.76.26.99.52.21.24.31.68.26,1.01-.03.24-.35.52-.6.61-.12.04-.48-.27-.56-.49-.16-.45-.2-.94-.29-1.41.07-.08.14-.16.2-.23Z"/>
    <path class="cls-8" d="M6.91,340.28c1.16.17,1.63.62,1.49,1.36-.05.26-.34.48-.53.72-.23-.18-.57-.32-.66-.55-.17-.44-.2-.93-.31-1.52Z"/>
    <path class="cls-8" d="M20.09,230.22h-2.24c.07-.76.45-1.09,1.09-1.11.67-.02,1.01.35,1.15,1.11Z"/>
    <path class="cls-8" d="M6.35,347.01c-.75-.04-1.03-.48-1.1-1.09-.06-.55.27-.85,1.1-1.06v2.15Z"/>
    <path class="cls-8" d="M6.38,321.76v2.19c-.76.02-1.08-.43-1.12-1.04-.04-.63.28-1.06,1.12-1.15Z"/>
  </g>
  <path class="cls-13" d="M402.46,160.27v-.8l14.38-8.3v.8l-14.38,8.3Z"/>
  <path class="cls-13" d="M416.83,151.97v-.8l14.38,8.3v.8l-14.38-8.3Z"/>
  <path class="cls-13" d="M431.21,160.27v-.8l14.38-8.3v.8l-14.38,8.3Z"/>
  <text class="cls-7" transform="translate(455.8 164.37)"><tspan x="0" y="0">N</tspan></text>
  <path class="cls-13" d="M445.59,151.97v-.8l8.95,5.17-.35.6-8.61-4.97Z"/>
  <path class="cls-13" d="M465.72,156.95l-.35-.6,8.97-5.18v.8l-8.63,4.98Z"/>
  <path class="cls-13" d="M474.34,151.97v-.8l14.38,8.3v.8l-14.38-8.3Z"/>
  <path class="cls-13" d="M488.72,160.27v-.8l14.39-8.3v.8l-14.39,8.3Z"/>
  <path class="cls-13" d="M503.11,151.97v-.8l14.38,8.3v.8l-14.38-8.3Z"/>
  <text class="cls-7" transform="translate(527.7 146.45)"><tspan x="0" y="0">H</tspan></text>
  <text class="cls-7" transform="translate(527.7 156.07)"><tspan x="0" y="0">N</tspan></text>
  <path class="cls-13" d="M517.49,160.27v-.8l8.27-4.78.35.6-8.62,4.97Z"/>
  <path class="cls-13" d="M537.58,155.27l.35-.6,8.66,5-.69.4-8.31-4.8Z"/>
  <text class="cls-7" transform="translate(556.14 156.07)"><tspan x="0" y="0">O</tspan></text>
  <path class="cls-13" d="M544.92,159.31l-.35-.6,9.79-5.65.35.6-9.79,5.65Z"/>
  <path class="cls-13" d="M546.41,161.9l-.35-.6,9.79-5.65.35.6-9.79,5.65Z"/>
  <path class="cls-13" d="M545.9,160.07l.69-.4v16.6l-.69.4v-16.6Z"/>
  <path class="cls-13" d="M545.9,176.67l.69-.4,14.03,8.1v.4h-.69l-14.03-8.1Z"/>
  <path class="cls-13" d="M560.96,184.97l-.35-.2v-.4l14.03-8.1.69.4-14.38,8.3Z"/>
  <path class="cls-13" d="M560.27,185.37l.35-.6.35.2v16.2l-.69.4v-16.2Z"/>
  <text class="cls-7" transform="translate(533.43 197.57)"><tspan x="0" y="0">HO</tspan></text>
  <path class="cls-13" d="M559.93,184.77h.69l-.35.6-8.91,5.14-.35-.6,8.91-5.14Z"/>
  <text class="cls-7" transform="translate(570.51 164.37)"><tspan x="0" y="0">OH</tspan></text>
  <path class="cls-13" d="M575.34,176.67l-.69-.4v-9.96h.69v10.36Z"/>
  <text class="cls-7" transform="translate(584.89 189.27)"><tspan x="0" y="0">O</tspan></text>
  <path class="cls-13" d="M574.82,175.05l.35-.6,10.19,5.89-.35.6-10.19-5.89Z"/>
  <path class="cls-13" d="M573.33,177.64l.35-.6,10.19,5.89-.35.6-10.19-5.89Z"/>
  <path class="cls-13" d="M560.27,201.58l.69-.4,14.38,8.3-.69.4-14.38-8.3Z"/>
  <text class="cls-7" transform="translate(584.89 205.87)"><tspan x="0" y="0">O</tspan></text>
  <path class="cls-13" d="M573.67,209.12l-.35-.6,9.79-5.65.35.6-9.79,5.65Z"/>
  <path class="cls-13" d="M575.17,211.7l-.35-.6,9.79-5.65.35.6-9.79,5.65Z"/>
  <text class="cls-7" transform="translate(570.83 230.78)"><tspan x="0" y="0">NH</tspan></text>
  <path class="cls-13" d="M574.65,209.88l.69-.4v11.34h-.69v-10.94Z"/>
  <path class="cls-13" d="M568.89,229.4l.35.6-8.62,4.98v-.8l8.27-4.78Z"/>
  <path class="cls-13" d="M560.62,234.18v.8l-14.38-8.3v-.8l14.38,8.3Z"/>
  <path class="cls-13" d="M546.24,225.88v.8l-14.38,8.3v-.8l14.38-8.3Z"/>
  <path class="cls-13" d="M531.86,234.18v.8l-14.38-8.3v-.8l14.38,8.3Z"/>
  <text class="cls-7" transform="translate(498.95 239.08)"><tspan x="0" y="0">N</tspan></text>
  <path class="cls-13" d="M517.49,225.88v.8l-8.63,4.98-.35-.6,8.97-5.18Z"/>
  <path class="cls-13" d="M497.68,231.05l-.35.6-8.62-4.97v-.8l8.96,5.17Z"/>
  <path class="cls-13" d="M488.72,225.88v.8l-14.38,8.3v-.8l14.38-8.3Z"/>
  <path class="cls-13" d="M474.34,234.18v.8l-14.38-8.3v-.8l14.38,8.3Z"/>
  <path class="cls-13" d="M459.97,225.88v.8l-14.38,8.3v-.8l14.38-8.3Z"/>
  <text class="cls-7" transform="translate(427.05 221.16)"><tspan x="0" y="0">H</tspan></text>
  <text class="cls-7" transform="translate(427.05 230.78)"><tspan x="0" y="0">N</tspan></text>
  <path class="cls-13" d="M445.59,234.18v.8l-8.66-5,.35-.6,8.31,4.8Z"/>
  <text class="cls-7" transform="translate(383.92 143.91)"><tspan x="0" y="0">H</tspan></text>
  <text class="cls-6" transform="translate(392.24 146.45)"><tspan x="0" y="0">2</tspan></text>
  <text class="cls-7" transform="translate(383.92 156.07)"><tspan x="0" y="0">N</tspan></text>
  <path class="cls-13" d="M402.46,159.47v.8l-8.66-5,.35-.6,8.31,4.8Z"/>
  <path class="cls-13" d="M381.97,154.7l.35.6-8.62,4.97v-.8l8.27-4.78Z"/>
  <path class="cls-13" d="M373.7,159.47v.8l-14.38-8.3v-.4l.35-.2,14.03,8.1Z"/>
  <text class="cls-7" transform="translate(369.22 180.97)"><tspan x="0" y="0">O</tspan></text>
  <path class="cls-13" d="M374.85,159.01h.69v11.86h-.69v-11.86Z"/>
  <path class="cls-13" d="M371.86,159.01h.69v11.86h-.69v-11.86Z"/>
  <path class="cls-13" d="M425.1,229.41l.35.6-8.62,4.97v-.8l8.27-4.78Z"/>
  <text class="cls-7" transform="translate(412.35 255.68)"><tspan x="0" y="0">O</tspan></text>
  <path class="cls-13" d="M417.98,233.72h.69v11.86h-.69v-11.86Z"/>
  <path class="cls-13" d="M414.99,233.72h.69v11.86h-.69v-11.86Z"/>
  <path class="cls-13" d="M416.83,234.18v.8l-14.38-8.3v-.4l.35-.2,14.03,8.1Z"/>
  <path class="cls-13" d="M402.8,226.08l-.35.2-.35-.2v-16.2l.69-.4v16.6Z"/>
  <path class="cls-13" d="M399.81,224.56h-.69v-13.15h.69v13.15Z"/>
  <path class="cls-13" d="M402.8,209.48l-.69.4-14.03-8.1v-.8l14.72,8.5Z"/>
  <path class="cls-13" d="M388.08,200.98v.8l-14.03,8.1-.35-.2v-.4l14.38-8.3Z"/>
  <path class="cls-13" d="M387.91,204.53l.35.6-11.39,6.58-.35-.6,11.39-6.58Z"/>
  <path class="cls-13" d="M373.36,209.88l.35-.2.35.2v16.2l-.35.2-.35-.2v-16.2Z"/>
  <path class="cls-13" d="M373.7,226.68v-.4l.35-.2,14.03,8.1v.8l-14.38-8.3Z"/>
  <path class="cls-13" d="M376.52,224.86l.35-.6,11.39,6.58-.35.6-11.39-6.58Z"/>
  <path class="cls-13" d="M388.08,234.98v-.8l14.03-8.1.35.2v.4l-14.38,8.3Z"/>
  <path class="cls-13" d="M359.67,151.37l-.35.2-.35-.2v-16.2l.69-.4v16.6Z"/>
  <path class="cls-13" d="M356.68,149.84h-.69v-13.15h.69v13.15Z"/>
  <path class="cls-13" d="M359.67,134.77l-.69.4-14.03-8.1v-.8l14.72,8.5Z"/>
  <path class="cls-13" d="M344.95,126.27v.8l-14.03,8.1-.35-.2v-.4l14.38-8.3Z"/>
  <path class="cls-13" d="M344.77,129.82l.35.6-11.39,6.58-.35-.6,11.39-6.58Z"/>
  <path class="cls-13" d="M330.22,135.17l.35-.2.35.2v16.2l-.35.2-.35-.2v-16.2Z"/>
  <path class="cls-13" d="M330.57,151.97v-.4l.35-.2,14.03,8.1v.8l-14.38-8.3Z"/>
  <path class="cls-13" d="M333.39,150.14l.35-.6,11.39,6.58-.35.6-11.39-6.58Z"/>
  <path class="cls-13" d="M344.95,160.27v-.8l14.03-8.1.35.2v.4l-14.38,8.3Z"/>
  <text class="cls-3" transform="translate(303.38 131.16)"><tspan x="0" y="0">HO</tspan></text>
  <path class="cls-13" d="M330.57,134.57v.4l-.35.2-8.83-5.1.35-.6,8.83,5.1Z"/>
  <text class="cls-3" transform="translate(346.52 205.87)"><tspan x="0" y="0">HO</tspan></text>
  <path class="cls-4" d="M373.7,209.28v.4l-.35.2-8.83-5.1.35-.6,8.83,5.1Z"/>
  <path class="cls-13" d="M459.62,166.16h.69v10.51l-.69-.4v-10.11Z"/>
  <path class="cls-13" d="M502.76,240.88h.69v10.51l-.69-.4v-10.11Z"/>
  <path class="cls-13" d="M459.62,176.27l.69.4-14.55,8.4-.35-.6,14.2-8.2Z"/>
  <text class="cls-7" transform="translate(469.86 189.27)"><tspan x="0" y="0">O</tspan></text>
  <path class="cls-13" d="M459.79,175.05l.35-.6,10.19,5.89-.35.6-10.19-5.89Z"/>
  <path class="cls-13" d="M458.3,177.64l.35-.6,10.19,5.89-.35.6-10.19-5.89Z"/>
  <path class="cls-13" d="M502.76,250.98l.69.4-14.55,8.4-.35-.6,14.2-8.2Z"/>
  <text class="cls-7" transform="translate(513 263.98)"><tspan x="0" y="0">O</tspan></text>
  <path class="cls-13" d="M502.94,249.76l.35-.6,10.19,5.89-.35.6-10.19-5.89Z"/>
  <path class="cls-13" d="M501.44,252.35l.35-.6,10.19,5.89-.35.6-10.19-5.89Z"/>
  <path class="cls-14" d="M383.96,162.78c0,2.29,1.85,4.14,4.14,4.14s4.14-1.85,4.14-4.14-1.85-4.14-4.14-4.14-4.14,1.85-4.14,4.14Z"/>
  <path class="cls-13" d="M385.81,162.48h4.54v.58h-4.54v-.58Z"/>
  <path class="cls-13" d="M388.37,160.5v4.54h-.58v-4.54h.58Z"/>
  <text class="cls-5" transform="translate(303.38 164.37)"><tspan x="0" y="0">HO</tspan></text>
  <path class="cls-13" d="M330.22,151.37l.35.2v.4l-9.26,5.34-.35-.6,9.26-5.34Z"/>
  <text class="cls-5" transform="translate(346.52 239.08)"><tspan x="0" y="0">HO</tspan></text>
  <path class="cls-13" d="M373.36,226.08l.35.2v.4l-9.26,5.34-.35-.6,9.26-5.34Z"/>
  <text class="cls-7" transform="translate(356.11 286.34)"><tspan x="0" y="0">FeatureID:</tspan></text>
  <text class="cls-7" transform="translate(413.78 286.34)"><tspan x="0" y="0">10163</tspan></text>
  <text class="cls-7" transform="translate(449.05 286.34)"><tspan x="0" y="0">(Rhodopetrobactin)</tspan></text>
  <text class="cls-7" transform="translate(365.63 302.65)"><tspan x="0" y="0">Chemical</tspan></text>
  <text class="cls-7" transform="translate(416.88 302.65)"><tspan x="0" y="0">Formula:</tspan></text>
  <text class="cls-7" transform="translate(465.58 302.65)"><tspan x="0" y="0">C</tspan></text>
  <text class="cls-6" transform="translate(473.9 305.19)"><tspan x="0" y="0">40</tspan></text>
  <text class="cls-7" transform="translate(483.52 302.65)"><tspan x="0" y="0">H</tspan></text>
  <text class="cls-6" transform="translate(491.85 305.19)"><tspan x="0" y="0">59</tspan></text>
  <text class="cls-7" transform="translate(501.46 302.65)"><tspan x="0" y="0">N</tspan></text>
  <text class="cls-6" transform="translate(509.79 305.19)"><tspan x="0" y="0">6</tspan></text>
  <text class="cls-7" transform="translate(514.6 302.65)"><tspan x="0" y="0">O</tspan></text>
  <text class="cls-6" transform="translate(523.57 305.19)"><tspan x="0" y="0">13</tspan></text>
  <text class="cls-6" transform="translate(533.19 298.16)"><tspan x="0" y="0">+</tspan></text>
  <text class="cls-7" transform="translate(394.89 318.97)"><tspan x="0" y="0">Exact</tspan></text>
  <text class="cls-7" transform="translate(426.93 318.97)"><tspan x="0" y="0">Mass:</tspan></text>
  <text class="cls-7" transform="translate(460.88 318.97)"><tspan x="0" y="0">831.4135</tspan></text>
  <text class="cls-10" transform="translate(112.19 15.44)"><tspan x="0" y="0">NdCl</tspan></text>
  <text class="cls-10" transform="translate(136.64 19.44) scale(.58)"><tspan x="0" y="0">3 </tspan></text>
  <text class="cls-10" transform="translate(141.71 15.44)"><tspan class="cls-1" x="0" y="0">g</tspan><tspan class="cls-15" x="6.64" y="0">r</tspan><tspan class="cls-12" x="10.44" y="0">o</tspan><tspan class="cls-2" x="16.94" y="0">wn samples</tspan></text>
  <text class="cls-10" transform="translate(161.44 219.28)"><tspan x="0" y="0">Nd</tspan></text>
  <text class="cls-9" transform="translate(176.1 223.28) scale(.58)"><tspan x="0" y="0">2</tspan></text>
  <text class="cls-10" transform="translate(179.69 219.28)"><tspan x="0" y="0">O</tspan></text>
  <text class="cls-10" transform="translate(187.96 223.28) scale(.58)"><tspan x="0" y="0">3 </tspan></text>
  <text class="cls-10" transform="translate(193.03 219.28)"><tspan class="cls-1" x="0" y="0">g</tspan><tspan class="cls-15" x="6.64" y="0">r</tspan><tspan class="cls-12" x="10.44" y="0">o</tspan><tspan x="16.94" y="0">wn samples</tspan></text>
  <text class="cls-10" transform="translate(54.74 19.51)"><tspan x="0" y="0">A.</tspan></text>
  <text class="cls-10" transform="translate(54.74 221.58)"><tspan class="cls-11" x="0" y="0">B</tspan><tspan x="6.35" y="0">.</tspan></text>
  <text class="cls-10" transform="translate(316.03 108)"><tspan x="0" y="0">C.</tspan></text>
</svg>