<?xml version="1.0" encoding="UTF-8"?>
<svg id="Layer_1" xmlns="http://www.w3.org/2000/svg" viewBox="0 0 571.67 442.98">
  <defs>
    <style>
      .cls-1 {
        letter-spacing: 0em;
      }

      .cls-2 {
        letter-spacing: 0em;
      }

      .cls-3 {
        fill: #fff;
      }

      .cls-4 {
        letter-spacing: 0em;
      }

      .cls-4, .cls-5 {
        fill: #231f20;
        font-family: MyriadPro-Regular, 'Myriad Pro';
        font-size: 12px;
      }

      .cls-6 {
        letter-spacing: -.01em;
      }

      .cls-7 {
        font-size: 13.09px;
      }

      .cls-7, .cls-8 {
        font-family: ArialMT, Arial;
        isolation: isolate;
      }

      .cls-7, .cls-8, .cls-9 {
        fill: #010101;
      }

      .cls-10 {
        letter-spacing: 0em;
      }

      .cls-11 {
        fill: none;
        stroke: #010101;
        stroke-miterlimit: 10;
        stroke-width: 1.33px;
      }

      .cls-8 {
        font-size: 9.82px;
      }

      .cls-12 {
        letter-spacing: -.01em;
      }
    </style>
  </defs>
  <g>
    <path class="cls-3" d="M292.28,222.94H0V3.73h292.28v219.21ZM39.87,185.24V6.69h-1.05c0,5.21,0,10.35,0,15.49,0,5.13,0,10.27,0,15.55h-2.94v1.02h2.87v51.63c-1,.05-1.95.1-2.95.15.03.4.05.66.08,1.03h2.86v51.67h-2.92c.03.43.05.72.08,1.13h2.91v1.7c0,12.73.02,25.47-.02,38.2,0,1.48.43,2.19,2.19,2.15,4.91-.09,9.81-.03,14.72-.03h1.45v2.89h1.06v-2.81h29.43v2.87c.4-.02.66-.04.96-.06.05-.99.1-1.9.14-2.8h29.41v2.87c.41-.02.67-.04,1.07-.06v-2.82h29.42v2.87c.41-.02.66-.03,1.06-.05v-2.82h29.43v2.87c.4-.03.66-.05.94-.07.05-.99.09-1.9.14-2.77,2.11-.23,28.41-.14,29.42.12v2.73c.41-.02.68-.04,1.07-.06v-2.82h29.42v2.81h1.06v-2.8h29.43v2.87c.4-.03.66-.04,1.07-.07v-2.92h17.7c-.02-.43-.04-.73-.06-1.1H39.87ZM273,85.22c.15-1.19-.73-2.15-1.88-2.14-1.14,0-2.07.98-1.95,2.15.06.56.09,1.08,0,1.64-.16,1.17.74,2.16,1.88,2.2,1.19.04,2.11-.96,2.03-2.2-.04-.55-.06-1.1-.1-1.65ZM59.55,78.25c.19-1.15-.04-1.88-.81-2.38-.71-.46-1.45-.46-2.16,0-.77.5-.97,1.23-.86,2.11.05.39,0,.79-.02,1.19-.07,1.3.77,2.2,2.02,2.17,1.19-.03,1.97-.92,1.9-2.17-.02-.39-.06-.79-.07-.91ZM115.52,197.46c-.04-.09-.08-.16-.1-.24-.38-1.5-1.41-1.87-2.56-.88-.6.52-1.14,1.11-1.58,1.55,1.43,1.41,2.77,2.73,4.17,4.11.54-.56,1.24-1.18,1.79-1.91.78-1.04.24-2.36-1.01-2.63-.23-.05-.48,0-.71,0ZM120.67,177.65c0-1.1-.89-2.03-1.98-2.06-1.08-.03-2.13,1.02-2.1,2.1.03,1.1.94,1.95,2.08,1.94,1.16,0,1.99-.84,2-1.98ZM88.16,175.59c-1.06,0-2.01.94-2.02,2.02-.02,1.14.81,2,1.95,2.03,1.17.03,2.15-.9,2.13-2.02-.02-1.04-1.02-2.02-2.06-2.03ZM210.14,179.63c1.14,0,2.02-.85,2.04-1.96.02-1.06-.9-2.03-1.97-2.08-1.09-.05-2.12.97-2.11,2.07.01,1.1.91,1.96,2.04,1.97ZM179.66,179.63c1.11,0,2.02-.88,2.03-1.97.01-1.06-.93-2.04-1.99-2.07-1.09-.04-2.09.97-2.08,2.09.02,1.12.89,1.95,2.03,1.95ZM240.59,175.59c-1.14.04-2,1.01-1.94,2.19.06,1.14.93,1.9,2.1,1.85,1.12-.05,1.96-.96,1.91-2.07-.05-1.06-1.04-2.01-2.08-1.97ZM273.11,103.38c0-1.12-.92-2.01-2.02-1.98-1.05.03-1.91.9-1.93,1.95-.02,1.12.85,2.02,1.96,2.03,1.11,0,1.99-.89,1.98-2.01ZM210.68,192.27c-1.48-.86-2.97-.13-3.51,1.39-.53,1.51.69,3.56,2.36,3.96,1.83.44,3.44-.89,3.75-3.02-.5-.56-.95-1.07-1.4-1.57-1.47,1.07-1.68,1.38-1.32,2.04.4-.33.8-.66,1.18-.98.85.7.9.92.46,1.69-.87,1.5-2.53,1.59-3.72.19-.59-.69-.94-1.46-.52-2.34.4-.83,1.06-1.31,2.06-1.15.2.03.44-.14.66-.22ZM273.11,61.76c-.01-1.12-.92-2-2.03-1.96-1.06.04-1.91.9-1.92,1.96-.01,1.12.86,2.02,1.97,2.02,1.11,0,1.99-.89,1.98-2.01ZM271.09,116.09c1.1.03,2.01-.86,2.02-1.97.01-1.12-.88-2.03-1.98-2.03-1.03,0-1.93.89-1.97,1.92-.04,1.12.82,2.04,1.92,2.07ZM273.11,14.71c-.02-1.11-.94-2.01-2.03-1.97-1.1.04-1.96.97-1.91,2.09.04,1.03.96,1.92,1.98,1.92,1.09,0,1.98-.93,1.97-2.04ZM57.63,88.88c-1.1.02-1.97.93-1.94,2.04.03,1.11.94,1.96,2.06,1.91,1.07-.04,1.88-.89,1.88-1.97,0-1.11-.9-2-2-1.98ZM149.15,101.49c-1.15,0-1.99.85-1.98,1.98.02,1.07.84,1.91,1.92,1.93,1.13.03,2.01-.82,2.03-1.94.01-1.15-.81-1.98-1.97-1.98ZM149.2,111.51c-1.11-.03-2.01.84-2.03,1.95-.01,1.08.79,1.93,1.86,1.98,1.16.05,2.04-.75,2.08-1.87.04-1.12-.81-2.03-1.92-2.06ZM212.16,79.78c-.03-1.09-.96-1.94-2.08-1.91-1.07.03-1.92.88-1.93,1.94-.01,1.07.93,2,2.02,2,1.09,0,2.03-.95,2-2.02ZM151.12,81.17c.01-1.12-.87-2.02-1.97-2.02-1.1,0-1.99.9-1.98,2.01.01,1.06.85,1.92,1.91,1.96,1.1.04,2.02-.84,2.04-1.95ZM59.63,72.07c-.02-1.12-.92-1.97-2.04-1.93-1.11.04-1.95.95-1.9,2.07.04,1.08.88,1.86,1.98,1.86,1.14,0,1.99-.86,1.96-1.99ZM273.11,177.62c-.01-1.13-.89-1.96-2.03-1.93-1.09.03-1.9.84-1.91,1.93-.01,1.12.86,2,1.97,2.01,1.12,0,1.98-.88,1.97-2.01ZM151.12,94.07c0-1.12-.88-2.02-1.98-2.01-1.1,0-1.99.93-1.97,2.03.02,1.05.88,1.93,1.93,1.96,1.07.04,2.01-.89,2.02-1.99ZM273.11,107.66c-.03-1.1-.99-2.01-2.06-1.95-1.04.06-1.89.96-1.89,2.01,0,1.09.93,2.03,2.01,2.01,1.1-.02,1.97-.95,1.94-2.07ZM141.85,197.79c1.4,1.4,2.75,2.76,4.24,4.25.29-.33.66-.81,1.08-1.25,1.24-1.32,1.3-2.38.14-3.74-.31-.36-.69-.69-1.09-.95-.96-.62-1.93-.55-2.79.19-.61.53-1.17,1.12-1.57,1.51ZM244.27,195.05c-1.29-1.29-2.52-2.52-3.74-3.74-.38-.38-.61-.22-.83.24.51.55,1.02,1.1,1.38,1.49-.69.77-1.29,1.45-2.08,2.33-.28-.38-.51-.77-.82-1.09-.29-.3-.6-.93-1.18-.08,1.24,1.23,2.48,2.49,3.74,3.73.4.39.6.12.97-.41-.71-.52-1.39-1.03-2.05-1.52.83-.84,1.48-1.5,2.19-2.22.35.34.69.74,1.09,1.06.33.26.57,1.05,1.33.22ZM205.05,203.75c-.29-.3-.59-.61-.89-.93-.33-.35-.7-.68-.98-1.08-.34-.48-.25-.97.18-1.29.42-.31.76-.11,1.07.19.55.54,1.08,1.1,1.65,1.62.38.35.53.05.7-.25-.71-.73-1.35-1.46-2.07-2.1-.74-.64-1.55-.45-2.02.4-.15.27-.2.6-.3.9-.56.17-1.16.39-1.38.81-.25.48-.63.71-1.16,1.01.97.97,1.85,1.86,2.76,2.71.11.11.43,0,.93,0-.53-.56-.83-.87-1.14-1.19-.28-.29-.58-.57-.83-.89-.43-.55-.42-1.03,0-1.41.52-.49.88-.09,1.24.24.5.48.98.97,1.46,1.46.32.33.56.24.79-.2ZM150.07,198c.85-.89,1.68-1.78,2.52-2.65.3-.31.31-.55-.2-.77-.77.76-1.57,1.54-2.26,2.22-.54-.48-1.01-.89-1.67-1.46.51-.41,1-.72,1.37-1.15.28-.33,1.09-.53.49-1.37-.77.74-1.49,1.43-2.31,2.21-.37-.41-.71-.79-1.13-1.25.76-.78,1.52-1.55,2.49-2.55-.5,0-.81-.1-.93,0-.9.85-1.77,1.73-2.59,2.55,1.41,1.41,2.72,2.72,4.22,4.21ZM267.62,202.14c-.61-.63-1.23-1.22-1.77-1.86-.43-.5-.37-1.05.06-1.4.47-.37.83-.1,1.16.23.52.51,1.02,1.04,1.56,1.53.34.32.56.13.74-.34-.62-.6-1.25-1.23-1.9-1.83-.95-.87-1.76-.71-2.29.45-.1.22-.16.45-.15.42-.61.42-1.16.62-1.41,1.01-.28.45-.5.87-.93.91.96,1,1.91,1.99,2.88,3,.35-.19.31-.43.01-.73-.49-.48-.99-.96-1.43-1.49-.45-.54-.44-1.08-.02-1.4.51-.39.91-.08,1.27.27.46.45.92.91,1.38,1.37.28.28.53.37.84-.16ZM233.91,205.7c0-.38.09-.67-.02-.8-.38-.47-.85-.87-1.26-1.31-.62-.68-.71-1.3-.26-1.7.38-.33.77-.21,1.44.44.54.52,1.08,1.03,1.58,1.51.48-.26.47-.49.21-.75-.51-.52-1.05-1.02-1.51-1.58-.42-.5-.36-1.07.06-1.41.48-.39.82-.08,1.15.24.61.58,1.21,1.17,1.78,1.73.43-.17.58-.4.31-.68-.62-.64-1.23-1.3-1.9-1.88-.74-.63-1.56-.43-2.01.43-.13.25-.17.54-.22.7-.49.27-1.03.41-1.3.76-.36.46-.61,1-1.33,1.24.97.96,1.83,1.82,2.7,2.67.11.11.26.17.58.38ZM140.63,207.11c-.63-.57-1.29-1.1-1.86-1.72-.45-.49-.39-1.04.04-1.39.46-.38.83-.11,1.17.21.52.5,1.03,1.03,1.55,1.53.34.33.56.18.77-.32-.67-.64-1.34-1.33-2.07-1.96-.8-.69-1.6-.51-2.08.42-.13.24-.18.53-.21.64-.54.33-1.15.51-1.35.89-.28.54-.69.81-1.25,1.12,1.05,1.05,1.97,2.09,3.02,2.94.54-.33.35-.58.1-.84-.48-.49-.98-.97-1.41-1.5-.42-.53-.37-1.09.05-1.39.47-.33.84-.07,1.17.26.49.48.98.97,1.46,1.46.3.3.55.31.91-.35ZM109.55,207.75c.61-.36.41-.61.16-.86-.48-.49-.99-.96-1.43-1.49-.41-.5-.35-1.07.06-1.4.48-.38.83-.07,1.16.25.49.48.98.97,1.47,1.46.29.28.55.34.81-.24-.71-.69-1.42-1.46-2.21-2.13-.61-.51-1.33-.35-1.77.32-.19.3-.27.66-.35.85-.54.34-1.11.52-1.37.91-.3.46-.56.88-1.06.98,1,1.03,1.96,2.03,2.93,3.04.36-.2.39-.43.07-.74-.49-.48-.99-.96-1.43-1.49-.42-.5-.41-1.11-.02-1.42.51-.4.9-.1,1.27.27.57.57,1.14,1.13,1.72,1.71ZM47.58,208.59c.61-.29.74-.51.41-.85-.51-.52-1.02-1.04-1.5-1.59-.36-.41-.41-.88-.02-1.31.32-.35.73-.3,1.26.19.5.47.97.97,1.46,1.45.38.38.62.24.85-.41-.57-.52-1.24-1.05-1.81-1.67-.45-.49-.38-1.04.05-1.39.46-.37.83-.1,1.17.22.53.5,1.03,1.03,1.55,1.53.34.33.56.17.78-.38-.52-.47-1.08-.98-1.65-1.5-.15-.14-.28-.29-.44-.42-.83-.66-1.6-.5-2.08.44-.13.25-.18.53-.21.63-.55.34-1.17.51-1.36.9-.27.55-.71.8-1.22,1.11.31.33.56.59.8.85.67.75,1.34,1.5,1.96,2.19ZM81.13,200.27c-.64.47-1.2.71-1.49,1.13-.29.41-.5.81-1.26.91,1.07,1.07,1.95,2,2.89,2.87.36.34.55,0,.67-.45-.33-.3-.71-.6-1.04-.95-.33-.35-.7-.71-.88-1.13-.11-.26.02-.72.2-.97.25-.34.66-.25.98-.01.23.17.41.39.62.58.38.37.74.74,1.12,1.11.32.3.56.26.75-.23-.59-.62-1.23-1.23-1.8-1.9-.36-.41-.35-.91.06-1.31.43-.41.81-.19,1.16.15.52.51,1.03,1.03,1.55,1.54.31.3.56.27.77-.23-.6-.61-1.2-1.26-1.85-1.86-1.04-.96-1.88-.74-2.38.59-.06.15-.1.3-.06.19ZM3,136.22c1.83,0,3.59.02,5.36-.01.45,0,.49-.32.27-.74-.68-.04-1.39-.08-2.15-.12-.04-.72-.07-1.36-.12-2-.04-.61-.31-1.07-.88-1.35-1.12-.54-2.28-.01-2.46,1.24-.13.91-.02,1.84-.02,2.98ZM92.15,194.63c-1.79-.77-3.54-1.54-5.32-2.26-.19-.08-.55.07-.72.22-.11.1-.1.45-.02.63.37.89.78,1.77,1.18,2.65.38.83.76,1.65,1.17,2.56,1.09-.95-.33-1.57-.11-2.23.55-.58,1.04-1.1,1.56-1.65.4.16.78.28,1.13.46.46.23.82.27,1.12-.39ZM3.06,88.13c-.06.11-.13.21-.19.32.18.13.35.38.53.39,1.25.02,2.51.05,3.76-.04.81-.06,1.41-.5,1.66-1.37.5-1.73-.33-2.99-2.15-3.1-1.05-.06-2.1-.02-3.15,0-.18,0-.36.09-.51.13-.14.65.23.68.62.68,1.09.01,2.18,0,3.27.04.9.04,1.26.4,1.35,1.23.09.85-.27,1.42-1.09,1.61-.39.09-.8.1-1.2.11-.96.01-1.93,0-2.89,0ZM173.75,204.52c-.61-.66-1.22-1.25-1.76-1.9-.41-.5-.33-1.08.08-1.4.49-.38.83-.02,1.15.28.61.58,1.2,1.18,1.78,1.74.47-.23.54-.47.22-.79-.51-.52-1.04-1.02-1.51-1.57-.36-.41-.37-.89.01-1.31.33-.37.71-.32,1.25.19.61.58,1.2,1.18,1.77,1.75.47-.24.53-.48.21-.8-.49-.48-.96-.98-1.46-1.46-1.15-1.1-2.1-.84-2.54.69-.03.11-.09.22-.15.37-1.41-.25-1.3,1.53-2.53,1.68.36.39.6.66.85.91.6.6,1.2,1.2,1.8,1.8.29.3.55.32.82-.17ZM7.47,59.64c.98-.08,1.31-.62,1.43-1.29.12-.68-.14-1.27-.69-1.71-.93-.74-3.39-.84-4.4-.18-.81.53-1.09,1.49-.67,2.32.45.91,1.59,1.29,2.6.87.92-.38,1.29-1.2.97-2.17-.08-.23-.19-.45-.36-.83.77.21,1.38.25,1.77.8.64.9-.46,1.34-.66,2.18ZM119.38,192.02c-1.22-.53-2.02-.41-2.78.37-.78.8-1.01,1.91-.55,2.9.46,1,1.23,1.7,2.26,2.07,1.35.49,2.98-.42,3.29-1.83.15-.68.11-1.35-.49-1.81-.61.17-.44.53-.31.88.27.75.01,1.35-.58,1.82-.55.44-1.38.47-2.04.02-.42-.29-.81-.67-1.14-1.06-.53-.64-.71-1.36-.25-2.13.43-.71,1.05-.97,1.86-.74.36.1.64.03.74-.48ZM8.75,89.49c-1.89.76-3.62,1.43-5.32,2.15-.21.09-.46.38-.46.58,0,.19.26.48.47.56,1.53.61,3.08,1.19,4.63,1.77.2.07.43.08.72.12-.11-1.18-1.25-.79-1.73-1.4v-2.12c.46-.68,1.73-.28,1.69-1.66ZM30.53,39.68c.24,1.17.94,1.75,1.95,1.61,1.12-.15,1.98-1.25,1.75-2.36-.09-.44-.36-.91-.68-1.24-.55-.56-1.29-.51-2.12-.16.11-.58.19-.96.27-1.39.78-.05,1.51-.09,2.33-.14-.52-.7-.91-.75-2.78-.5-.41,1-.58,2.05-.45,3.01.27-.13.5-.23.73-.36.77-.42,1.44-.3,1.78.32.38.68.15,1.69-.46,2.06-.56.34-1,.18-1.56-.61-.21-.3-.38-.53-.76-.25ZM29.77,38.4c-.14-.67-.22-1.4-.46-2.07-.23-.65-.79-1-1.52-.99-.72,0-1.26.35-1.51,1.01-.5,1.29-.48,2.6-.02,3.9.24.69.81,1.03,1.49,1.05.74.02,1.35-.35,1.6-1.07.2-.56.27-1.16.42-1.83ZM29.76,91.13c-.14-.7-.2-1.38-.41-2.03-.23-.72-.84-1.1-1.58-1.08-.69.01-1.25.35-1.5,1.03-.48,1.3-.47,2.61,0,3.9.24.67.78,1,1.5,1.02.72.01,1.28-.32,1.53-.97.23-.59.31-1.23.46-1.86ZM29.74,143.84c-.11-.61-.16-1.22-.34-1.78-.26-.82-.88-1.25-1.61-1.24-.73,0-1.35.42-1.61,1.24-.37,1.18-.37,2.38.02,3.56.24.72.75,1.13,1.53,1.15.78.02,1.38-.35,1.65-1.16.19-.56.24-1.17.36-1.77ZM57.65,198.68c-.59-.71-1.11-1.43-1.73-2.07-.72-.74-1.16-.74-1.91-.2-.95.69-1.16,1.4-.7,2.32.57-.07.35-.5.4-.83.15-.93.77-1.21,1.65-.71-.13.24-.25.49-.4.72-.15.24-.35.45-.5.69-.42.69-.37,1.37.12,1.76.52.41,1.27.26,1.83-.36.08-.09.18-.18.22-.29.18-.61.59-.96,1.03-1.03ZM181.32,193.33c-.21-.16-.36-.31-.38-.29-.68.52-1.35,1.06-1.96,1.55-.45-.38-.88-.73-1.34-1.11.78-.82,1.46-1.54,2.3-2.43-.44-.03-.72-.13-.82-.04-.85.79-1.66,1.62-2.36,2.32,1.39,1.45,2.7,2.81,4.04,4.2.13-.17.27-.35.39-.51-.6-.63-1.14-1.2-1.71-1.79.65-.68,1.2-1.26,1.83-1.91ZM20.35,91.99c.06-1.48-.47-2.24-1.51-2.37-1-.13-1.86.45-2.1,1.42-.32,1.3.13,2.35,1.18,2.7,1.11.37,1.87.03,2.41-1.11-.41-.3-.6-.02-.9.25-.86.78-1.68.44-1.92-.88h2.84ZM17.51,144.76h2.85c.06-1.44-.47-2.2-1.52-2.34-1-.13-1.86.45-2.1,1.42-.32,1.31.13,2.35,1.18,2.7,1.11.37,1.87.03,2.41-1.11-.41-.29-.61-.02-.9.25-.86.78-1.68.44-1.93-.92ZM33.39,87.92c-.86.48-2.19,2.14-3.02,3.65-.12.22-.11.5-.19.9h2.25c.45.49-.04,1.22.77,1.46.22-.7.13-1.51,1.03-1.92-.82-.17-.88-.67-.85-1.27.04-.88.01-1.76.01-2.82ZM7.43,73.25c1.05-.36,1.49-.83,1.5-1.67,0-.78-.3-1.47-1.03-1.79-.86-.38-1.66-.23-2.26.58-.13-.07-.24-.12-.34-.17-.96-.52-1.71-.34-2.14.52-.47.92-.13,1.96.76,2.37.37.17.52.02.56-.42-.1-.07-.22-.16-.35-.23-.52-.28-.67-.74-.47-1.23.1-.25.42-.51.68-.56.59-.12.85.3,1.02.81.06.17.26.29.52.57.08-.42.06-.69.18-.85.23-.3.49-.64.82-.77.52-.2,1.12.12,1.31.6.21.54.16,1.03-.37,1.4-.27.19-.77.26-.39.87ZM8.91,112.23c-1.18,0-2.15-.03-3.11,0-.76.03-1.12.35-1.2,1.1-.05.47-.03.98.09,1.44.12.46.42.85,1.17.77-.28-.55-.6-1-.71-1.49-.15-.63.16-.91.99-1.04.09.5.16,1.01.27,1.52.2.91.69,1.36,1.35,1.28.71-.08,1.11-.74,1.01-1.67-.01-.12,0-.26-.06-.36-.31-.49-.18-.96.21-1.56ZM30.44,145.2c.19.96.71,1.44,1.55,1.56.86.12,1.7-.31,2.01-1.04.39-.91.12-1.65-.65-2.23.66-1.03.65-1.75,0-2.28-.62-.5-1.67-.51-2.25.02-.32.29-.74.65-.17,1.22.18-.21.32-.33.42-.49.29-.5.74-.68,1.23-.46.24.11.48.46.53.73.09.58-.28.86-.83.99-.17.04-.3.28-.55.52.36.06.56.08.75.12.61.11.92.53.93,1.1,0,.51-.19.95-.75,1.13-.58.18-1.03.06-1.35-.49-.08-.14-.14-.34-.26-.39-.15-.07-.35-.02-.62-.02ZM6.1,123.63c.09.42.16.72.22,1.03.08.35.12.72.24,1.06.19.56.62.87,1.21.79.59-.08.92-.47.98-1.07.02-.24.07-.51-.02-.72-.23-.6-.22-1.18.05-1.79-1.02,0-1.95,0-2.87,0-.53,0-.99.14-1.19.66-.29.75-.27,1.51.14,2.22.18.31.45.54,1.03.42-.29-.51-.6-.91-.73-1.36-.18-.59.08-.91.94-1.25ZM6.11,101.16c.15.72.24,1.36.42,1.97.2.67.66.92,1.28.84.63-.08.94-.51.93-1.08-.01-.59-.17-1.17-.28-1.81.05-.06.2-.2.28-.37.04-.08-.04-.22-.06-.33-.83,0-1.63,0-2.43,0-.67,0-1.36.08-1.58.84-.23.83-.26,1.69.44,2.36.14.13.39.14.87.29-.37-.67-.69-1.06-.82-1.51-.18-.62.07-.9.95-1.2ZM59.28,193.41c-.22-.42-.45-.5-.77-.17-.5.5-1.01,1-1.4,1.39-.56-.43-1-.77-1.59-1.22.77-.7,1.41-1.26,2.02-1.85.36-.35.13-.54,0-.59-1,.93-1.91,1.76-2.69,2.49,1.36,1.35,2.69,2.68,4.05,4.03.32-.18.35-.45-.01-.79-.46-.44-.9-.9-1.4-1.41.65-.68,1.22-1.29,1.79-1.88ZM20.39,39.21c0-1.47-.58-2.21-1.7-2.3-.97-.07-1.8.58-1.99,1.58-.24,1.28.23,2.27,1.23,2.59,1.08.35,1.92-.07,2.37-1.17-.34-.3-.57-.13-.79.17-.32.46-.75.59-1.28.41-.57-.19-.85-.58-.75-1.29h2.89ZM7.56,127.48c-.09.15-.19.25-.17.28.11.19.23.38.38.55.81.91.5,1.71-.94,2.02v-2.97c-1.52.09-2.19.62-2.27,1.68-.09,1.07.53,1.87,1.6,2.08,1.11.23,2.2-.29,2.52-1.19.37-1.05-.02-1.95-1.12-2.45ZM6.82,104.75c-1.49.04-2.22.62-2.27,1.74-.05,1.06.6,1.84,1.69,2.02,1.21.2,2.24-.37,2.48-1.4.27-1.13-.12-1.86-1.19-2.21-.34.36-.08.55.2.76.43.33.59.77.4,1.28-.21.55-.6.81-1.31.72v-2.91ZM6.7,120.87c.58-1.08,2.01-1,2.09-2.48-.99.62-1.8,1.13-2.64,1.65-.49-.43-.96-.85-1.5-1.33-.26,1.2,1.08,1.38,1.25,2.34-.57,0-1.09-.05-1.6.01-.46.06-1.15-.36-1.36.5,1.27.31,5.04.25,5.8-.08-.05-.57-.5-.38-.82-.43-.37-.06-.74-.12-1.22-.19ZM52.61,201.84c.68-.51,1.67.77,2.23-.46-.86-.2-1.67-.38-2.45-.56-.16-.79-.3-1.47-.46-2.21-1.12.57-.03,1.49-.47,2.06-.65.1-1.36-.58-1.99.35.81.2,1.57.39,2.27.56.2.87.38,1.62.57,2.46.98-.76.09-1.55.31-2.19ZM271.68,195.81c-.02.17-.1.48-.05.5.41.2.88.52,1.28.47,1.18-.17,1.76-1.61.99-2.51-.92-1.07-1.95-2.04-2.96-3.03-.34-.34-.54-.04-.78.36.93.91,1.86,1.79,2.76,2.71.35.36.84.74.44,1.35-.39.6-.88.39-1.37.13-.06-.03-.15,0-.3.02ZM3.81,66.12c1.62.99,3.12,1.82,5.15,1.79-.54-.98-1.38-.69-1.96-.97-.62-.3-1.27-.53-1.88-.84-.62-.33-1.2-.73-2.04-1.25,0,.91-.05,1.55.01,2.18.06.58-.3,1.26.54,1.95.07-1.03.12-1.84.18-2.86ZM3.25,60.55c-.32,1.6-.24,3.07.21,3.75.57-.81.04-1.76.42-2.63,1.5.91,3,1.72,4.8,1.76-.07-.68-.06-.72-.49-.77-1.53-.19-2.85-.85-4.1-1.72-.24-.17-.54-.25-.84-.39ZM14.73,41.21v-5.87c-1.38.87-1.93,1.48-1.85,2.04.39-.17.76-.34,1.23-.55,0,.61,0,1.1,0,1.58,0,.52-.05,1.06.02,1.57.05.39-.31.99.6,1.22ZM14.11,89.47c0,1.41,0,2.61,0,3.82,0,.36.06.67.54.53.3-1.35.22-5.07-.12-5.73q-1.72,1.49-1.65,2.03c.37-.19.71-.37,1.23-.65ZM14.11,142.33c0,.49,0,.88,0,1.27,0,.85-.02,1.69.02,2.54,0,.2.2.39.38.71.39-1.1.4-5,.1-5.95-1.45,1.02-1.72,1.32-1.8,2,.42-.18.8-.35,1.31-.57ZM10.38,95.6c-1.18.26-2.4.61-3.64.79-1.35.2-2.55-.49-3.89-1.01,1.54,2.3,6.13,2.24,7.54.22ZM2.75,83.02c1.05-.37,1.85-.77,2.69-.91.82-.14,1.71-.12,2.53.03.82.14,1.61.53,2.56.86-1.55-2.16-6.04-2.26-7.79.02ZM178.48,199.96c-1.42-1.47-2.72-2.83-4.18-4.34-.05.36-.19.67-.09.77,1.2,1.25,2.43,2.47,3.68,3.67.08.08.38-.06.59-.11ZM239.9,199.7c.04-.39.17-.71.07-.82-1.17-1.22-2.37-2.42-3.58-3.61-.35-.34-.56-.08-.67.23,1.33,1.33,2.64,2.64,4.19,4.19ZM113.95,203.47c.15-.18.27-.32.49-.58-1.3-1.25-2.54-2.46-3.78-3.66-.4-.38-.63-.21-.75.16,1.34,1.35,2.64,2.67,4.04,4.08ZM22.8,143.27c-.46.39-1.23-.14-1.51.73.53.08.98.14,1.39.2.42.45-.14,1.19.53,1.53.66-.36.11-1.09.51-1.53.42-.06.87-.12,1.4-.2-.31-.86-1.07-.33-1.64-.84-.23-.2.55-1.12-.53-1.23-.05.46-.1.89-.16,1.34ZM23.61,90.46c-.04-.43-.09-.86-.14-1.32-1.12.07-.24,1.14-.86,1.45-.32.28-1.12-.31-1.26.64.5.07.97.13,1.3.18.46.47-.2,1.32.8,1.5.08-.55.15-1.04.22-1.51.51-.06.94-.11,1.42-.17-.21-.92-1-.35-1.47-.76ZM139.12,200.45l-.1.27c1.27,1.27,2.54,2.54,3.83,3.79.11.11.43,0,.65,0,.03-.09.06-.18.09-.27-1.27-1.27-2.54-2.55-3.84-3.79-.11-.11-.43,0-.65,0ZM266.23,195.36c-.03.1-.05.2-.08.3,1.23,1.23,2.46,2.45,3.68,3.68.31.31.56.27.81-.24-1.25-1.25-2.53-2.53-3.84-3.79-.09-.09-.38.03-.58.05ZM22.81,38.92c.04.34.08.77.13,1.24,1.13-.05.24-1.14.89-1.43.31-.25,1.12.37,1.21-.63-.5-.06-.97-.11-1.34-.16-.36-.5.23-1.29-.73-1.52-.07.56-.14,1.06-.2,1.54-.52.05-.95.09-1.42.14.12,1,.94.37,1.46.83ZM205.07,195.47c-.01.22-.12.54-.02.65,1.18,1.22,2.38,2.43,3.6,3.61.29.28.51.08.57-.12-1.38-1.38-2.72-2.71-4.16-4.14ZM8.83,110.61c-.06-.11-.11-.22-.17-.33-.72,0-1.44.03-2.16,0-.9-.04-1.02-.18-1.21-1.14-.02-.1-.11-.19-.18-.3-.14.02-.34.03-.35.06-.05.66-.08,1.32-.12,2.08,1.23,0,2.44.02,3.64-.02.19,0,.37-.23.55-.36ZM87.93,199.13c.03-.09.06-.18.1-.27-1.28-1.27-2.54-2.55-3.84-3.8-.11-.11-.42,0-.64,0l-.09.26c1.27,1.27,2.54,2.55,3.84,3.8.11.11.42.01.64.01ZM271.7,198.51c0-.46.1-.77-.01-.89-1.17-1.22-2.35-2.42-3.57-3.58-.35-.33-.56-.05-.61.22,1.35,1.37,2.65,2.68,4.2,4.25ZM203.8,196.74c0,.23-.11.54,0,.65,1.17,1.22,2.36,2.41,3.57,3.59.36.35.56.08.6-.09-1.41-1.41-2.74-2.73-4.17-4.15ZM238.84,200.63c.03-.09.06-.17.09-.26-1.27-1.27-2.54-2.55-3.84-3.8-.12-.11-.43-.01-.65-.01-.03.09-.06.17-.09.26,1.27,1.27,2.54,2.55,3.83,3.79.12.11.43.01.66.01ZM86.52,200.63c0-.33.09-.61-.01-.71-1.18-1.22-2.38-2.43-3.61-3.61-.11-.1-.43.01-.67.03,1.45,1.45,2.78,2.78,4.3,4.29ZM140.86,198.94c-.61.33-.46.58-.2.85.88.88,1.76,1.76,2.65,2.64.36.35.72.7,1.08,1.05.09-.04.18-.08.27-.12-.02-.22.04-.52-.08-.64-1.22-1.27-2.47-2.52-3.72-3.78ZM113.09,204.24c-1.23-1.23-2.48-2.47-3.73-3.72-.32-.33-.56-.22-.8.22,1.23,1.23,2.48,2.47,3.72,3.72.33.33.56.21.81-.22ZM175.33,194.67c-.03.08-.05.17-.08.25,1.28,1.27,2.54,2.55,3.84,3.8.11.11.43,0,.66-.01-1.2-1.52-2.47-2.8-3.77-4.05-.11-.11-.43,0-.66,0ZM7.01,78.35v-2.1c-1.01,0-.64.71-.66,1.12-.02.38-.3,1.06.66.98Z"/>
    <path d="M39.87,185.24h249.48c.02.37.03.66.06,1.1h-17.7v2.92c-.41.03-.66.04-1.07.07v-2.87h-29.43v2.8h-1.06v-2.81h-29.42v2.82c-.4.02-.67.04-1.07.06v-2.73c-1.01-.26-27.31-.35-29.42-.12-.04.88-.09,1.78-.14,2.77-.29.02-.54.04-.94.07v-2.87h-29.43v2.82c-.4.02-.66.03-1.06.05v-2.87h-29.42v2.82c-.39.02-.66.04-1.07.06v-2.87h-29.41c-.05.9-.09,1.81-.14,2.8-.3.02-.56.03-.96.06v-2.87h-29.43v2.81h-1.06v-2.89h-1.45c-4.91,0-9.82-.06-14.72.03-1.76.03-2.19-.67-2.19-2.15.04-12.73.02-25.47.02-38.2v-1.7h-2.91c-.03-.42-.05-.7-.08-1.13h2.92v-51.67h-2.86c-.03-.37-.05-.63-.08-1.03,1.01-.05,1.95-.1,2.95-.15v-51.63h-2.87v-1.02h2.94c0-5.28,0-10.41,0-15.55,0-5.14,0-10.28,0-15.49h1.05v178.55Z"/>
    <path d="M273,85.22c.03.55.06,1.1.1,1.65.08,1.24-.84,2.24-2.03,2.2-1.15-.04-2.05-1.03-1.88-2.2.08-.57.05-1.09,0-1.64-.12-1.17.81-2.14,1.95-2.15,1.14,0,2.03.96,1.88,2.14Z"/>
    <path d="M59.55,78.25c0,.13.05.52.07.91.08,1.25-.71,2.14-1.9,2.17-1.26.03-2.09-.87-2.02-2.17.02-.4.07-.8.02-1.19-.11-.88.09-1.61.86-2.11.71-.46,1.45-.47,2.16,0,.77.5,1,1.23.81,2.38Z"/>
    <path d="M115.52,197.46c.23,0,.48-.04.71,0,1.25.26,1.79,1.59,1.01,2.63-.55.73-1.26,1.35-1.79,1.91-1.4-1.38-2.74-2.7-4.17-4.11.44-.44.98-1.03,1.58-1.55,1.15-.99,2.18-.62,2.56.88.02.08.06.15.1.24ZM115.32,201.09c.45-.45.9-.84,1.27-1.3.35-.42.31-.9-.09-1.29-.4-.4-.86-.42-1.29-.06-.45.38-.87.81-1.33,1.25.5.49.94.92,1.43,1.41ZM112.16,197.97c.25.27.4.45.58.62.2.19.41.36.69.6.4-.43.78-.78,1.11-1.18.28-.34.36-.73.03-1.09-.36-.4-.79-.41-1.18-.09-.4.33-.76.71-1.22,1.15Z"/>
    <path d="M120.67,177.65c0,1.14-.84,1.97-2,1.98-1.14,0-2.05-.85-2.08-1.94-.03-1.08,1.02-2.13,2.1-2.1,1.08.03,1.98.97,1.98,2.06Z"/>
    <path d="M88.16,175.59c1.04,0,2.04.99,2.06,2.03.02,1.12-.96,2.04-2.13,2.02-1.14-.03-1.97-.88-1.95-2.03.02-1.08.96-2.02,2.02-2.02Z"/>
    <path d="M210.14,179.63c-1.13,0-2.03-.87-2.04-1.97-.01-1.1,1.03-2.12,2.11-2.07,1.07.05,1.99,1.01,1.97,2.08-.02,1.11-.9,1.96-2.04,1.96Z"/>
    <path d="M179.66,179.63c-1.14,0-2.01-.83-2.03-1.95-.02-1.12.99-2.13,2.08-2.09,1.06.04,2,1.02,1.99,2.07-.01,1.09-.92,1.97-2.03,1.97Z"/>
    <path d="M240.59,175.59c1.04-.03,2.03.91,2.08,1.97.05,1.12-.79,2.02-1.91,2.07-1.17.05-2.04-.71-2.1-1.85-.06-1.18.79-2.16,1.94-2.19Z"/>
    <path d="M273.11,103.38c0,1.12-.87,2.01-1.98,2.01-1.11,0-1.98-.91-1.96-2.03.02-1.05.88-1.92,1.93-1.95,1.1-.03,2.01.86,2.02,1.98Z"/>
    <path d="M210.68,192.27c-.22.08-.46.25-.66.22-1-.16-1.66.32-2.06,1.15-.43.88-.07,1.66.52,2.34,1.19,1.39,2.86,1.3,3.72-.19.44-.77.39-.99-.46-1.69-.39.32-.78.64-1.18.98-.36-.66-.14-.98,1.32-2.04.45.5.91,1.02,1.4,1.57-.32,2.12-1.93,3.45-3.75,3.02-1.67-.4-2.89-2.45-2.36-3.96.54-1.53,2.03-2.25,3.51-1.39Z"/>
    <path d="M273.11,61.76c.01,1.12-.87,2.02-1.98,2.01-1.11,0-1.99-.9-1.97-2.02.01-1.05.86-1.92,1.92-1.96,1.11-.04,2.02.84,2.03,1.96Z"/>
    <path d="M271.09,116.09c-1.11-.03-1.96-.95-1.92-2.07.04-1.04.94-1.92,1.97-1.92,1.1,0,1.99.91,1.98,2.03-.01,1.12-.92,2-2.02,1.97Z"/>
    <path d="M273.11,14.71c.02,1.11-.88,2.04-1.97,2.04-1.02,0-1.93-.89-1.98-1.92-.05-1.12.81-2.05,1.91-2.09,1.09-.04,2.02.86,2.03,1.97Z"/>
    <path d="M57.63,88.88c1.11-.02,2,.87,2,1.98,0,1.08-.81,1.92-1.88,1.97-1.13.05-2.04-.79-2.06-1.91-.03-1.12.84-2.02,1.94-2.04Z"/>
    <path d="M149.15,101.49c1.16,0,1.99.83,1.97,1.98-.01,1.12-.9,1.97-2.03,1.94-1.07-.03-1.9-.86-1.92-1.93-.02-1.13.83-1.98,1.98-1.98Z"/>
    <path d="M149.2,111.51c1.11.03,1.96.93,1.92,2.06-.04,1.13-.93,1.93-2.08,1.87-1.08-.05-1.88-.89-1.86-1.98.01-1.11.91-1.98,2.03-1.95Z"/>
    <path d="M212.16,79.78c.03,1.07-.91,2.01-2,2.02-1.09,0-2.03-.92-2.02-2,.01-1.05.86-1.91,1.93-1.94,1.13-.03,2.06.82,2.08,1.91Z"/>
    <path d="M151.12,81.17c-.01,1.11-.93,1.99-2.04,1.95-1.06-.04-1.9-.9-1.91-1.96-.01-1.11.88-2.01,1.98-2.01,1.1,0,1.98.9,1.97,2.02Z"/>
    <path d="M59.63,72.07c.02,1.14-.82,1.99-1.96,1.99-1.1,0-1.93-.78-1.98-1.86-.05-1.12.79-2.04,1.9-2.07,1.12-.04,2.02.82,2.04,1.93Z"/>
    <path d="M273.11,177.62c.01,1.13-.85,2.01-1.97,2.01-1.11,0-1.99-.89-1.97-2.01.01-1.08.82-1.9,1.91-1.93,1.15-.03,2.02.8,2.03,1.93Z"/>
    <path d="M151.12,94.07c0,1.1-.95,2.02-2.02,1.99-1.05-.03-1.91-.91-1.93-1.96-.02-1.11.87-2.03,1.97-2.03,1.1,0,1.99.89,1.98,2.01Z"/>
    <path d="M273.11,107.66c.03,1.12-.84,2.05-1.94,2.07-1.07.02-2.01-.91-2.01-2.01,0-1.05.84-1.94,1.89-2.01,1.07-.06,2.03.84,2.06,1.95Z"/>
    <path d="M141.85,197.79c.41-.39.96-.99,1.57-1.51.86-.74,1.84-.81,2.79-.19.4.26.78.59,1.09.95,1.16,1.37,1.1,2.42-.14,3.74-.41.44-.79.92-1.08,1.25-1.49-1.49-2.84-2.85-4.24-4.25ZM145.79,201.01c1.36-1.03,1.7-1.58,1.49-2.4-.23-.94-1.39-2.1-2.26-2.16-1.15-.08-1.64.82-2.21,1.47,1.03,1.07,2,2.08,2.98,3.09Z"/>
    <path d="M244.27,195.05c-.76.83-1,.03-1.33-.22-.41-.32-.75-.71-1.09-1.06-.71.72-1.36,1.38-2.19,2.22.67.49,1.35,1,2.05,1.52-.37.53-.57.81-.97.41-1.26-1.25-2.5-2.5-3.74-3.73.58-.85.88-.22,1.18.08.31.32.54.7.82,1.09.79-.88,1.4-1.56,2.08-2.33-.36-.39-.87-.94-1.38-1.49.21-.46.45-.62.83-.24,1.22,1.23,2.45,2.45,3.74,3.74Z"/>
    <path d="M205.05,203.75c-.24.44-.47.53-.79.2-.48-.49-.97-.98-1.46-1.46-.35-.34-.72-.73-1.24-.24-.41.38-.42.86,0,1.41.25.32.55.59.83.89.3.32.6.63,1.14,1.19-.51.01-.82.12-.93,0-.91-.85-1.79-1.75-2.76-2.71.53-.3.91-.54,1.16-1.01.22-.42.83-.64,1.38-.81.1-.3.15-.62.3-.9.46-.85,1.28-1.04,2.02-.4.73.64,1.36,1.37,2.07,2.1-.17.3-.32.6-.7.25-.56-.53-1.09-1.08-1.65-1.62-.31-.3-.65-.5-1.07-.19-.42.31-.52.8-.18,1.29.28.39.64.72.98,1.08.3.32.61.64.89.93Z"/>
    <path d="M150.07,198c-1.49-1.49-2.81-2.8-4.22-4.21.82-.82,1.69-1.7,2.59-2.55.12-.11.43-.01.93,0-.98,1-1.73,1.77-2.49,2.55.42.46.76.85,1.13,1.25.82-.78,1.53-1.47,2.31-2.21.61.85-.2,1.04-.49,1.37-.36.42-.86.73-1.37,1.15.66.57,1.13.98,1.67,1.46.69-.68,1.49-1.46,2.26-2.22.51.22.5.45.2.77-.84.87-1.67,1.75-2.52,2.65Z"/>
    <path d="M267.62,202.14c-.31.54-.56.44-.84.16-.46-.46-.91-.92-1.38-1.37-.36-.36-.76-.67-1.27-.27-.42.33-.43.86.02,1.4.44.53.94,1,1.43,1.49.3.3.34.53-.01.73-.97-1.01-1.92-2-2.88-3,.43-.04.65-.46.93-.91.25-.39.8-.59,1.41-1.01-.01.03.05-.2.15-.42.53-1.16,1.34-1.32,2.29-.45.65.6,1.28,1.23,1.9,1.83-.18.47-.39.65-.74.34-.53-.5-1.04-1.03-1.56-1.53-.33-.33-.69-.6-1.16-.23-.43.34-.49.89-.06,1.4.55.64,1.17,1.23,1.77,1.86Z"/>
    <path d="M233.91,205.7c-.32-.21-.47-.27-.58-.38-.87-.85-1.73-1.71-2.7-2.67.71-.23.96-.77,1.33-1.24.27-.35.8-.48,1.3-.76.05-.17.09-.46.22-.7.45-.86,1.27-1.06,2.01-.43.68.57,1.29,1.23,1.9,1.88.27.28.13.51-.31.68-.57-.56-1.17-1.15-1.78-1.73-.33-.32-.67-.63-1.15-.24-.41.34-.48.9-.06,1.41.46.56,1,1.06,1.51,1.58.25.26.27.48-.21.75-.5-.48-1.04-1-1.58-1.51-.68-.65-1.07-.77-1.44-.44-.45.39-.37,1.02.26,1.7.41.45.88.85,1.26,1.31.11.13.02.43.02.8Z"/>
    <path d="M140.63,207.11c-.37.65-.62.65-.91.35-.48-.49-.97-.97-1.46-1.46-.34-.33-.7-.59-1.17-.26-.43.3-.48.86-.05,1.39.43.53.93,1.01,1.41,1.5.25.26.44.5-.1.84-1.05-.86-1.96-1.89-3.02-2.94.56-.31.98-.58,1.25-1.12.2-.38.81-.55,1.35-.89.04-.11.09-.39.21-.64.48-.94,1.27-1.12,2.08-.42.73.63,1.41,1.33,2.07,1.96-.21.5-.43.65-.77.32-.52-.51-1.03-1.03-1.55-1.53-.34-.32-.71-.58-1.17-.21-.43.35-.49.9-.04,1.39.57.62,1.24,1.15,1.86,1.72Z"/>
    <path d="M109.55,207.75c-.58-.57-1.15-1.14-1.72-1.71-.37-.36-.76-.67-1.27-.27-.39.3-.4.92.02,1.42.44.53.94,1,1.43,1.49.32.31.29.55-.07.74-.97-1-1.93-2-2.93-3.04.5-.09.76-.51,1.06-.98.25-.39.83-.57,1.37-.91.07-.19.16-.56.35-.85.44-.67,1.17-.83,1.77-.32.79.67,1.5,1.44,2.21,2.13-.26.58-.53.52-.81.24-.49-.48-.97-.98-1.47-1.46-.33-.32-.67-.63-1.16-.25-.42.33-.48.9-.06,1.4.44.53.95,1,1.43,1.49.25.25.46.5-.16.86Z"/>
    <path d="M47.58,208.59c-.61-.69-1.28-1.44-1.96-2.19-.24-.27-.49-.53-.8-.85.51-.31.95-.56,1.22-1.11.19-.38.81-.56,1.36-.9.03-.1.09-.38.21-.63.48-.94,1.25-1.1,2.08-.44.16.13.29.28.44.42.57.52,1.13,1.03,1.65,1.5-.22.55-.44.71-.78.38-.52-.5-1.03-1.03-1.55-1.53-.33-.32-.7-.59-1.17-.22-.44.35-.5.9-.05,1.39.57.62,1.24,1.15,1.81,1.67-.23.65-.47.79-.85.41-.49-.48-.96-.98-1.46-1.45-.53-.49-.94-.54-1.26-.19-.39.43-.34.9.02,1.31.48.55.99,1.06,1.5,1.59.33.34.2.56-.41.85Z"/>
    <path d="M81.13,200.27c-.04.11,0-.04.06-.19.5-1.33,1.34-1.55,2.38-.59.65.6,1.25,1.26,1.85,1.86-.2.5-.46.53-.77.23-.52-.51-1.03-1.03-1.55-1.54-.35-.34-.73-.56-1.16-.15-.42.4-.42.89-.06,1.31.57.67,1.21,1.28,1.8,1.9-.19.49-.43.54-.75.23-.38-.37-.75-.74-1.12-1.11-.2-.2-.39-.42-.62-.58-.32-.24-.73-.33-.98.01-.18.25-.31.72-.2.97.18.43.55.78.88,1.13.33.35.72.66,1.04.95-.12.46-.3.79-.67.45-.94-.87-1.82-1.8-2.89-2.87.76-.1.97-.5,1.26-.91.3-.42.85-.66,1.49-1.13Z"/>
    <path d="M3,136.22c0-1.14-.1-2.07.02-2.98.18-1.25,1.34-1.78,2.46-1.24.56.27.83.74.88,1.35.05.64.07,1.28.12,2,.76.04,1.47.08,2.15.12.22.42.18.74-.27.74-1.76.03-3.53.01-5.36.01ZM5.69,135.35c0-.74.05-1.34-.02-1.93-.06-.55-.45-.82-1.02-.8-.57.01-.94.31-.99.85-.06.62-.01,1.25-.01,1.88h2.04Z"/>
    <path d="M92.15,194.63c-.3.67-.67.63-1.12.39-.35-.18-.73-.3-1.13-.46-.52.55-1.01,1.07-1.56,1.65-.22.66,1.2,1.28.11,2.23-.42-.91-.8-1.74-1.17-2.56-.4-.88-.81-1.76-1.18-2.65-.08-.19-.09-.53.02-.63.17-.16.53-.3.72-.22,1.77.72,3.53,1.49,5.32,2.26ZM89.19,194.23c-.8-.4-1.43-.84-2.32-.91.38.78.7,1.45.97,2,.46-.37.86-.69,1.35-1.09Z"/>
    <path d="M3.06,88.13c.96,0,1.93.01,2.89,0,.4,0,.81-.02,1.2-.11.82-.19,1.18-.76,1.09-1.61-.09-.83-.45-1.19-1.35-1.23-1.09-.05-2.18-.02-3.27-.04-.39,0-.76-.03-.62-.68.15-.04.33-.13.51-.13,1.05-.01,2.1-.05,3.15,0,1.82.1,2.65,1.36,2.15,3.1-.25.86-.85,1.31-1.66,1.37-1.25.09-2.5.06-3.76.04-.18,0-.35-.25-.53-.39.06-.11.13-.21.19-.32Z"/>
    <path d="M173.75,204.52c-.27.49-.52.47-.82.17-.6-.6-1.2-1.2-1.8-1.8-.25-.26-.49-.52-.85-.91,1.22-.15,1.12-1.93,2.53-1.68.06-.15.12-.25.15-.37.44-1.53,1.39-1.79,2.54-.69.5.48.97.97,1.46,1.46.32.31.26.56-.21.8-.57-.57-1.16-1.17-1.77-1.75-.54-.51-.91-.56-1.25-.19-.38.42-.37.9-.01,1.31.48.55,1,1.06,1.51,1.57.32.32.25.56-.22.79-.58-.57-1.17-1.17-1.78-1.74-.32-.3-.66-.66-1.15-.28-.42.32-.49.9-.08,1.4.53.65,1.14,1.24,1.76,1.9Z"/>
    <path d="M7.47,59.64c.2-.84,1.3-1.28.66-2.18-.39-.55-1.01-.59-1.77-.8.17.38.29.6.36.83.32.97-.05,1.79-.97,2.17-1.02.42-2.15.04-2.6-.87-.41-.83-.13-1.8.67-2.32,1.01-.66,3.47-.57,4.4.18.55.44.81,1.02.69,1.71-.12.67-.45,1.21-1.43,1.29ZM4.99,59.1c.71-.01,1.29-.55,1.27-1.18-.02-.63-.59-1.1-1.34-1.1-.76,0-1.32.46-1.33,1.1,0,.66.63,1.2,1.4,1.18Z"/>
    <path d="M119.38,192.02c-.1.51-.38.58-.74.48-.81-.23-1.43.03-1.86.74-.46.77-.28,1.49.25,2.13.33.4.72.77,1.14,1.06.65.45,1.49.42,2.04-.02.59-.47.85-1.07.58-1.82-.13-.35-.3-.71.31-.88.6.47.64,1.14.49,1.81-.31,1.41-1.94,2.32-3.29,1.83-1.03-.37-1.8-1.07-2.26-2.07-.45-.99-.23-2.1.55-2.9.77-.78,1.57-.9,2.78-.37Z"/>
    <path d="M8.75,89.49c.04,1.38-1.23.99-1.69,1.66v2.12c.47.61,1.62.22,1.73,1.4-.29-.05-.52-.05-.72-.12-1.55-.58-3.1-1.16-4.63-1.77-.21-.08-.47-.37-.47-.56,0-.2.25-.5.46-.58,1.71-.71,3.43-1.39,5.32-2.15ZM6.25,93.12v-1.83c-.47.17-.85.31-1.22.45-.33.13-.66.27-1.21.5.91.33,1.58.57,2.43.88Z"/>
    <path d="M30.53,39.68c.37-.28.55-.05.76.25.55.79,1,.95,1.56.61.61-.37.83-1.38.46-2.06-.34-.62-1.01-.74-1.78-.32-.23.12-.47.23-.73.36-.13-.95.04-2,.45-3.01,1.88-.26,2.26-.2,2.78.5-.82.05-1.55.09-2.33.14-.08.43-.16.81-.27,1.39.83-.34,1.57-.4,2.12.16.32.33.59.79.68,1.24.24,1.11-.62,2.2-1.75,2.36-1.01.14-1.71-.44-1.95-1.61Z"/>
    <path d="M29.77,38.4c-.15.66-.22,1.27-.42,1.83-.26.72-.86,1.09-1.6,1.07-.68-.02-1.25-.35-1.49-1.05-.46-1.3-.47-2.61.02-3.9.25-.66.79-1,1.51-1.01.72,0,1.28.34,1.52.99.24.67.32,1.4.46,2.07ZM26.64,38.32c.06.52.08,1.05.2,1.55.11.44.39.81.92.82.52.01.83-.31.96-.76.33-1.06.32-2.14.01-3.21-.14-.48-.46-.75-.97-.75-.52,0-.83.34-.93.8-.12.51-.14,1.03-.2,1.56Z"/>
    <path d="M29.76,91.13c-.15.63-.23,1.28-.46,1.86-.25.65-.81.98-1.53.97-.72-.01-1.26-.35-1.5-1.02-.47-1.29-.48-2.6,0-3.9.25-.68.82-1.02,1.5-1.03.75-.01,1.35.36,1.58,1.08.21.64.27,1.33.41,2.03ZM26.63,90.99c.07.58.09,1.11.22,1.61.12.46.49.83.97.74.33-.06.76-.38.87-.69.41-1.08.38-2.21.02-3.32-.14-.45-.5-.83-.99-.69-.33.09-.71.42-.83.73-.19.51-.19,1.1-.26,1.6Z"/>
    <path d="M29.74,143.84c-.12.6-.17,1.21-.36,1.77-.27.81-.87,1.19-1.65,1.16-.78-.02-1.29-.43-1.53-1.15-.39-1.18-.4-2.39-.02-3.56.26-.82.88-1.24,1.61-1.24.73,0,1.34.42,1.61,1.24.18.57.23,1.17.34,1.78ZM26.63,143.81c.07.58.09,1.11.22,1.61.12.46.51.83.98.73.33-.07.75-.39.86-.7.41-1.08.4-2.23,0-3.31-.11-.3-.54-.61-.87-.69-.5-.12-.83.29-.94.74-.13.54-.17,1.11-.24,1.62Z"/>
    <path d="M57.65,198.68c-.44.07-.85.42-1.03,1.03-.03.11-.14.2-.22.29-.55.63-1.31.77-1.83.36-.49-.39-.55-1.06-.12-1.76.15-.24.34-.45.5-.69.15-.23.27-.48.4-.72-.88-.5-1.5-.22-1.65.71-.05.33.17.76-.4.83-.46-.92-.25-1.63.7-2.32.75-.55,1.18-.54,1.91.2.62.63,1.15,1.36,1.73,2.07ZM55.84,197.73c-.21.29-.42.58-.63.86-.07.1-.19.2-.19.3,0,.29.06.58.09.88.29-.06.66-.03.87-.2.63-.5.57-1.09-.15-1.84Z"/>
    <path d="M181.32,193.33c-.62.65-1.18,1.23-1.83,1.91.56.59,1.11,1.16,1.71,1.79-.13.17-.26.34-.39.51-1.35-1.4-2.65-2.75-4.04-4.2.7-.7,1.51-1.53,2.36-2.32.1-.09.38.01.82.04-.85.89-1.52,1.61-2.3,2.43.46.38.89.73,1.34,1.11.61-.49,1.28-1.03,1.96-1.55.02-.02.18.13.38.29Z"/>
    <path d="M20.35,91.99h-2.84c.24,1.32,1.06,1.66,1.92.88.29-.27.49-.54.9-.25-.54,1.14-1.3,1.48-2.41,1.11-1.05-.35-1.51-1.4-1.18-2.7.24-.97,1.1-1.55,2.1-1.42,1.05.14,1.57.9,1.51,2.37ZM19.67,91.28c-.14-.84-.58-1.1-1.21-1.04-.58.05-.96.34-.92,1.04h2.13Z"/>
    <path d="M17.51,144.76c.25,1.35,1.07,1.7,1.93.92.29-.27.49-.54.9-.25-.54,1.14-1.3,1.49-2.41,1.11-1.05-.35-1.51-1.39-1.18-2.7.24-.97,1.1-1.55,2.1-1.42,1.05.14,1.57.89,1.52,2.34h-2.85ZM17.51,144.06h2.14c-.08-.77-.51-1.05-1.14-1.02-.57.03-.97.3-1,1.02Z"/>
    <path d="M33.39,87.92c0,1.06.03,1.94-.01,2.82-.03.6.03,1.1.85,1.27-.9.4-.81,1.22-1.03,1.92-.81-.24-.32-.97-.77-1.46h-2.25c.08-.39.07-.68.19-.9.83-1.51,2.17-3.18,3.02-3.65ZM32.59,91.73v-2.02c-.07-.03-.13-.05-.2-.08-.45.66-.91,1.33-1.43,2.1h1.63Z"/>
    <path d="M7.43,73.25c-.38-.61.12-.68.39-.87.53-.36.57-.86.37-1.4-.19-.49-.79-.81-1.31-.6-.33.13-.6.47-.82.77-.12.16-.1.43-.18.85-.26-.28-.46-.4-.52-.57-.17-.51-.43-.93-1.02-.81-.26.05-.59.32-.68.56-.19.49-.04.96.47,1.23.13.07.25.17.35.23-.04.44-.2.59-.56.42-.89-.42-1.23-1.45-.76-2.37.43-.85,1.18-1.03,2.14-.52.1.06.21.11.34.17.6-.81,1.41-.96,2.26-.58.73.33,1.04,1.01,1.03,1.79,0,.85-.45,1.32-1.5,1.67Z"/>
    <path d="M8.91,112.23c-.39.59-.52,1.07-.21,1.56.06.09.05.24.06.36.1.93-.3,1.58-1.01,1.67-.65.08-1.14-.37-1.35-1.28-.11-.5-.18-1.01-.27-1.52-.83.13-1.14.42-.99,1.04.12.49.44.93.71,1.49-.74.08-1.04-.32-1.17-.77-.12-.46-.15-.96-.09-1.44.08-.75.43-1.07,1.2-1.1.96-.04,1.93,0,3.11,0ZM6.75,112.83c.08.55.13.86.18,1.16.03.2.03.44.14.58.15.2.43.47.61.44.21-.03.51-.35.52-.56,0-.37-.07-.83-.3-1.11-.2-.25-.64-.31-1.14-.52Z"/>
    <path d="M30.44,145.2c.27,0,.47-.05.62.02.12.06.18.25.26.39.31.54.77.67,1.35.49.56-.17.76-.62.75-1.13,0-.58-.32-.99-.93-1.1-.19-.04-.39-.06-.75-.12.25-.25.37-.48.55-.52.55-.13.92-.41.83-.99-.04-.27-.28-.62-.53-.73-.49-.22-.94-.04-1.23.46-.09.16-.24.29-.42.49-.57-.57-.15-.93.17-1.22.58-.53,1.63-.51,2.25-.02.66.53.67,1.25,0,2.28.76.58,1.04,1.32.65,2.23-.32.73-1.15,1.16-2.01,1.04-.85-.12-1.36-.6-1.55-1.56Z"/>
    <path d="M6.1,123.63c-.85.34-1.12.66-.94,1.25.14.45.45.84.73,1.36-.58.12-.85-.11-1.03-.42-.41-.71-.43-1.47-.14-2.22.2-.52.66-.67,1.19-.66.92,0,1.85,0,2.87,0-.27.61-.28,1.19-.05,1.79.08.21.04.48.02.72-.06.59-.39.99-.98,1.07-.59.08-1.02-.23-1.21-.79-.12-.34-.16-.71-.24-1.06-.07-.31-.13-.61-.22-1.03ZM7.63,125.79c.7-.31.73-.83.49-1.41-.24-.59-.51-.69-1.35-.54.24.67-.05,1.57.86,1.95Z"/>
    <path d="M6.11,101.16c-.88.29-1.13.58-.95,1.2.13.45.45.85.82,1.51-.47-.15-.73-.16-.87-.29-.71-.67-.68-1.53-.44-2.36.21-.76.91-.83,1.58-.84.8,0,1.61,0,2.43,0,.02.11.1.25.06.33-.08.17-.23.31-.28.37.11.64.27,1.22.28,1.81.01.57-.3.99-.93,1.08-.63.08-1.08-.17-1.28-.84-.19-.61-.27-1.24-.42-1.97ZM6.75,101.26c.12.58.16,1.06.32,1.5.08.2.4.45.59.44.2-.02.47-.3.54-.52.25-.79-.32-1.38-1.45-1.42Z"/>
    <path d="M59.28,193.41c-.56.59-1.14,1.2-1.79,1.88.5.51.94.97,1.4,1.41.36.34.33.61.01.79-1.36-1.35-2.69-2.68-4.05-4.03.78-.72,1.69-1.56,2.69-2.49.13.05.36.25,0,.59-.61.59-1.25,1.14-2.02,1.85.59.45,1.03.79,1.59,1.22.4-.39.91-.88,1.4-1.39.32-.32.55-.25.77.17Z"/>
    <path d="M20.39,39.21h-2.89c-.1.71.18,1.1.75,1.29.52.17.96.04,1.28-.41.21-.31.45-.47.79-.17-.45,1.1-1.29,1.51-2.37,1.17-1-.32-1.47-1.31-1.23-2.59.19-1,1.01-1.65,1.99-1.58,1.12.08,1.69.83,1.7,2.3ZM19.69,38.6c-.12-.73-.46-1.09-1.11-1.08-.63,0-1,.34-1.09,1.08h2.21Z"/>
    <path d="M7.56,127.48c1.09.51,1.49,1.4,1.12,2.45-.32.9-1.4,1.41-2.52,1.19-1.07-.22-1.69-1.02-1.6-2.08.09-1.06.75-1.59,2.27-1.68v2.97c1.44-.3,1.75-1.11.94-2.02-.15-.17-.27-.36-.38-.55-.02-.03.08-.13.17-.28ZM6.18,130.22v-2.12c-.76.16-1.1.58-1.03,1.22.06.55.33.99,1.03.9Z"/>
    <path d="M6.82,104.75v2.91c.71.09,1.11-.17,1.31-.72.19-.52.04-.96-.4-1.28-.28-.21-.54-.4-.2-.76,1.07.35,1.46,1.08,1.19,2.21-.25,1.02-1.27,1.6-2.48,1.4-1.09-.18-1.74-.96-1.69-2.02.05-1.11.78-1.7,2.27-1.74ZM6.19,107.6v-2.12c-.76.15-1.1.57-1.03,1.21.06.55.32.99,1.03.91Z"/>
    <path d="M6.7,120.87c.48.08.85.13,1.22.19.32.05.77-.14.82.43-.76.33-4.54.39-5.8.08.21-.86.9-.44,1.36-.5.51-.07,1.03-.01,1.6-.01-.17-.96-1.51-1.14-1.25-2.34.54.48,1.01.9,1.5,1.33.84-.53,1.65-1.03,2.64-1.65-.08,1.47-1.52,1.39-2.09,2.48Z"/>
    <path d="M52.61,201.84c-.22.64.68,1.43-.31,2.19-.19-.84-.37-1.59-.57-2.46-.7-.17-1.46-.36-2.27-.56.64-.92,1.34-.25,1.99-.35.45-.57-.64-1.49.47-2.06.15.74.29,1.43.46,2.21.78.18,1.59.36,2.45.56-.56,1.23-1.55-.05-2.23.46Z"/>
    <path d="M271.68,195.81c.15-.01.25-.05.3-.02.49.26.98.47,1.37-.13.4-.61-.08-.99-.44-1.35-.9-.92-1.84-1.81-2.76-2.71.24-.4.44-.7.78-.36,1.01.99,2.05,1.96,2.96,3.03.77.9.19,2.34-.99,2.51-.4.06-.87-.27-1.28-.47-.05-.02.03-.34.05-.5Z"/>
    <path d="M3.81,66.12c-.06,1.02-.12,1.83-.18,2.86-.83-.69-.48-1.37-.54-1.95-.06-.63-.01-1.27-.01-2.18.84.52,1.42.92,2.04,1.25.61.32,1.26.54,1.88.84.58.28,1.42,0,1.96.97-2.03.03-3.53-.8-5.15-1.79Z"/>
    <path d="M3.25,60.55c.3.14.6.23.84.39,1.24.87,2.57,1.53,4.1,1.72.43.05.43.09.49.77-1.79-.04-3.3-.85-4.8-1.76-.38.87.14,1.82-.42,2.63-.45-.69-.53-2.16-.21-3.75Z"/>
    <path d="M14.73,41.21c-.91-.23-.55-.83-.6-1.22-.07-.52-.02-1.05-.02-1.57,0-.48,0-.96,0-1.58-.47.21-.84.37-1.23.55-.09-.56.47-1.17,1.85-2.04v5.87Z"/>
    <path d="M14.11,89.47c-.52.27-.86.45-1.23.65q-.06-.54,1.65-2.03c.34.66.42,4.38.12,5.73-.49.14-.54-.17-.54-.53,0-1.21,0-2.41,0-3.82Z"/>
    <path d="M14.11,142.33c-.51.22-.89.39-1.31.57.08-.68.36-.98,1.8-2,.31.96.29,4.86-.1,5.95-.18-.33-.37-.52-.38-.71-.04-.84-.02-1.69-.02-2.54,0-.39,0-.78,0-1.27Z"/>
    <path d="M10.38,95.6c-1.41,2.02-6,2.09-7.54-.22,1.35.52,2.55,1.21,3.89,1.01,1.24-.18,2.46-.53,3.64-.79Z"/>
    <path d="M2.75,83.02c1.75-2.28,6.23-2.19,7.79-.02-.95-.33-1.74-.72-2.56-.86-.82-.14-1.71-.16-2.53-.03-.85.14-1.65.54-2.69.91Z"/>
    <path d="M178.48,199.96c-.21.04-.5.18-.59.11-1.25-1.2-2.48-2.43-3.68-3.67-.09-.1.04-.42.09-.77,1.46,1.52,2.76,2.87,4.18,4.34Z"/>
    <path d="M239.9,199.7c-1.55-1.55-2.86-2.86-4.19-4.19.11-.31.33-.57.67-.23,1.21,1.18,2.41,2.38,3.58,3.61.1.1-.03.42-.07.82Z"/>
    <path d="M113.95,203.47c-1.4-1.42-2.7-2.73-4.04-4.08.12-.37.35-.54.75-.16,1.25,1.2,2.49,2.41,3.78,3.66-.21.25-.33.39-.49.58Z"/>
    <path d="M22.8,143.27c.05-.46.1-.88.16-1.34,1.08.11.3,1.04.53,1.23.57.5,1.33-.03,1.64.84-.53.08-.98.14-1.4.2-.41.44.15,1.17-.51,1.53-.68-.34-.12-1.08-.53-1.53-.41-.06-.86-.12-1.39-.2.28-.87,1.05-.34,1.51-.73Z"/>
    <path d="M23.61,90.46c.48.41,1.26-.16,1.47.76-.48.06-.9.11-1.42.17-.07.47-.14.96-.22,1.51-1-.18-.33-1.03-.8-1.5-.33-.04-.79-.11-1.3-.18.13-.95.94-.36,1.26-.64.63-.31-.26-1.38.86-1.45.05.46.09.89.14,1.32Z"/>
    <path d="M139.12,200.45c.22,0,.53-.1.65,0,1.3,1.25,2.56,2.52,3.84,3.79-.03.09-.06.18-.09.27-.22,0-.54.1-.65,0-1.3-1.24-2.56-2.52-3.83-3.79l.1-.27Z"/>
    <path d="M266.23,195.36c.2-.02.49-.14.58-.05,1.31,1.26,2.58,2.54,3.84,3.79-.26.51-.5.55-.81.24-1.23-1.23-2.46-2.45-3.68-3.68.03-.1.05-.2.08-.3Z"/>
    <path d="M22.81,38.92c-.52-.46-1.34.17-1.46-.83.47-.05.9-.09,1.42-.14.06-.48.13-.98.2-1.54.96.23.37,1.03.73,1.52.37.04.84.1,1.34.16-.09,1-.91.38-1.21.63-.65.29.24,1.38-.89,1.43-.05-.47-.1-.9-.13-1.24Z"/>
    <path d="M205.07,195.47c1.44,1.43,2.77,2.76,4.16,4.14-.07.2-.29.4-.57.12-1.22-1.18-2.42-2.39-3.6-3.61-.1-.11,0-.43.02-.65Z"/>
    <path d="M8.83,110.61c-.18.12-.37.35-.55.36-1.2.03-2.41.02-3.64.02.04-.75.07-1.42.12-2.08,0-.03.21-.04.35-.06.07.11.16.19.18.3.19.95.31,1.09,1.21,1.14.72.03,1.44,0,2.16,0,.06.11.11.22.17.33Z"/>
    <path d="M87.93,199.13c-.22,0-.53.09-.64-.01-1.3-1.25-2.56-2.53-3.84-3.8l.09-.26c.22,0,.53-.1.64,0,1.3,1.25,2.57,2.53,3.84,3.8-.03.09-.06.18-.1.27Z"/>
    <path d="M271.7,198.51c-1.55-1.57-2.84-2.88-4.2-4.25.05-.27.26-.55.61-.22,1.22,1.16,2.41,2.37,3.57,3.58.11.12.01.43.01.89Z"/>
    <path d="M203.8,196.74c1.43,1.42,2.76,2.74,4.17,4.15-.05.18-.25.44-.6.09-1.21-1.17-2.4-2.37-3.57-3.59-.11-.11,0-.42,0-.65Z"/>
    <path d="M238.84,200.63c-.22,0-.54.1-.66-.01-1.3-1.25-2.56-2.52-3.83-3.79.03-.09.06-.17.09-.26.22,0,.54-.1.65.01,1.3,1.25,2.56,2.53,3.84,3.8-.03.09-.06.17-.09.26Z"/>
    <path d="M86.52,200.63c-1.51-1.51-2.85-2.85-4.3-4.29.25-.02.57-.13.67-.03,1.23,1.18,2.43,2.39,3.61,3.61.1.1.01.38.01.71Z"/>
    <path d="M140.86,198.94c1.25,1.26,2.5,2.5,3.72,3.78.12.12.06.42.08.64-.09.04-.18.08-.27.12-.36-.35-.73-.7-1.08-1.05-.88-.88-1.76-1.76-2.65-2.64-.27-.27-.41-.52.2-.85Z"/>
    <path d="M113.09,204.24c-.25.43-.48.55-.81.22-1.24-1.25-2.49-2.5-3.72-3.72.25-.45.48-.55.8-.22,1.25,1.25,2.5,2.5,3.73,3.72Z"/>
    <path d="M175.33,194.67c.22,0,.54-.11.66,0,1.3,1.25,2.57,2.53,3.77,4.05-.22,0-.54.12-.66.01-1.3-1.25-2.57-2.53-3.84-3.8.03-.08.05-.17.08-.25Z"/>
    <path d="M7.01,78.35c-.96.08-.67-.6-.66-.98.02-.41-.36-1.13.66-1.12v2.1Z"/>
    <path class="cls-3" d="M115.32,201.09c-.49-.48-.94-.92-1.43-1.41.46-.43.87-.86,1.33-1.25.43-.36.88-.34,1.29.06.4.4.44.87.09,1.29-.38.45-.83.85-1.27,1.3Z"/>
    <path class="cls-3" d="M112.16,197.97c.46-.43.82-.82,1.22-1.15.4-.32.82-.31,1.18.09.33.37.25.76-.03,1.09-.33.4-.71.76-1.11,1.18-.28-.24-.49-.41-.69-.6-.17-.17-.33-.35-.58-.62Z"/>
    <path class="cls-3" d="M145.79,201.01c-.97-1.01-1.95-2.02-2.98-3.09.56-.65,1.06-1.56,2.21-1.47.87.06,2.03,1.22,2.26,2.16.2.82-.13,1.37-1.49,2.4Z"/>
    <path class="cls-3" d="M5.69,135.35h-2.04c0-.63-.05-1.26.01-1.88.05-.54.42-.84.99-.85.57-.01.96.26,1.02.8.07.59.02,1.19.02,1.93Z"/>
    <path class="cls-3" d="M89.19,194.23c-.49.39-.88.71-1.35,1.09-.27-.55-.59-1.22-.97-2,.89.08,1.52.51,2.32.91Z"/>
    <path class="cls-3" d="M4.99,59.1c-.77.02-1.41-.52-1.4-1.18,0-.64.56-1.1,1.33-1.1.75,0,1.32.47,1.34,1.1.02.63-.56,1.16-1.27,1.18Z"/>
    <path class="cls-3" d="M6.25,93.12c-.84-.31-1.51-.55-2.43-.88.54-.22.87-.37,1.21-.5.37-.14.75-.28,1.22-.45v1.83Z"/>
    <path class="cls-3" d="M26.64,38.32c.06-.53.08-1.05.2-1.56.11-.46.41-.79.93-.8.51,0,.83.27.97.75.31,1.07.31,2.15-.01,3.21-.14.45-.44.77-.96.76-.53-.01-.81-.38-.92-.82-.13-.5-.14-1.03-.2-1.55Z"/>
    <path class="cls-3" d="M26.63,90.99c.07-.5.07-1.09.26-1.6.12-.31.5-.64.83-.73.49-.14.84.24.99.69.36,1.1.39,2.23-.02,3.32-.12.31-.54.62-.87.69-.47.09-.85-.28-.97-.74-.13-.5-.14-1.03-.22-1.61Z"/>
    <path class="cls-3" d="M26.63,143.81c.07-.51.11-1.07.24-1.62.11-.46.44-.86.94-.74.34.08.76.38.87.69.41,1.08.41,2.22,0,3.31-.12.31-.53.63-.86.7-.47.1-.86-.27-.98-.73-.13-.5-.15-1.03-.22-1.61Z"/>
    <path class="cls-3" d="M55.84,197.73c.71.75.78,1.34.15,1.84-.21.17-.57.14-.87.2-.03-.29-.09-.58-.09-.88,0-.1.12-.21.19-.3.21-.29.41-.57.63-.86Z"/>
    <path class="cls-3" d="M19.67,91.28h-2.13c-.04-.7.34-.99.92-1.04.63-.05,1.08.2,1.21,1.04Z"/>
    <path class="cls-3" d="M17.51,144.06c.03-.72.43-.99,1-1.02.63-.03,1.06.25,1.14,1.02h-2.14Z"/>
    <path class="cls-3" d="M32.59,91.73h-1.63c.53-.77.98-1.44,1.43-2.1.07.03.13.05.2.08v2.02Z"/>
    <path class="cls-3" d="M6.75,112.83c.51.22.95.27,1.14.52.22.28.31.74.3,1.11,0,.2-.31.52-.52.56-.18.03-.45-.25-.61-.44-.11-.14-.1-.38-.14-.58-.05-.31-.1-.61-.18-1.16Z"/>
    <path class="cls-3" d="M7.63,125.79c-.91-.38-.62-1.28-.86-1.95.85-.16,1.11-.06,1.35.54.24.59.21,1.11-.49,1.41Z"/>
    <path class="cls-3" d="M6.75,101.26c1.13.04,1.7.63,1.45,1.42-.07.22-.34.5-.54.52-.19.02-.51-.23-.59-.44-.16-.44-.21-.93-.32-1.5Z"/>
    <path class="cls-3" d="M19.69,38.6h-2.21c.09-.74.46-1.07,1.09-1.08.65-.01.99.36,1.11,1.08Z"/>
    <path class="cls-3" d="M6.18,130.22c-.71.1-.97-.35-1.03-.9-.07-.64.27-1.06,1.03-1.22v2.12Z"/>
    <path class="cls-3" d="M6.19,107.6c-.71.09-.98-.36-1.03-.91-.07-.64.27-1.06,1.03-1.21v2.12Z"/>
  </g>
  <text class="cls-5" transform="translate(140.66 10.18)"><tspan x="0" y="0">NdCl</tspan></text>
  <text class="cls-5" transform="translate(165.11 14.17) scale(.58)"><tspan x="0" y="0">3 </tspan></text>
  <text class="cls-5" transform="translate(170.19 10.18)"><tspan class="cls-1" x="0" y="0">g</tspan><tspan class="cls-12" x="6.64" y="0">r</tspan><tspan class="cls-10" x="10.44" y="0">o</tspan><tspan class="cls-2" x="16.94" y="0">wn samples</tspan></text>
  <g>
    <path class="cls-3" d="M0,442.98v-219.21h292.28v219.21H0ZM289.43,405.29H39.69v-178.55h-1.07c0,3.13,0,6.2,0,9.27,0,3.06.03,6.13-.02,9.3-.86,0-1.54-.02-2.22,0-.76.03-.76.05-.62,1.06h2.8v47.31h-2.97c.05.44.08.7.12,1.08h2.84v42.98c-1.02.05-1.97.1-2.89.14v.99h2.86c.26,2.18.16,46.31-.12,47.3h-2.77c.02.4.03.66.05,1.05h2.95c0,.6,0,1.08,0,1.55,0,5.27,0,10.54,0,15.82,0,.39.02.82.18,1.16.3.59.86.7,1.52.7,7.02-.02,14.03-.01,21.05-.01.47,0,.94.03,1.48.04v2.84h1.12v-2.8h39.28v2.88c.4-.04.66-.06.95-.09.05-.98.1-1.89.15-2.79h39.28v2.88c.4-.04.66-.06,1.02-.1v-2.78h39.35v2.88c.41-.04.66-.06,1.02-.09v-2.78h39.35v2.88c.41-.04.67-.06,1.02-.09v-2.79h39.35v2.88c.42-.04.67-.06,1.06-.1v-2.89h23.55c.02-.39.04-.7.06-1.13ZM183.48,262.57c-1.13,1.24-1.24,2.37-.37,3.22.75.74,1.98.76,2.75.04.9-.85.8-1.96-.32-3.28,1.11-1.2,1.24-2.32.35-3.19-.75-.74-1.97-.76-2.75-.04-.91.84-.81,2.01.33,3.25ZM146.01,264.48c.03-.28.08-.56.08-.84,0-1.16-.84-2.01-1.97-2-1.12,0-1.97.87-1.98,2.01,0,.56,0,1.11,0,1.67,0,1.14.85,2,1.97,2,1.14,0,1.97-.83,1.97-1.99,0-.28-.05-.56-.08-.84ZM100.51,422.14c.58-.62,1.3-1.27,1.87-2.03.73-.99.21-2.26-.98-2.55-.25-.06-.54,0-.79,0-.42-1.81-1.5-2.18-2.84-.98-.53.47-1.01,1-1.43,1.42,1.42,1.41,2.75,2.74,4.18,4.16ZM65.44,397.78c.04-1.04-.89-2.04-1.95-2.11-1.04-.07-2.05.84-2.12,1.91-.07,1.11.76,2.05,1.87,2.12,1.18.07,2.17-.79,2.21-1.92ZM103.75,395.66c-1.07,0-1.99.94-2,2.02-.01,1.18.88,2.04,2.07,2.02,1.09-.03,2.01-.97,1.99-2.03-.03-1.04-1.02-2.01-2.06-2.01ZM267.27,397.7c0-1.06-.95-2.03-2-2.05-1.12-.02-2.07.97-2.03,2.12.04,1.13.9,1.95,2.05,1.93,1.14-.02,2-.88,1.99-2ZM136.77,417.93c1.42,1.41,2.76,2.74,4.13,4.1.11-.1.33-.27.52-.47.34-.34.7-.68,1.01-1.05.83-.98.94-1.83.23-2.87-.37-.56-.88-1.06-1.43-1.45-1-.7-1.96-.62-2.88.19-.58.5-1.1,1.07-1.58,1.55ZM226.89,397.77c.03-1.09-.84-2.04-1.93-2.11-1.07-.07-2.03.82-2.08,1.93-.06,1.23.75,2.1,1.96,2.12,1.16.01,2.02-.8,2.05-1.93ZM184.51,290.74c-1.1,0-1.99.91-1.98,2.03.01,1.06.85,1.94,1.9,1.99,1.08.05,2.02-.86,2.04-1.97.02-1.11-.87-2.04-1.97-2.04ZM186.48,249.2c-.01-1.1-.96-2.01-2.04-1.98-1.04.04-1.9.93-1.91,1.97-.02,1.12.86,2.02,1.97,2.02,1.1,0,1.99-.91,1.98-2.02ZM224.88,414.87c.92.53,1.03-.73,1.67-.68.81.76.84.87.34,1.71-.87,1.48-2.55,1.54-3.72.12-.56-.68-.96-1.43-.49-2.33.43-.83,1.08-1.27,2.07-1.13.19.03.42-.15.73-.28-.23-.21-.31-.31-.4-.36-1.36-.74-3.49,1.12-3.35,2.81.1,1.2,1.24,2.61,2.42,2.94,1.24.35,2.55-.2,3.33-1.41.77-1.19.72-1.61-.3-2.6-.2-.19-.41-.38-.63-.58-.56.6-1.07,1.15-1.68,1.8ZM144.13,286.16c-1.07,0-2,.95-1.98,2.03.02,1.06.86,1.93,1.91,1.96,1.1.04,2.02-.84,2.03-1.96.02-1.12-.87-2.04-1.97-2.04ZM146.1,234.77c-.02-1.11-.95-2-2.04-1.96-1.05.04-1.9.92-1.91,1.98-.01,1.08.93,2.04,1.99,2.04,1.09,0,1.98-.94,1.96-2.05ZM145.75,413.35c-.27-.17-.43-.31-.46-.29-.77.63-1.52,1.28-2.35,1.98-.34-.36-.69-.73-1.1-1.16.77-.8,1.52-1.6,2.31-2.43-.24-.16-.38-.31-.42-.28-1.16.73-1.98,1.81-2.74,2.57,1.42,1.42,2.75,2.75,3.92,3.92.84-.85,1.79-1.81,2.76-2.78.02.02-.13-.13-.14-.12-.88.72-1.75,1.45-2.64,2.19-.45-.43-.89-.84-1.38-1.3.76-.78,1.46-1.5,2.25-2.3ZM259.15,419.5c-.52.28-1.02.4-1.26.72-.37.5-.66,1.04-1.12,1.2.97,1,1.92,1.98,2.86,2.95.29-.45.3-.47.07-.71-.42-.44-.87-.85-1.27-1.3-.54-.61-.6-1.24-.19-1.62.37-.34.78-.22,1.45.42.54.52,1.08,1.04,1.58,1.52.58-.32.41-.58.15-.84-.48-.49-.99-.96-1.44-1.48-.42-.5-.38-1.06.03-1.4.47-.38.83-.1,1.16.22.53.51,1.03,1.03,1.56,1.53.33.31.57.19.71-.26-.67-.68-1.32-1.41-2.04-2.05-.75-.67-1.52-.51-2.01.36-.13.24-.18.53-.24.73ZM90,426.51c1.06,1.07,2.02,2.03,3.08,3.11.13-.12.27-.24.45-.4-.69-.72-1.27-1.27-1.8-1.88-.5-.58-.51-1.17-.05-1.5.52-.38.91-.06,1.27.3.49.48.97.98,1.47,1.45.34.32.56.15.78-.45-.54-.48-1.18-.98-1.74-1.56-.52-.55-.49-1.11-.03-1.49.53-.43.89-.04,1.25.3.49.48.97.98,1.47,1.45.33.32.56.19.72-.32-.64-.63-1.28-1.3-1.97-1.92-.89-.79-1.71-.58-2.2.52-.09.21-.14.45-.2.65-.7.11-1.31.34-1.49.99-.15.52-.57.54-1.01.75ZM133.75,429.3c.03-.14.06-.28.09-.42-.6-.54-1.25-1.05-1.79-1.64-.47-.51-.44-1.08-.02-1.4.51-.39.91-.09,1.28.27.49.48.97.98,1.47,1.45.33.31.56.17.72-.26-.58-.6-1.2-1.19-1.75-1.83-.43-.5-.37-1.05.07-1.4.47-.38.83-.09,1.16.23.52.51,1.02,1.04,1.56,1.54.34.32.55.12.72-.25-.18-.2-.34-.37-.51-.55-.46-.46-.9-.93-1.38-1.37-.95-.87-1.75-.71-2.28.46-.1.22-.16.45-.24.67-.56.19-1.14.44-1.38.87-.25.46-.59.69-1.2.91,1.03,1.02,1.93,1.94,2.87,2.82.1.09.41-.05.63-.09ZM57.37,425.15c-.81-.85-1.4-1.41-1.92-2.03-.45-.53-.42-1.07-.01-1.4.51-.41.9-.1,1.26.26.49.48.97.97,1.46,1.45.32.31.56.22.74-.24-.57-.59-1.18-1.18-1.72-1.81-.43-.51-.4-1.04.01-1.41.52-.46.88-.09,1.24.26.49.48.97.97,1.47,1.45.31.3.57.25.75-.27-.66-.65-1.3-1.37-2.03-2.01-.8-.7-1.6-.51-2.08.42-.12.24-.17.53-.19.59-.58.38-1.15.57-1.4.96-.3.47-.59.85-1.29,1.05,1.03,1.03,1.93,1.94,2.86,2.82.1.1.42-.04.86-.09ZM218.01,425.79c.06-.12.12-.24.19-.37-.36-.26-.74-.5-1.07-.8-.35-.33-.69-.69-.96-1.08-.32-.47-.21-1,.18-1.29.43-.32.76-.07,1.06.22.55.53,1.08,1.09,1.64,1.61.38.36.53.03.73-.28-.62-.64-1.24-1.23-1.79-1.86-.42-.49-.37-1.06.06-1.4.47-.37.83-.09,1.17.23.38.36.74.75,1.12,1.11.25.24.52.45.75.65.4-.24.46-.46.18-.73-.54-.54-1.07-1.1-1.63-1.63-1-.93-1.94-.68-2.38.62-.05.15-.08.31-.06.22-.62.42-1.18.63-1.48,1.04-.3.4-.48.85-1.27.92,1.07,1.08,1.96,2,2.89,2.87.11.1.44-.03.66-.05ZM181.62,421.58c.47-.25.52-.49.2-.81-.46-.45-.91-.92-1.38-1.37-1.27-1.23-2.18-.97-2.65.74-.02.07-.09.12-.19.25-1.39-.3-1.26,1.49-2.52,1.7,1.01.99,1.88,1.84,2.74,2.7.33.32.56.23.8-.2-.29-.3-.6-.61-.9-.93-.33-.36-.69-.7-.96-1.09-.31-.46-.2-1.01.19-1.3.44-.32.76-.05,1.06.24.52.51,1.04,1.02,1.55,1.54.32.32.56.26.8-.21-.56-.58-1.17-1.17-1.72-1.8-.45-.51-.44-1.04-.05-1.41.5-.46.89-.15,1.26.2.61.58,1.2,1.18,1.78,1.75ZM8.86,355.82c-.06-.1-.12-.2-.17-.29-.36-.02-.71-.03-1.07-.05-.35-.02-.7-.04-1.11-.06-.04-.72-.04-1.36-.12-1.99-.11-.96-.79-1.56-1.68-1.57-.84,0-1.55.52-1.65,1.45-.1.94-.02,1.9-.02,2.99,1.82,0,3.59.01,5.35-.02.16,0,.32-.29.48-.45ZM3.08,304.44c-.28.69.12.75.57.76,1.13.01,2.27-.01,3.4.05.8.04,1.14.44,1.22,1.23.08.81-.24,1.38-.99,1.56-.5.12-1.04.13-1.56.15-.91.03-1.82.03-2.73.04-.03.1-.07.19-.1.29.18.13.36.37.54.37,1.17.03,2.35.06,3.52-.02,1.3-.08,1.97-.83,2.02-2.12.06-1.27-.56-2.17-1.82-2.29-1.35-.13-2.72-.03-4.07-.03ZM63.66,418.52c1.1-.96-.32-1.58-.15-2.11.61-.68,1.09-1.22,1.61-1.79.44.18.85.34,1.24.53.5.24.8.11.98-.47-1.73-.73-3.4-1.42-5.05-2.15-.59-.26-.91-.11-1.14.47.81,1.79,1.63,3.59,2.51,5.53ZM7.48,279.76c1.03-.2,1.42-.74,1.46-1.48.05-.78-.29-1.42-1.03-1.77-1.23-.57-2.51-.59-3.76-.14-.95.34-1.39,1.39-1.07,2.27.38,1.03,1.49,1.51,2.58,1.11,1.1-.4,1.44-1.27.96-2.43-.06-.13-.14-.26-.26-.48.73-.02,1.29.11,1.72.6.78.91-.35,1.42-.61,2.32ZM105.73,414.07c.07.28.17.58.22.89.11.62-.13,1.11-.6,1.5-.84.69-2.11.36-3.06-.78-.85-1.02-.85-2.08-.03-2.81.44-.39.93-.43,1.47-.29.42.11.73.03.68-.5-1.16-.5-1.86-.41-2.65.35-.81.77-1.09,1.91-.64,2.89.55,1.22,1.49,2.01,2.83,2.25.99.18,1.71-.35,2.3-1.06.56-.68.65-1.47.33-2.29-.18-.45-.44-.55-.84-.14ZM8.77,309.56c-1.89.76-3.62,1.43-5.33,2.15-.21.09-.41.37-.46.59-.03.14.2.44.37.51,1.75.69,3.52,1.35,5.31,2.03q.01-.68-1.58-1.45v-2.17c.46-.68,1.74-.29,1.68-1.67ZM20.52,245.79c-.11-.56-.15-1.13-.32-1.66-.26-.82-.86-1.27-1.58-1.28-.76-.02-1.43.46-1.68,1.32-.33,1.14-.34,2.31.04,3.45.28.83.85,1.2,1.63,1.19.77-.01,1.33-.4,1.59-1.24.18-.57.22-1.18.32-1.79ZM29.52,245.89c-.11-.6-.15-1.17-.31-1.7-.28-.89-.89-1.35-1.66-1.33-.74.01-1.34.43-1.6,1.26-.36,1.18-.36,2.39.04,3.56.25.72.77,1.12,1.55,1.13.78.02,1.34-.37,1.59-1.07.21-.6.27-1.25.39-1.85ZM34.15,245.79c-.1-.56-.15-1.13-.32-1.66-.26-.83-.86-1.27-1.58-1.29-.76-.02-1.43.45-1.68,1.32-.33,1.14-.34,2.31.04,3.45.28.83.84,1.21,1.62,1.19.77-.01,1.34-.4,1.59-1.24.18-.57.22-1.18.33-1.78ZM29.54,294.41c-.13-.68-.19-1.36-.39-2.01-.22-.73-.82-1.12-1.57-1.11-.74,0-1.32.38-1.57,1.12-.43,1.26-.43,2.54.03,3.79.24.67.76,1.02,1.49,1.04.78.02,1.34-.35,1.6-1.05.21-.55.28-1.16.41-1.78ZM34.15,294.28c-.11-.6-.16-1.21-.35-1.78-.27-.82-.89-1.24-1.62-1.23-.74,0-1.34.43-1.6,1.26-.37,1.18-.37,2.38.03,3.56.24.72.76,1.12,1.54,1.14.78.02,1.37-.36,1.64-1.18.19-.56.24-1.17.35-1.78ZM29.53,338.38c-.13-.62-.2-1.27-.42-1.86-.23-.65-.77-1.03-1.49-1.04-.77-.01-1.33.35-1.59,1.07-.46,1.25-.44,2.53-.02,3.79.25.75.85,1.1,1.58,1.1.73,0,1.34-.4,1.56-1.13.19-.61.25-1.25.38-1.92ZM34.16,338.4c-.13-.63-.2-1.27-.41-1.87-.23-.65-.76-1.04-1.48-1.06-.77-.02-1.34.34-1.6,1.05-.47,1.25-.44,2.53-.03,3.79.24.75.84,1.11,1.57,1.12.73,0,1.34-.39,1.57-1.11.19-.6.26-1.25.38-1.91ZM29.53,386.74c-.12-.61-.17-1.18-.33-1.71-.26-.82-.87-1.26-1.58-1.28-.73-.01-1.36.4-1.63,1.22-.4,1.22-.39,2.46.04,3.68.24.67.74,1.04,1.47,1.07.78.04,1.37-.32,1.62-1.02.23-.63.29-1.32.42-1.96ZM34.15,386.74c-.12-.61-.16-1.18-.33-1.71-.26-.82-.87-1.27-1.58-1.28-.73-.01-1.36.4-1.63,1.22-.4,1.22-.39,2.46.04,3.68.24.67.74,1.04,1.46,1.07.78.04,1.37-.32,1.62-1.02.23-.63.29-1.32.42-1.96ZM25.01,338.5c-.12-.66-.18-1.31-.38-1.91-.23-.71-.77-1.12-1.56-1.12-.78,0-1.32.4-1.58,1.1-.46,1.25-.45,2.53.01,3.79.25.68.81,1,1.49,1.08.66.07,1.34-.34,1.6-1.06.22-.6.28-1.25.41-1.87ZM24.96,294.46c-.04-.54-.07-.94-.11-1.34-.02-.16-.05-.32-.1-.47-.28-.86-.89-1.36-1.66-1.36-.77,0-1.4.47-1.67,1.34-.34,1.11-.34,2.23,0,3.33.27.84.79,1.25,1.56,1.29.8.04,1.46-.4,1.72-1.25.16-.53.19-1.11.25-1.53ZM24.96,246.03c-.04-.54-.07-.94-.11-1.34-.02-.16-.05-.32-.1-.47-.28-.86-.89-1.36-1.66-1.36-.77,0-1.4.47-1.67,1.34-.34,1.11-.34,2.23,0,3.33.27.84.79,1.25,1.56,1.29.8.04,1.46-.4,1.72-1.25.16-.53.19-1.11.25-1.53ZM184.37,415.32c.62-.66,1.19-1.26,1.77-1.87-.54-.34-.56-.36-.8-.12-.48.49-.93,1-1.36,1.46-.57-.49-1.01-.87-1.66-1.43.88-.72,1.63-1.33,2.57-2.1-.49-.13-.78-.29-.86-.21-.87.82-1.71,1.67-2.37,2.32,1.41,1.49,2.7,2.85,4.02,4.25.13-.15.25-.3.4-.47-.58-.61-1.12-1.19-1.72-1.82ZM7.48,293.33c.89-.12,1.31-.71,1.46-1.52.14-.73-.31-1.63-.97-1.94-.91-.42-1.72-.19-2.34.56-1.1-.64-1.79-.6-2.31.1-.56.76-.45,1.85.28,2.4.28.21.67.6.94-.16-.22-.16-.54-.27-.64-.48-.16-.34-.27-.77-.2-1.11.04-.21.49-.5.72-.47.3.03.58.33.85.54.08.06.04.26.11.33.14.14.32.23.55.4.06-.37.07-.62.15-.84.18-.52.58-.75,1.13-.73.5.02.87.26,1.03.72.17.49.11.96-.36,1.3-.3.21-.84.31-.4.9ZM19.58,293.94c.57-.58.83-1.18.38-1.89-.36-.57-1.08-.85-1.8-.7-.74.15-1.19.55-1.29,1.3.48.34.63.02.79-.27.26-.44.69-.64,1.13-.44.28.13.58.49.63.79.07.49-.28.79-.77.93-.2.06-.35.28-.66.55.48.07.73.07.95.15.51.18.79.57.77,1.11-.02.53-.26.93-.8,1.1-.52.16-.96.04-1.27-.43-.09-.13-.12-.32-.23-.41-.11-.08-.32-.13-.43-.08-.1.05-.2.32-.16.39.21.33.42.71.73.92.78.54,1.93.3,2.52-.43.63-.79.48-1.7-.49-2.59ZM21.29,388.25c.36,1.08.75,1.43,1.64,1.47.8.04,1.45-.26,1.82-.98.47-.93.17-1.71-.61-2.32.67-1.02.65-1.76-.04-2.28-.67-.51-1.8-.46-2.34.14-.27.3-.63.67,0,1.08.13-.15.26-.24.33-.38.26-.51.69-.75,1.19-.55.27.11.57.49.61.78.08.58-.33.84-.87.96-.16.04-.26.29-.46.53.39.06.67.03.85.15.28.19.58.45.71.75.23.49-.04,1.11-.49,1.37-.53.3-1.09.19-1.49-.35-.23-.31-.33-.82-.86-.37ZM6.14,333.01c.13.69.21,1.29.37,1.86.2.72.73,1.1,1.3,1.01.59-.09.97-.59.99-1.34,0-.12.01-.25-.03-.36-.2-.62-.38-1.24.02-1.89-.96,0-1.81-.01-2.65,0-1.06.02-1.4.28-1.55,1.14-.2,1.17.12,1.81,1.08,2.2.3-.37,0-.52-.21-.78-.63-.78-.41-1.48.66-1.85ZM8.93,343c-1.1,0-1.94-.01-2.79,0-1.05.02-1.39.29-1.53,1.16-.19,1.18.13,1.82,1.12,2.18.36-.7-.61-.83-.6-1.43.01-.71.21-1.04,1.02-1.08.06.26.13.53.19.81.06.32.09.64.18.95.22.71.74,1.09,1.32.99.59-.1.96-.61.97-1.35,0-.2.02-.43-.07-.6-.28-.53-.27-1.04.19-1.63ZM8.88,320.45c-1.06,0-1.91-.03-2.75,0-.96.04-1.34.34-1.5,1.09-.22,1.06.07,1.86.86,2.28.07.04.21-.04.39-.08-.26-.52-.59-.97-.69-1.47-.14-.66.16-.88.99-.91.13.61.21,1.25.4,1.86.2.65.68.91,1.3.8.63-.1.92-.54.9-1.11-.02-.58-.19-1.16-.28-1.69.11-.22.22-.44.39-.78ZM6.9,347.43c-1.59.09-2.29.68-2.33,1.79-.03,1.1.69,1.88,1.85,2,1.25.13,2.17-.48,2.35-1.57.19-1.13-.2-1.77-1.23-2.03-.04.07-.14.16-.12.2.11.19.23.39.37.55.81.91.51,1.71-.89,2.02v-2.96ZM6.86,324.84c-1.44,0-2.15.51-2.27,1.57-.12,1.11.52,1.96,1.65,2.16,1.2.21,2.24-.36,2.5-1.37.28-1.11-.1-1.84-1.16-2.24-.36.34-.13.55.16.76.44.32.6.76.42,1.28-.19.55-.59.82-1.31.75v-2.91ZM8.81,338.47c-.99.62-1.8,1.12-2.65,1.65-.49-.44-.95-.86-1.49-1.35-.26,1.24,1.13,1.39,1.23,2.37-.84,0-1.64-.02-2.44.02-.19,0-.36.24-.55.37.03.07.07.14.1.22h5.71c.11-.68-.33-.58-.67-.62-.43-.05-.98.16-1.22-.4.49-.87,1.92-.79,1.98-2.26ZM265.49,416.14c1.07.93,1.62.97,2.33.3.73-.69.8-1.44.08-2.25-.89-.99-1.86-1.92-2.81-2.86-.35-.34-.56-.12-.76.27.11.14.23.3.36.44.8.81,1.6,1.6,2.4,2.41.35.35.71.73.38,1.27-.33.53-.77.44-1.26.2-.14-.07-.41.11-.71.21ZM8.98,287.98c-.53-.98-1.38-.69-1.96-.97-.62-.3-1.27-.52-1.88-.84-.62-.33-1.2-.73-2.05-1.25,0,.91-.05,1.55.01,2.18.05.58-.29,1.26.43,1.87.44-.92,0-1.86.4-2.71,1.5.9,2.97,1.73,5.05,1.73ZM3.36,284.29c.1,0,.2.02.3.02.06-.84.12-1.69.18-2.64,1.54,1.01,3.06,1.72,4.8,1.85.29-.5.09-.74-.36-.79-1.62-.18-3-.9-4.31-1.82-.2-.14-.48-.16-.75-.24-.23,1.64-.18,2.88.14,3.62ZM18.67,336.95c0,.84-.02,1.55,0,2.27.03.68-.15,1.4.22,2.2.22-.2.41-.3.41-.4.09-1.84.07-3.67-.14-5.58-.51.8-1.62.98-2.03,2.19.63-.28,1.01-.45,1.53-.69ZM14.75,242.78q-1.9,1.58-1.87,2.16c.4-.18.77-.35,1.25-.57,0,.57,0,1.01,0,1.45,0,.81,0,1.61,0,2.42,0,.34.13.54.61.4v-5.86ZM2.98,315.58c.62,1.05,2.46,1.74,4.23,1.6,1.43-.12,2.86-.86,3.15-1.63-2.5.81-2.83,1.65-7.38.03ZM2.87,303.1c1.3-.54,2.45-1.05,3.77-1.06,1.36-.01,2.55.54,3.89,1.03-1.38-2.21-6.3-2.28-7.66.02ZM266.01,418.26c-1.48-1.48-2.82-2.82-4.26-4.26,0,.21-.1.52.01.63,1.17,1.22,2.37,2.41,3.58,3.58.11.1.38.03.67.04ZM134.26,420.35c-.02.25-.12.53-.03.63,1.18,1.22,2.38,2.43,3.6,3.61.11.11.43,0,.66,0-1.43-1.43-2.77-2.77-4.23-4.23ZM58.84,415.05l-.14.35c1.25,1.25,2.5,2.5,3.74,3.75.33.33.55.21.77-.27-1.22-1.22-2.46-2.47-3.73-3.7-.13-.13-.43-.09-.65-.13ZM8.85,330.66c-.06-.1-.12-.21-.18-.31-.72,0-1.44.03-2.16,0-.88-.04-1.01-.19-1.21-1.14-.02-.1-.12-.19-.21-.31-.58.1-.66.57-.43.87.33.45-.21.82.08,1.29,1.15,0,2.36.02,3.56-.02.18,0,.36-.24.54-.37ZM94.67,419.37c1.48,1.45,2.73,2.65,3.96,3.87.29.29.53.34.82-.2-1.27-1.26-2.57-2.57-3.9-3.84-.08-.08-.38.07-.88.18ZM219.5,416.07c1.25,1.21,2.49,2.41,3.73,3.61.34.33.61.35.82-.23-1.21-1.2-2.44-2.42-3.66-3.65-.28-.28-.53-.36-.89.27ZM184.68,418.5c-1.23-1.22-2.46-2.44-3.69-3.66-.33-.33-.59-.35-.85.23,1.21,1.19,2.44,2.4,3.67,3.62.27.27.52.39.87-.19ZM178.92,416.04c-.02.13-.03.25-.05.38.7.66,1.39,1.34,2.1,1.99.69.62,1.2,1.45,2.24,1.95,0-.37.07-.61-.01-.7-1.2-1.24-2.42-2.47-3.67-3.67-.1-.09-.41.03-.62.06ZM61.89,420.45c.03-.09.06-.18.09-.27-1.27-1.27-2.54-2.55-3.84-3.8-.11-.11-.43,0-.65,0-.03.09-.05.17-.08.26,1.27,1.27,2.54,2.55,3.84,3.8.11.11.42.01.64,0ZM264.79,419.19c-1.24-1.23-2.47-2.44-3.69-3.67-.34-.34-.6-.37-.85.22,1.2,1.19,2.44,2.4,3.66,3.62.28.28.52.38.87-.18ZM139.57,423.5c.01-.23.13-.55.02-.66-1.17-1.22-2.36-2.41-3.57-3.59-.35-.34-.56-.1-.62.1,1.41,1.4,2.73,2.72,4.16,4.15ZM98.15,424.3c-.27-.29-.57-.61-.88-.92-.91-.92-1.84-1.83-2.75-2.75-.33-.33-.6-.37-.86.31,1.21,1.16,2.46,2.37,3.71,3.57.3.29.55.31.78-.21ZM218.83,416.73c-.59.34-.53.58-.24.87.89.88,1.76,1.76,2.65,2.64.36.36.72.7,1.05,1.02.56-.3.45-.55.18-.82-1.21-1.23-2.42-2.47-3.64-3.71ZM7.04,296.34c-.7.16-.78.41-.69,1.56.04.47.2.64.69.47v-2.02Z"/>
    <path d="M289.43,405.29c-.02.43-.04.73-.06,1.13h-23.55v2.89c-.39.04-.65.06-1.06.1v-2.88h-39.35v2.79c-.36.03-.61.06-1.02.09v-2.88h-39.35v2.78c-.36.03-.62.06-1.02.09v-2.88h-39.35v2.78c-.36.04-.62.06-1.02.1v-2.88h-39.28c-.05.9-.1,1.8-.15,2.79-.29.03-.55.05-.95.09v-2.88h-39.28v2.8h-1.12v-2.84c-.55-.02-1.02-.04-1.48-.04-7.02,0-14.03-.01-21.05.01-.66,0-1.22-.12-1.52-.7-.17-.33-.18-.77-.18-1.16-.01-5.27,0-10.54,0-15.82,0-.48,0-.95,0-1.55h-2.95c-.02-.39-.03-.65-.05-1.05h2.77c.28-.99.38-45.12.12-47.3h-2.86v-.99c.92-.05,1.87-.09,2.89-.14v-42.98h-2.84c-.04-.39-.07-.64-.12-1.08h2.97v-47.31h-2.8c-.14-1.01-.15-1.03.62-1.06.68-.03,1.37,0,2.22,0,.05-3.18.02-6.24.02-9.3,0-3.07,0-6.14,0-9.27h1.07v178.55h249.74Z"/>
    <path d="M183.48,262.57c-1.14-1.23-1.24-2.4-.33-3.25.78-.72,2-.7,2.75.04.88.87.76,1.99-.35,3.19,1.11,1.32,1.22,2.44.32,3.28-.77.72-2,.7-2.75-.04-.88-.86-.76-1.98.37-3.22Z"/>
    <path d="M146.01,264.48c.03.28.08.56.08.84,0,1.16-.83,2-1.97,1.99-1.12,0-1.97-.86-1.97-2,0-.56,0-1.11,0-1.67,0-1.14.85-2,1.98-2.01,1.12,0,1.97.85,1.97,2,0,.28-.05.56-.08.84Z"/>
    <path d="M100.51,422.14c-1.42-1.42-2.76-2.74-4.18-4.16.42-.42.9-.95,1.43-1.42,1.34-1.19,2.43-.83,2.84.98.26,0,.54-.05.79,0,1.19.29,1.71,1.56.98,2.55-.56.76-1.29,1.41-1.87,2.03ZM99.12,419.65c.48.54.9,1,1.36,1.52.43-.46.84-.85,1.21-1.28.37-.44.33-.9-.06-1.3-.4-.41-.86-.45-1.3-.08-.45.39-.87.82-1.21,1.14ZM98.44,419.31c.46-.49.87-.87,1.22-1.29.28-.35.3-.75-.04-1.09-.33-.33-.74-.34-1.09-.06-.43.35-.81.76-1.3,1.23.42.42.78.78,1.21,1.21Z"/>
    <path d="M65.44,397.78c-.04,1.14-1.03,2-2.21,1.92-1.11-.07-1.94-1.01-1.87-2.12.07-1.07,1.08-1.98,2.12-1.91,1.07.07,1.99,1.07,1.95,2.11Z"/>
    <path d="M103.75,395.66c1.03,0,2.03.97,2.06,2.01.03,1.06-.89,2-1.99,2.03-1.2.03-2.09-.84-2.07-2.02.01-1.08.94-2.02,2-2.02Z"/>
    <path d="M267.27,397.7c0,1.11-.85,1.98-1.99,2-1.15.02-2.01-.79-2.05-1.93-.04-1.14.92-2.13,2.03-2.12,1.05.02,2,.98,2,2.05Z"/>
    <path d="M136.77,417.93c.48-.48,1-1.05,1.58-1.55.92-.8,1.88-.89,2.88-.19.55.39,1.06.89,1.43,1.45.71,1.05.6,1.9-.23,2.87-.31.37-.66.71-1.01,1.05-.2.2-.42.37-.52.47-1.37-1.36-2.71-2.69-4.13-4.1ZM140.84,421.16c.68-.82,1.82-1.3,1.39-2.56-.36-1.05-1.1-1.87-2.21-2.06-1.13-.19-1.65.8-2.3,1.51,1.04,1.04,2.04,2.04,3.12,3.12Z"/>
    <path d="M226.89,397.77c-.03,1.13-.89,1.94-2.05,1.93-1.21-.01-2.02-.89-1.96-2.12.05-1.11,1.01-1.99,2.08-1.93,1.08.07,1.96,1.02,1.93,2.11Z"/>
    <path d="M184.51,290.74c1.09,0,1.99.93,1.97,2.04-.02,1.11-.96,2.02-2.04,1.97-1.05-.05-1.89-.93-1.9-1.99-.01-1.12.88-2.03,1.98-2.03Z"/>
    <path d="M186.48,249.2c.01,1.11-.88,2.02-1.98,2.02-1.11,0-1.99-.9-1.97-2.02.01-1.05.88-1.94,1.91-1.97,1.08-.04,2.02.88,2.04,1.98Z"/>
    <path d="M224.88,414.87c.61-.65,1.13-1.2,1.68-1.8.23.21.44.39.63.58,1.02.99,1.06,1.41.3,2.6-.79,1.21-2.09,1.77-3.33,1.41-1.17-.33-2.32-1.75-2.42-2.94-.14-1.69,1.99-3.55,3.35-2.81.1.05.17.15.4.36-.31.13-.54.31-.73.28-.99-.15-1.64.29-2.07,1.13-.47.9-.07,1.65.49,2.33,1.16,1.42,2.85,1.35,3.72-.12.49-.84.47-.95-.34-1.71-.64-.04-.75,1.21-1.67.68Z"/>
    <path d="M144.13,286.16c1.1,0,1.98.92,1.97,2.04-.02,1.12-.93,2-2.03,1.96-1.05-.04-1.9-.91-1.91-1.96-.02-1.09.91-2.04,1.98-2.03Z"/>
    <path d="M146.1,234.77c.02,1.11-.87,2.04-1.96,2.05-1.06,0-2-.95-1.99-2.04.01-1.05.86-1.93,1.91-1.98,1.09-.04,2.02.85,2.04,1.96Z"/>
    <path d="M145.75,413.35c-.78.8-1.48,1.52-2.25,2.3.49.46.93.87,1.38,1.3.88-.74,1.76-1.47,2.64-2.19.01-.01.16.14.14.12-.96.97-1.92,1.93-2.76,2.78-1.17-1.17-2.49-2.5-3.92-3.92.76-.76,1.58-1.84,2.74-2.57.04-.02.18.12.42.28-.79.83-1.55,1.62-2.31,2.43.41.43.76.8,1.1,1.16.83-.7,1.58-1.35,2.35-1.98.03-.02.18.11.46.29Z"/>
    <path d="M259.15,419.5c.06-.2.11-.49.24-.73.49-.87,1.26-1.03,2.01-.36.72.64,1.37,1.37,2.04,2.05-.14.45-.38.57-.71.26-.53-.5-1.04-1.03-1.56-1.53-.33-.32-.7-.6-1.16-.22-.42.34-.46.9-.03,1.4.45.52.96.99,1.44,1.48.26.26.43.52-.15.84-.51-.49-1.04-1-1.58-1.52-.67-.64-1.08-.76-1.45-.42-.41.37-.35,1,.19,1.62.4.45.86.86,1.27,1.3.23.24.22.26-.07.71-.94-.97-1.89-1.95-2.86-2.95.46-.16.75-.7,1.12-1.2.23-.32.74-.43,1.26-.72Z"/>
    <path d="M90,426.51c.43-.21.86-.23,1.01-.75.18-.64.79-.88,1.49-.99.06-.21.11-.44.2-.65.49-1.1,1.31-1.31,2.2-.52.69.62,1.33,1.29,1.97,1.92-.16.5-.39.63-.72.32-.5-.47-.98-.97-1.47-1.45-.35-.34-.71-.73-1.25-.3-.46.38-.49.94.03,1.49.55.58,1.2,1.08,1.74,1.56-.21.6-.43.77-.78.45-.5-.47-.98-.97-1.47-1.45-.36-.36-.75-.68-1.27-.3-.45.33-.45.92.05,1.5.52.61,1.11,1.16,1.8,1.88-.18.16-.32.28-.45.4-1.07-1.07-2.02-2.04-3.08-3.11Z"/>
    <path d="M133.75,429.3c-.22.03-.53.18-.63.09-.94-.88-1.84-1.79-2.87-2.82.61-.22.95-.45,1.2-.91.24-.43.82-.68,1.38-.87.08-.22.14-.46.24-.67.53-1.16,1.33-1.33,2.28-.46.48.44.92.91,1.38,1.37.17.17.33.35.51.55-.17.38-.37.57-.72.25-.53-.5-1.03-1.03-1.56-1.54-.33-.32-.69-.61-1.16-.23-.43.35-.49.89-.07,1.4.55.64,1.17,1.23,1.75,1.83-.15.44-.39.58-.72.26-.5-.47-.98-.97-1.47-1.45-.37-.36-.77-.65-1.28-.27-.42.32-.45.89.02,1.4.55.59,1.19,1.1,1.79,1.64-.03.14-.06.28-.09.42Z"/>
    <path d="M57.37,425.15c-.44.06-.76.19-.86.09-.93-.88-1.83-1.79-2.86-2.82.7-.2,1-.59,1.29-1.05.25-.39.81-.58,1.4-.96.02-.07.06-.35.19-.59.47-.93,1.28-1.11,2.08-.42.73.63,1.37,1.35,2.03,2.01-.18.51-.43.57-.75.27-.5-.48-.97-.97-1.47-1.45-.35-.34-.72-.72-1.24-.26-.41.36-.45.89-.01,1.41.54.64,1.15,1.22,1.72,1.81-.18.46-.41.56-.74.24-.49-.48-.97-.97-1.46-1.45-.36-.36-.75-.67-1.26-.26-.41.33-.43.87.01,1.4.52.62,1.11,1.18,1.92,2.03Z"/>
    <path d="M218.01,425.79c-.23.02-.55.15-.66.05-.93-.88-1.82-1.79-2.89-2.87.79-.07.98-.52,1.27-.92.3-.41.86-.62,1.48-1.04-.02.09,0-.07.06-.22.44-1.3,1.37-1.55,2.38-.62.56.52,1.09,1.08,1.63,1.63.27.27.21.49-.18.73-.23-.2-.5-.42-.75-.65-.38-.36-.74-.75-1.12-1.11-.33-.31-.7-.6-1.17-.23-.42.33-.48.91-.06,1.4.55.64,1.16,1.22,1.79,1.86-.2.31-.34.64-.73.28-.56-.52-1.09-1.08-1.64-1.61-.3-.29-.63-.55-1.06-.22-.39.29-.5.83-.18,1.29.27.4.61.76.96,1.08.33.3.71.54,1.07.8-.06.12-.12.24-.19.37Z"/>
    <path d="M181.62,421.58c-.58-.57-1.17-1.17-1.78-1.75-.36-.35-.76-.67-1.26-.2-.39.37-.4.9.05,1.41.56.63,1.16,1.22,1.72,1.8-.24.47-.48.53-.8.21-.51-.52-1.03-1.03-1.55-1.54-.3-.29-.62-.56-1.06-.24-.39.28-.5.84-.19,1.3.27.4.63.74.96,1.09.3.32.61.63.9.93-.24.43-.47.52-.8.2-.86-.85-1.73-1.7-2.74-2.7,1.26-.22,1.12-2,2.52-1.7.1-.13.17-.18.19-.25.47-1.71,1.39-1.97,2.65-.74.47.45.91.92,1.38,1.37.32.31.27.55-.2.81Z"/>
    <path d="M8.86,355.82c-.16.16-.32.44-.48.45-1.76.03-3.53.02-5.35.02,0-1.08-.08-2.04.02-2.99.1-.93.81-1.46,1.65-1.45.9,0,1.57.61,1.68,1.57.08.63.08,1.28.12,1.99.41.02.76.05,1.11.06.36.02.71.03,1.07.05.06.1.12.2.17.29ZM5.73,355.4c0-.66.06-1.26-.02-1.84-.08-.64-.48-.9-1.09-.87-.57.03-.9.36-.95.9-.05.59-.01,1.18-.01,1.81h2.06Z"/>
    <path d="M3.08,304.44c1.34,0,2.72-.1,4.07.03,1.27.12,1.88,1.02,1.82,2.29-.06,1.29-.72,2.04-2.02,2.12-1.17.07-2.34.04-3.52.02-.18,0-.36-.24-.54-.37.03-.1.07-.19.1-.29.91-.01,1.82-.01,2.73-.04.52-.02,1.06-.03,1.56-.15.75-.18,1.07-.76.99-1.56-.08-.79-.42-1.19-1.22-1.23-1.13-.06-2.26-.03-3.4-.05-.45,0-.85-.07-.57-.76Z"/>
    <path d="M63.66,418.52c-.88-1.95-1.7-3.74-2.51-5.53.23-.58.55-.73,1.14-.47,1.65.73,3.33,1.42,5.05,2.15-.18.57-.48.71-.98.47-.4-.19-.81-.34-1.24-.53-.51.57-.99,1.11-1.61,1.79-.17.53,1.25,1.15.15,2.11ZM64.41,414.25c-.8-.37-1.47-.67-2.14-.98l-.13.18c.32.68.63,1.35,1.04,2.23.42-.49.76-.88,1.23-1.43Z"/>
    <path d="M7.48,279.76c.25-.9,1.39-1.41.61-2.32-.42-.49-.99-.62-1.72-.6.12.22.2.35.26.48.48,1.16.14,2.03-.96,2.43-1.09.4-2.21-.08-2.58-1.11-.32-.88.12-1.93,1.07-2.27,1.25-.45,2.53-.43,3.76.14.74.34,1.08.99,1.03,1.77-.05.73-.43,1.28-1.46,1.48ZM5,279.17c.71,0,1.29-.53,1.28-1.17,0-.63-.58-1.11-1.33-1.12-.76,0-1.33.45-1.34,1.09-.01.66.61,1.21,1.39,1.2Z"/>
    <path d="M105.73,414.07c.4-.42.67-.31.84.14.32.82.23,1.6-.33,2.29-.59.72-1.31,1.24-2.3,1.06-1.33-.24-2.27-1.03-2.83-2.25-.45-.98-.16-2.12.64-2.89.79-.76,1.49-.85,2.65-.35.05.53-.26.61-.68.5-.54-.14-1.03-.1-1.47.29-.82.73-.81,1.79.03,2.81.95,1.15,2.22,1.47,3.06.78.47-.39.71-.88.6-1.5-.06-.31-.15-.61-.22-.89Z"/>
    <path d="M8.77,309.56c.05,1.38-1.22.98-1.68,1.67v2.17q1.59.77,1.58,1.45c-1.8-.68-3.56-1.34-5.31-2.03-.17-.07-.4-.37-.37-.51.05-.23.25-.51.46-.59,1.71-.72,3.43-1.39,5.33-2.15ZM6.29,311.35c-.83.31-1.54.57-2.24.84,0,.07.02.15.03.22.71.25,1.41.49,2.21.77v-1.83Z"/>
    <path d="M20.52,245.79c-.11.61-.15,1.22-.32,1.79-.26.84-.82,1.23-1.59,1.24-.78.01-1.34-.36-1.63-1.19-.39-1.14-.37-2.31-.04-3.45.25-.87.92-1.34,1.68-1.32.72.02,1.32.46,1.58,1.28.17.53.22,1.1.32,1.66ZM19.79,245.81c-.09-.52-.15-1.09-.31-1.62-.13-.45-.5-.83-.99-.69-.33.1-.79.45-.82.73-.1,1.07-.11,2.15-.04,3.22.03.45.47.78.96.76.49-.02.82-.33.93-.82.11-.51.17-1.03.26-1.59Z"/>
    <path d="M29.52,245.89c-.12.61-.18,1.25-.39,1.85-.25.7-.81,1.09-1.59,1.07-.78-.02-1.3-.41-1.55-1.13-.4-1.18-.4-2.38-.04-3.56.25-.83.86-1.25,1.6-1.26.77-.02,1.39.44,1.66,1.33.16.53.2,1.1.31,1.7ZM28.79,245.81c-.09-.52-.15-1.09-.31-1.62-.13-.45-.5-.83-.99-.69-.33.1-.79.45-.82.73-.1,1.07-.11,2.15-.04,3.22.03.45.47.78.96.76.49-.02.82-.33.93-.82.11-.51.17-1.03.26-1.59Z"/>
    <path d="M34.15,245.79c-.11.61-.15,1.22-.33,1.78-.26.84-.82,1.23-1.59,1.24-.78.01-1.34-.37-1.62-1.19-.38-1.14-.37-2.31-.04-3.45.25-.87.92-1.34,1.68-1.32.72.02,1.32.46,1.58,1.29.17.53.22,1.1.32,1.66ZM33.44,245.85c-.11-.57-.14-1.19-.38-1.73-.13-.29-.58-.58-.91-.61-.25-.02-.69.31-.79.58-.42,1.12-.38,2.3-.05,3.43.09.29.55.59.89.67.41.09.78-.21.9-.64.14-.54.22-1.1.33-1.69Z"/>
    <path d="M29.54,294.41c-.14.61-.2,1.22-.41,1.78-.26.7-.82,1.07-1.6,1.05-.72-.02-1.24-.37-1.49-1.04-.46-1.25-.45-2.53-.03-3.79.25-.73.83-1.11,1.57-1.12.74,0,1.34.38,1.57,1.11.2.64.27,1.33.39,2.01ZM26.42,294.28c.07.58.09,1.11.22,1.61.12.46.51.83.98.73.33-.07.75-.39.86-.7.41-1.08.4-2.23,0-3.31-.11-.3-.54-.61-.87-.69-.5-.12-.83.29-.94.74-.13.54-.17,1.11-.24,1.62Z"/>
    <path d="M34.15,294.28c-.11.61-.16,1.22-.35,1.78-.27.81-.86,1.19-1.64,1.18-.78-.02-1.3-.42-1.54-1.14-.4-1.18-.4-2.38-.03-3.56.26-.83.87-1.25,1.6-1.26.73,0,1.35.41,1.62,1.23.18.56.23,1.17.35,1.78ZM31.04,294.25c.07.58.09,1.11.21,1.61.11.46.48.84.96.75.33-.06.76-.37.88-.67.42-1.08.38-2.21.03-3.32-.14-.45-.49-.84-.98-.7-.33.09-.72.41-.83.72-.19.51-.19,1.1-.27,1.6Z"/>
    <path d="M29.53,338.38c-.13.67-.19,1.31-.38,1.92-.23.73-.83,1.13-1.56,1.13-.73,0-1.33-.36-1.58-1.1-.42-1.26-.44-2.54.02-3.79.26-.72.82-1.08,1.59-1.07.72.01,1.25.39,1.49,1.04.21.6.28,1.24.42,1.86ZM26.43,338.48c.05.5.06.99.17,1.46.12.49.41.9,1,.88.52-.02.8-.36.93-.81.3-1.03.29-2.06.01-3.1-.14-.52-.47-.84-1.04-.81-.52.03-.8.39-.9.84-.11.51-.12,1.04-.18,1.54Z"/>
    <path d="M34.16,338.4c-.13.66-.19,1.31-.38,1.91-.23.73-.84,1.12-1.57,1.11-.73,0-1.32-.37-1.57-1.12-.41-1.26-.44-2.54.03-3.79.27-.71.83-1.07,1.6-1.05.72.02,1.25.4,1.48,1.06.21.6.28,1.24.41,1.87ZM31.06,338.4c.04.49.04.98.14,1.45.11.48.35.92.94.96.58.03.89-.34,1.03-.84.29-1.03.28-2.07,0-3.1-.13-.48-.44-.78-.95-.78-.58,0-.89.37-1,.88-.1.47-.11.96-.16,1.43Z"/>
    <path d="M29.53,386.74c-.13.64-.19,1.33-.42,1.96-.26.7-.84,1.06-1.62,1.02-.72-.04-1.23-.4-1.47-1.07-.43-1.21-.44-2.46-.04-3.68.27-.82.9-1.23,1.63-1.22.72.01,1.32.46,1.58,1.28.17.53.22,1.1.33,1.71ZM26.42,386.72c.07.55.09,1.12.23,1.66.12.46.51.82.98.71.33-.08.74-.4.85-.71.4-1.09.4-2.23-.02-3.31-.12-.3-.55-.6-.88-.67-.51-.11-.82.31-.93.76-.13.5-.16,1.03-.23,1.56Z"/>
    <path d="M34.15,386.74c-.13.64-.19,1.33-.42,1.96-.26.7-.84,1.06-1.62,1.02-.72-.04-1.23-.4-1.46-1.07-.43-1.21-.44-2.46-.04-3.68.27-.81.91-1.23,1.63-1.22.72.01,1.32.46,1.58,1.28.17.53.22,1.1.33,1.71ZM31.04,386.73c.07.58.09,1.11.21,1.61.12.46.49.84.96.75.33-.06.76-.38.87-.68.41-1.08.38-2.21.03-3.32-.14-.45-.49-.83-.99-.69-.33.09-.71.42-.83.73-.19.51-.19,1.1-.26,1.6Z"/>
    <path d="M25.01,338.5c-.13.63-.2,1.28-.41,1.87-.26.72-.94,1.14-1.6,1.06-.68-.08-1.24-.4-1.49-1.08-.46-1.26-.48-2.53-.01-3.79.26-.7.8-1.1,1.58-1.1.78,0,1.32.41,1.56,1.12.2.6.25,1.25.38,1.91ZM24.28,338.38c-.09-.5-.09-1.09-.31-1.59-.13-.3-.55-.57-.89-.67-.43-.12-.77.19-.91.61-.35,1.1-.37,2.22-.03,3.33.14.45.44.77.97.75.53-.02.81-.38.92-.82.13-.5.16-1.03.24-1.61Z"/>
    <path d="M24.96,294.46c-.07.42-.09,1-.25,1.53-.26.85-.92,1.28-1.72,1.25-.77-.03-1.29-.45-1.56-1.29-.35-1.11-.35-2.23,0-3.33.27-.87.89-1.34,1.67-1.34.77,0,1.37.5,1.66,1.36.05.15.09.31.1.47.04.4.07.8.11,1.34ZM21.86,294.3c.1.56.17,1.12.31,1.66.11.43.48.74.89.66.34-.07.8-.35.91-.65.4-1.08.36-2.22.05-3.33-.12-.44-.48-.84-.98-.71-.33.09-.72.4-.85.71-.21.51-.23,1.09-.33,1.66Z"/>
    <path d="M24.96,246.03c-.07.42-.09,1-.25,1.53-.26.85-.92,1.28-1.72,1.25-.77-.03-1.29-.45-1.56-1.29-.35-1.11-.35-2.23,0-3.33.27-.87.89-1.34,1.67-1.34.77,0,1.37.5,1.66,1.36.05.15.09.31.1.47.04.4.07.8.11,1.34ZM21.86,245.87c.09.55.15,1.07.28,1.58.12.48.48.83.96.73.34-.07.78-.38.89-.68.37-1.09.37-2.23,0-3.32-.1-.3-.54-.6-.88-.68-.5-.12-.83.28-.94.74-.14.54-.2,1.1-.29,1.64Z"/>
    <path d="M184.37,415.32c.59.63,1.14,1.21,1.72,1.82-.15.18-.27.32-.4.47-1.32-1.4-2.61-2.76-4.02-4.25.66-.65,1.5-1.5,2.37-2.32.08-.07.37.09.86.21-.94.76-1.69,1.38-2.57,2.1.65.56,1.09.94,1.66,1.43.43-.47.88-.98,1.36-1.46.24-.24.26-.22.8.12-.58.61-1.15,1.22-1.77,1.87Z"/>
    <path d="M7.48,293.33c-.44-.6.1-.69.4-.9.48-.33.53-.81.36-1.3-.16-.46-.53-.7-1.03-.72-.55-.03-.95.2-1.13.73-.08.22-.09.47-.15.84-.23-.16-.41-.26-.55-.4-.07-.08-.04-.27-.11-.33-.27-.21-.55-.51-.85-.54-.23-.03-.68.26-.72.47-.07.35.04.77.2,1.11.1.21.42.32.64.48-.28.75-.66.37-.94.16-.73-.55-.84-1.65-.28-2.4.52-.7,1.21-.75,2.31-.1.62-.75,1.42-.98,2.34-.56.67.31,1.11,1.21.97,1.94-.15.81-.57,1.41-1.46,1.52Z"/>
    <path d="M19.58,293.94c.97.89,1.12,1.81.49,2.59-.59.74-1.74.97-2.52.43-.31-.21-.52-.59-.73-.92-.05-.08.06-.34.16-.39.1-.06.32,0,.43.08.11.09.15.28.23.41.31.47.74.59,1.27.43.54-.17.78-.57.8-1.1.02-.54-.26-.93-.77-1.11-.22-.08-.47-.08-.95-.15.31-.27.47-.49.66-.55.49-.14.85-.44.77-.93-.04-.3-.35-.66-.63-.79-.44-.2-.87,0-1.13.44-.17.28-.31.61-.79.27.09-.75.55-1.15,1.29-1.3.72-.15,1.44.13,1.8.7.45.71.2,1.31-.38,1.89Z"/>
    <path d="M21.29,388.25c.53-.45.63.06.86.37.41.54.96.65,1.49.35.44-.25.71-.87.49-1.37-.14-.3-.43-.56-.71-.75-.18-.12-.46-.09-.85-.15.2-.24.31-.49.46-.53.54-.13.96-.39.87-.96-.04-.29-.34-.67-.61-.78-.5-.2-.94.04-1.19.55-.07.13-.2.23-.33.38-.63-.41-.27-.78,0-1.08.54-.6,1.67-.65,2.34-.14.68.52.7,1.26.04,2.28.78.61,1.08,1.4.61,2.32-.36.72-1.02,1.02-1.82.98-.9-.04-1.28-.39-1.64-1.47Z"/>
    <path d="M6.14,333.01c-1.08.37-1.29,1.07-.66,1.85.21.26.52.41.21.78-.97-.39-1.28-1.03-1.08-2.2.15-.86.49-1.13,1.55-1.14.84-.01,1.69,0,2.65,0-.41.65-.23,1.26-.02,1.89.04.11.03.24.03.36-.02.74-.4,1.25-.99,1.34-.57.09-1.11-.3-1.3-1.01-.16-.58-.24-1.17-.37-1.86ZM6.81,333.03c.09.53.11,1.05.27,1.52.08.24.42.38.65.57.18-.24.47-.46.52-.73.13-.72-.36-1.19-1.44-1.35Z"/>
    <path d="M8.93,343c-.46.59-.47,1.1-.19,1.63.09.17.07.4.07.6-.01.75-.39,1.25-.97,1.35-.57.1-1.1-.28-1.32-.99-.09-.31-.11-.63-.18-.95-.06-.27-.13-.54-.19-.81-.8.04-1,.37-1.02,1.08,0,.59.95.73.6,1.43-1-.36-1.32-1-1.12-2.18.14-.87.49-1.14,1.53-1.16.84-.01,1.69,0,2.79,0ZM6.78,343.73c.11.6.13,1.09.3,1.52.09.24.42.38.65.57.18-.24.47-.46.52-.73.13-.73-.35-1.19-1.47-1.36Z"/>
    <path d="M8.88,320.45c-.17.34-.28.56-.39.78.1.53.26,1.11.28,1.69.02.56-.28,1-.9,1.11-.62.1-1.1-.15-1.3-.8-.19-.61-.27-1.25-.4-1.86-.83.03-1.13.25-.99.91.1.5.44.95.69,1.47-.18.04-.31.12-.39.08-.78-.42-1.08-1.22-.86-2.28.16-.75.53-1.05,1.5-1.09.84-.03,1.69,0,2.75,0ZM6.77,321.32c.12.58.16,1.06.32,1.5.08.2.4.46.59.44.2-.02.47-.3.54-.52.25-.79-.32-1.38-1.45-1.42Z"/>
    <path d="M6.9,347.43v2.96c1.4-.31,1.7-1.11.89-2.02-.15-.16-.26-.36-.37-.55-.02-.03.08-.13.12-.2,1.03.26,1.42.9,1.23,2.03-.18,1.08-1.1,1.7-2.35,1.57-1.16-.12-1.88-.9-1.85-2,.03-1.11.74-1.71,2.33-1.79ZM6.24,348.17c-.77.16-1.12.56-1.07,1.2.05.55.32.99,1.07.94v-2.14Z"/>
    <path d="M6.86,324.84v2.91c.72.06,1.11-.2,1.31-.75.18-.52.02-.96-.42-1.28-.29-.21-.52-.42-.16-.76,1.06.4,1.44,1.13,1.16,2.24-.25,1.01-1.3,1.58-2.5,1.37-1.13-.2-1.78-1.05-1.65-2.16.12-1.06.83-1.58,2.27-1.57ZM6.27,325.57c-.92.34-1.22.67-1.09,1.24.12.53.36.98,1.09.81v-2.05Z"/>
    <path d="M8.81,338.47c-.06,1.46-1.49,1.39-1.98,2.26.24.56.79.35,1.22.4.34.04.79-.07.67.62H3.02c-.03-.07-.07-.14-.1-.22.18-.13.36-.36.55-.37.8-.04,1.6-.02,2.44-.02-.1-.98-1.49-1.13-1.23-2.37.55.49,1.01.91,1.49,1.35.84-.53,1.66-1.03,2.65-1.65Z"/>
    <path d="M265.49,416.14c.31-.1.57-.28.71-.21.5.24.94.33,1.26-.2.33-.54-.03-.92-.38-1.27-.8-.81-1.6-1.6-2.4-2.41-.14-.14-.25-.3-.36-.44.2-.39.41-.62.76-.27.95.94,1.92,1.86,2.81,2.86.73.81.66,1.55-.08,2.25-.71.67-1.25.63-2.33-.3Z"/>
    <path d="M8.98,287.98c-2.08,0-3.55-.82-5.05-1.73-.4.84.05,1.79-.4,2.71-.72-.61-.37-1.29-.43-1.87-.06-.63-.01-1.27-.01-2.18.85.52,1.43.92,2.05,1.25.61.32,1.26.54,1.88.84.58.28,1.42,0,1.96.97Z"/>
    <path d="M3.36,284.29c-.32-.75-.37-1.98-.14-3.62.26.08.55.1.75.24,1.31.92,2.69,1.64,4.31,1.82.45.05.65.29.36.79-1.74-.12-3.25-.84-4.8-1.85-.07.95-.13,1.8-.18,2.64-.1,0-.2-.02-.3-.02Z"/>
    <path d="M18.67,336.95c-.53.24-.9.4-1.53.69.41-1.22,1.52-1.39,2.03-2.19.21,1.9.23,3.74.14,5.58,0,.1-.19.19-.41.4-.36-.79-.19-1.51-.22-2.2-.03-.71,0-1.43,0-2.27Z"/>
    <path d="M14.75,242.78v5.86c-.48.14-.61-.07-.61-.4,0-.81,0-1.61,0-2.42,0-.44,0-.88,0-1.45-.47.22-.85.39-1.25.57q-.03-.57,1.87-2.16Z"/>
    <path d="M2.98,315.58c4.55,1.62,4.88.78,7.38-.03-.29.77-1.72,1.51-3.15,1.63-1.77.15-3.6-.55-4.23-1.6Z"/>
    <path d="M2.87,303.1c1.37-2.3,6.29-2.23,7.66-.02-1.35-.49-2.53-1.05-3.89-1.03-1.32.01-2.47.52-3.77,1.06Z"/>
    <path d="M266.01,418.26c-.29-.01-.57.06-.67-.04-1.21-1.17-2.41-2.37-3.58-3.58-.11-.11-.01-.42-.01-.63,1.44,1.44,2.78,2.78,4.26,4.26Z"/>
    <path d="M134.26,420.35c1.47,1.46,2.8,2.8,4.23,4.23-.23,0-.55.12-.66,0-1.22-1.18-2.42-2.39-3.6-3.61-.09-.1.01-.38.03-.63Z"/>
    <path d="M58.84,415.05c.22.04.52,0,.65.13,1.27,1.23,2.51,2.48,3.73,3.7-.22.48-.44.6-.77.27-1.25-1.25-2.5-2.5-3.74-3.75l.14-.35Z"/>
    <path d="M8.85,330.66c-.18.13-.36.36-.54.37-1.2.03-2.41.02-3.56.02-.29-.47.25-.84-.08-1.29-.22-.3-.14-.77.43-.87.09.13.18.21.21.31.19.95.32,1.1,1.21,1.14.72.03,1.44,0,2.16,0,.06.1.12.21.18.31Z"/>
    <path d="M94.67,419.37c.5-.11.8-.26.88-.18,1.33,1.28,2.63,2.58,3.9,3.84-.29.54-.53.49-.82.2-1.23-1.21-2.48-2.42-3.96-3.87Z"/>
    <path d="M219.5,416.07c.36-.62.61-.55.89-.27,1.22,1.22,2.45,2.44,3.66,3.65-.21.58-.48.56-.82.23-1.24-1.2-2.48-2.4-3.73-3.61Z"/>
    <path d="M184.68,418.5c-.35.58-.6.46-.87.19-1.23-1.22-2.46-2.43-3.67-3.62.26-.59.52-.57.85-.23,1.22,1.22,2.45,2.44,3.69,3.66Z"/>
    <path d="M178.92,416.04c.21-.02.52-.15.62-.06,1.24,1.2,2.46,2.43,3.67,3.67.09.09.01.33.01.7-1.04-.5-1.56-1.33-2.24-1.95-.72-.64-1.4-1.32-2.1-1.99.02-.13.03-.25.05-.38Z"/>
    <path d="M61.89,420.45c-.22,0-.53.1-.64,0-1.3-1.25-2.56-2.53-3.84-3.8.03-.09.05-.17.08-.26.22,0,.54-.11.65,0,1.3,1.25,2.56,2.53,3.84,3.8-.03.09-.06.18-.09.27Z"/>
    <path d="M264.79,419.19c-.35.56-.6.46-.87.18-1.23-1.22-2.46-2.43-3.66-3.62.24-.59.51-.56.85-.22,1.22,1.22,2.45,2.44,3.69,3.67Z"/>
    <path d="M139.57,423.5c-1.43-1.42-2.76-2.75-4.16-4.15.05-.2.26-.44.62-.1,1.21,1.18,2.4,2.37,3.57,3.59.11.11,0,.43-.02.66Z"/>
    <path d="M98.15,424.3c-.23.52-.48.5-.78.21-1.25-1.21-2.5-2.41-3.71-3.57.27-.68.53-.64.86-.31.91.92,1.84,1.83,2.75,2.75.31.31.61.63.88.92Z"/>
    <path d="M218.83,416.73c1.22,1.24,2.43,2.48,3.64,3.71.27.28.38.53-.18.82-.33-.32-.69-.67-1.05-1.02-.88-.88-1.76-1.77-2.65-2.64-.29-.29-.35-.53.24-.87Z"/>
    <path d="M7.04,296.34v2.02c-.49.17-.66,0-.69-.47-.09-1.15,0-1.4.69-1.56Z"/>
    <path class="cls-3" d="M99.12,419.65c.34-.32.75-.75,1.21-1.14.44-.37.9-.33,1.3.08.4.41.44.87.06,1.3-.37.43-.77.82-1.21,1.28-.46-.52-.88-.98-1.36-1.52Z"/>
    <path class="cls-3" d="M98.44,419.31c-.43-.43-.79-.79-1.21-1.21.49-.47.87-.88,1.3-1.23.35-.29.76-.27,1.09.06.34.33.33.74.04,1.09-.35.43-.75.81-1.22,1.29Z"/>
    <path class="cls-3" d="M140.84,421.16c-1.08-1.08-2.08-2.08-3.12-3.12.65-.71,1.16-1.7,2.3-1.51,1.11.19,1.85,1.01,2.21,2.06.43,1.26-.71,1.74-1.39,2.56Z"/>
    <path class="cls-3" d="M5.73,355.4h-2.06c0-.63-.04-1.22.01-1.81.04-.54.37-.87.95-.9.61-.03,1.01.22,1.09.87.08.58.02,1.18.02,1.84Z"/>
    <path class="cls-3" d="M64.41,414.25c-.47.55-.81.94-1.23,1.43-.41-.87-.73-1.55-1.04-2.23l.13-.18c.67.3,1.33.61,2.14.98Z"/>
    <path class="cls-3" d="M5,279.17c-.77,0-1.4-.54-1.39-1.2.01-.63.58-1.09,1.34-1.09.74,0,1.32.49,1.33,1.12,0,.63-.57,1.16-1.28,1.17Z"/>
    <path class="cls-3" d="M6.29,311.35v1.83c-.8-.28-1.5-.53-2.21-.77,0-.07-.02-.15-.03-.22.7-.26,1.41-.53,2.24-.84Z"/>
    <path class="cls-3" d="M19.79,245.81c-.09.56-.15,1.08-.26,1.59-.1.48-.44.8-.93.82-.5.02-.93-.31-.96-.76-.07-1.07-.06-2.16.04-3.22.03-.28.49-.63.82-.73.49-.14.85.24.99.69.16.53.21,1.1.31,1.62Z"/>
    <path class="cls-3" d="M28.79,245.81c-.09.56-.15,1.08-.26,1.59-.1.48-.44.8-.93.82-.5.02-.93-.31-.96-.76-.07-1.07-.06-2.16.04-3.22.03-.28.49-.63.82-.73.49-.14.85.24.99.69.16.53.21,1.1.31,1.62Z"/>
    <path class="cls-3" d="M33.44,245.85c-.11.6-.19,1.15-.33,1.69-.12.43-.49.73-.9.64-.34-.08-.8-.37-.89-.67-.33-1.13-.37-2.31.05-3.43.1-.27.53-.6.79-.58.33.03.78.31.91.61.23.54.26,1.16.38,1.73Z"/>
    <path class="cls-3" d="M26.42,294.28c.07-.51.11-1.07.24-1.62.11-.46.44-.86.94-.74.34.08.76.38.87.69.41,1.08.41,2.22,0,3.31-.12.31-.53.63-.86.7-.47.1-.86-.27-.98-.73-.13-.5-.15-1.03-.22-1.61Z"/>
    <path class="cls-3" d="M31.04,294.25c.07-.5.07-1.09.27-1.6.12-.31.51-.63.83-.72.49-.14.84.25.98.7.35,1.1.39,2.24-.03,3.32-.12.3-.55.61-.88.67-.48.09-.84-.29-.96-.75-.13-.5-.14-1.03-.21-1.61Z"/>
    <path class="cls-3" d="M26.43,338.48c.05-.5.07-1.03.18-1.54.1-.45.37-.81.9-.84.57-.03.9.29,1.04.81.28,1.03.28,2.07-.01,3.1-.13.45-.41.8-.93.81-.59.02-.88-.39-1-.88-.11-.46-.12-.95-.17-1.46Z"/>
    <path class="cls-3" d="M31.06,338.4c.05-.47.06-.96.16-1.43.11-.51.42-.89,1-.88.51,0,.81.31.95.78.29,1.03.29,2.07,0,3.1-.14.5-.44.87-1.03.84-.59-.03-.83-.48-.94-.96-.1-.47-.1-.96-.14-1.45Z"/>
    <path class="cls-3" d="M26.42,386.72c.07-.53.11-1.06.23-1.56.11-.45.43-.87.93-.76.34.07.77.37.88.67.41,1.08.41,2.22.02,3.31-.11.31-.52.64-.85.71-.47.11-.87-.25-.98-.71-.14-.54-.16-1.11-.23-1.66Z"/>
    <path class="cls-3" d="M31.04,386.73c.07-.5.07-1.09.26-1.6.12-.31.5-.64.83-.73.49-.14.84.24.99.69.35,1.1.39,2.23-.03,3.32-.12.3-.54.62-.87.68-.47.09-.85-.29-.96-.75-.13-.5-.14-1.03-.21-1.61Z"/>
    <path class="cls-3" d="M24.28,338.38c-.08.58-.11,1.11-.24,1.61-.11.44-.4.8-.92.82-.53.02-.83-.3-.97-.75-.34-1.11-.32-2.22.03-3.33.13-.43.48-.73.91-.61.34.09.76.36.89.67.21.5.22,1.09.31,1.59Z"/>
    <path class="cls-3" d="M21.86,294.3c.1-.57.12-1.15.33-1.66.13-.31.52-.63.85-.71.5-.13.86.27.98.71.31,1.1.36,2.24-.05,3.33-.11.3-.56.58-.91.65-.41.09-.78-.23-.89-.66-.14-.54-.21-1.1-.31-1.66Z"/>
    <path class="cls-3" d="M21.86,245.87c.09-.53.15-1.1.29-1.64.12-.46.44-.86.94-.74.34.08.77.38.88.68.38,1.09.38,2.23,0,3.32-.1.3-.55.61-.89.68-.48.1-.84-.25-.96-.73-.12-.51-.18-1.03-.28-1.58Z"/>
    <path class="cls-3" d="M6.81,333.03c1.08.17,1.57.63,1.44,1.35-.05.27-.34.49-.52.73-.22-.19-.56-.33-.65-.57-.16-.47-.18-.98-.27-1.52Z"/>
    <path class="cls-3" d="M6.78,343.73c1.11.17,1.6.63,1.47,1.36-.05.27-.34.49-.52.73-.22-.19-.56-.33-.65-.57-.17-.43-.19-.92-.3-1.52Z"/>
    <path class="cls-3" d="M6.77,321.32c1.14.05,1.7.63,1.45,1.42-.07.22-.34.5-.54.52-.19.02-.51-.23-.59-.44-.16-.44-.21-.93-.32-1.5Z"/>
    <path class="cls-3" d="M6.24,348.17v2.14c-.75.04-1.02-.39-1.07-.94-.05-.65.3-1.04,1.07-1.2Z"/>
    <path class="cls-3" d="M6.27,325.57v2.05c-.73.17-.98-.28-1.09-.81-.13-.57.17-.9,1.09-1.24Z"/>
  </g>
  <path class="cls-9" d="M354.4,175.26v-.91l16.32-9.42v.91l-16.32,9.42Z"/>
  <path class="cls-9" d="M370.72,165.83v-.91l16.32,9.42v.91l-16.32-9.42Z"/>
  <path class="cls-9" d="M387.04,175.26v-.91l16.32-9.42v.91l-16.32,9.42Z"/>
  <text class="cls-7" transform="translate(414.96 179.91)"><tspan x="0" y="0">N</tspan></text>
  <path class="cls-9" d="M403.36,165.83v-.91l10.16,5.87-.39.68-9.77-5.64Z"/>
  <path class="cls-9" d="M426.21,171.49l-.39-.68,10.19-5.88v.91l-9.79,5.65Z"/>
  <path class="cls-9" d="M436,165.83v-.91l16.32,9.42v.91s-16.32-9.42-16.32-9.42Z"/>
  <path class="cls-9" d="M452.32,175.26v-.91s16.33-9.42,16.33-9.42v.91s-16.33,9.42-16.33,9.42Z"/>
  <path class="cls-9" d="M468.66,165.83v-.91s16.32,9.42,16.32,9.42v.91l-16.32-9.42Z"/>
  <text class="cls-7" transform="translate(496.57 159.57)"><tspan x="0" y="0">H</tspan></text>
  <text class="cls-7" transform="translate(496.57 170.49)"><tspan x="0" y="0">N</tspan></text>
  <path class="cls-9" d="M484.98,175.26v-.91l9.39-5.42.39.68-9.78,5.65Z"/>
  <path class="cls-9" d="M507.79,169.58l.39-.68,9.83,5.68-.78.45-9.44-5.45Z"/>
  <text class="cls-7" transform="translate(528.85 170.49)"><tspan x="0" y="0">O</tspan></text>
  <path class="cls-9" d="M516.12,174.16l-.39-.68,11.11-6.42.39.68-11.11,6.42Z"/>
  <path class="cls-9" d="M517.82,177.1l-.39-.68,11.11-6.42.39.68-11.11,6.42Z"/>
  <path class="cls-9" d="M517.23,175.03l.78-.45v18.85l-.78.45v-18.85Z"/>
  <path class="cls-9" d="M517.23,193.88l.78-.45,15.93,9.2v.45h-.79l-15.93-9.2Z"/>
  <path class="cls-9" d="M534.33,203.3l-.39-.23v-.45l15.93-9.2.79.45-16.32,9.42Z"/>
  <path class="cls-9" d="M533.55,203.75l.39-.68.39.23v18.39l-.78.45v-18.39Z"/>
  <text class="cls-7" transform="translate(503.08 217.6)"><tspan x="0" y="0">HO</tspan></text>
  <path class="cls-9" d="M533.15,203.07h.79l-.39.68-10.11,5.84-.39-.68,10.11-5.84Z"/>
  <text class="cls-7" transform="translate(545.17 179.91)"><tspan x="0" y="0">OH</tspan></text>
  <path class="cls-9" d="M550.65,193.88l-.79-.45v-11.3h.79v11.75Z"/>
  <text class="cls-7" transform="translate(561.49 208.18)"><tspan x="0" y="0">O</tspan></text>
  <path class="cls-9" d="M550.06,192.03l.39-.68,11.57,6.68-.39.68-11.57-6.68Z"/>
  <path class="cls-9" d="M548.37,194.97l.39-.68,11.57,6.68-.39.68-11.57-6.68Z"/>
  <path class="cls-9" d="M533.55,222.15l.78-.45,16.32,9.42-.79.45-16.32-9.42Z"/>
  <text class="cls-7" transform="translate(561.49 227.03)"><tspan x="0" y="0">O</tspan></text>
  <path class="cls-9" d="M548.76,230.7l-.39-.68,11.11-6.42.39.68-11.11,6.42Z"/>
  <path class="cls-9" d="M550.46,233.64l-.39-.68,11.11-6.42.39.68-11.11,6.42Z"/>
  <text class="cls-7" transform="translate(545.54 255.29)"><tspan x="0" y="0">NH</tspan></text>
  <path class="cls-9" d="M549.87,231.57l.79-.45v12.87h-.79v-12.41Z"/>
  <path class="cls-9" d="M543.33,253.74l.39.68-9.79,5.65v-.91l9.39-5.42Z"/>
  <path class="cls-9" d="M533.94,259.16v.91l-16.32-9.42v-.91l16.32,9.42Z"/>
  <path class="cls-9" d="M517.62,249.74v.91l-16.32,9.42v-.91l16.32-9.42Z"/>
  <path class="cls-9" d="M501.3,259.16v.91l-16.32-9.42v-.91l16.32,9.42Z"/>
  <text class="cls-7" transform="translate(463.93 264.72)"><tspan x="0" y="0">N</tspan></text>
  <path class="cls-9" d="M484.98,249.74v.91l-9.79,5.65-.39-.68,10.19-5.88Z"/>
  <path class="cls-9" d="M462.5,255.61l-.39.68-9.78-5.64v-.91s10.18,5.87,10.18,5.87Z"/>
  <path class="cls-9" d="M452.32,249.74v.91s-16.32,9.42-16.32,9.42v-.91l16.32-9.42Z"/>
  <path class="cls-9" d="M436,259.16v.91l-16.32-9.42v-.91l16.32,9.42Z"/>
  <path class="cls-9" d="M419.68,249.74v.91l-16.32,9.42v-.91l16.32-9.42Z"/>
  <text class="cls-7" transform="translate(318.45 170.49)"><tspan x="0" y="0">H</tspan></text>
  <text class="cls-8" transform="translate(327.9 173.36)"><tspan x="0" y="0">3</tspan></text>
  <text class="cls-7" transform="translate(333.36 170.49)"><tspan x="0" y="0">N</tspan></text>
  <path class="cls-9" d="M354.4,174.35v.91l-9.88-5.7.39-.68,9.49,5.48Z"/>
  <text class="cls-7" transform="translate(367.41 255.29)"><tspan x="0" y="0">H</tspan></text>
  <text class="cls-8" transform="translate(376.86 258.17)"><tspan x="0" y="0">2</tspan></text>
  <text class="cls-7" transform="translate(382.32 255.29)"><tspan x="0" y="0">N</tspan></text>
  <path class="cls-9" d="M403.36,259.16v.91l-9.88-5.7.39-.68,9.49,5.48Z"/>
  <path class="cls-9" d="M419.29,181.95h.78v11.93l-.78-.45v-11.48Z"/>
  <text class="cls-7" transform="translate(430.92 208.18)"><tspan x="0" y="0">O</tspan></text>
  <path class="cls-9" d="M419.49,192.03l.39-.68,11.57,6.68-.39.68-11.57-6.68Z"/>
  <path class="cls-9" d="M417.79,194.97l.39-.68,11.57,6.68-.39.68-11.57-6.68Z"/>
  <path class="cls-9" d="M419.29,193.42l.78.45-16.52,9.54-.39-.68,16.12-9.31Z"/>
  <path class="cls-9" d="M468.27,266.76h.78v11.93l-.78-.45v-11.48Z"/>
  <text class="cls-7" transform="translate(479.89 292.99)"><tspan x="0" y="0">O</tspan></text>
  <path class="cls-9" d="M468.46,276.84l.39-.68,11.57,6.68-.39.68-11.57-6.68Z"/>
  <path class="cls-9" d="M466.77,279.78l.39-.68,11.57,6.68-.39.68-11.57-6.68Z"/>
  <path class="cls-9" d="M468.27,278.23l.78.45-16.52,9.54-.39-.68,16.12-9.31Z"/>
  <path class="cls-11" d="M342.38,156.41c0,2.59,2.1,4.7,4.7,4.7s4.7-2.1,4.7-4.7h0c0-2.59-2.1-4.7-4.7-4.7s-4.7,2.1-4.7,4.7Z"/>
  <path class="cls-9" d="M344.49,156.06h5.15v.65h-5.15v-.65Z"/>
  <path class="cls-9" d="M347.39,153.82v5.15h-.65v-5.15h.65Z"/>
  <text class="cls-7" transform="translate(397.77 324.06)"><tspan x="0" y="0">FeatureID:</tspan></text>
  <text class="cls-7" transform="translate(463.24 324.06)"><tspan x="0" y="0">3779</tspan></text>
  <text class="cls-7" transform="translate(349.82 342.58)"><tspan x="0" y="0">Chemical</tspan></text>
  <text class="cls-7" transform="translate(408.01 342.58)"><tspan x="0" y="0">Formula:</tspan></text>
  <text class="cls-7" transform="translate(463.28 342.58)"><tspan x="0" y="0">C</tspan></text>
  <text class="cls-8" transform="translate(472.73 345.46)"><tspan x="0" y="0">26</tspan></text>
  <text class="cls-7" transform="translate(483.65 342.58)"><tspan x="0" y="0">H</tspan></text>
  <text class="cls-8" transform="translate(493.1 345.46)"><tspan x="0" y="0">51</tspan></text>
  <text class="cls-7" transform="translate(504.02 342.58)"><tspan x="0" y="0">N</tspan></text>
  <text class="cls-8" transform="translate(513.47 345.46)"><tspan x="0" y="0">6</tspan></text>
  <text class="cls-7" transform="translate(518.93 342.58)"><tspan x="0" y="0">O</tspan></text>
  <text class="cls-8" transform="translate(529.11 345.46)"><tspan x="0" y="0">7</tspan></text>
  <text class="cls-8" transform="translate(534.57 337.47)"><tspan x="0" y="0">+</tspan></text>
  <text class="cls-7" transform="translate(380.31 361.1)"><tspan x="0" y="0">Exact</tspan></text>
  <text class="cls-7" transform="translate(416.68 361.1)"><tspan x="0" y="0">Mass:</tspan></text>
  <text class="cls-7" transform="translate(455.22 361.1)"><tspan x="0" y="0">559.3814</tspan></text>
  <text class="cls-5" transform="translate(177.77 226.54)"><tspan x="0" y="0">Nd</tspan></text>
  <text class="cls-4" transform="translate(192.44 230.54) scale(.58)"><tspan x="0" y="0">2</tspan></text>
  <text class="cls-5" transform="translate(196.03 226.54)"><tspan x="0" y="0">O</tspan></text>
  <text class="cls-5" transform="translate(204.29 230.54) scale(.58)"><tspan x="0" y="0">3 </tspan></text>
  <text class="cls-5" transform="translate(209.37 226.54)"><tspan class="cls-1" x="0" y="0">g</tspan><tspan class="cls-12" x="6.64" y="0">r</tspan><tspan class="cls-10" x="10.44" y="0">o</tspan><tspan x="16.94" y="0">wn samples</tspan></text>
  <text class="cls-5" transform="translate(50.08 10.04)"><tspan x="0" y="0">A.</tspan></text>
  <text class="cls-5" transform="translate(50.38 226.63)"><tspan class="cls-6" x="0" y="0">B</tspan><tspan x="6.35" y="0">.</tspan></text>
  <text class="cls-5" transform="translate(326.35 132.33)"><tspan x="0" y="0">C.</tspan></text>
</svg>